<?xml version="1.0" encoding="utf-8"?>
<!-- Generator: Adobe Illustrator 23.0.1, SVG Export Plug-In . SVG Version: 6.00 Build 0)  -->
<svg version="1.1" xmlns="http://www.w3.org/2000/svg" xmlns:xlink="http://www.w3.org/1999/xlink" x="0px" y="0px"
	 viewBox="0 0 924.8 987.4" style="enable-background:new 0 0 924.8 987.4;" xml:space="preserve">
<style type="text/css">
	.st0{fill:none;stroke:#314584;stroke-miterlimit:10;stroke-dasharray:3;}
	.st1{fill:none;stroke:#267750;stroke-miterlimit:10;stroke-dasharray:3;}
	.st2{fill:#314584;}
	.st3{fill-rule:evenodd;clip-rule:evenodd;fill:#314584;}
	.st4{fill:#F7F5F5;}
	.st5{fill:#267750;}
	.st6{opacity:0.8;fill:#FFFFFF;stroke:#314584;stroke-width:1.5;stroke-miterlimit:10;enable-background:new    ;}
	.st7{opacity:0.3;}
	.st8{fill:#FFFFFF;stroke:#314584;stroke-miterlimit:10;}
	.st9{fill:#FFFFFF;}
	.st10{fill:none;stroke:#314584;stroke-miterlimit:10;}
	.st11{fill:none;stroke:#314584;stroke-linecap:round;stroke-linejoin:round;}
	.st12{fill:none;stroke:#314584;stroke-width:0.5;stroke-linecap:round;stroke-linejoin:round;}
	.st13{fill:none;stroke:#314584;stroke-width:2;stroke-linecap:round;stroke-linejoin:round;}
</style>
<g id="Layer_2">
	<image style="overflow:visible;" width="925" height="988" xlink:href="DF34E4A.png"  transform="matrix(1 0 0 1 0 -0.6)">
	</image>
</g>
<g id="Layer_1">
	<g>
		<g>
			<path class="st2" d="M82.9,254.7c0-1.7-1.2-3.2-2.6-3.4l-1.2-0.2c-1.4-0.2-3.7-0.2-5.1,0l-1.2,0.2c-1.4,0.2-2.6,1.7-2.6,3.4v1.1
				c0,4.6,0.3,8.2,0.3,8.2H72l0.6-9.1l0.4,6.6l0.4,14.9h2.3l0.8-12l0.1-0.4l0.8,12.4h2.3l0.4-14.9l0.4-6.6L81,264h1.6
				c0,0,0.3-3.6,0.3-8.2V254.7z"/>
		</g>
		<path class="st2" d="M78.9,248.1c0,1.3-1.1,2.4-2.4,2.4s-2.4-1.1-2.4-2.4s1.1-2.4,2.4-2.4S78.9,246.8,78.9,248.1"/>
	</g>
	<g>
		<path class="st3" d="M217.5,276.5h-11.8v-11.8h-11.8v11.8H182v-17.8c-1.6,0-3-1.3-3-3l20.7-17.8l8.9,7.6v-4.7h5.9v9.7l5.9,5.1
			c0,1.6-1.3,3-3,3L217.5,276.5z"/>
	</g>
	<g>
		<g>
			<path class="st3" d="M318.8,272.3v-13h-14.3v13h-11.8v-19.5h-0.6c-1.4,0-2.5-1-2.6-2.4l22.1-19l10.4,8.9v-5.8h5.3v10.4l6.5,5.6
				c-0.1,1.3-1.3,2.4-2.6,2.4h-0.6v19.5L318.8,272.3L318.8,272.3z"/>
			<g>
				<path class="st4" d="M311.6,232.2l8.9,7.7l2.1,1.8V239v-3.9h4v9.4v0.6l0.4,0.4l6,5.1c-0.2,0.9-1,1.5-1.9,1.5h-1.2v1.2v18.3
					h-10.5v-11.8v-1.3h-1.3h-13h-1.3v1.3v11.8h-10.5v-18.3V252H292c-0.9,0-1.7-0.6-1.9-1.5L311.6,232.2 M311.6,230.6l-22.8,19.5
					c0,1.8,1.5,3.3,3.3,3.3v19.5h13v-13h13v13h13v-19.5c1.8,0,3.3-1.5,3.3-3.3l-6.5-5.6v-10.7h-6.5v5.1L311.6,230.6L311.6,230.6z"/>
			</g>
		</g>
		<g>
			<path class="st3" d="M388.6,272.3v-13h-14.3v13h-11.8v-19.5h-0.6c-1.4,0-2.5-1-2.6-2.4l22.1-19l10.4,8.9v-5.8h5.3v10.4l6.5,5.6
				c-0.1,1.3-1.3,2.4-2.6,2.4h-0.6v19.5L388.6,272.3L388.6,272.3z"/>
			<g>
				<path class="st4" d="M381.4,232.2l8.9,7.7l2.1,1.8V239v-3.9h4v9.4v0.6l0.4,0.4l6,5.1c-0.2,0.9-1,1.5-1.9,1.5h-1.2v1.2v18.3
					h-10.5v-11.8v-1.3h-1.3h-13h-1.3v1.3v11.8h-10.5v-18.3V252h-1.3c-0.9,0-1.7-0.6-1.9-1.5L381.4,232.2 M381.4,230.6l-22.8,19.5
					c0,1.8,1.5,3.3,3.3,3.3v19.5h13v-13h13v13h13v-19.5c1.8,0,3.3-1.5,3.3-3.3l-6.5-5.6v-10.7h-6.5v5.1L381.4,230.6L381.4,230.6z"/>
			</g>
		</g>
		<g>
			<path class="st3" d="M352.9,281v-13.9h-15.2V281H325v-20.9h-0.6c-1.5,0-2.7-1.1-2.8-2.6l23.7-20.3l11.1,9.5v-6.2h5.7v11.1
				l6.9,5.9c-0.1,1.4-1.4,2.6-2.8,2.6h-0.6V281H352.9z"/>
			<path class="st4" d="M345.3,238.1l9.6,8.2l2.1,1.8v-2.7v-4.2h4.5v10.2v0.6l0.4,0.4l6.5,5.5c-0.2,1-1.1,1.7-2.2,1.7H365v1.2v19.6
				h-11.4v-12.7v-1.3h-1.3h-13.9h-1.3v1.3v12.7h-11.4v-19.6v-1.3h-1.3c-1,0-1.9-0.7-2.2-1.7L345.3,238.1 M345.3,236.4L321,257.3
				c0,1.9,1.6,3.5,3.5,3.5v20.9h13.9v-13.9h13.9v13.9h13.9v-20.9c1.9,0,3.5-1.6,3.5-3.5l-7-6v-11.4h-7v5.5L345.3,236.4L345.3,236.4z
				"/>
		</g>
	</g>
	<g>
		<path class="st2" d="M696.8,224.8l1-1.8l-1.6-0.1c0,0-0.2,0.1-0.2-0.2s-0.1-1.1-0.1-1.1s0.2-0.6,0.4-0.9c0.2-0.3,0.3-0.4,0.3-0.4
			s-0.1-3.1-0.1-3.6c-0.1-0.5,0.1-0.5,0.1-0.5l0.9-6.7c0,0,0.4-3.1,0.5-3.8c0.1-0.6,0.1-3.9,0.1-3.9l-1.5-0.1c0,0-0.7-0.2-1.9,0.1
			C693.4,202,674,206,674,206s-14,1.8-15,1.8c-1,0.1-5.8,0.1-5.8,0.1s0.5-0.7,0.5-1.1c0-0.4-0.1-0.7-0.1-0.7l-6,0.2l-0.3-0.2
			c0,0-2.9,0.4-3.3,0.1c-0.3-0.3-0.5-0.7-0.5-0.7l-2.8-0.2c0,0-0.1-0.6-0.1-1c0-0.5,0.3-1.1-0.2-1.7c-0.5-0.6-1-1-1.3-1.1
			s-1.4-0.1-1.4-0.1l-1.3,0.2l0.5,2c0,0-0.8-0.4-1.9-0.7l-1.1-0.3c0,0-0.8-0.5-1.1-0.6s-1.3-0.5-1.8-0.4s-1,0.1-1.3,0.4
			c-0.3,0.3-0.6,1.3-0.6,1.3l-4.4,19.5l-0.5,0.1c0,0-0.1-0.2-1,0.5s-1.9,1.8-1.9,1.8l-1.9,1.8l-0.7,0.7c0,0-0.1-0.4-0.5-0.1
			c-0.4,0.3-0.8,0.3-0.9,0.7c-0.1,0.3-0.1,0.6-0.2,0.7c0.2,0.1,0.4,0.2,0.5,0.2c0.3,0,1.2,0.4,1.6,0.7l-0.4,0.4
			c0,0.2-0.4,0.4-0.4,0.4l-1.9,1.8c0,0-1.2,0.4-1.7,0.6c-0.5,0.2-2.1,0.7-2.3,0.8s-2.6,1.1-2.6,1.1s0.1,0.2-0.3,0.1
			c-0.4-0.1-0.5-0.1-0.3-0.3c0.1-0.2,0.4-0.2,0.5-0.5s-0.1-0.5-0.1-0.5s-0.3-0.5-0.9-0.6c-0.5-0.1-0.5-0.1-0.8-0.1s-8.8-0.5-9.6-0.6
			s-5.4-0.4-6-0.3c-0.6,0.1-10.5-0.1-10.5-0.1l0.1,0.8l0.1,1c0,0,0.1,0.9,0.1,1.1c-0.1,0.2-0.1,3-0.1,3s-0.2,0.9-0.2,1.3
			c0,0.4,0.2,0.3,0.3,1s0.4,2.4,0.4,2.4l-0.1,1c0,0,0.1,1.1,0.3,1.7c0.2,0.5,0.6,1.7,0.6,2.2c0.1,0.5,0.2,2.1,0.1,2.6
			c-0.1,0.6,0.1,0.5-0.2,0.7s-0.1-0.3-0.4,0.1c-0.3,0.4-0.3,1-0.3,1s-0.3,0.1-0.3,0.7v1.5l0.5,1.6c0,0-0.2,0.8,0.1,1.1
			c0.2,0.3,0.4,0.7,0.4,0.7l0.3-0.1l0.2,1.3c0,0,0,0.6,0.2,0.9s0.5,0.7,0.4,1.1s-0.3,0.4-0.4,0.6c-0.1,0.2-0.1,1.6-0.1,1.6l-0.1,1.3
			c0,0-0.3-0.1,0.3,0.5c0.6,0.5-0.1,0.7,0.8,0.4c0.9-0.3,1-0.5,1.3-0.5c0.3-0.1,0.8-0.1,1.1,0.1s0.3,0.9,0.3,0.9l0.4,0.8
			c0,0-0.1,0.3,0.4,0.7c0.5,0.5,2.1,2.7,2.1,2.7s0.8,0.5,1,0.9c0.2,0.3,0.3,0.8,0.3,0.8l-0.1,1.5c0,0,0.1,1.4,0.3,1.7
			c0.2,0.2,0.3,0.3,0.6,0.6c0.2,0.3,0.3,0.3,0.3,0.7c0,0.4,0.1,1,0.1,1s-0.1,0.1,0.1,0.6c0.2,0.5,0.4,1,0.4,1l0.5,0.9v0.7
			c0,0,0,0.1,0.2,0.3c0.2,0.3,0,0.6,0.5,0.8s0.4,0.3,1,0.2c0.6-0.1,0.6-0.3,1-0.3s0.1,0,0.9-0.1c0.7-0.1,0.9-0.2,1.1-0.3
			c0.2-0.1,0.3-0.1,0.5-0.1c0.2,0.1,0.1,0.2,0.1,0.5s-0.3,0.3-0.3,0.9s-0.1,0.7,0.1,1c0.2,0.3,0.8,0.6,0.8,0.9s0.3,0.3,0,0.7
			s-0.3,0.2-0.7,0.7s-2.3,5.7-2.3,5.7s0,0.5,0.1,1s0.5,1.1,0.5,1.3c-0.1,0.2-0.2,1.4-0.2,1.5h0.1c0.2,0,0.3,0,0.4,0h0.2
			c0.2,0,0.4-0.1,0.7-0.1c0.7-0.1,1.1-0.2,1.6-0.2c0.2,0,0.3,0,0.4,0c0.1,0,0.2,0,0.4-0.1c0.1,0,0.1,0,0.2-0.1
			c0.4-0.2,0.9,0,1.6-0.1c0.3,0,0.7-0.1,1.2-0.2c0.6-0.2,1.3-0.4,2-0.4c0.7-0.1,0.5-0.1,0.8-0.1l-1.8-11.3l0.2-1.9l0.1-4.4
			c0,0,0.5-0.5,0.6-0.7s0.4-1.8,0.4-1.8l0.3-1.5c0,0,0.6,0.3,0.9,0.3s0.5-0.1,0.7-0.2c0.3-0.1,0.5-0.1,0.6,0.1s0.2,1.1,0.2,1.1
			l0.6,1c0,0,0.3,0.3,0.6,0.2c0.2-0.1,0.5-0.5,0.5-0.5s-0.3-0.5-0.2-0.7s0.5-1,0.7-0.9s0.3,0.7,0.3,0.7s-0.1,0.2,0.2,0.3
			c0.3,0.1,0.3,0.5,0.5,0.8s1.2,0.8,1.2,0.8l0.7,0.6l0.7-0.2l1-0.8c0,0-0.3-0.3-0.2-0.6c0.1-0.2,0.6-0.6,0.6-0.6h0.9h1
			c0,0-0.1-0.5,0.2-0.8s0.7-0.4,1-0.5c0.2-0.1,0.7-0.2,0.7-0.2l0.1-0.6c0,0-0.4-0.3-0.6-0.5c-0.2-0.2-0.3-0.1-0.3-0.5
			c0.1-0.5,0-0.7,0-0.7l-0.3-1.1c0,0-0.3-0.7-0.2-1c0.1-0.2,0.4-1,0.4-1l0.5-0.5l-0.4-0.6l1.2-1.1l-0.9-0.5l0.5-0.6
			c0,0-0.3-0.2-0.3-0.6c-0.1-0.4-0.1-1.8-0.1-1.8l-0.2-1.9c0,0-0.3-0.3-0.2-0.6c0.1-0.3,0.1-0.5,0.5-0.6c0.3-0.1,0.4-0.3,0.7-0.3
			l0.8-0.4c0.4,0.4,1,1,1.3,1.3s1.4,0.3,2.1,0.2c0.8-0.1,1.1-1.4,1.2-1.7c0-0.1,0.1-0.8,0.2-1.2c0.1-0.3-0.1-2.2-0.1-2.8
			c0-0.4,0.1-0.7,0.3-1s0.5-0.7,0.9-0.7c0.3-0.1,1.7,0.2,1.9,0.3s2.3,0.8,2.9,1.1c0.6,0.3,1.1,0.8,1.3,1.1c0.3,0.3,0.5,0.7,0.6,1.1
			c0.1,0.4,0.1,1,0,1.4s-0.5,1.3-0.7,1.5c-0.1,0.2-0.7,0.9-1.4,1.7v0.1c0,0,0.9,0,1.2,0.2s1.6,0.7,1.6,0.7l1.3,1.1l0.5-0.5l1.1,1
			c0,0,0.2,0.1,0.5,0s0.8-0.9,0.8-0.9l0.5,0.9l1.7,0.6c0,0,0.7,0.7,1.4,0.4s1.8-1.2,1.8-1.2l1.8,0.4l-0.2-1.6l0.6-1.1l0.6-1.4
			l0.7,0.7l0.5-0.3c0,0,0.7,0.6,1.1,0.9s1.3,0.7,1.3,0.7l4.9,1.8c0,0-0.2-0.8,0-1.3s0.4-1,0.4-1l1-2.2c0,0-0.1-0.8,0.1-1.2
			c0.2-0.4,0.7-1.2,0.7-1.5c0.1-0.3,0.1-1.2,0.1-1.2l-0.1-0.7l0.5-0.3l-0.5-3.5h3.8l0.3,0.5l7.2-0.1l0.3,0.3l3.8-0.3l14.3,5.6
			l0.3-1.6l-1.1-0.6l9.5-15.7l0.9-1.7c0,0-0.3-0.1,0.6-0.7c0.9-0.6,2.1-1.5,2.1-1.5s1.4-0.6,1.6-0.9c0.2-0.3,1.9-2.5,1.9-2.5
			L696.8,224.8z"/>
	</g>
	<g>
		<g>
			<path class="st2" d="M763.6,301.5l3.9-8.3l-0.5-2.8l3.3-2.4v-1.6l1,0.1l2.6-3.4l3.5-6.9l1.4-0.2l1.5-3l-1.1-0.9l-0.4-4.2
				l-1.4,0.2l-0.5-7l-2.9-2.3l-1.2-3.1l0.5-1l-1.6-1.3l0.4-1.8l1.3-0.4l-0.8-8.5l-2.9-5.1l-5.8-4l-5.1-7.7l-1.2-4.7l0.4-1.9h0.9
				l0.4-1.4l1.7,1.1l0.2-1.7l2.5-0.5l-0.5-5.4l1-2.5l-0.8-2.5l1.8-1.4l2.5-0.1l1.2-3.8l-1.2-0.8l-2.4,2.6l-0.4-3.4l-3-4.4l1.4-1.1
				l-0.3-1.4l-4.6-4.1l-8-10.4l0.4-2.5L749,170l-1-0.5l-0.7,1l-2.7-4.6l0.4-0.8l1.2,1.8h1.4l1.2-1.2l2.3-0.2l-0.4-4.5l-1.1-1.5
				l2.5-2.3l-0.6-5.2l1.6-1.4l-0.4-1.3l2.6-1l0.3-2.8l2.8,2.1l6.3-0.5l2.8-1.4l2.5,1.2l1.4-5.8l6.5-0.5l0.9-1.5l-1.7-3l2.7,0.8
				l2.5,0.3l2.6-2.2l1.8,1.8l0.3,1.6l1,0.2l1.6-2.4h0.9l1.7,2.7l1.9,1l-0.6,4.6l-1.9,2.3l1.4,3.1l1,1l1.6-0.9l1.4,1l1.9-2.3l5.5,0.7
				v2l-0.9,1l0.9,2.1l0.3,1.7l1.5,1.8l-1.6,3l-0.1,3.7l-2.8,3.3l1.9,1.5v4.4l-2.5,2.8l-0.9,5l2.8,2l3.9-4.2l2.5-0.9l0.2-1.5l2-0.5
				l1-2.6l1.8,0.6l2.7-2.9h1.2l2,2.3l4.7,1.6v1.9l1.4,0.5v-1.2l2.4-1.2l2.8-0.1l2.5-4.6l6.2-2.4l4.3,1.9l1.6-1l4.5,7.6l8.2,7.6
				l-1.1,6l0.4,8.3l4,4.5l0.4,2.1l5.5,1.5l-0.8,1.5l0.8,2l3.6,2l-0.7,4.1l-1.7,1l1.6,1.2l-1.7,2.1l2.1,2.4l-0.8,0.6l-0.8,2.6
				l0.3,3.9l-1.6,2l-3,1l-2.2,2.2l-1.7-2.9l-4.1-0.4l-3.5,1.2l-3.2-1l-4.6,1.3l-1.4-0.8l-2.3-0.2l-0.1-0.9l-9.9,2.4l-1.8,1.4
				l-0.6,2.9l-1.8,1.4l-0.8,2.4l-2.7,1.8l0.8,1l-4.1,0.6l0.3,4.9l2.7,3.9l-0.8,1.3l0.5,4.1l1.9,0.9l2.2,3l-1.3,3.8l0.4,1.9l-0.7-1
				l-0.5-0.6l-0.3-0.7l-0.4-0.3l-0.6,0.3l-0.4,1h-0.6l-0.3-0.3l-1.4-0.3l-1.5-0.3l-0.3-0.5v-0.4l0.3-0.3l0.3-0.3l0.4-0.3l-0.2-0.3
				l-0.8,0.3h-0.6l-0.3-0.4l-0.3-0.3l-1.3-1.3l-1-0.6l-1-0.7l-0.3-0.4v-0.5l-0.6-0.5l-0.6-0.3l-0.6-0.6l-2.3-0.3l-0.3-0.1l-0.3,0.1
				l-0.6,0.3l-0.6,0.3l-0.7,0.3l-0.8,0.3l-0.4,0.4H807l-0.7-0.6L805,260l-1.6-0.6l-1.4,0.1l-2,0.5l-0.7,0.1l-0.3-0.7v-1l0.3-0.6
				l-0.3-0.5v-0.9l0.4-0.5l-0.1-0.9v-1.3l-0.4-0.5l0.1-0.7l0.3-0.5l0.1-0.9l-0.3-0.8l0.2-0.6l0.8-0.5l0.2-0.5l-0.3-0.5l-0.2-0.7
				l-1.4-0.3l-1.7-0.4l-1.5-0.4l-0.6-0.3l-0.6,0.3l-1.6,0.2l-2.6,0.3l-1.3,0.3l-1,0.3l-1,0.3l-0.6,0.3l-0.3,0.4l-0.6,0.6l-0.3,0.6
				l-0.3,0.4v0.5l0.4,0.4l0.2,0.4l0.4,0.5l0.3,0.5l0.3,0.5l0.5,0.7l-0.2,0.8l-0.6,1l-0.4,1.1l-0.3,0.9l-0.4,1v2.4l0.1,2.3l0.3,1.5v1
				l0.2,1.1l-0.2,0.8l-0.6,1.3l-0.4,0.6l-0.9,0.9l-0.3,0.7l-0.4,0.6l-0.4,1l0.1,1.3l-0.5,0.5l-1.1,1.7l-0.6,1.2l-0.7,1.4l-0.3,1
				l-0.6,1l-0.2,0.4l0.2,0.6l0.2,0.6l-0.3,0.3l-0.5,0.1l-0.3,3.1l0.1,0.8l0.1,0.5l-0.3,0.2l-0.7,0.3l-0.3,0.5l-0.4,1l-0.3,0.6
				l-0.6,0.9l-0.6,0.9l-0.3,0.6l-0.9,1v0.8l0.2,0.5l0.3,0.9l-1.5,0.1v1.4l0.3,0.5l0.3,0.4l-0.3,0.7l-0.3,0.7l-0.3,0.4l0.1,0.6
				l0.5,0.4l-0.2,2.2l-0.4,2.2l0.1,1l0.6,1l0.3,0.9l0.4,0.6l0.3,0.7l0.3,0.6l0.4,0.4l0.1,0.4l-1.1,0.7v0.8l0.3,0.5v0.5l0.4,0.4
				l0.3-0.3h0.5l0.4,0.3l0.5,0.5h0.5l0.9-0.4l0.7-0.7l0.3-0.4l0.9,0.1l0.4,0.2l0.1-0.5l0.4-0.4l2.4,0.1l0.7,0.8l0.5,1.1l0.4,1.4v1
				l0.1,1.8l0.1,1.8l0.1,0.7l0.3,1.6l0.1,0.5l0.5,0.4l0.6,0.7l0.4,0.7l0.3,0.6l0.3,0.6l0.1,0.6h0.5l0.2-0.9l0.3-0.9l0.3,0.5l0.5,0.7
				l0.3,1l0.3,1.5l0.3,0.6l0.1,0.7l0.3,1l0.1,0.6l0.2,1l0.3,1.3l0.1,0.5l0.3,1.1l0.3,1.3l0.1,0.5l0.3,1l0.3,1.2l0.3,1.6l0.4,1
				l0.3,0.6l0.4,0.7l0.3,0.7l0.4,0.6l-0.2,0.3l-0.5-0.3h-0.4l-0.6,0.3l-0.5,0.3l0.1,0.4l1.1,0.3l0.3,0.3l0.7-0.3l0.2-0.4l0.5-0.5
				l0.5,0.6l0.6,0.7l0.6,1l0.9,1l1,0.6l1.2,0.7l0.8,0.7l1,0.3l1.6-0.2l1.4-0.1l0.9,0.2l1.1-0.2l0.7-0.1l1.6,0.3l0.6,0.3l0.4,0.7
				l0.6,0.7l0.6,0.7l0.6,0.9l1,1.3l0.4,0.7l0.8,0.8l0.8,0.9l0.9,0.9l1.1,0.8l0.8,0.8l0.5,0.3l-4,7.6l-2.2-0.5l-1.6-2.5l-4.5,2
				l-0.3,1.4l-1.7,1.5l-2.4-2.8l2.2-2.6l-0.1-2l-0.9-0.7l0.7-1.4l-2-0.7L799,360l-1.8-4.5l-1.1,1.1l-4.5-1.5l-0.8-1.9l-2.1-0.6
				l-0.7,3.6l-0.6-1.1l-0.3,0.3h-0.4l-0.3-0.5l-0.4-0.5l-0.3-0.4l-0.1-0.6l-0.8-0.7l-0.7-0.5l-0.9-0.7l-0.4-0.5l-0.7-0.4l-0.5-0.7
				l-0.1-0.8l-0.2-1l-0.3-0.6l0.4-0.5l0.7-0.6l0.2-0.3L781,346l-0.1-0.8l-0.5,0.6l-0.2-0.1L779,345l-0.4-0.6l-0.3-0.6l-0.4-0.7
				l0.2-1.2l0.3-0.8l-0.1-0.3l-0.4,0.6l-0.4,1l-0.5,0.8l-0.3-0.1l-0.5-0.5l-0.7-0.6l-0.3-1.1l-0.3-1.1l-0.3-1l-0.3-0.7l-0.5-0.5
				l-0.8-0.4l-0.3-0.7l-0.4-0.5l-0.3-0.1l-0.4,0.3c-0.1,0.3-0.3,0.6-0.4,0.9c-0.1-0.1-0.3-0.2-0.4-0.3c-0.1-0.1-0.3-0.2-0.4-0.4
				v-0.5l0.3-0.5l0.3-0.5l-0.3-0.5l-1-0.9l-0.9-1.3l-0.2-0.3l-0.6-0.2l-1.4,0.3l-0.3-0.5v-2.2l-0.3-0.6l-0.3-0.7l-0.3-0.3l-0.5,0.1
				l-0.4,0.4l-0.2-1l0.4-0.5l-0.1-0.4l-0.9,0.2L763,327l-1.2,0.4l-0.3,0.9l-0.2,1.7l-0.5,0.1l-0.3-0.3l-0.5-0.1l-0.1,0.5l0.6,0.5
				l0.7,0.7l-0.1,0.9l-0.4,0.4l0.1,0.4l0.3,0.7l-0.3,1.3l-0.7,0.4l-0.8,0.3l-0.3-0.5l0.1-2.8l-0.1-0.6l0.3-0.8l0.3-0.5l-0.2-0.7
				v-1.3L759,328l-0.1-0.9l-0.5-1.5l-0.1-1.2l0.2-2l0.3-1.7l0.4-1.6l0.1-1.9l0.7-0.4l-0.2-0.6l-1-0.2v-1.6l0.6,0.3l0.2,0.2l0.1-0.8
				l0.6-0.4l0.4-0.3l0.4-1.9l0.3-1.3l0.8-0.9l0.9-0.9l0.4-0.2l-0.3-0.5l-0.4-0.5l0.2-3.4l0.6-0.7l0.5-0.8L763.6,301.5z"/>
		</g>
		<g>
			<polygon class="st2" points="784.4,308.2 784.4,310.2 785.6,309.9 786.2,309.5 786.5,308.8 786.5,308.4 784.7,308 			"/>
		</g>
		<g>
			<polygon class="st2" points="785,304.8 785,305.6 785.6,305.9 786.5,306 786.5,305.2 785.5,305 			"/>
		</g>
	</g>
	<g>
		<g>
			<polygon class="st2" points="535.6,224.8 509.1,224.8 509.1,241.1 520.5,241.1 520.5,234 535.6,230.5 			"/>
		</g>
		<g>
			<path class="st2" d="M523.8,236.6v52.1h24.7v-57.9L523.8,236.6z M533.9,277.5h-4.4v-4.4h4.4V277.5z M533.9,267.9h-4.4v-4.4h4.4
				V267.9z M533.9,258.2h-4.4v-4.4h4.4V258.2z M533.9,248.6h-4.4v-4.4h4.4V248.6z M542.7,267.9h-4.4v-4.4h4.4V267.9z M542.7,258.2
				h-4.4v-4.4h4.4V258.2z M542.7,248.6h-4.4v-4.4h4.4V248.6z"/>
		</g>
		<g>
			<path class="st2" d="M495.8,241.1h10v-17.3l-12.2-12.2h-20.5V228h22.6L495.8,241.1z M483.1,222.4h-4.4V218h4.4V222.4z
				 M491.9,222.4h-4.4V218h4.4V222.4z"/>
		</g>
		<g>
			<path class="st2" d="M467.8,288.8h24.7v-57.4h-24.7V288.8z M482.3,238.6h4.4v4.4h-4.4V238.6z M482.3,248.2h4.4v4.4h-4.4V248.2z
				 M482.3,257.8h4.4v4.4h-4.4V257.8z M482.3,267.4h4.4v4.4h-4.4V267.4z M473.5,238.6h4.4v4.4h-4.4V238.6z M473.5,248.2h4.4v4.4
				h-4.4V248.2z M473.5,257.8h4.4v4.4h-4.4V257.8z M473.5,267.4h4.4v4.4h-4.4V267.4z"/>
		</g>
		<g>
			<path class="st2" d="M495.8,288.8h24.7v-44.4h-24.7V288.8z M510.3,251.7h4.4v4.4h-4.4L510.3,251.7L510.3,251.7z M510.3,261.3h4.4
				v4.4h-4.4L510.3,261.3L510.3,261.3z M501.5,251.7h4.4v4.4h-4.4V251.7z M501.5,261.3h4.4v4.4h-4.4V261.3z M501.5,270.9h4.4v4.4
				h-4.4V270.9z"/>
		</g>
	</g>
	<g>
		<g>
			<rect x="112.6" y="262.8" class="st5" width="3" height="0.1"/>
			<rect x="118.6" y="262.8" class="st5" width="3" height="0.1"/>
			<rect x="124.6" y="262.8" class="st5" width="3" height="0.1"/>
			<rect x="130.6" y="262.8" class="st5" width="3" height="0.1"/>
			<rect x="136.6" y="262.8" class="st5" width="3" height="0.1"/>
			<rect x="142.6" y="262.8" class="st5" width="3" height="0.1"/>
			<rect x="148.6" y="262.8" class="st5" width="3" height="0.1"/>
			<rect x="154.6" y="262.8" class="st5" width="3" height="0.1"/>
			<rect x="160.6" y="262.8" class="st5" width="3" height="0.1"/>
			<rect x="166.6" y="262.8" class="st5" width="3" height="0.1"/>
			<rect x="172.6" y="262.8" class="st5" width="3" height="0.1"/>
			<rect x="178.6" y="262.8" class="st5" width="3" height="0.2"/>
			<rect x="184.6" y="262.8" class="st5" width="3" height="0.2"/>
			<rect x="190.6" y="262.8" class="st5" width="3" height="0.2"/>
			<rect x="196.6" y="262.8" class="st5" width="3" height="0.2"/>
			<rect x="202.6" y="262.7" class="st5" width="3" height="0.2"/>
			<rect x="208.6" y="262.7" class="st5" width="3" height="0.2"/>
			<rect x="214.6" y="262.7" class="st5" width="3" height="0.2"/>
			<rect x="220.6" y="262.7" class="st5" width="3" height="0.2"/>
			<rect x="226.6" y="262.7" class="st5" width="3" height="0.2"/>
			<rect x="232.6" y="262.7" class="st5" width="3" height="0.2"/>
			<rect x="238.6" y="262.7" class="st5" width="3" height="0.2"/>
			<rect x="244.6" y="262.7" class="st5" width="3" height="0.2"/>
			<rect x="250.6" y="262.7" class="st5" width="3" height="0.3"/>
			<rect x="256.6" y="262.7" class="st5" width="3" height="0.3"/>
			<rect x="262.6" y="262.7" class="st5" width="3" height="0.3"/>
			<rect x="268.6" y="262.7" class="st5" width="3" height="0.3"/>
			<rect x="274.6" y="262.7" class="st5" width="3" height="0.3"/>
			<rect x="280.6" y="262.7" class="st5" width="3" height="0.3"/>
			<rect x="286.6" y="262.7" class="st5" width="3" height="0.3"/>
			<rect x="292.6" y="262.7" class="st5" width="3" height="0.3"/>
			<rect x="298.6" y="262.7" class="st5" width="3" height="0.3"/>
			<rect x="304.6" y="262.7" class="st5" width="3" height="0.3"/>
			<rect x="310.6" y="262.7" class="st5" width="3" height="0.3"/>
			<rect x="316.6" y="262.7" class="st5" width="3" height="0.4"/>
			<rect x="322.6" y="262.7" class="st5" width="3" height="0.4"/>
			<rect x="328.6" y="262.7" class="st5" width="3" height="0.4"/>
			<rect x="334.6" y="262.7" class="st5" width="3" height="0.4"/>
			<rect x="340.6" y="262.6" class="st5" width="3" height="0.4"/>
			<rect x="346.6" y="262.6" class="st5" width="3" height="0.4"/>
			<rect x="352.6" y="262.6" class="st5" width="3" height="0.4"/>
			<rect x="358.6" y="262.6" class="st5" width="3" height="0.4"/>
			<rect x="364.6" y="262.6" class="st5" width="3" height="0.4"/>
			<rect x="370.6" y="262.6" class="st5" width="3" height="0.4"/>
			<rect x="376.6" y="262.6" class="st5" width="3" height="0.4"/>
			<rect x="382.6" y="262.6" class="st5" width="3" height="0.5"/>
			<rect x="388.6" y="262.6" class="st5" width="3" height="0.5"/>
			<rect x="394.6" y="262.6" class="st5" width="3" height="0.5"/>
			<rect x="400.6" y="262.6" class="st5" width="3" height="0.5"/>
			<rect x="406.6" y="262.6" class="st5" width="3" height="0.5"/>
			<rect x="412.6" y="262.6" class="st5" width="3" height="0.5"/>
			<rect x="418.6" y="262.6" class="st5" width="3" height="0.5"/>
			<rect x="424.6" y="262.6" class="st5" width="3" height="0.5"/>
			<rect x="430.6" y="262.6" class="st5" width="3" height="0.5"/>
			<rect x="436.6" y="262.6" class="st5" width="3" height="0.5"/>
			<rect x="442.6" y="262.6" class="st5" width="3" height="0.5"/>
			<rect x="448.6" y="262.6" class="st5" width="3" height="0.5"/>
			<rect x="454.6" y="262.6" class="st5" width="3" height="0.6"/>
			<rect x="460.6" y="262.6" class="st5" width="3" height="0.6"/>
			<rect x="466.6" y="262.6" class="st5" width="3" height="0.6"/>
			<rect x="472.6" y="262.6" class="st5" width="3" height="0.6"/>
			<rect x="478.6" y="262.5" class="st5" width="3" height="0.6"/>
			<rect x="484.6" y="262.5" class="st5" width="3" height="0.6"/>
			<rect x="490.6" y="262.5" class="st5" width="3" height="0.6"/>
			<rect x="496.6" y="262.5" class="st5" width="3" height="0.6"/>
			<rect x="502.6" y="262.5" class="st5" width="3" height="0.6"/>
			<rect x="508.6" y="262.5" class="st5" width="3" height="0.6"/>
			<rect x="514.6" y="262.5" class="st5" width="3" height="0.6"/>
			<rect x="520.6" y="262.5" class="st5" width="3" height="0.7"/>
			<rect x="526.6" y="262.5" class="st5" width="3" height="0.7"/>
			<rect x="532.6" y="262.5" class="st5" width="3" height="0.7"/>
			<rect x="538.6" y="262.5" class="st5" width="3" height="0.7"/>
			<rect x="544.6" y="262.5" class="st5" width="3" height="0.7"/>
			<rect x="550.6" y="262.5" class="st5" width="3" height="0.7"/>
			<rect x="556.6" y="262.5" class="st5" width="3" height="0.7"/>
			<rect x="562.6" y="262.5" class="st5" width="3" height="0.7"/>
			<rect x="568.6" y="262.5" class="st5" width="3" height="0.7"/>
			<rect x="574.6" y="262.5" class="st5" width="3" height="0.7"/>
			<rect x="580.6" y="262.5" class="st5" width="3" height="0.7"/>
			<rect x="586.6" y="262.5" class="st5" width="3" height="0.8"/>
			<rect x="592.6" y="262.5" class="st5" width="3" height="0.8"/>
			<rect x="598.6" y="262.5" class="st5" width="3" height="0.8"/>
			<rect x="604.6" y="262.5" class="st5" width="3" height="0.8"/>
			<rect x="610.6" y="262.4" class="st5" width="3" height="0.8"/>
			<rect x="616.6" y="262.4" class="st5" width="3" height="0.8"/>
			<rect x="622.6" y="262.4" class="st5" width="3" height="0.8"/>
			<rect x="628.6" y="262.4" class="st5" width="3" height="0.8"/>
			<rect x="634.6" y="262.4" class="st5" width="3" height="0.8"/>
			<rect x="640.6" y="262.4" class="st5" width="3" height="0.8"/>
			<rect x="646.6" y="262.4" class="st5" width="3" height="0.8"/>
			<rect x="652.6" y="262.4" class="st5" width="3" height="0.8"/>
			<rect x="658.6" y="262.4" class="st5" width="3" height="0.9"/>
			<rect x="664.6" y="262.4" class="st5" width="3" height="0.9"/>
			<rect x="670.6" y="262.4" class="st5" width="3" height="0.9"/>
			<rect x="676.6" y="262.4" class="st5" width="3" height="0.9"/>
			<rect x="682.6" y="262.4" class="st5" width="3" height="0.9"/>
			<rect x="688.6" y="262.4" class="st5" width="3" height="0.9"/>
			<rect x="694.6" y="262.4" class="st5" width="3" height="0.9"/>
			<rect x="700.6" y="262.4" class="st5" width="3" height="0.9"/>
			<rect x="706.6" y="262.4" class="st5" width="3" height="0.9"/>
			<rect x="712.6" y="262.4" class="st5" width="3" height="0.9"/>
			<rect x="718.6" y="262.4" class="st5" width="3" height="0.9"/>
			<rect x="724.6" y="262.4" class="st5" width="3" height="1"/>
			<rect x="730.6" y="262.4" class="st5" width="3" height="1"/>
			<rect x="736.6" y="262.4" class="st5" width="3" height="1"/>
			<rect x="742.6" y="262.4" class="st5" width="3" height="1"/>
			<rect x="748.6" y="262.3" class="st5" width="3" height="1"/>
			<rect x="754.6" y="262.3" class="st5" width="1.5" height="1"/>
			<g>
				<polygon class="st5" points="752.8,266.9 752.1,266.2 755.7,262.8 752.1,259.5 752.8,258.8 757.2,262.8 				"/>
			</g>
		</g>
	</g>
	<path class="st6" d="M623.2,758.5c5.4-10.2,9.8-20.8,13.2-31.7c3.6-11.6,6.1-23.6,7.4-35.7c2.8-25.6,0.3-51.4-7.3-75.9
		c-7.6-24.6-20.2-47.3-36.9-66.8c-7.9-9.2-16.7-17.7-26.3-25.2c-9-7.1-18.7-13.4-28.8-18.7c-10.2-5.4-20.8-9.8-31.7-13.2
		c-11.6-3.6-23.6-6.1-35.7-7.4c-25.6-2.8-51.4-0.3-75.9,7.3c-24.6,7.6-47.3,20.2-66.8,36.9c-9.2,7.9-17.7,16.7-25.2,26.3
		c-7.1,9-13.4,18.7-18.7,28.8c-5.4,10.2-9.8,20.8-13.2,31.7c-3.6,11.6-6.1,23.6-7.4,35.7c-2.8,25.6-0.3,51.4,7.3,75.9
		c7.6,24.6,20.2,47.3,36.9,66.8c7.9,9.2,16.7,17.7,26.3,25.2c9,7.1,18.7,13.4,28.8,18.7c10.2,5.4,20.8,9.8,31.7,13.2
		c11.6,3.6,23.6,6.1,35.7,7.4c25.6,2.8,51.4,0.3,75.9-7.3c24.6-7.6,47.3-20.2,66.8-36.9c9.2-7.9,17.7-16.7,25.2-26.3
		C611.6,778.3,617.8,768.6,623.2,758.5z"/>
	<g class="st7">
		
			<rect x="484.8" y="590.5" transform="matrix(8.037846e-02 -0.9968 0.9968 8.037846e-02 -144.9125 1045.9209)" class="st2" width="19.1" height="22"/>
	</g>
	<g class="st7">
		
			<rect x="452.4" y="766.5" transform="matrix(8.037846e-02 -0.9968 0.9968 8.037846e-02 -351.3958 1186.6483)" class="st2" width="30" height="34.6"/>
	</g>
	<g class="st7">
		<polygon class="st2" points="384.5,615 411.7,597.3 396,573.8 368.8,591.5 		"/>
	</g>
	<g>
		<rect x="397.8" y="617.3" class="st2" width="123.3" height="123.3"/>
	</g>
	<path class="st8" d="M390.7,786.7c-0.8-1.2-1.3-1-2.6,0.2c-1.3,1.1-3.3,3.2-2.8,4c-1.3,0.7-2.3,1.1-3.1,1.5c-1,0.5-1.5,1.1-2.3,2.5
		c-0.8,1.5-2,3.9-2.8,5.9c-0.8,1.9-1.1,3.4-1.9,4.8c-0.8,1.4-2.1,2.7-3.2,4.9s-2,5.2-2.6,7.7s-1,4.4-1.6,5.7s-1.5,1.9-2.5,2.9
		c-1,1.1-2,2.6-2.7,4.5s-1.1,4-1.8,6.5c-0.7,2.4-1.7,5.1-2.4,6.6c-0.7,1.5-1,2-1.2,2.4s-0.3,0.9-0.4,2.2c0,1.4,0,3.6,0.2,5.3
		c0.1,1.6,0.4,2.6,0.8,3.8c0.5,1.2,1.2,2.6,1.7,4.2c0.6,1.6,1,3.3,2.5,7.5s4.2,10.8,6.4,15.5c2.3,4.6,4.1,7.2,5.9,10.1
		s3.3,6.2,4.7,8.8s2.5,4.7,3.5,7.5s1.9,6.3,2.8,8.6c0.9,2.2,1.8,3.2,3.3,3.9s3.5,1.2,8,3.6c4.5,2.4,11.5,6.7,15.5,8.9
		s5.1,2.2,7.2,2.6c2.1,0.4,5.2,1.1,9.4,1.9c4.2,0.8,9.6,1.6,16,2.7s13.9,2.5,19.2,3.2s8.5,0.7,11.4,0.2s5.7-1.5,8.1-2.2
		s4.3-1.3,6.9-2.8s5.9-3.9,7.8-5.3c1.9-1.4,2.6-1.8,3.6-2.3c1-0.4,2.4-0.9,4.2-1.7c1.8-0.7,3.9-1.7,5.6-3.1c1.7-1.3,2.8-3,3.7-4.5
		c0.9-1.6,1.5-3.1,3.3-6.1s4.7-7.4,6.7-10.5s3.1-4.7,4.4-6.6c1.3-1.9,2.7-4.2,3.6-6c0.9-1.8,1.1-3.3,1.4-4.5c0.3-1.2,0.6-2.2,1-3.1
		c0.4-0.9,1-1.7,1.5-2.4s0.8-1.4,0.8-2.3c0-0.9-0.2-2-0.1-2.9c0.1-0.9,0.5-1.5,1.1-2.3s1.3-1.7,1.5-2.6c0.2-0.9,0-1.8,0-2.7
		s0.3-1.7,0.4-2.6c0.1-0.9,0.2-1.9-0.1-2.8s-0.9-1.9-1.3-2.8c-0.4-0.9-0.6-1.9-0.6-3.1s0.4-2.7,0.6-4.2c0.2-1.4,0.4-2.8,0.3-4.4
		c-0.1-1.6-0.3-3.3-0.5-4.7c-0.1-1.3-0.1-2.3-0.1-3.5c0-1.3,0-2.8-0.2-5.2c-0.3-2.4-0.8-5.6-1.1-7.6s-0.3-2.9-0.2-3.7
		c0.1-0.9,0.4-1.8,0.5-3s0.1-2.6-0.2-5.1s-0.9-6-1.2-8s-0.3-2.6-0.5-3.1s-0.5-0.9-0.9-1.2c-0.4-0.2-0.8-0.2-1.9-0.3
		c-1.1,0-3-0.1-4.1-0.2c-1.1-0.1-1.4-0.2-1.5-0.7s-0.2-1.5-0.1-2.5s0.3-1.8,0.6-2.9c0.3-1.1,0.8-2.4,1.1-3.8
		c0.3-1.4,0.4-2.9,0.9-4.9c0.4-1.9,1.2-4.2,1.4-5.9s0-2.7-0.4-3.4s-1-1-1.8-1.6s-1.7-1.4-2.3-2.2s-1.1-1.6-1.6-2.3
		c-0.5-0.6-1.1-1.1-1.8-1.7c-0.7-0.6-1.6-1.2-2.6-1.9c-0.9-0.7-1.8-1.4-3-2.1c-1.2-0.7-2.5-1.3-3.6-1.6s-2-0.2-2.7-0.1
		c-0.7,0.1-1.2,0.1-1.4,0.5c-0.2,0.3-0.1,0.9,0.2,1.5c0.4,0.6,1,1.1,2.3,2c1.2,0.9,3.1,2.1,4.1,3c1,0.8,1.3,1.3,0.9,1.4
		c-0.3,0.1-1.2-0.1-1.9-0.5s-1.4-1.1-2.3-1.6c-0.8-0.5-1.8-0.9-3-1s-2.6,0.2-3.6,0.5c-1,0.2-1.5,0.4-1.8,0.8c-0.3,0.4-0.5,1-0.5,1.4
		c0,0.5,0.1,0.8,1,0.9c0.9,0.1,2.6,0,3.7,0s1.6,0,2.2,0.2c0.7,0.2,1.5,0.5,1.7,0.7c0.2,0.3-0.3,0.5-0.9,0.7
		c-0.6,0.2-1.5,0.3-2.1,0.7s-0.9,1.1-1.4,2s-1.1,2.2-1.5,3c-0.3,0.8-0.3,1.2,0.1,1.6c0.5,0.4,1.4,0.8,2.1,0.9c0.7,0.1,1.3,0,1.9-0.6
		s1.2-1.5,1.8-2.1c0.7-0.6,1.5-0.7,2.1-0.7s1.2,0,1.5,0.4c0.3,0.3,0.4,0.8,0.5,1.4s0.2,1.3,0,1.8c-0.2,0.6-0.6,1-1.1,1.7
		c-0.5,0.6-1.1,1.4-1.5,2.2c-0.4,0.9-0.5,1.8-0.4,3.2s0.5,3.1,0.8,5s0.5,3.9,0.5,5.2s-0.2,1.7-0.6,2.1s-1,0.7-1.6,1.1
		s-1.1,0.9-1.6,1.4s-1,1-1,1.6s0.4,1.2,0.8,2.5c0.4,1.3,0.8,3.3,1.7,5.6s2.3,5.1,2.8,7.2s-0.1,3.5-0.3,5.1s0,3.3-0.3,4.9
		c-0.3,1.6-1,3-1.3,4.8s0,3.9,0.8,6.4s2.2,5.3,2.1,6.8c-0.2,1.4-1.9,1.5-3.3,0.6c-1.4-0.8-2.4-2.5-3.9-3.9s-3.5-2.5-6.9-2.6
		s-8,0.6-11.4,1.4s-5.3,1.4-8.7,2.3c-3.4,0.9-8.1,2-10.5,1.7s-2.4-2.1-3.8-4.4c-1.4-2.3-4.2-5.1-7.1-7.1s-6-3.1-8.8-3.7
		c-2.7-0.5-5-0.4-8.6,0c-3.5,0.4-8.3,1.1-11.6,2.8c-3.3,1.7-5.1,4.3-6.3,6.3s-1.7,3.5-2.7,4.4s-2.4,1.2-4.4,1.5
		c-2,0.2-4.4,0.3-6.4,0.5s-3.5,0.4-5.3,1.2s-3.9,2-5.3,4s-2.2,4.8-3.1,7.9c-0.8,3.2-1.8,6.8-2.2,7.9c-0.5,1.1-0.5-0.4-1-2.4
		c-0.6-2-1.7-4.5-2.6-6.5s-1.6-3.6-2.4-4.5s-1.8-1.1-2.9-2.1s-2.5-2.9-3.2-4.5c-0.7-1.7-0.8-3.2-0.7-4.5c0.1-1.3,0.4-2.4,1.7-4.8
		c1.2-2.4,3.3-6,4.8-9.4s2.4-6.6,2.4-9.2c0-2.6-0.9-4.5-0.2-5.9c0.8-1.4,3.2-2.4,4.4-3.1c1.2-0.7,1.1-1.2,1.3-2.3
		c0.2-1.1,0.6-2.9,1.5-5.6c0.9-2.7,2.3-6.3,3-8.2s0.6-2.1,0.6-2.5c0-0.5,0-1.2-0.2-1.7s-0.4-0.7-0.4-1.1c0-0.4,0.2-1,0.2-1.5
		s-0.4-1-0.3-1.5c0-0.5,0.3-1,0.7-1.5c0.4-0.5,0.8-0.8,1.2-1.4c0.4-0.5,0.8-1.3,1.6-2c0.8-0.7,1.9-1.5,2.5-2s0.8-0.7,1.1-2.1
		c0.3-1.4,0.9-4.1,1.2-6.1c0.3-2,0.4-3.4,0.4-4.4c0.1-1,0.2-1.5,1.9-1.9s5.3-0.6,7.3-1.1s2.6-1.2,2.9-1.7s0.1-0.8-1.4-1.2
		s-4.5-0.9-6.3-1.3c-1.9-0.5-2.7-0.9-2.2-1.1c0.5-0.2,2.2-0.1,4,0s3.7,0.1,5.1,0.2c1.4,0.1,2.3,0.4,3,0.4s1.2-0.2,1.5-0.6
		c0.3-0.3,0.5-0.8,0.4-1.3s-0.5-1.1-1-1.5s-1-0.8-3-1s-5.5-0.3-6.3-0.8c-0.8-0.6,1-1.6,2.5-2.2s2.7-0.5,3.8-1s1.9-1.4,1.9-2
		c0-0.5-0.9-0.7-2.8-0.4s-4.9,1-6.6,1.4s-2.3,0.5-2.4,0.3s0-0.7,0.3-1.3c0.3-0.5,0.6-1,1.1-1.8s1-1.9,1.2-2.8s0.2-1.6-0.3-1.8
		s-1.3,0.2-2.2,0.8s-1.9,1.5-2.7,2.4c-0.8,0.9-1.6,1.7-2.5,3s-2,3.1-2.6,4.6s-0.8,2.6-1.3,3.5s-1.2,1.7-2.6,3.6s-3.5,5.1-4.9,7.7
		c-1.4,2.6-2.2,4.7-2.8,5.9c-0.6,1.2-1.1,1.7-2.4,2.9C391.5,786,391.1,786.4,390.7,786.7z"/>
	<g id="XMLID_4_">
		<g>
			<path class="st9" d="M696,546.6c0.2,2.7,0.1,5.1-0.1,6.8c-0.1,1.7-0.3,2.8-0.2,4.7s0.4,4.7,0.2,7.6c-0.3,3-1.1,6.1-3,9.7
				c-1.9,3.6-4.9,7.5-7.6,11.3c-2.7,3.8-5.2,7.6-8.5,11.6s-7.4,8.2-10.1,12c-2.7,3.8-4,7.1-7.5,10.3c-3.4,3.3-9,6.5-12.2,9.6
				s-4,6-6.2,8.5c-2.2,2.6-5.8,4.7-8.9,7c-3.1,2.2-5.8,4.5-7.3,5.8s-1.7,1.6-2.4,2s-1.8,1.1-2.4,1.4c-0.6,0.3-0.8,0.4-2,0.5
				s-3.6,0.3-5.9-0.8c-2.4-1-4.8-3.2-6.6-5.8s-3-5.5-4.6-8.8s-3.5-7.1-5.9-13.1s-5.3-14.2-7.8-20.9s-4.5-11.8-5.6-14.7
				s-1.2-3.7-1.2-4.5c-0.1-0.9-0.1-1.8,0.3-2.4c0.5-0.6,1.4-1,1.3-1.9c-0.1-0.9-1.1-2.3-2.4-4c-1.3-1.6-2.7-3.4-3.9-5.3
				c-1.1-1.9-2-3.9-2.5-5.7c-0.5-1.7-0.8-3.2-0.9-4.1c-0.2-0.9-0.2-1.1-0.8-1.1s-1.8,0.3-3,0.6c-1.1,0.3-2.2,0.6-3.2,0.6
				c-0.9,0-1.8-0.3-2.4-0.8c-0.6-0.5-1-1.1-2-1.8s-2.5-1.5-3.3-2.2c-0.8-0.6-1-1.1-1.5-1.5s-1.3-0.8-1.6-1.6s-0.2-2.1-0.3-3.4
				c-0.2-1.2-0.8-2.3-1.1-3.2c-0.4-0.9-0.5-1.7-0.1-2.4s1.3-1.4,1.3-2.6c0-1.2-0.9-3-1.7-4.5s-1.4-2.7-2.1-4c-0.7-1.3-1.4-2.6-1.8-4
				c-0.5-1.4-0.7-2.9-0.3-4.8c0.4-2,1.5-4.4,3.2-6.2s3.9-2.9,5.2-3.8s1.7-1.7,2.3-2.2s1.4-0.7,3.2-1.2s4.6-1.4,7.3-2.1
				c2.7-0.8,5.2-1.5,7.9-2.2s5.4-1.5,8.4-2.8c3-1.4,6.1-3.3,9.9-5.1c3.8-1.8,8.3-3.5,13.6-5c5.2-1.5,11.2-2.7,15.6-3.5
				c4.4-0.8,7.3-1.1,13.1,0.3c5.8,1.5,14.6,4.8,21,7.2c6.4,2.4,10.3,3.8,14.6,7.3c4.3,3.6,8.9,9.2,12.4,14.6
				c3.6,5.4,6.1,10.4,7.7,14.5C695.2,540.8,695.8,543.9,696,546.6z M642,599.1c1-2.3,0.2-3.1-0.7-3.6c-0.9-0.4-1.9-0.4-3.6-0.3
				c-1.7,0.1-4,0.2-6,0.1c-2-0.1-3.7-0.5-5.9-1.7s-4.9-3.1-6.6-4.2c-1.7-1.1-2.3-1.5-3.4-3.1c-1.1-1.6-2.6-4.4-3.4-6
				c-0.8-1.5-0.9-1.7-1.3-2.1c-0.3-0.4-0.9-0.9-2.2-1.7s-3.2-1.7-3.8-3.3c-0.6-1.5,0.2-3.7,0.6-6c0.4-2.4,0.5-5,0.6-7.7
				c0-2.7,0-5.6-0.1-7.6s-0.2-3.1-0.6-5.5c-0.4-2.4-1.1-6-1.4-9.5c-0.3-3.5-0.2-6.9-0.4-8.3s-0.8-0.9-1.7-0.4s-2,1-3.5,1.5
				s-3.4,1-5,1.6c-1.6,0.5-2.9,1.1-4.3,1.7c-1.5,0.6-3.1,1.3-4.6,1.9c-1.5,0.6-2.8,1-4.6,1.4s-4,0.8-4.9,1.2s-0.5,0.9-0.2,1.5
				s0.5,1.2,1,1.5s1.3,0.3,1.9,0.6c0.5,0.3,0.7,1,1.1,1.6c0.4,0.6,1,1,1.6,1.1s1.2-0.3,1.6-0.6c0.4-0.2,0.7-0.3,1.2-0.4
				c0.5,0,1.2,0,1.7,0.3s0.8,0.8,1.2,1.8s0.9,2.6,1.2,3.9c0.3,1.3,0.3,2.3,0.7,3.2c0.4,1,1.2,1.9,2,2.9s1.5,2,2.2,2.9s1.4,1.6,2,2.4
				c0.6,0.8,1.1,1.7,1.7,4.4c0.6,2.6,1.5,6.9,2.1,9.1c0.6,2.3,1.1,2.5,1.4,2.9c0.3,0.4,0.3,0.9,0.9,2.4c0.5,1.5,1.5,3.8,2.7,5.9
				c1.1,2,2.4,3.7,4.1,6.4c1.6,2.7,3.6,6.5,5.2,9.2s2.7,4.3,3.7,5.8c0.9,1.5,1.6,2.9,2.1,4.5c0.5,1.5,0.6,3.2,1.2,5
				c0.6,1.8,1.5,3.8,2.3,4.5s1.6,0.2,2.4-0.5c0.8-0.7,1.6-1.4,2.8-2.5s2.9-2.5,4.3-4c1.5-1.5,2.8-3,4.8-5.7
				C638.3,605.1,641.1,601.4,642,599.1z"/>
		</g>
		<g>
			<path class="st10" d="M575.5,537.7c0.9-0.4,3.1-0.8,4.9-1.2c1.8-0.4,3.1-0.9,4.6-1.4c1.5-0.6,3.1-1.3,4.6-1.9s2.7-1.2,4.3-1.7
				s3.5-1,5-1.6c1.5-0.5,2.6-1,3.5-1.5c0.8-0.5,1.4-1,1.7,0.4c0.2,1.4,0.1,4.8,0.4,8.3c0.3,3.5,1,7.1,1.4,9.5s0.5,3.5,0.6,5.5
				s0.1,4.9,0.1,7.6c0,2.7-0.1,5.3-0.6,7.7c-0.4,2.4-1.2,4.5-0.6,6c0.6,1.6,2.6,2.5,3.8,3.3c1.3,0.7,1.8,1.3,2.2,1.7
				c0.3,0.4,0.5,0.6,1.3,2.1s2.3,4.4,3.4,6c1.1,1.6,1.7,1.9,3.4,3.1c1.7,1.1,4.4,3.1,6.6,4.2c2.2,1.2,3.9,1.6,5.9,1.7
				c2,0.1,4.4,0,6-0.1c1.7-0.1,2.7-0.1,3.6,0.3c0.9,0.4,1.7,1.3,0.7,3.6s-3.7,6-5.8,8.6c-2,2.6-3.3,4.2-4.8,5.7s-3.1,2.9-4.3,4
				s-2,1.9-2.8,2.5c-0.8,0.7-1.5,1.2-2.4,0.5c-0.8-0.7-1.7-2.7-2.3-4.5s-0.8-3.4-1.2-5c-0.5-1.5-1.2-3-2.1-4.5
				c-0.9-1.5-2.1-3.1-3.7-5.8s-3.6-6.5-5.2-9.2c-1.6-2.7-2.9-4.4-4.1-6.4c-1.1-2-2.1-4.4-2.7-5.9c-0.5-1.5-0.6-2-0.9-2.4
				c-0.3-0.4-0.8-0.6-1.4-2.9c-0.6-2.3-1.5-6.5-2.1-9.1c-0.7-2.6-1.2-3.5-1.7-4.4c-0.6-0.8-1.3-1.5-2-2.4s-1.4-1.9-2.2-2.9
				s-1.6-1.9-2-2.9s-0.4-2-0.7-3.2c-0.3-1.3-0.8-2.9-1.2-3.9s-0.7-1.5-1.2-1.8s-1.2-0.3-1.7-0.3s-0.8,0.1-1.2,0.4
				c-0.4,0.2-1,0.6-1.6,0.6s-1.2-0.5-1.6-1.1c-0.4-0.6-0.6-1.3-1.1-1.6s-1.3-0.3-1.9-0.6c-0.5-0.3-0.7-1-1-1.5
				C575,538.6,574.6,538.2,575.5,537.7z"/>
			<path class="st10" d="M554.1,544.2c0-1.2-0.9-3-1.7-4.5s-1.4-2.7-2.1-4c-0.7-1.3-1.4-2.6-1.8-4c-0.5-1.4-0.7-2.9-0.3-4.8
				c0.4-2,1.5-4.4,3.2-6.2s3.9-2.9,5.2-3.8s1.7-1.7,2.3-2.2s1.4-0.7,3.2-1.2s4.6-1.4,7.3-2.1c2.7-0.8,5.2-1.5,7.9-2.2
				s5.4-1.5,8.4-2.8c3-1.4,6.1-3.3,9.9-5.1c3.8-1.8,8.3-3.5,13.6-5c5.2-1.5,11.2-2.7,15.6-3.5c4.4-0.8,7.3-1.1,13.1,0.3
				c5.8,1.5,14.6,4.8,21,7.2c6.4,2.4,10.3,3.8,14.6,7.3c4.3,3.6,8.9,9.2,12.4,14.6c3.6,5.4,6.1,10.4,7.7,14.5
				c1.6,4.1,2.2,7.2,2.4,9.9s0.1,5.1-0.1,6.8c-0.1,1.7-0.3,2.8-0.2,4.7s0.4,4.7,0.2,7.6c-0.3,3-1.1,6.1-3,9.7
				c-1.9,3.6-4.9,7.5-7.6,11.3c-2.7,3.8-5.2,7.6-8.5,11.6s-7.4,8.2-10.1,12c-2.7,3.8-4,7.1-7.5,10.3c-3.4,3.3-9,6.5-12.2,9.6
				s-4,6-6.2,8.5c-2.2,2.6-5.8,4.7-8.9,7c-3.1,2.2-5.8,4.5-7.3,5.8s-1.7,1.6-2.4,2s-1.8,1.1-2.4,1.4c-0.6,0.3-0.8,0.4-2,0.5
				s-3.6,0.3-5.9-0.8c-2.4-1-4.8-3.2-6.6-5.8s-3-5.5-4.6-8.8s-3.5-7.1-5.9-13.1s-5.3-14.2-7.8-20.9s-4.5-11.8-5.6-14.7
				s-1.2-3.7-1.2-4.5c-0.1-0.9-0.1-1.8,0.3-2.4c0.5-0.6,1.4-1,1.3-1.9c-0.1-0.9-1.1-2.3-2.4-4c-1.3-1.6-2.7-3.4-3.9-5.3
				c-1.1-1.9-2-3.9-2.5-5.7c-0.5-1.7-0.8-3.2-0.9-4.1c-0.2-0.9-0.2-1.1-0.8-1.1s-1.8,0.3-3,0.6c-1.1,0.3-2.2,0.6-3.2,0.6
				c-0.9,0-1.8-0.3-2.4-0.8c-0.6-0.5-1-1.1-2-1.8s-2.5-1.5-3.3-2.2c-0.8-0.6-1-1.1-1.5-1.5s-1.3-0.8-1.6-1.6s-0.2-2.1-0.3-3.4
				c-0.2-1.2-0.8-2.3-1.1-3.2c-0.4-0.9-0.5-1.7-0.1-2.4C553.2,546.1,554.1,545.5,554.1,544.2z"/>
		</g>
	</g>
	<path class="st8" d="M239.5,573.6c-9.2-7.8-11.9-12.3-12.9-15.5s-0.4-5,1.4-9.5c1.8-4.5,4.9-11.7,7.6-16.9c2.7-5.2,5-8.3,6.6-10.6
		s2.4-3.7,29.7-14.2c1.7-1.3,3.9-3.2,6.7-5.9c2.5-1.3,4.3-3.6,5.4-6c1.2-2.9,1.3-5.9,1.8-9.3c0.5-3.3,1.5-6.8,4.7-9.3
		s8.8-3.8,13.3-3.2s8.1,3.3,11.4,6.2c3.4,2.9,6.6,6,9.8,9.6c3.2,3.6,6.4,7.7,8.2,10.7c1.8,3,2.3,5.1,2.5,7.2s0.2,4.2-0.9,7.9
		c-1,3.7-3,8.9-4.3,12.7c-1.2,3.7-1.7,6-1.8,7.6c-0.2,1.6-0.1,2.7,0.2,3.9c0.2,1.3,0.6,2.8,0.8,4.6c0.2,1.9,0.4,4.1,0.5,6.3
		s0.3,4.3,0,6.7c-0.3,2.3-1,4.9-1.2,6.9s0.1,3.5-0.1,4.7s-1,2.2-1.9,2.4c-1,0.3-2.2-0.2-3.8,0c-1.6,0.1-3.5,0.8-5,1.5
		c-1.5,0.6-2.5,1.2-4.2,1.8s-4.2,1.1-6.9,2.1s-5.4,2.4-7.6,4.1c-2.3,1.7-4.1,3.8-4.3,6.3s1,5.4,4.9,9.1s10.3,7.9,14.1,11
		c3.8,3,4.9,4.8,7.9,7.9s8.1,7.6,14.5,12.4c6.4,4.8,14.3,10,23.1,15.5c8.7,5.5,18.3,11.3,24,14.5s7.4,3.9,9.8,4.5s5.5,1.1,8.5,1.2
		c3,0.1,5.9-0.2,9,0.4s6.4,2.1,8.3,3.5s2.4,2.7,1.7,3.8c-0.6,1.1-2.3,2.1-3.5,3.2c-1.2,1.1-1.9,2.2-2.3,3.4s-0.4,2.5-0.8,3.4
		s-1,1.4-1.8,1.9s-1.7,1.1-3.1,1.3c-1.3,0.2-3.1,0.1-5.6-0.1s-5.7-0.5-7.4-0.8c-1.7-0.3-1.9-0.5-3.1-1.8s-3.3-3.7-6.1-5.2
		c-2.8-1.5-6.4-2.1-14.4-5.1c-8.1-3-20.7-8.3-29.6-12.8c-8.9-4.4-14.2-8-20.2-12.1s-12.8-8.8-17.9-12s-8.4-5.1-10.6-7.2
		c-2.3-2.1-3.6-4.3-7.7-8.3s-11-9.8-15.9-14.2c-5-4.4-8-7.5-11.3-10.7s-6.8-6.5-9.8-9.7c-2.9-3.2-5.3-6.2-7.9-8.4
		C241.1,574.6,240.3,574.1,239.5,573.6z"/>
	<path class="st11" d="M516.7,789.9c1.7-2.1,1.7-3.7,1.8-5s0.2-2.4,0.3-3.3c0.1-0.8,0.1-1.4,0.5-2s0.9-1.1,1.4-1.4
		c0.5-0.3,0.9-0.4,1.2-0.3c0.3,0,0.5,0.1,0.8,0.5c0.2,0.3,0.5,0.8,0.5,1.3s0,0.9-0.1,1.3s-0.1,1,0,2c0,1,0.1,2.5,0.2,3.5
		c0.1,0.9,0.1,1.3,0.3,1.9s0.5,1.5,0.9,2.3c0.3,0.8,0.7,1.5,1,3.7"/>
	<path class="st11" d="M317.9,523.8c1.6-1.5,4.9,2,5.5,6.5"/>
	<path class="st11" d="M300.7,594.9c-0.5,5.9-1.9,8.4-3.2,10.1c-1.3,1.7-2.6,2.4-3.8,2.7"/>
	<path class="st11" d="M295.6,626.5c16.4-12.2,15.1-17.8,17.9-21.5"/>
	<path class="st11" d="M273.2,506.9c-9.7,7.4-11.2,9.8-12.8,11.8c-1.6,2-3.4,3.8-5.1,5.2s-3.5,2.3-5.1,3.3c-1.5,1-2.9,2-3.6,3.3
		c-0.8,1.3-1,2.7-0.9,4.6s0.5,4.1,1.5,8.7"/>
	<path class="st11" d="M606.2,612.5c5.7,1.7,9.2,0.1,13,1.6"/>
	<path class="st11" d="M627.2,617.4c-4.1,7.4-6,8.3-7.2,9c-1.3,0.7-2,1.3-2.4,2.1s-0.5,1.7-0.9,3.3c-0.3,1.6-0.8,3.9-0.2,9.6"/>
	<path class="st11" d="M642.4,598.2c0.7-2.5,1.9-3.6,3.1-4.3c1.2-0.7,2.4-1.1,3.7-1.2s2.7-0.1,4.4,0.2s3.6,0.8,5.6,1.1
		c2.1,0.3,4.3,0.3,7-0.7c2.8-1,6.1-3,9.7-8.4"/>
	<path class="st11" d="M632,512.8c6.6-4,14.8-3.4,20.9-2c6.1,1.4,10.2,3.5,13.8,14.7"/>
	<path class="st11" d="M575.5,537.7c0.9-0.4,3.1-0.8,4.9-1.2c1.8-0.4,3.1-0.9,4.6-1.4c1.5-0.6,3.1-1.3,4.6-1.9s2.7-1.2,4.3-1.7
		s3.5-1,5-1.6c1.5-0.5,2.6-1,3.5-1.5c0.8-0.5,1.4-1,1.7,0.4c0.2,1.4,0.1,4.8,0.4,8.3c0.3,3.5,1,7.1,1.4,9.5s0.5,3.5,0.6,5.5
		s0.1,4.9,0.1,7.6c0,2.7-0.1,5.3-0.6,7.7c-0.4,2.4-1.2,4.5-0.6,6s2.5,2.5,3.8,3.2s1.8,1.3,2.2,1.7c0.3,0.4,0.5,0.6,1.3,2.1
		s2.3,4.4,3.4,6c1.1,1.6,1.7,1.9,3.4,3.1c1.7,1.1,4.4,3.1,6.6,4.2c2.2,1.2,3.9,1.6,5.9,1.7c2,0.1,4.4,0,6-0.1
		c1.7-0.1,2.7-0.1,3.6,0.3c0.9,0.4,1.7,1.3,0.7,3.6s-3.7,6-5.8,8.6c-2,2.6-3.3,4.2-4.8,5.7s-3.1,2.9-4.3,4s-2,1.9-2.8,2.5
		c-0.8,0.7-1.5,1.2-2.4,0.5c-0.8-0.7-1.7-2.7-2.3-4.5s-0.8-3.4-1.2-5s-1.2-3-2.1-4.5c-0.9-1.5-2.1-3.1-3.7-5.8
		c-1.6-2.7-3.6-6.5-5.2-9.2c-1.6-2.7-2.9-4.4-4.1-6.4c-1.1-2-2.1-4.4-2.7-5.9c-0.5-1.5-0.6-2-0.9-2.4c-0.3-0.4-0.8-0.6-1.4-2.9
		c-0.6-2.3-1.5-6.5-2.1-9.1s-1.2-3.5-1.8-4.4c-0.6-0.8-1.3-1.5-2-2.4s-1.4-1.9-2.2-2.9s-1.6-1.9-2-2.9s-0.4-2-0.7-3.2
		c-0.3-1.3-0.8-2.9-1.2-3.9s-0.7-1.5-1.2-1.8s-1.2-0.3-1.7-0.3s-0.8,0.1-1.2,0.4c-0.4,0.2-1,0.6-1.6,0.6s-1.2-0.5-1.6-1.1
		c-0.4-0.6-0.6-1.3-1.1-1.6s-1.3-0.3-1.8-0.6s-0.7-1-1-1.5C575,538.6,574.6,538.2,575.5,537.7z"/>
	<path class="st11" d="M581.5,583.5c2.5-2.6,8.4-5.1,17.8-7.5"/>
	<path class="st11" d="M573.3,558.9c0.9,2.7,1.6,4.7,2.2,6.1"/>
	<path class="st11" d="M575.9,553c0.7,2.5,1.1,4.3,1.6,5.7s1.1,2.4,1.3,3.4"/>
	<path class="st11" d="M572,538.6c-0.4,1.5-2,3.7-1.8,4.7"/>
	<path class="st11" d="M564.4,552.4c3.3-1.8,6.3-3.4,9.1-4.7"/>
	<path class="st11" d="M575,554.2c-1-0.8-1.5-2.1-1.9-2.8s-0.6-0.9-0.4-1.6s0.7-1.7,0.9-2.6c0.2-0.9,0.3-1.7,0-2.2
		c-0.2-0.6-0.7-1-1.2-1.3s-1-0.4-1.9-0.3c-0.8,0.1-1.9,0.4-3.1,0.9c-1.1,0.4-2.3,0.9-3.1,1.2s-1.4,0.4-3.9,1"/>
	<path class="st11" d="M580.9,549.4c-0.1-2.6,0.2-4.5,0.9-5.5"/>
	<path class="st11" d="M572.2,563.4c0.9-3.6,1.2-4.4,1.4-5.3c0.2-0.9,0.3-1.9,0.7-2.8c0.4-0.8,1.2-1.5,1.8-2.5s1-2.4,1.5-3.2
		s1-1.2,1.5-1.2c0.5-0.1,1.1,0.2,1.4,0.5c0.4,0.4,0.5,0.9,1.4,3.5"/>
	<path class="st11" d="M574.6,536c1.5-3.1,1.5-5.7,1.1-7.6c-0.4-1.9-1.4-3.3-2-4.7c-0.7-1.4-1.1-2.9-1.1-3.7"/>
	<path class="st11" d="M575.5,537.7c-1.6-3.4-2.5-3.5-3.4-3.7s-1.7-0.4-3.4-0.2s-4.2,0.9-5.4,1.7s-1.2,1.6-1.7,2.4
		c-0.5,0.8-1.2,1.6-1.9,2.2c-0.7,0.6-1.1,1-1.7,1.6s-1.4,1.1-4,2.5"/>
	<path class="st11" d="M611.8,523.7c-4.6-5.8-7.3-6.5-9.2-7.6c-1.8-1.1-2.8-2.6-2.6-4.8s1.7-5.2,2.3-6.8"/>
	<path class="st11" d="M603.9,528.9c4-4.8,6.2-5,7.9-5.1c1.7-0.2,3-0.3,4.2-1.1s2.2-2.2,3.2-3.9s1.9-3.8,1.9-10"/>
	<path class="st11" d="M638.5,533c2.9-1.9,4-3.2,5.6-3.9c1.7-0.7,3.9-0.7,5.7-0.5s3.1,0.7,4.3,1.3s2.3,1.2,3,2s1.1,1.8,1.5,2.6
		c0.3,0.8,0.6,1.4,4,7"/>
	<path class="st11" d="M614.8,577.4c10.5,1,15.5-0.4,18.4-1.4s3.5-1.6,5.1-2.6s4.1-2.3,8.6-6"/>
	<path class="st11" d="M607.8,553.6c0.1,9.9,1.1,11.4,2.3,13.7s2.8,5.5,3.7,7.5s1.1,2.7,1.2,3.9c0.2,1.1,0.3,2.7,3.1,10"/>
	<path class="st11" d="M606,561c2.9-12.9,4.4-14,6-15.1s3.1-2.3,5.5-3.9c2.4-1.6,5.6-3.8,8.4-5.3c2.8-1.5,5-2.4,7.3-3
		s4.6-1.1,8.6-0.3s9.8,2.7,14,4.5c4.3,1.8,7,3.3,8.8,5.3s2.5,4.5,3.1,9c0.6,4.4,1,10.8,1.1,14.6s0,5.1-0.6,6.3s-1.6,2.4-3.1,3.5
		s-3.4,2.2-4.7,3.4s-1.9,2.6-2.5,3.6s-1,1.6-1.9,2.4c-0.8,0.7-2,1.5-3.3,2.1s-2.8,1.1-4.4,1.5c-1.6,0.4-3.3,0.7-5.3,1
		s-4.3,0.5-6.6,0.6c-2.3,0.2-4.6,0.3-6.1,0.3s-2.2-0.2-3.8-0.1s-3.9,0.3-5.2-0.5"/>
	<line class="st11" x1="308.3" y1="501.6" x2="331.6" y2="511"/>
	<line class="st11" x1="389.1" y1="827" x2="392.4" y2="831.6"/>
	<path class="st12" d="M511.9,870.1c-3.2-0.2-4.5-3.2-6-3.8"/>
	<path class="st11" d="M499,854c-0.3,0.1-0.4,0.3-0.5,0.7s-0.1,0.8,0.3,1.3c0.3,0.5,1,1,1.6,1.1c0.5,0.1,0.9-0.2,1.1-0.7
		c0.1-0.5,0-1.1-0.2-1.5s-0.5-0.7-1-0.8C499.9,853.9,499.3,853.9,499,854z"/>
	<path class="st11" d="M482.7,859.1c0.2,0.8,0.6,2.2,1.1,2.7s1.1,0.2,1.3-0.5c0.2-0.7,0-1.8-0.1-2.4c-0.2-0.7-0.4-0.9-0.8-1.1
		c-0.4-0.1-1.1-0.2-1.4,0C482.4,857.9,482.5,858.2,482.7,859.1z"/>
	<path class="st11" d="M423.3,853.5c-2.6,2.4-2.2,4.6-2.6,6.6c-0.3,2-1.4,3.7-2.2,5.6s-1.6,4.1-2,5.8c-0.4,1.8-0.6,3.1-0.6,5.7
		s0.2,6.3,0.5,8.8c0.2,2.5,0.4,3.8,2.2,5.9c1.8,2.2,5.2,5.3,7.5,7.5s3.4,3.4,4.4,4.5s1.8,2.1,2.9,2.9c1.2,0.8,2.7,1.4,4.3,1.8
		c1.6,0.4,3.4,0.7,5.6,0.8s4.7,0.2,7.2-0.1s4.9-0.8,6.6-1.5s2.8-1.7,4.1-2.9c1.3-1.3,3-3,4-5.1s1.5-4.6,2.3-6.9
		c0.8-2.3,1.9-4.4,2.5-6.4c0.7-2,0.9-3.8,1-5.8s0.3-4.2,0.2-6.5c-0.1-2.3-0.4-4.7-1-7.2s-1.5-5-1.7-8.2s0.5-6.9-1.7-10.2"/>
	<path class="st11" d="M385.3,790.9c0.4,0.7,1.6,0,2.4-0.5c0.8-0.6,1.2-1,1.6-1.5s0.9-1.2,1.4-2.1"/>
	<path class="st11" d="M317.9,523.8c-2.5,2.2-1.1,6.4-0.1,9.5s1.4,5,1.7,7.1c0.3,2.1,0.5,4.3,0.4,6.6c-0.2,2.3-0.8,4.7-3.3,7.3
		c-2.5,2.5-6.8,5.2-10,6.7s-5.3,1.8-7.3,1.6s-3.8-0.9-5.2-1.5s-2.5-1.2-3.5-1.4s-2-0.2-4.6,1.7"/>
	<path class="st11" d="M390.7,786.7c0.2,2.6,0.7,3.3,1.4,3.9c0.8,0.7,1.8,1.2,3.1,1.9c1.3,0.7,2.9,1.4,7.3,2.4"/>
	<path class="st11" d="M403.1,799.1c-3.5,1.3-6.1-0.1-8.2-1.3s-3.9-2-5.3-2.8c-1.4-0.9-2.4-1.8-4.7-3.9"/>
	<path class="st11" d="M381.9,792.6c1.3,2.3,1.5,2.9,2.2,3.5s1.8,1.2,3.4,1.9s3.7,1.6,5.6,2.2c1.8,0.6,3.3,1.1,4.4,1.5
		s1.7,0.9,2.8,1.1c1.1,0.3,2.6,0.3,2.6,0.3"/>
	<path class="st11" d="M413.3,758.5c-0.6,2.1-1.5,3.9-1.6,4.9"/>
	<path class="st11" d="M417.3,761.8c-1.4,1.3-3,2.5-4.7,3.7"/>
	<path class="st11" d="M403.1,778.6c1-3.8,2.2-5.8,2.9-7.4s0.9-2.7,1.1-3.9c0.3-1.2,0.6-2.6,1.1-3.4c0.5-0.8,1.2-1.1,1.7-0.8
		c0.6,0.3,1,1.3,1.2,2.3c0.2,1.1,0.1,2.3-0.1,3.5s-0.4,2.4,0.2,7.3"/>
	<path class="st11" d="M509.6,788.7c1.7-0.5,2-1.5,2.3-2.3c0.3-0.8,0.6-1.4,1-1.8s0.9-0.5,1.3-0.6c0.5-0.1,0.9-0.1,1.8-0.2"/>
	<path class="st11" d="M513.1,779.8c1.5,1.2,4.2,2.9,5.5,4"/>
	<path class="st11" d="M244.8,576.8c-8.4-13.1-11.7-16.5-13.4-19.6c-1.8-3.2-2-6.1,0.8-11.9c2.8-5.8,8.5-14.5,11.9-19.3
		s4.4-5.8,6.9-7.2c2.4-1.4,6.2-3.2,9-4.9c2.9-1.6,4.8-3.1,6.7-3.7c1.3-0.4,2.6-0.3,6.6-3.4"/>
	<line class="st11" x1="527.5" y1="806.1" x2="528.1" y2="811.5"/>
	<path class="st11" d="M515.5,805.1c0.1,2.5,0.6,4.9,1.5,7.3"/>
	<path class="st11" d="M533.1,807.9c-0.7,1.2-1.1,1.9-1.5,2.3c-0.4,0.5-0.7,0.7-1.4,0.9s-1.6,0.4-2.6,0.5s-2.1,0.3-3.5,0.4
		c-1.4,0.2-3,0.4-4.4,0.5s-2.5,0-3.2-0.1c-0.8-0.2-1.3-0.4-1.6-0.7s-0.4-0.6-0.4-1.1s0.1-1-0.3-1.7"/>
	<path class="st11" d="M511.7,810.7c3.3,3.4,5.2,3,6.9,2.8s3.2-0.3,4.7-0.4c1.5-0.1,3-0.3,4.1-0.5c1.2-0.2,2.1-0.4,2.9-0.7
		c0.8-0.3,1.6-0.8,2.2-1.2s1-0.8,1-2.9"/>
	<path class="st11" d="M539.5,852.9c-0.1-1.4-2.8-3.8-8-7.2"/>
	<path class="st12" d="M525.1,872.6c8.8,1.5,10.2,4.2,12.6,7.6"/>
	<path class="st12" d="M515.3,883.7c2.9,2.1,8.7,6,9,8.3"/>
	<path class="st12" d="M521.7,863.3c2.6,1,5.6,1.8,9,2.4"/>
	<line class="st12" x1="511.9" y1="870.1" x2="513.8" y2="870.2"/>
	<path class="st12" d="M510.7,886.9c-3.4-10.2-9.4-14.3-11.2-15.8"/>
	<path class="st11" d="M515.1,856.8c-0.5,4.6-0.4,7.1-0.5,8.7c-0.1,1.6-0.3,2.2-0.5,2.9s-0.3,1.6-0.3,3.2c0,1.6,0.1,3.8,0,5.9
		s-0.4,4.1-1.1,5.7s-1.8,2.9-2.6,4.4c-0.8,1.5-1.4,3.3,0.4,14.2"/>
	<path class="st11" d="M379.7,854c1.1-3.2-1.2-5.1-3.6-7s-5.2-4-9.9-6.9"/>
	<path class="st11" d="M384.6,856.7c-4.6-3.8-9.9-3.7-13.5-3.7s-5.5-0.2-7.1-1.8"/>
	<path class="st12" d="M373,870.2c4-1,11.6,2.2,22.8,9.5"/>
	<path class="st12" d="M395.2,882.2c-3.3-0.8-7.9-0.8-13.7-0.1"/>
	<path class="st12" d="M396.4,876.8c-1.4,7.6-4,14.8-3.6,18.9"/>
	<path class="st12" d="M399.4,881c5.4-2.6,8-3,10.1-2.9c2.2,0.1,3.8,0.6,6.5,0.5"/>
	<path class="st12" d="M474.9,869c0.4-2.1-1.4-3.5-5.3-4.2"/>
	<path class="st11" d="M470.8,882.5c5.8-16.2,5.4-20.3,4.4-27.5"/>
	<path class="st12" d="M470.8,882.5c-0.2,1.7,0.1,3.6,0.3,4.9s0.2,1.9,0.2,2.5s-0.2,1.2-0.4,1.6s-0.4,0.6-1.1,0.5s-1.8-0.6-1.2-2.1"
		/>
	<path class="st11" d="M326.1,559.5c1.2-1.8,2.2-3.6,2.8-5.5"/>
	<path class="st11" d="M313.2,572c5.3-1.3,6.2-2.4,7.2-3.8c1.1-1.4,2.4-3,3.4-5"/>
	<path class="st11" d="M412.6,666.4c5.9,1.6,8.8,1.1,9.8,3.1"/>
	<path class="st11" d="M419.3,673.1c-1.5,0.3-3,0-4.1-0.2c-1.1-0.3-1.6-0.5-2.7-0.7s-2.6-0.4-4.3-1"/>
	<path class="st11" d="M407.1,676.3c2.3,0.4,3.1,0.6,3.7,0.8s1.1,0.4,1.7,0.4s1.4,0,2.2-0.1s1.6-0.2,1.8-1"/>
	<path class="st11" d="M404.5,681.1c0.6,0.5,2.6,0.6,4,0.6c1.4,0.1,2.1,0.1,2.7,0.2c0.6,0.1,1.1,0.1,1.9,0s1.8-0.4,2.4-1.2"/>
	<line class="st11" x1="326.5" y1="647.3" x2="324.9" y2="639.6"/>
	<path class="st11" d="M296.8,585.1c-6.2,3.1-19.5,1.1-19.5-4.1"/>
	<path class="st11" d="M248.6,581c-3.5-12.6-6.3-19.8,3.7-28.6"/>
	<path class="st11" d="M330.9,542.8c-0.9-5.7-4.8-9.5-7.6-12.6c-2.7-3-4.3-5.3-6.2-7.3c-1.9-1.9-4-3.5-6.9-4.7s-6.5-1.9-9.4-2.3
		c-2.9-0.4-4.9-0.7-7.9,0.2s-7.1,3-10,5.4c-2.9,2.5-4.7,5.3-6.1,7.8c-1.3,2.5-2.2,4.5-2.1,8.2s1.3,8.9,2.2,12.2
		c0.9,3.3,1.5,4.7,2.7,6.1c1.2,1.4,2.9,2.7,4.1,3.6s1.8,1.3,2.2,2c0.4,0.7,0.7,1.6,0.7,2.5s-0.3,1.9,0.3,2.7c0.6,0.8,2,1.6,3.3,1.9
		c1.3,0.3,2.4,0.3,3.3,0.2c1,0,1.8,0,2.8,0.3s2,1,3.1,1.7s2.2,1.4,3.2,2s1.9,1,3.5,1.5s3.9,1,7.1,0"/>
	<g>
		<path class="st13" d="M390.7,786.7c-0.8-1.2-1.3-1-2.6,0.2c-1.3,1.1-3.3,3.2-2.8,4c-1.3,0.7-2.3,1.1-3.1,1.5
			c-1,0.5-1.5,1.1-2.3,2.5c-0.8,1.5-2,3.9-2.8,5.9c-0.8,1.9-1.1,3.4-1.9,4.8c-0.8,1.4-2.1,2.7-3.2,4.9s-2,5.2-2.6,7.7
			s-1,4.4-1.6,5.7s-1.5,1.9-2.5,2.9c-1,1.1-2,2.6-2.7,4.5s-1.1,4-1.8,6.5c-0.7,2.4-1.7,5.1-2.4,6.6c-0.7,1.5-1,2-1.2,2.4
			s-0.3,0.9-0.4,2.2c0,1.4,0,3.6,0.2,5.3c0.1,1.6,0.4,2.6,0.8,3.8c0.5,1.2,1.2,2.6,1.7,4.2c0.6,1.6,1,3.3,2.5,7.5s4.2,10.8,6.4,15.5
			c2.3,4.6,4.1,7.2,5.9,10.1s3.3,6.2,4.7,8.8s2.5,4.7,3.5,7.5s1.9,6.3,2.8,8.6c0.9,2.2,1.8,3.2,3.3,3.9s3.5,1.2,8,3.6
			c4.5,2.4,11.5,6.7,15.5,8.9s5.1,2.2,7.2,2.6c2.1,0.4,5.2,1.1,9.4,1.9c4.2,0.8,9.6,1.6,16,2.7s13.9,2.5,19.2,3.2s8.5,0.7,11.4,0.2
			s5.7-1.5,8.1-2.2s4.3-1.3,6.9-2.8s5.9-3.9,7.8-5.3c1.9-1.4,2.6-1.8,3.6-2.3c1-0.4,2.4-0.9,4.2-1.7c1.8-0.7,3.9-1.7,5.6-3.1
			c1.7-1.3,2.8-3,3.7-4.5c0.9-1.6,1.5-3.1,3.3-6.1s4.7-7.4,6.7-10.5s3.1-4.7,4.4-6.6c1.3-1.9,2.7-4.2,3.6-6c0.9-1.8,1.1-3.3,1.4-4.5
			c0.3-1.2,0.6-2.2,1-3.1c0.4-0.9,1-1.7,1.5-2.4s0.8-1.4,0.8-2.3c0-0.9-0.2-2-0.1-2.9c0.1-0.9,0.5-1.5,1.1-2.3s1.3-1.7,1.5-2.6
			c0.2-0.9,0-1.8,0-2.7s0.3-1.7,0.4-2.6c0.1-0.9,0.2-1.9-0.1-2.8s-0.9-1.9-1.3-2.8c-0.4-0.9-0.6-1.9-0.6-3.1s0.4-2.7,0.6-4.2
			c0.2-1.4,0.4-2.8,0.3-4.4c-0.1-1.6-0.3-3.3-0.5-4.7c-0.1-1.3-0.1-2.3-0.1-3.5c0-1.3,0-2.8-0.2-5.2c-0.3-2.4-0.8-5.6-1.1-7.6
			s-0.3-2.9-0.2-3.7c0.1-0.9,0.4-1.8,0.5-3s0.1-2.6-0.2-5.1s-0.9-6-1.2-8s-0.3-2.6-0.5-3.1s-0.5-0.9-0.9-1.2
			c-0.4-0.2-0.8-0.2-1.9-0.3c-1.1,0-3-0.1-4.1-0.2c-1.1-0.1-1.4-0.2-1.5-0.7s-0.2-1.5-0.1-2.5s0.3-1.8,0.6-2.9
			c0.3-1.1,0.8-2.4,1.1-3.8c0.3-1.4,0.4-2.9,0.9-4.9c0.4-1.9,1.2-4.2,1.4-5.9s0-2.7-0.4-3.4s-1-1-1.8-1.6s-1.7-1.4-2.3-2.2
			s-1.1-1.6-1.6-2.3c-0.5-0.6-1.1-1.1-1.8-1.7c-0.7-0.6-1.6-1.2-2.6-1.9c-0.9-0.7-1.8-1.4-3-2.1c-1.2-0.7-2.5-1.3-3.6-1.6
			s-2-0.2-2.7-0.1c-0.7,0.1-1.2,0.1-1.4,0.5c-0.2,0.3-0.1,0.9,0.2,1.5c0.4,0.6,1,1.1,2.3,2c1.2,0.9,3.1,2.1,4.1,3
			c1,0.8,1.3,1.3,0.9,1.4c-0.3,0.1-1.2-0.1-1.9-0.5s-1.4-1.1-2.3-1.6c-0.8-0.5-1.8-0.9-3-1s-2.6,0.2-3.6,0.5c-1,0.2-1.5,0.4-1.8,0.8
			c-0.3,0.4-0.5,1-0.5,1.4c0,0.5,0.1,0.8,1,0.9c0.9,0.1,2.6,0,3.7,0s1.6,0,2.2,0.2c0.7,0.2,1.5,0.5,1.7,0.7c0.2,0.3-0.3,0.5-0.9,0.7
			c-0.6,0.2-1.5,0.3-2.1,0.7s-0.9,1.1-1.4,2s-1.1,2.2-1.5,3c-0.3,0.8-0.3,1.2,0.1,1.6c0.5,0.4,1.4,0.8,2.1,0.9
			c0.7,0.1,1.3,0,1.9-0.6s1.2-1.5,1.8-2.1c0.7-0.6,1.5-0.7,2.1-0.7s1.2,0,1.5,0.4c0.3,0.3,0.4,0.8,0.5,1.4s0.2,1.3,0,1.8
			c-0.2,0.6-0.6,1-1.1,1.7c-0.5,0.6-1.1,1.4-1.5,2.2c-0.4,0.9-0.5,1.8-0.4,3.2s0.5,3.1,0.8,5s0.5,3.9,0.5,5.2s-0.2,1.7-0.6,2.1
			s-1,0.7-1.6,1.1s-1.1,0.9-1.6,1.4s-1,1-1,1.6s0.4,1.2,0.8,2.5c0.4,1.3,0.8,3.3,1.7,5.6s2.3,5.1,2.8,7.2s-0.1,3.5-0.3,5.1
			s0,3.3-0.3,4.9c-0.3,1.6-1,3-1.3,4.8s0,3.9,0.8,6.4s2.2,5.3,2.1,6.8c-0.2,1.4-1.9,1.5-3.3,0.6c-1.4-0.8-2.4-2.5-3.9-3.9
			s-3.5-2.5-6.9-2.6s-8,0.6-11.4,1.4s-5.3,1.4-8.7,2.3c-3.4,0.9-8.1,2-10.5,1.7s-2.4-2.1-3.8-4.4c-1.4-2.3-4.2-5.1-7.1-7.1
			s-6-3.1-8.8-3.7c-2.7-0.5-5-0.4-8.6,0c-3.5,0.4-8.3,1.1-11.6,2.8c-3.3,1.7-5.1,4.3-6.3,6.3s-1.7,3.5-2.7,4.4s-2.4,1.2-4.4,1.5
			c-2,0.2-4.4,0.3-6.4,0.5s-3.5,0.4-5.3,1.2s-3.9,2-5.3,4s-2.2,4.8-3.1,7.9c-0.8,3.2-1.8,6.8-2.2,7.9c-0.5,1.1-0.5-0.4-1-2.4
			c-0.6-2-1.7-4.5-2.6-6.5s-1.6-3.6-2.4-4.5s-1.8-1.1-2.9-2.1s-2.5-2.9-3.2-4.5c-0.7-1.7-0.8-3.2-0.7-4.5c0.1-1.3,0.4-2.4,1.7-4.8
			c1.2-2.4,3.3-6,4.8-9.4s2.4-6.6,2.4-9.2c0-2.6-0.9-4.5-0.2-5.9c0.8-1.4,3.2-2.4,4.4-3.1c1.2-0.7,1.1-1.2,1.3-2.3
			c0.2-1.1,0.6-2.9,1.5-5.6c0.9-2.7,2.3-6.3,3-8.2s0.6-2.1,0.6-2.5c0-0.5,0-1.2-0.2-1.7s-0.4-0.7-0.4-1.1c0-0.4,0.2-1,0.2-1.5
			s-0.4-1-0.3-1.5c0-0.5,0.3-1,0.7-1.5c0.4-0.5,0.8-0.8,1.2-1.4c0.4-0.5,0.8-1.3,1.6-2c0.8-0.7,1.9-1.5,2.5-2s0.8-0.7,1.1-2.1
			c0.3-1.4,0.9-4.1,1.2-6.1c0.3-2,0.4-3.4,0.4-4.4c0.1-1,0.2-1.5,1.9-1.9s5.3-0.6,7.3-1.1s2.6-1.2,2.9-1.7s0.1-0.8-1.4-1.2
			s-4.5-0.9-6.3-1.3c-1.9-0.5-2.7-0.9-2.2-1.1c0.5-0.2,2.2-0.1,4,0s3.7,0.1,5.1,0.2c1.4,0.1,2.3,0.4,3,0.4s1.2-0.2,1.5-0.6
			c0.3-0.3,0.5-0.8,0.4-1.3s-0.5-1.1-1-1.5s-1-0.8-3-1s-5.5-0.3-6.3-0.8c-0.8-0.6,1-1.6,2.5-2.2s2.7-0.5,3.8-1s1.9-1.4,1.9-2
			c0-0.5-0.9-0.7-2.8-0.4s-4.9,1-6.6,1.4s-2.3,0.5-2.4,0.3s0-0.7,0.3-1.3c0.3-0.5,0.6-1,1.1-1.8s1-1.9,1.2-2.8s0.2-1.6-0.3-1.8
			s-1.3,0.2-2.2,0.8s-1.9,1.5-2.7,2.4c-0.8,0.9-1.6,1.7-2.5,3s-2,3.1-2.6,4.6s-0.8,2.6-1.3,3.5s-1.2,1.7-2.6,3.6s-3.5,5.1-4.9,7.7
			c-1.4,2.6-2.2,4.7-2.8,5.9c-0.6,1.2-1.1,1.7-2.4,2.9C391.5,786,391.1,786.4,390.7,786.7z"/>
		<path class="st13" d="M554.1,544.2c0-1.2-0.9-3-1.7-4.5s-1.4-2.7-2.1-4c-0.7-1.3-1.4-2.6-1.8-4c-0.5-1.4-0.7-2.9-0.3-4.8
			s1.5-4.4,3.2-6.2s3.9-2.9,5.2-3.8s1.7-1.7,2.3-2.2s1.4-0.7,3.2-1.2s4.6-1.4,7.3-2.1c2.7-0.7,5.2-1.5,7.9-2.2s5.4-1.5,8.4-2.8
			c3-1.4,6.1-3.3,9.9-5.1s8.3-3.5,13.6-5c5.2-1.5,11.2-2.7,15.6-3.5c4.4-0.8,7.3-1.1,13.1,0.3c5.8,1.5,14.6,4.8,21,7.2
			c6.4,2.4,10.3,3.8,14.6,7.3s8.9,9.2,12.4,14.6c3.6,5.4,6.1,10.4,7.7,14.5c1.6,4.1,2.2,7.2,2.4,9.9s0.1,5.1,0,6.8s-0.3,2.8-0.2,4.7
			s0.4,4.7,0.2,7.6s-1.1,6.1-3,9.7c-1.9,3.5-4.9,7.5-7.6,11.3c-2.7,3.8-5.2,7.6-8.5,11.6s-7.4,8.2-10.1,12c-2.7,3.8-4,7.1-7.5,10.3
			c-3.4,3.3-9,6.5-12.2,9.6s-4,6-6.2,8.5s-5.8,4.7-8.9,7c-3.1,2.2-5.8,4.6-7.3,5.8c-1.5,1.3-1.7,1.6-2.4,2s-1.8,1.1-2.4,1.4
			c-0.6,0.3-0.8,0.4-2,0.5s-3.6,0.3-5.9-0.8c-2.4-1-4.8-3.2-6.6-5.7s-3-5.5-4.6-8.8s-3.5-7.1-5.9-13.1s-5.3-14.2-7.8-20.9
			s-4.5-11.8-5.6-14.8c-1.1-2.9-1.2-3.7-1.2-4.6c-0.1-0.8-0.1-1.8,0.3-2.4c0.5-0.6,1.4-1,1.3-1.9c-0.1-0.9-1.1-2.3-2.4-3.9
			c-1.3-1.6-2.8-3.4-3.9-5.3c-1.1-1.9-2-3.9-2.5-5.7s-0.8-3.2-0.9-4.1c-0.2-0.9-0.2-1.1-0.8-1.1s-1.8,0.3-3,0.6
			c-1.1,0.3-2.2,0.6-3.2,0.6s-1.8-0.3-2.4-0.8s-1.1-1.1-2-1.8s-2.5-1.5-3.3-2.1s-1-1.1-1.4-1.6c-0.5-0.4-1.3-0.8-1.6-1.6
			s-0.2-2.1-0.4-3.3s-0.8-2.3-1.1-3.2c-0.4-0.9-0.5-1.7-0.1-2.4S554.1,545.5,554.1,544.2z"/>
		<path class="st13" d="M240.8,573.6c-9.2-7.8-11.9-12.3-12.9-15.5s-0.4-5,1.4-9.5c1.8-4.5,4.9-11.7,7.6-16.9
			c2.7-5.2,5-8.3,6.6-10.6s2.4-3.7,29.7-14.2c1.7-1.3,3.9-3.2,6.7-5.9c2.5-1.3,4.3-3.6,5.4-6c1.2-2.9,1.3-5.9,1.8-9.3
			c0.5-3.3,1.5-6.8,4.7-9.3s8.8-3.8,13.3-3.2s8.1,3.3,11.4,6.2c3.4,2.9,6.6,6,9.8,9.6c3.2,3.6,6.4,7.7,8.2,10.7s2.3,5.1,2.5,7.2
			s0.2,4.2-0.9,7.9c-1,3.7-3,8.9-4.3,12.7s-1.7,6-1.8,7.6c-0.2,1.6-0.1,2.7,0.2,3.9c0.2,1.3,0.6,2.8,0.8,4.6
			c0.2,1.9,0.4,4.1,0.5,6.3s0.3,4.3,0,6.7c-0.3,2.3-1,4.9-1.2,6.9s0.1,3.5-0.1,4.7s-1,2.2-1.9,2.4c-1,0.3-2.2-0.2-3.8,0
			c-1.6,0.1-3.5,0.8-5,1.5s-2.5,1.2-4.2,1.8s-4.2,1.1-6.9,2.1s-5.4,2.4-7.6,4.1c-2.3,1.7-4.1,3.8-4.3,6.3s1,5.4,4.9,9.1
			c3.9,3.6,10.3,7.9,14.1,11c3.8,3,4.9,4.8,7.9,7.9s8.1,7.6,14.5,12.4c6.4,4.8,14.3,10,23.1,15.5s18.3,11.3,24,14.5s7.4,3.9,9.8,4.5
			s5.5,1.1,8.5,1.2c3,0.1,5.9-0.2,9,0.4c3.1,0.6,6.4,2.1,8.3,3.5s2.4,2.7,1.7,3.8c-0.6,1.1-2.3,2.1-3.5,3.2
			c-1.2,1.1-1.9,2.2-2.3,3.4s-0.4,2.5-0.8,3.4s-1,1.4-1.8,1.9s-1.7,1.1-3.1,1.3c-1.3,0.2-3.1,0.1-5.6-0.1c-2.5-0.2-5.7-0.5-7.4-0.8
			s-1.9-0.5-3.1-1.8s-3.3-3.7-6.1-5.2c-2.8-1.5-6.4-2.1-14.4-5.1c-8.1-3-20.7-8.3-29.6-12.8s-14.2-8-20.2-12.1s-12.8-8.8-17.9-12
			c-5.1-3.3-8.4-5.1-10.6-7.2c-2.3-2.1-3.6-4.3-7.7-8.3s-11-9.8-15.9-14.2c-5-4.4-8-7.5-11.3-10.7s-6.8-6.5-9.8-9.7
			c-2.9-3.2-5.3-6.2-7.9-8.4C242.4,574.6,241.6,574.1,240.8,573.6z"/>
	</g>
	<path class="st0" d="M74.2,306c0,0,28.9,92.2,168.5,120.5c127,25.7,216.3,68.3,207.8,235.5"/>
	<path class="st0" d="M200,301.1c0,0-12.3,84,125.5,124.2C477.3,469.6,451,658.2,451,658.2"/>
	<path class="st0" d="M345.3,301.1c0,0,0,99,48.2,145.1c43,41.1,63.9,76.6,63.2,209.4"/>
	<path class="st0" d="M515.8,301.1c0,0,0,99-26.2,145.1c-23.4,41.1-34.7,76.6-34.3,209.4"/>
	<path class="st0" d="M771.5,306c0,0-23.7,92.2-138,120.5c-104,25.7-168.4,61.9-174.2,225.2"/>
	<path class="st0" d="M646.7,301.1c0,0,8.3,78.5-91.8,124.2c-104.2,47.6-95.8,226.4-95.8,226.4"/>
</g>
</svg>
