<?xml version="1.0" encoding="utf-8"?>
<!-- Generator: Adobe Illustrator 23.0.1, SVG Export Plug-In . SVG Version: 6.00 Build 0)  -->
<svg version="1.1" id="Layer_1" xmlns="http://www.w3.org/2000/svg" xmlns:xlink="http://www.w3.org/1999/xlink" x="0px" y="0px"
	 viewBox="0 0 70 30" style="enable-background:new 0 0 70 30;" xml:space="preserve">
<style type="text/css">
	.st0{fill:#FF3946;}
	.st1{fill:#314584;}
</style>
<g>
	<path class="st0" d="M42.7,23.3h1.7V25h-1.7V23.3z"/>
	<path class="st0" d="M47.6,18.6h-2.4v-1.5h6.4v1.5h-2.4V25h-1.7V18.6z"/>
	<path class="st0" d="M52.6,17.1h1.7v3h3.2v-3h1.7V25h-1.7v-3.4h-3.2V25h-1.7V17.1z"/>
	<path class="st0" d="M62.9,17.1h1.8l2.9,7.9h-1.8l-0.6-1.7h-2.9L61.7,25h-1.7L62.9,17.1z M62.7,22h2l-1-2.9h0L62.7,22z"/>
	<path class="st0" d="M68.3,17.1H70V25h-1.7V17.1z"/>
</g>
<g>
	<g>
		<path d="M5.9,11.6c-0.1-0.8-0.9-1.4-1.8-1.4C2.5,10.2,2,11.6,2,13c0,1.3,0.6,2.7,2.2,2.7c1.1,0,1.7-0.7,1.8-1.8h1.7
			c-0.2,2-1.6,3.3-3.5,3.3c-2.5,0-4-1.9-4-4.2c0-2.4,1.5-4.2,4-4.2c1.8,0,3.3,1,3.5,2.9H5.9z"/>
		<path d="M12.5,8.7c2.5,0,4,1.9,4,4.2c0,2.3-1.5,4.2-4,4.2s-4-1.9-4-4.2C8.5,10.6,10,8.7,12.5,8.7z M12.5,15.7
			c1.6,0,2.2-1.4,2.2-2.7c0-1.4-0.6-2.8-2.2-2.8s-2.2,1.4-2.2,2.8C10.3,14.3,10.9,15.7,12.5,15.7z"/>
		<path d="M17.6,8.9h1.8v6.6h3.9V17h-5.7V8.9z"/>
		<path d="M24.3,8.9h1.8v6.6H30V17h-5.7V8.9z"/>
		<path d="M31,8.9h6v1.5h-4.2v1.7h3.9v1.4h-3.9v2h4.3V17H31V8.9z"/>
		<path d="M43.6,11.6c-0.1-0.8-0.9-1.4-1.8-1.4c-1.6,0-2.2,1.4-2.2,2.8c0,1.3,0.6,2.7,2.2,2.7c1.1,0,1.7-0.7,1.8-1.8h1.7
			c-0.2,2-1.6,3.3-3.5,3.3c-2.5,0-4-1.9-4-4.2c0-2.4,1.5-4.2,4-4.2c1.8,0,3.3,1,3.5,2.9H43.6z"/>
		<path d="M48.4,10.4H46V8.9h6.6v1.5h-2.4V17h-1.8V10.4z"/>
		<path d="M53.5,8.9h1.8v8h-1.8V8.9z"/>
		<path d="M60.5,17h-2l-2.6-8h1.8l1.8,5.7h0l1.8-5.7h1.8L60.5,17z"/>
		<path d="M63.9,8.9h6v1.5h-4.2v1.7h3.9v1.4h-3.9v2H70V17h-6.1V8.9z"/>
	</g>
</g>
<g>
	<path class="st1" d="M0,0h4.6c1.5,0,2.5,1.1,2.5,2.3c0,1-0.4,1.8-1.3,2.1v0c0.9,0.3,1.2,1.1,1.2,2c0,0.5,0,1.5,0.4,2H5.5
		C5.2,8,5.3,7.2,5.2,6.5C5,5.6,4.7,5.2,3.7,5.2H1.9v3.3H0V0z M1.9,3.9h2c0.8,0,1.3-0.4,1.3-1.2c0-0.8-0.4-1.2-1.3-1.2h-2V3.9z"/>
	<path class="st1" d="M8.6,0H15v1.6h-4.5v1.8h4.1v1.5h-4.1V7h4.6v1.6H8.6V0z"/>
	<path class="st1" d="M17.6,5.7c0,1.1,0.9,1.6,1.9,1.6c0.7,0,1.7-0.2,1.7-1.1c0-0.9-1.3-1.1-2.5-1.4c-1.3-0.3-2.5-0.8-2.5-2.4
		c0-1.8,1.6-2.6,3.2-2.6c1.8,0,3.4,0.8,3.4,2.7h-1.8c-0.1-1-0.8-1.3-1.7-1.3c-0.6,0-1.3,0.3-1.3,1c0,0.7,0.4,0.8,2.5,1.3
		C21.1,3.7,23,4.1,23,6c0,1.6-1.2,2.7-3.5,2.7c-1.9,0-3.7-0.9-3.6-3H17.6z"/>
	<path class="st1" d="M24.1,0h1.9v8.5h-1.9V0z"/>
	<path class="st1" d="M27.6,0h1.9V7h4.1v1.6h-6V0z"/>
	<path class="st1" d="M34.6,0h1.9v8.5h-1.9V0z"/>
	<path class="st1" d="M38.2,0h6.4v1.6H40v1.8h4.1v1.5H40V7h4.6v1.6h-6.5V0z"/>
	<path class="st1" d="M45.9,0h1.9l3.6,5.7h0V0h1.8v8.5h-1.9l-3.5-5.7h0v5.7h-1.8V0z"/>
	<path class="st1" d="M60.4,2.9c-0.1-0.8-0.9-1.5-1.9-1.5c-1.7,0-2.3,1.4-2.3,2.9c0,1.4,0.6,2.8,2.3,2.8c1.1,0,1.8-0.8,1.9-1.9h1.8
		c-0.2,2.1-1.6,3.5-3.7,3.5c-2.6,0-4.2-2-4.2-4.4c0-2.5,1.6-4.5,4.2-4.5c1.9,0,3.4,1.1,3.7,3.1H60.4z"/>
	<path class="st1" d="M63.5,0h6.4v1.6h-4.5v1.8h4.1v1.5h-4.1V7H70v1.6h-6.5V0z"/>
</g>
</svg>
