<?xml version="1.0" encoding="utf-8"?>
<!-- Generator: Adobe Illustrator 23.0.1, SVG Export Plug-In . SVG Version: 6.00 Build 0)  -->
<svg version="1.1" id="Layer_1" xmlns="http://www.w3.org/2000/svg" xmlns:xlink="http://www.w3.org/1999/xlink" x="0px" y="0px"
	 viewBox="0 0 141.5 30" style="enable-background:new 0 0 141.5 30;" xml:space="preserve">
<style type="text/css">
	.st0{fill:#314584;}
	.st1{fill:#FF3946;}
</style>
<g>
	<g>
		<path class="st0" d="M2.3,0.5h6.9C11.6,0.5,13,2.1,13,4c0,1.5-0.6,2.6-2,3.2v0c1.4,0.4,1.8,1.7,1.9,3c0.1,0.8,0,2.3,0.5,3h-2.8
			c-0.3-0.8-0.3-2.1-0.5-3.1C9.9,8.9,9.4,8.3,8,8.3H5.2v5H2.3V0.5z M5.2,6.3h3.1c1.3,0,1.9-0.5,1.9-1.8c0-1.2-0.7-1.8-1.9-1.8H5.2
			V6.3z"/>
		<path class="st0" d="M15.3,0.5h9.6v2.4h-6.8v2.8h6.2v2.2h-6.2V11h6.9v2.4h-9.8V0.5z"/>
		<path class="st0" d="M28.9,9.1c0,1.7,1.3,2.4,2.8,2.4c1,0,2.5-0.3,2.5-1.6c0-1.4-1.9-1.6-3.8-2.1c-1.9-0.5-3.8-1.3-3.8-3.7
			c0-2.6,2.5-3.9,4.8-3.9c2.7,0,5.1,1.2,5.1,4.1h-2.7c-0.1-1.5-1.2-1.9-2.5-1.9c-0.9,0-1.9,0.4-1.9,1.5c0,1,0.6,1.1,3.8,1.9
			C34.1,6,37,6.6,37,9.5c0,2.4-1.8,4.1-5.3,4.1c-2.8,0-5.5-1.4-5.5-4.6H28.9z"/>
		<path class="st0" d="M38.7,0.5h2.8v12.9h-2.8V0.5z"/>
		<path class="st0" d="M44,0.5h2.8V11h6.3v2.4H44V0.5z"/>
		<path class="st0" d="M54.7,0.5h2.8v12.9h-2.8V0.5z"/>
		<path class="st0" d="M60,0.5h9.6v2.4h-6.8v2.8H69v2.2h-6.2V11h6.9v2.4H60V0.5z"/>
		<path class="st0" d="M71.6,0.5h2.8l5.4,8.6h0V0.5h2.6v12.9h-2.8l-5.3-8.6h0v8.6h-2.6V0.5z"/>
		<path class="st0" d="M93.5,4.8c-0.2-1.3-1.4-2.3-2.8-2.3c-2.5,0-3.5,2.2-3.5,4.4c0,2.1,1,4.3,3.5,4.3c1.7,0,2.7-1.2,2.9-2.9h2.7
			c-0.3,3.2-2.5,5.3-5.7,5.3c-4,0-6.3-3-6.3-6.7c0-3.8,2.4-6.8,6.3-6.8c2.8,0,5.2,1.7,5.5,4.6H93.5z"/>
		<path class="st0" d="M98.3,0.5h9.6v2.4h-6.8v2.8h6.2v2.2h-6.2V11h6.9v2.4h-9.8V0.5z"/>
	</g>
	<g>
		<path d="M9.9,21c-0.2-1.3-1.4-2.3-2.8-2.3c-2.5,0-3.5,2.2-3.5,4.4c0,2.1,1,4.3,3.5,4.3c1.7,0,2.7-1.2,2.9-2.9h2.7
			c-0.3,3.2-2.5,5.3-5.7,5.3c-4,0-6.3-3-6.3-6.7c0-3.8,2.4-6.8,6.3-6.8c2.8,0,5.2,1.7,5.5,4.6H9.9z"/>
		<path d="M20.4,16.4c4,0,6.3,3,6.3,6.8c0,3.7-2.4,6.7-6.3,6.7c-4,0-6.3-3-6.3-6.7C14.1,19.3,16.5,16.4,20.4,16.4z M20.4,27.4
			c2.5,0,3.5-2.2,3.5-4.3c0-2.3-1-4.4-3.5-4.4c-2.5,0-3.5,2.2-3.5,4.4C16.9,25.3,17.9,27.4,20.4,27.4z"/>
		<path d="M28.7,16.7h2.8v10.5h6.3v2.4h-9.1V16.7z"/>
		<path d="M39.3,16.7h2.8v10.5h6.3v2.4h-9.1V16.7z"/>
		<path d="M50,16.7h9.6V19h-6.8v2.8h6.2V24h-6.2v3.2h6.9v2.4H50V16.7z"/>
		<path d="M70.2,21c-0.2-1.3-1.4-2.3-2.8-2.3c-2.5,0-3.5,2.2-3.5,4.4c0,2.1,1,4.3,3.5,4.3c1.7,0,2.7-1.2,2.9-2.9h2.7
			c-0.3,3.2-2.5,5.3-5.7,5.3c-4,0-6.3-3-6.3-6.7c0-3.8,2.4-6.8,6.3-6.8c2.8,0,5.2,1.7,5.5,4.6H70.2z"/>
		<path d="M77.9,19H74v-2.4h10.5V19h-3.9v10.5h-2.8V19z"/>
		<path d="M86,16.7h2.8v12.9H86V16.7z"/>
		<path d="M97.3,29.5h-3.2l-4.2-12.9h2.9l2.9,9h0l2.9-9h2.9L97.3,29.5z"/>
		<path d="M102.7,16.7h9.6V19h-6.8v2.8h6.2V24h-6.2v3.2h6.9v2.4h-9.8V16.7z"/>
		<path class="st1" d="M114.7,29.5v-1.4h0.7v1.4H114.7z"/>
		<path class="st1" d="M116.8,20v-0.5h7.7V20h-3.5v9.5h-0.6V20H116.8z"/>
		<path class="st1" d="M125.6,19.5v4.3h0c0.4-1.1,1.4-1.7,2.6-1.7c2.5,0,2.6,2,2.6,2.9v4.5h-0.5V25c0-0.7-0.1-2.4-2-2.4
			c-1.6,0-2.6,1.3-2.6,3v3.9H125v-10H125.6z"/>
		<path class="st1" d="M137.6,28.2c0,0.4,0,0.9,0.5,0.9c0.1,0,0.2,0,0.4,0v0.4c-0.2,0-0.3,0.1-0.4,0.1c-0.8,0-1-0.5-1-1.1v-0.4h0
			c-0.3,0.9-1.3,1.6-2.7,1.6c-1.4,0-2.4-0.5-2.4-2c0-1.7,1.5-2,2.6-2.1c2.4-0.2,2.5-0.3,2.5-1.5c0-0.3-0.4-1.4-2-1.4
			c-1.3,0-2.1,0.7-2.2,1.9h-0.5c0.1-1.6,1.1-2.4,2.7-2.4c1.3,0,2.5,0.4,2.5,1.9V28.2z M137.1,25.4c-0.4,0.5-1.6,0.4-2.6,0.6
			c-1.3,0.2-2,0.6-2,1.7c0,0.9,0.6,1.6,1.9,1.6c2.4,0,2.7-2.1,2.7-2.5V25.4z"/>
		<path class="st1" d="M139.4,21v-1.4h0.5V21H139.4z M139.4,29.5v-7.2h0.5v7.2H139.4z"/>
	</g>
</g>
</svg>
