<?xml version="1.0" encoding="utf-8"?>
<!-- Generator: Adobe Illustrator 23.0.1, SVG Export Plug-In . SVG Version: 6.00 Build 0)  -->
<svg version="1.1" id="Layer_1" xmlns="http://www.w3.org/2000/svg" xmlns:xlink="http://www.w3.org/1999/xlink" x="0px" y="0px"
	 viewBox="0 0 235 56.9" style="enable-background:new 0 0 235 56.9;" xml:space="preserve">
<style type="text/css">
	.st0{fill:#FF3946;}
	.st1{fill:#314584;}
	.st2{fill-rule:evenodd;clip-rule:evenodd;fill:#314584;}
	.st3{fill-rule:evenodd;clip-rule:evenodd;fill:#FF3946;}
</style>
<path class="st0" d="M31,43.6c-2.6,0-4.6-2-4.6-4.6s2-4.6,4.6-4.6s4.6,2,4.6,4.6C35.6,41.6,33.6,43.6,31,43.6z M31,36.8
	c-1.2,0-2.2,1-2.2,2.2c0,1.2,1,2.2,2.2,2.2s2.2-1,2.2-2.2C33.3,37.8,32.3,36.8,31,36.8z"/>
<path class="st1" d="M43.7,43.6c-2.6,0-4.6-2-4.6-4.6s2-4.6,4.6-4.6s4.6,2,4.6,4.6C48.3,41.6,46.3,43.6,43.7,43.6z M43.7,36.8
	c-1.2,0-2.2,1-2.2,2.2c0,1.2,1,2.2,2.2,2.2c1.2,0,2.2-1,2.2-2.2C46,37.8,45,36.8,43.7,36.8z"/>
<path class="st0" d="M56.4,43.6c-2.6,0-4.6-2-4.6-4.6s2-4.6,4.6-4.6s4.6,2,4.6,4.6C61,41.6,59,43.6,56.4,43.6z M56.4,36.8
	c-1.2,0-2.2,1-2.2,2.2c0,1.2,1,2.2,2.2,2.2c1.2,0,2.2-1,2.2-2.2C58.7,37.8,57.7,36.8,56.4,36.8z"/>
<path class="st1" d="M42,27.7c-0.6,0.6-0.6,1.6,0,2.2c0.4,0.3,0.7,0.4,1.1,0.4c0.4,0,0.8-0.2,1.1-0.4l1.1-1.1l1.1,1.1
	c0.4,0.3,0.7,0.4,1.1,0.4c0.4,0,0.8-0.2,1.1-0.4c0.6-0.6,0.6-1.6,0-2.2l-1.1-1.1l1.1-1.1c0.6-0.6,0.6-1.6,0-2.2
	c-0.6-0.6-1.6-0.6-2.2,0l-1,1.1l-1.1-1.1c-0.6-0.6-1.6-0.6-2.2,0c-0.6,0.6-0.6,1.6,0,2.2l1.1,1.1L42,27.7z"/>
<path class="st0" d="M27.8,8.5c-0.6,0.6-0.6,1.6,0,2.2c0.4,0.3,0.7,0.4,1.1,0.4c0.4,0,0.8-0.2,1.1-0.4L31,9.6l1.1,1.1
	c0.4,0.3,0.7,0.4,1.1,0.4c0.4,0,0.8-0.2,1.1-0.4c0.6-0.6,0.6-1.6,0-2.2l-1.1-1.1l1.1-1.1c0.6-0.6,0.6-1.6,0-2.2
	c-0.6-0.6-1.6-0.6-2.2,0l-1,1.1l-1-1.1c-0.6-0.6-1.6-0.6-2.2,0c-0.6,0.6-0.6,1.6,0,2.2L29,7.3L27.8,8.5z"/>
<path class="st1" d="M53.8,21.5c-0.6,0.6-0.6,1.6,0,2.2c0.4,0.3,0.7,0.4,1.1,0.4c0.4,0,0.8-0.2,1.1-0.4l1.1-1.1l1.1,1.1
	c0.4,0.3,0.7,0.4,1.1,0.4s0.8-0.2,1.1-0.4c0.6-0.6,0.6-1.6,0-2.2l-1.1-1.1l1.1-1.1c0.6-0.6,0.6-1.6,0-2.2c-0.6-0.6-1.6-0.6-2.2,0
	l-1,1.1l-1.1-1.1c-0.6-0.6-1.6-0.6-2.2,0c-0.6,0.6-0.6,1.6,0,2.2l1.1,1.1L53.8,21.5z"/>
<path class="st1" d="M54.7,6.2l-3.4-4.5c-0.4-0.5-1.1-0.5-1.5,0l-3.4,4.5c-0.3,0.4-0.3,1,0.2,1.3c0.2,0.1,0.4,0.2,0.6,0.2
	c0.3,0,0.6-0.1,0.8-0.4l1.7-2.2v2.4c0.1,5.6-3.2,6.1-8.5,6.5c-4.9,0.3-11,0.8-11,9.3v7.9c0,0.5,0.4,1,1,1c0.5,0,1-0.4,1-1v-7.9
	c0-6.8,4-7,9.1-7.3c4.6-0.3,10.3-0.7,10.3-8.4V5.2l1.7,2.2c0.3,0.4,1,0.5,1.3,0.2C55,7.3,55,6.6,54.7,6.2L54.7,6.2z"/>
<path class="st1" d="M43.7,56.3c-2.6,0-4.6-2-4.6-4.6s2-4.6,4.6-4.6s4.6,2,4.6,4.6S46.3,56.3,43.7,56.3z M43.7,49.4
	c-1.2,0-2.2,1-2.2,2.2c0,1.2,1,2.2,2.2,2.2c1.2,0,2.2-1,2.2-2.2C46,50.5,45,49.4,43.7,49.4z"/>
<path class="st1" d="M11,14.2c0.4,0.3,1,0.3,1.3-0.2l1.7-2.2v26.4c0,14.4,12.3,14.4,16.4,14.4h4c0.5,0,1-0.4,1-1c0-0.5-0.4-1-1-1
	l-4,0c-13,0-14.4-7.1-14.4-12.4l0-26.4l1.7,2.2c0.2,0.3,0.4,0.4,0.8,0.4c0.2,0,0.4-0.1,0.6-0.2c0.4-0.3,0.5-0.9,0.2-1.3l-3.4-4.5
	c-0.4-0.5-1.1-0.5-1.5,0l-3.4,4.5C10.5,13.4,10.5,13.9,11,14.2L11,14.2z"/>
<g id="XMLID_1_">
	<g>
		<path class="st1" d="M226.5,8h-29.1v39.8h-1.6V4.2c0-1.8,1.4-3.2,3.2-3.2h26c1.7,0,3.1,1.4,3.2,3.2V8H226.5z M214,5.8
			c0.2,0,0.4-0.2,0.4-0.4c0-0.2-0.2-0.4-0.4-0.4h-4.2c-0.2,0-0.4,0.2-0.4,0.4c0,0.2,0.2,0.4,0.4,0.4H214z"/>
		<path class="st0" d="M211.9,49.7c1.1,0,2,0.9,2,2c0,1.1-0.9,2-2,2c-1.1,0-2-0.9-2-2C209.9,50.6,210.8,49.7,211.9,49.7z"/>
		<path class="st1" d="M211.9,53.7c1.1,0,2-0.9,2-2c0-1.1-0.9-2-2-2v-1.9h14.6V8h1.7v44.9c0,1.8-1.4,3.2-3.2,3.2h-13.1V53.7z"/>
		<path class="st1" d="M209.9,51.7c0,1.1,0.9,2,2,2v2.4h-13c-1.8,0-3.2-1.4-3.2-3.2v-5.1h1.6h14.6v1.9
			C210.8,49.7,209.9,50.6,209.9,51.7z"/>
	</g>
</g>
<g>
	<path class="st1" d="M128.7,22.6c-0.1,0-0.1,0-0.2,0L103,10.7c-0.1-0.1-0.2-0.2-0.2-0.3c0-0.1,0.1-0.3,0.2-0.3l19.4-9.2
		c0.1,0,0.2,0,0.3,0l25,12.1c0.1,0.1,0.2,0.2,0.2,0.3c0,0.1-0.1,0.3-0.2,0.3l-18.8,9.1C128.8,22.6,128.8,22.6,128.7,22.6z M104,10.3
		l24.7,11.5l18-8.7L122.5,1.5L104,10.3z"/>
	<path class="st1" d="M128.7,56.7c-0.1,0-0.1,0-0.2-0.1c-0.1-0.1-0.2-0.2-0.2-0.3V22.2c0-0.2,0.2-0.4,0.4-0.4s0.4,0.2,0.4,0.4v33.5
		l17.9-9.2l0.2-33.3c0-0.2,0.2-0.4,0.4-0.4c0,0,0,0,0,0c0.2,0,0.4,0.2,0.4,0.4l-0.2,33.6c0,0.1-0.1,0.3-0.2,0.3l-18.7,9.6
		C128.8,56.7,128.8,56.7,128.7,56.7z"/>
	<path class="st1" d="M128.7,56.7c-0.1,0-0.1,0-0.2,0L103,45.1c-0.1-0.1-0.2-0.2-0.2-0.3V10.3c0-0.2,0.2-0.4,0.4-0.4
		c0.2,0,0.4,0.2,0.4,0.4v34.2L128.8,56c0.2,0.1,0.3,0.3,0.2,0.5C129,56.6,128.8,56.7,128.7,56.7z"/>
	<path class="st2" d="M128.7,56.3V22.2l-25.6-11.9v34.5L128.7,56.3z M122.8,48.7l-6.2-2.8v-9.4l6.2,3V48.7L122.8,48.7z M122.8,33.4
		l-6.2-2.8v-9.4l6.2,2.8V33.4z M114.1,29.5l-6-3v-9.4l6,3V29.5z M114.1,35.4v9.4l-6-3v-9.2L114.1,35.4L114.1,35.4z"/>
	<path class="st3" d="M131.2,40v9.4l5.7-2.8v-9.4L131.2,40z"/>
	<path class="st3" d="M131.2,34.1l5.7-2.8v-9.4l-5.7,2.8V34.1z"/>
	<path class="st3" d="M139.2,20.5v9.4l5.9-3v-9.4L139.2,20.5z"/>
	<path class="st3" d="M145,32.9l-5.9,2.8v9.4l5.9-3V32.9z"/>
</g>
</svg>
