<?xml version="1.0" encoding="utf-8"?>
<!-- Generator: Adobe Illustrator 23.0.1, SVG Export Plug-In . SVG Version: 6.00 Build 0)  -->
<svg version="1.1" id="Layer_1" xmlns="http://www.w3.org/2000/svg" xmlns:xlink="http://www.w3.org/1999/xlink" x="0px" y="0px"
	 viewBox="0 0 127.1 37.9" style="enable-background:new 0 0 127.1 37.9;" xml:space="preserve">
<style type="text/css">
	.st0{fill:none;stroke:#C65454;stroke-width:0.5;stroke-miterlimit:10;}
	.st1{fill:none;stroke:#314584;stroke-width:0.5;stroke-miterlimit:10;}
	.st2{fill:#314584;}
	.st3{fill:none;stroke:#314584;stroke-width:0.5;stroke-linecap:round;stroke-miterlimit:10;}
	.st4{fill:none;stroke:#C65454;stroke-width:0.5;stroke-linecap:round;stroke-miterlimit:10;}
	.st5{fill:#C65454;}
</style>
<path class="st0" d="M108.2,6.6c0.1,0,0.2-0.1,0.2-0.2s-0.1-0.2-0.2-0.2h-2.1c-0.1,0-0.2,0.1-0.2,0.2s0.1,0.2,0.2,0.2H108.2z"/>
<path class="st1" d="M99,27.6V5.8c0-0.9,0.7-1.6,1.6-1.6h13c0.8,0,1.6,0.7,1.6,1.6v1.9c0,0-0.8,0-0.8,0H99.8v19.8h14.6V7.7h0.8v22.5
	c0,0.9-0.5,1.5-1.6,1.5h-6.5h0h-6.5c-0.9,0-1.6-0.7-1.6-1.6V27.6"/>
<g>
	<g id="XMLID_2_">
		<g>
			<path class="st2" d="M65.5,15l0.2-0.1v16.7l9-4.6l0.1-16.5l0.2-0.1c0.1-0.1,0.1-0.1,0.1-0.2c0,0,0-0.1,0-0.1
				c0.1,0,0.1,0.1,0.1,0.2L75,27.1c0,0.1,0,0.1-0.1,0.2l-9.2,4.6c0,0,0-0.2-0.1-0.2l-0.1,0V15z"/>
			<path class="st2" d="M75.1,10.1C75.1,10.1,75.1,10.2,75.1,10.1c0,0.2,0,0.2-0.1,0.3l-0.2,0.1v-0.2C74.8,10.2,74.9,10.1,75.1,10.1
				C75,10.1,75.1,10.1,75.1,10.1z"/>
			<path class="st2" d="M75.1,10.1C75.1,10.1,75,10.1,75.1,10.1c-0.2,0-0.3,0.1-0.3,0.2v0.2l-9.1,4.4v-0.1c0-0.1-0.1-0.2-0.2-0.2
				c-0.1,0-0.1,0-0.2,0.1L52.9,8.9v0c0-0.1-0.1-0.2-0.2-0.2c-0.1,0-0.2,0.1-0.2,0.2c0,0,0-0.1,0-0.1c0-0.1,0-0.1,0.1-0.2L62.3,4
				c0.1,0,0.1,0,0.2,0L75,10C75.1,10,75.1,10.1,75.1,10.1z M65.6,14.6l9-4.3L62.4,4.4l-9.2,4.5L65.6,14.6z"/>
			<path class="st2" d="M65.7,14.8L65.7,14.8L65.5,15v-0.2l-0.2-0.1c0-0.1,0.1-0.1,0.2-0.1C65.6,14.6,65.7,14.7,65.7,14.8z"/>
			<path class="st2" d="M65.7,31.9L65.5,32h0l-0.1-0.1c-0.1,0-0.1-0.1-0.1-0.1l0.2,0.1v-0.2l0.1,0C65.7,31.7,65.7,31.9,65.7,31.9z"
				/>
			<path class="st2" d="M65.5,32l0.2-0.1C65.6,32,65.6,32,65.5,32z"/>
			<polygon class="st2" points="65.5,31.7 65.5,31.9 65.3,31.8 65.3,31.8 65.3,31.6 			"/>
			<polygon class="st2" points="65.5,15 65.5,31.7 65.3,31.6 65.3,14.9 			"/>
			<path class="st2" d="M65.5,14.8V15l-0.2-0.1v-0.1c0,0,0-0.1,0-0.1L65.5,14.8z"/>
			<path class="st2" d="M65.4,31.9l-12.8-5.7c-0.1,0-0.1-0.1-0.1-0.2V8.9c0,0,0,0,0,0c0,0.1,0,0.1,0.1,0.1l0.1,0.1v17l12.6,5.8
				C65.3,31.9,65.3,31.9,65.4,31.9z"/>
			<path class="st2" d="M52.9,8.9l12.4,5.8c0,0,0,0.1,0,0.1v0.1L52.9,9.1V8.9z"/>
			<polygon class="st2" points="65.3,31.8 65.3,31.8 52.7,26 52.7,9.1 52.9,9.1 52.9,26 65.3,31.6 			"/>
			<polygon class="st2" points="52.9,8.9 52.9,9.1 52.7,9.1 52.7,8.8 52.9,8.9 			"/>
			<path class="st2" d="M52.9,8.9l-0.2-0.1v0.3L52.6,9c-0.1,0-0.1-0.1-0.1-0.1c0-0.1,0.1-0.2,0.2-0.2C52.8,8.7,52.9,8.8,52.9,8.9z"
				/>
		</g>
		<g>
			<polygon class="st1" points="62.6,28 59.5,26.6 59.5,21.9 62.6,23.4 			"/>
			<polygon class="st1" points="62.6,20.4 59.5,19 59.5,14.3 62.6,15.7 			"/>
			<polygon class="st1" points="58.2,18.5 55.2,17 55.2,12.3 58.2,13.8 			"/>
			<polygon class="st1" points="58.2,21.4 58.2,26.1 55.2,24.6 55.2,20 			"/>
			<polygon class="st0" points="66.8,23.7 66.8,28.4 69.6,27 69.6,22.3 			"/>
			<polygon class="st0" points="66.8,20.8 69.6,19.4 69.6,14.7 66.8,16.1 			"/>
			<polygon class="st0" points="70.8,13.9 70.8,18.6 73.7,17.1 73.7,12.4 			"/>
			<polygon class="st0" points="73.7,20.1 70.8,21.5 70.8,26.2 73.7,24.7 			"/>
		</g>
	</g>
</g>
<circle class="st0" cx="107" cy="29.5" r="1.1"/>
<g>
	<circle class="st0" cx="17.7" cy="23.5" r="1.9"/>
	<circle class="st1" cx="24.1" cy="23.5" r="1.9"/>
	<circle class="st1" cx="24.1" cy="29.4" r="1.9"/>
	<circle class="st0" cx="30.4" cy="23.5" r="1.9"/>
	<g>
		<line class="st3" x1="25.3" y1="17" x2="22.8" y2="19.4"/>
		<line class="st3" x1="22.8" y1="17" x2="25.3" y2="19.4"/>
	</g>
	<g>
		<line class="st4" x1="18.9" y1="7.8" x2="16.5" y2="10.3"/>
		<line class="st4" x1="16.5" y1="7.8" x2="18.9" y2="10.3"/>
	</g>
	<g>
		<g>
			<path class="st3" d="M19.6,29.4c0,0-8.3,1.2-8.3-5c0-5.3,0-10.2,0-11.5"/>
			<g>
				<polygon class="st2" points="12.5,13.9 12.3,14.1 11.3,13 10.3,14.1 10.1,13.9 11.3,12.6 				"/>
			</g>
		</g>
	</g>
	<g>
		<g>
			<path class="st0" d="M17.7,19.9c-0.1-1.9-0.6-4.8,1.3-6.2c1.8-1.3,4.8-0.5,6.8-1.6c1.6-0.9,1.9-2.7,1.8-4.3V6.1"/>
			<g>
				<polygon class="st5" points="28.8,7.1 28.6,7.3 27.6,6.2 26.6,7.3 26.4,7.1 27.6,5.8 				"/>
			</g>
		</g>
	</g>
</g>
</svg>
