<?xml version="1.0" encoding="utf-8"?>
<!-- Generator: Adobe Illustrator 23.0.1, SVG Export Plug-In . SVG Version: 6.00 Build 0)  -->
<svg version="1.1" id="Layer_1" xmlns="http://www.w3.org/2000/svg" xmlns:xlink="http://www.w3.org/1999/xlink" x="0px" y="0px"
	 viewBox="0 0 144.6 37.9" style="enable-background:new 0 0 144.6 37.9;" xml:space="preserve">
<style type="text/css">
	.st0{fill:#FF3946;}
	.st1{fill:#314584;}
	.st2{fill-rule:evenodd;clip-rule:evenodd;fill:#314584;}
	.st3{fill-rule:evenodd;clip-rule:evenodd;fill:#FF3946;}
</style>
<path class="st0" d="M16.7,25.5c-1.3,0-2.3-1-2.3-2.3s1-2.3,2.3-2.3s2.3,1,2.3,2.3C19,24.5,18,25.5,16.7,25.5z M16.7,22.1
	c-0.6,0-1.1,0.5-1.1,1.1c0,0.6,0.5,1.1,1.1,1.1s1.1-0.5,1.1-1.1C17.8,22.6,17.3,22.1,16.7,22.1z"/>
<path class="st1" d="M23,25.5c-1.3,0-2.3-1-2.3-2.3s1-2.3,2.3-2.3s2.3,1,2.3,2.3C25.3,24.5,24.3,25.5,23,25.5z M23,22.1
	c-0.6,0-1.1,0.5-1.1,1.1c0,0.6,0.5,1.1,1.1,1.1c0.6,0,1.1-0.5,1.1-1.1C24.1,22.6,23.7,22.1,23,22.1z"/>
<path class="st0" d="M29.4,25.5c-1.3,0-2.3-1-2.3-2.3s1-2.3,2.3-2.3c1.3,0,2.3,1,2.3,2.3C31.7,24.5,30.7,25.5,29.4,25.5z M29.4,22.1
	c-0.6,0-1.1,0.5-1.1,1.1c0,0.6,0.5,1.1,1.1,1.1c0.6,0,1.1-0.5,1.1-1.1C30.5,22.6,30,22.1,29.4,22.1z"/>
<path class="st1" d="M22.2,17.5c-0.3,0.3-0.3,0.8,0,1.1c0.2,0.2,0.4,0.2,0.5,0.2c0.2,0,0.4-0.1,0.5-0.2l0.5-0.5l0.5,0.5
	c0.2,0.2,0.4,0.2,0.5,0.2c0.2,0,0.4-0.1,0.5-0.2c0.3-0.3,0.3-0.8,0-1.1L24.9,17l0.5-0.5c0.3-0.3,0.3-0.8,0-1.1
	c-0.3-0.3-0.8-0.3-1.1,0l-0.5,0.5l-0.5-0.5c-0.3-0.3-0.8-0.3-1.1,0c-0.3,0.3-0.3,0.8,0,1.1l0.5,0.5L22.2,17.5z"/>
<path class="st0" d="M15,7.9c-0.3,0.3-0.3,0.8,0,1.1c0.2,0.2,0.4,0.2,0.5,0.2c0.2,0,0.4-0.1,0.5-0.2l0.5-0.5L17.2,9
	c0.2,0.2,0.4,0.2,0.5,0.2c0.2,0,0.4-0.1,0.5-0.2c0.3-0.3,0.3-0.8,0-1.1l-0.5-0.5l0.5-0.5c0.3-0.3,0.3-0.8,0-1.1
	c-0.3-0.3-0.8-0.3-1.1,0l-0.5,0.5l-0.5-0.6c-0.3-0.3-0.8-0.3-1.1,0c-0.3,0.3-0.3,0.8,0,1.1l0.5,0.5L15,7.9z"/>
<path class="st1" d="M28.1,14.4c-0.3,0.3-0.3,0.8,0,1.1c0.2,0.2,0.4,0.2,0.5,0.2s0.4-0.1,0.5-0.2l0.5-0.5l0.5,0.5
	c0.2,0.2,0.4,0.2,0.5,0.2s0.4-0.1,0.5-0.2c0.3-0.3,0.3-0.8,0-1.1l-0.5-0.5l0.5-0.5c0.3-0.3,0.3-0.8,0-1.1c-0.3-0.3-0.8-0.3-1.1,0
	l-0.5,0.5l-0.5-0.5c-0.3-0.3-0.8-0.3-1.1,0c-0.3,0.3-0.3,0.8,0,1.1l0.5,0.5L28.1,14.4z"/>
<path class="st1" d="M28.5,6.8l-1.7-2.2c-0.2-0.3-0.6-0.3-0.8,0l-1.7,2.2c-0.2,0.2-0.1,0.5,0.1,0.7c0.1,0.1,0.2,0.1,0.3,0.1
	c0.2,0,0.3-0.1,0.4-0.2l0.8-1.1v1.2c0,2.8-1.6,3-4.2,3.2c-2.5,0.2-5.5,0.4-5.5,4.7v4c0,0.3,0.2,0.5,0.5,0.5c0.3,0,0.5-0.2,0.5-0.5
	v-4c0-3.4,2-3.5,4.6-3.7c2.3-0.2,5.2-0.4,5.1-4.2V6.3l0.9,1.1c0.2,0.2,0.5,0.3,0.7,0.1C28.6,7.3,28.7,7,28.5,6.8L28.5,6.8z"/>
<path class="st1" d="M23,31.9c-1.3,0-2.3-1-2.3-2.3s1-2.3,2.3-2.3s2.3,1,2.3,2.3S24.3,31.9,23,31.9z M23,28.4
	c-0.6,0-1.1,0.5-1.1,1.1c0,0.6,0.5,1.1,1.1,1.1c0.6,0,1.1-0.5,1.1-1.1C24.1,28.9,23.7,28.4,23,28.4z"/>
<path class="st1" d="M6.7,10.8c0.2,0.2,0.5,0.1,0.7-0.1l0.8-1.1v13.2c0,7.2,6.2,7.2,8.2,7.2h2c0.3,0,0.5-0.2,0.5-0.5
	c0-0.3-0.2-0.5-0.5-0.5l-2,0c-6.5,0-7.2-3.5-7.2-6.2l0-13.2l0.8,1.1c0.1,0.1,0.2,0.2,0.4,0.2c0.1,0,0.2,0,0.3-0.1
	c0.2-0.2,0.3-0.4,0.1-0.7L9,7.9c-0.2-0.3-0.6-0.3-0.8,0l-1.7,2.2C6.4,10.4,6.4,10.7,6.7,10.8L6.7,10.8z"/>
<g id="XMLID_1_">
	<g>
		<path class="st1" d="M114.4,7.7H99.8v19.9H99V5.8c0-0.9,0.7-1.6,1.6-1.6h13c0.8,0,1.6,0.7,1.6,1.6v1.9H114.4z M108.2,6.6
			c0.1,0,0.2-0.1,0.2-0.2c0-0.1-0.1-0.2-0.2-0.2h-2.1c-0.1,0-0.2,0.1-0.2,0.2c0,0.1,0.1,0.2,0.2,0.2H108.2z"/>
		<path class="st0" d="M107.1,28.5c0.6,0,1,0.4,1,1c0,0.6-0.4,1-1,1c-0.6,0-1-0.4-1-1C106.1,29,106.6,28.5,107.1,28.5z"/>
		<path class="st1" d="M107.1,30.5c0.6,0,1-0.4,1-1c0-0.6-0.4-1-1-1v-1h7.3V7.7h0.8v22.5c0,0.9-0.7,1.6-1.6,1.6h-6.5V30.5z"/>
		<path class="st1" d="M106.1,29.5c0,0.6,0.4,1,1,1v1.2h-6.5c-0.9,0-1.6-0.7-1.6-1.6v-2.6h0.8h7.3v1C106.6,28.5,106.1,29,106.1,29.5
			z"/>
	</g>
</g>
<g>
	<path class="st1" d="M65.5,15C65.5,15,65.5,15,65.5,15L52.6,9c-0.1,0-0.1-0.1-0.1-0.2c0-0.1,0-0.1,0.1-0.2l9.7-4.6
		c0.1,0,0.1,0,0.2,0l12.5,6c0.1,0,0.1,0.1,0.1,0.2c0,0.1,0,0.1-0.1,0.2L65.5,15C65.6,15,65.5,15,65.5,15z M53.2,8.9l12.4,5.7l9-4.3
		L62.4,4.4L53.2,8.9z"/>
	<path class="st1" d="M65.5,32C65.5,32,65.4,32,65.5,32c-0.2-0.1-0.2-0.1-0.2-0.2V14.8c0-0.1,0.1-0.2,0.2-0.2c0.1,0,0.2,0.1,0.2,0.2
		v16.8l9-4.6l0.1-16.7c0-0.1,0.1-0.2,0.2-0.2c0,0,0,0,0,0c0.1,0,0.2,0.1,0.2,0.2L75,27.1c0,0.1,0,0.1-0.1,0.2L65.5,32
		C65.6,32,65.5,32,65.5,32z"/>
	<path class="st1" d="M65.5,32C65.5,32,65.5,32,65.5,32l-12.9-5.8c-0.1,0-0.1-0.1-0.1-0.2V8.9c0-0.1,0.1-0.2,0.2-0.2
		c0.1,0,0.2,0.1,0.2,0.2V26l12.7,5.7c0.1,0,0.1,0.2,0.1,0.2C65.6,32,65.6,32,65.5,32z"/>
	<path class="st2" d="M65.5,31.9V14.8l-12.8-6v17.2L65.5,31.9z M62.6,28l-3.1-1.4v-4.7l3.1,1.5V28L62.6,28z M62.6,20.4L59.5,19v-4.7
		l3.1,1.4V20.4z M58.2,18.5l-3-1.5v-4.7l3,1.5V18.5z M58.2,21.4v4.7l-3-1.5V20L58.2,21.4L58.2,21.4z"/>
	<path class="st3" d="M66.8,23.7v4.7l2.8-1.4v-4.7L66.8,23.7z"/>
	<path class="st3" d="M66.8,20.8l2.8-1.4v-4.7l-2.8,1.4V20.8z"/>
	<path class="st3" d="M70.8,13.9v4.7l2.9-1.5v-4.7L70.8,13.9z"/>
	<path class="st3" d="M73.7,20.1l-2.9,1.4v4.7l2.9-1.5V20.1z"/>
</g>
</svg>
