<?xml version="1.0" encoding="utf-8"?>
<!-- Generator: Adobe Illustrator 23.0.1, SVG Export Plug-In . SVG Version: 6.00 Build 0)  -->
<svg version="1.1" id="Layer_1" xmlns="http://www.w3.org/2000/svg" xmlns:xlink="http://www.w3.org/1999/xlink" x="0px" y="0px"
	 viewBox="0 0 494.7 462.3" style="enable-background:new 0 0 494.7 462.3;" xml:space="preserve">
<style type="text/css">
	.st0{fill:none;stroke:#314584;stroke-linejoin:bevel;}
	.st1{fill:none;stroke:#314584;stroke-width:0.25;}
	.st2{fill:#FFFFFF;stroke:#314584;stroke-width:0.25;stroke-linejoin:bevel;}
	.st3{fill:#6174A3;stroke:#314584;stroke-width:0.25;stroke-linejoin:bevel;}
	.st4{fill:#9B9B9B;}
	.st5{fill:none;stroke:#314584;stroke-width:0.25;stroke-linecap:round;stroke-linejoin:round;}
	.st6{fill:none;stroke:#314584;stroke-width:0.75;stroke-linecap:round;stroke-linejoin:round;}
	.st7{fill:#606060;}
</style>
<g id="svg13063" xmlns:cc="http://creativecommons.org/ns#" xmlns:dc="http://purl.org/dc/elements/1.1/" xmlns:inkscape="http://www.inkscape.org/namespaces/inkscape" xmlns:rdf="http://www.w3.org/1999/02/22-rdf-syntax-ns#" xmlns:sodipodi="http://sodipodi.sourceforge.net/DTD/sodipodi-0.dtd" xmlns:svg="http://www.w3.org/2000/svg">
	
		<sodipodi:namedview  bordercolor="#666666" borderopacity="1" gridtolerance="10" guidetolerance="10" id="namedview13065" inkscape:current-layer="svg13063" inkscape:cx="284.3189" inkscape:cy="133.85176" inkscape:pageopacity="0" inkscape:pageshadow="2" inkscape:window-height="1017" inkscape:window-maximized="1" inkscape:window-width="1920" inkscape:window-x="-8" inkscape:window-y="-8" inkscape:zoom="2.8284271" objecttolerance="10" pagecolor="#ffffff" showgrid="false">
		</sodipodi:namedview>
	<g id="a">
		<polygon class="st0" points="275.9,388.4 274.5,389.9 272.1,389.9 272.1,387.7 274,386.6 275.9,386.6 		"/>
		<polygon class="st0" points="279.9,382.1 279.9,384.3 278.1,383.2 278.1,381.5 279.9,381.5 279.9,375.6 275.3,375.6 264.4,382.9 
			261.7,379.8 261.7,385.9 255.1,385.9 258.9,396.4 271.6,396.4 281.3,385.2 281.8,382.1 		"/>
		<polygon class="st0" points="108.3,262.7 110.9,261 113.9,261 111.4,262.7 		"/>
		<polygon class="st0" points="131.3,253.6 128.1,256.4 120.6,256.4 118.3,258 120.1,258 117.6,259.7 115.9,259.7 118.3,258 
			113.5,258 111.3,259.6 109.2,259.8 109.6,256.1 108,256.1 106,257.4 102.4,262.7 100.3,262.7 104.4,256.1 109.2,255.1 
			108.9,254.2 105.8,254.1 104.3,253.2 102.4,254.1 100.2,254.1 101.1,252.1 96.5,250.1 57.7,250.1 44.9,263.5 44.9,273.9 
			49.6,278.6 65.9,280.7 68.1,284 72.7,283.8 76.5,291.3 83.5,282.4 100.3,282.4 101.4,290.8 104.1,290.9 104.2,280.5 131.3,257.2 
			133.2,256.9 134.2,253.6 		"/>
		<polygon class="st0" points="147.4,252.2 156.9,252.2 154.9,249 153.1,248.6 153.1,246.4 		"/>
		<polygon class="st0" points="77.1,302.9 73.4,295.1 76.5,291.2 72.7,283.8 68.1,284 65.9,280.7 49.6,278.6 49.6,278.6 50.3,285.9 
			55.4,295.4 57.4,293.9 53.4,285.4 53.4,280.7 55.8,280.7 55.9,285.1 63.4,302.7 75.6,307.8 78.7,307 81.3,309.7 82.7,307.4 
			85.5,307.4 85.1,304.3 87.5,304.3 90.7,301.9 90.8,298.5 87.4,298.5 84.6,302.9 		"/>
		<polygon class="st0" points="212.5,226.5 217,224.3 217,223.7 214.8,221.4 211.6,222.5 207.9,222.4 207.1,223.5 204.9,223.4 
			204.9,225.5 		"/>
		<polygon class="st0" points="252.9,274.5 252.9,272.4 250.5,272.3 250.5,273.9 		"/>
		<polygon class="st0" points="160.8,205.9 160.8,208.2 172.1,208.4 175,213.3 175,217.9 169.6,220.9 169.7,227 173.1,230.5 
			177.2,230.5 183.3,224 192,221.4 195.2,218.9 201.8,218.5 206.4,217.2 215,203.4 220.4,202.3 222.2,200.5 206.9,198.9 
			193.6,200.5 177.5,200.5 168.2,203.7 		"/>
		<polygon class="st0" points="422.4,293 421.1,291.6 419,294.7 421.1,296.7 		"/>
		<polygon class="st0" points="401.8,255.1 402.2,252.6 397.7,251.9 396,249.1 387.4,249.1 369.8,244.7 367.9,249.1 360.8,246.9 
			355.4,251 372.8,261.1 392.9,261.3 395.3,256.4 		"/>
		<polygon class="st0" points="405.6,301 403,301.6 403,303.1 404.1,304.4 405.6,302.5 		"/>
		<polygon class="st0" points="396,249.1 397.7,251.9 402.2,252.6 401.8,255.1 395.3,256.4 392.9,261.3 372.8,261.1 355.4,251 
			347.9,256.7 349.2,262.5 341.7,265.3 343.8,270.6 351.8,274.2 352.1,280.7 373.1,287.9 376.9,284.4 385.1,287.9 384,291 
			388.4,298.2 396,294.4 401,298.6 403.1,297.4 403.2,299.5 415.6,295 419.7,285.9 412.4,273.9 416.2,269.8 411.9,269.8 
			410.5,270.7 407.8,266.3 411.2,263.3 413.6,267.8 416.9,265.5 423.3,261.1 423.3,252.6 412.7,250 405,242.4 397.5,242.4 
			399.2,248.4 		"/>
		<polygon class="st0" points="439.4,261.9 442.3,261.8 443.6,259.7 437,256.9 437.2,262.3 438.5,263.1 		"/>
		<polygon class="st0" points="431.3,274.3 430.8,276 437.3,275 437.8,277.5 439.2,276.9 439.4,274.9 443.7,273.8 443.5,268.1 
			441.5,264.7 439.6,264.1 440.7,269.3 436.7,272.9 		"/>
		<polygon class="st0" points="430.1,277.5 432.5,277.2 433.2,278.4 432.4,281 		"/>
		<polygon class="st0" points="436.4,276.4 435.2,278.5 433.7,276.8 		"/>
		<polygon class="st0" points="429.3,311.5 425.7,311.1 424.4,309.5 425.7,306.5 424.5,303.7 422.1,303.6 421.5,308.6 424.9,312.6 
			428.7,313.1 		"/>
		<polygon class="st0" points="418.1,320.3 419.7,320.6 422.5,318.3 422.4,316.4 		"/>
		<polygon class="st0" points="430.4,323.9 430.4,326.2 432.7,325.5 431.9,324 433.8,323.5 432.2,318.5 431,321.6 427.1,321.6 		"/>
		<polygon class="st0" points="423.5,312.8 425.1,314.4 424.6,315.4 423.3,314.1 		"/>
		<polygon class="st0" points="425.1,316.8 426.3,317.6 427.6,315.6 425.9,315.4 		"/>
		<polygon class="st0" points="429.5,314.7 431.2,316.8 432.9,316.8 431.2,314.1 		"/>
		<polygon class="st0" points="429.5,316.5 430.5,318.1 429.7,319.1 428.4,317.1 		"/>
		<polygon class="st0" points="427.6,318.1 428.4,319.4 427.6,320.4 426.7,319.2 		"/>
		<polygon class="st0" points="430.8,350.9 431.9,352.4 434.9,352 434.9,350.9 		"/>
		<polygon class="st0" points="406.2,333.2 406.3,337.6 408.8,341.9 416.6,341.9 420.5,336.9 420.5,328 417.7,328.2 415.4,332.5 
			407.8,334.2 		"/>
		<polygon class="st0" points="400.6,344.5 400.6,341.2 387.7,327.8 383.3,326.2 398.2,346.5 		"/>
		<polygon class="st0" points="415.7,350.4 415.9,351.5 399.8,348.8 402.2,346.8 406.2,348.4 409.9,347.6 		"/>
		<polygon class="st0" points="426,350.4 423.5,350.4 424,352 426.3,352 427.3,351.2 		"/>
		<polygon class="st0" points="421.6,353 422.4,353.9 424.1,353.9 423.5,352.6 		"/>
		<polygon class="st0" points="430.8,350.9 428.3,353.7 430.2,353.9 431.9,352.4 		"/>
		<polygon class="st0" points="422.5,346 424.3,345.4 423.8,342.1 424.9,340.9 425.8,343.3 428,344.1 428,342.4 426.7,339.6 
			429.1,337.6 425.3,337.8 424.6,336.7 426.1,335.1 428.8,336 430.2,335.9 432.3,333.5 430.5,333.4 429.3,334.2 425.4,333.3 
			422.9,335.6 423,339.2 421.5,341.2 		"/>
		<polygon class="st0" points="436.4,340.8 435.9,342.3 440.1,341.9 440.1,340.8 		"/>
		<polygon class="st0" points="437.3,331 435.9,332.4 435.4,335.8 437.3,336.3 436.9,333.3 438,331.9 		"/>
		<polygon class="st0" points="446.8,340.2 446.3,337.2 441.7,337.8 		"/>
		<polygon class="st0" points="446.5,342.7 452.9,345.3 454.1,348.6 451.9,349.9 457.4,351.8 457.4,341 453,338.7 448.8,342.1 
			444.4,340.3 443.9,342.7 		"/>
		<polygon class="st0" points="427.5,271.5 423.1,267.9 421.2,269.7 423.8,275.3 426.9,275.1 		"/>
		<polygon class="st0" points="423.1,267.9 421.2,266.4 423.7,266.1 423.3,261.1 416.9,265.5 418.8,269 421.2,269.7 		"/>
		<polygon class="st0" points="417.6,324.9 414.2,329.6 406.2,333.2 407.9,334.2 415.4,332.5 417.7,328.3 420.5,328 420.5,324.7 		
			"/>
		<polygon class="st0" points="391.3,324.9 392.7,329.4 398.3,334.2 398.8,332.5 393.4,324.6 		"/>
		<polygon class="st0" points="459.4,352.5 463.2,349 468.1,353.8 472.7,354.7 467.1,349.2 467.4,346.2 457.4,341 457.4,351.8 		"/>
		<polygon class="st0" points="469.9,346.7 471.9,347.9 475.3,346 475.3,344 		"/>
		<polygon class="st0" points="472.7,341.1 476.7,344 478.3,343.4 474.2,341 		"/>
		<polygon class="st0" points="388.4,298.2 384,291 385.1,287.9 382.6,286.8 379.2,289.3 377.6,300.2 380.2,302.3 381.1,307.4 
			382.9,307.9 384.2,306.3 386.5,309 387.8,313.8 387.5,318.8 389.5,314.9 385.9,301.7 388.4,299.9 		"/>
		<polygon class="st0" points="395.7,304.4 398.6,308.4 395.9,311.1 402,311.1 402,309.5 396,303.2 394.7,299.1 390.6,297.1 
			388.4,298.2 388.4,299.9 390.5,301.2 390.5,304.4 		"/>
		<polygon class="st0" points="390.5,304.4 390.5,301.2 388.4,299.9 385.9,301.7 389.5,314.9 387.5,318.8 387.4,320.8 390.9,323.8 
			391.3,324.9 393.4,324.6 390,319.5 390.8,311.7 394.6,315.5 394.6,312.3 398.6,308.4 395.7,304.4 		"/>
		<polygon class="st0" points="394.6,312.3 394.6,315.5 396.6,317.4 398.7,317.1 402,314.7 402,311.1 395.9,311.1 		"/>
		<polygon class="st0" points="396,303.2 402,309.5 402,314.7 398.7,317.1 398.8,320.6 405,316.5 404.8,310.5 398.3,303.6 
			398.7,299.9 401,298.6 396,294.4 390.6,297.1 394.7,299.1 		"/>
		<polygon class="st0" points="370.2,290 368.9,290.6 370.8,296.8 372.1,295.6 377.6,300.2 378,297.7 375.1,295 374.6,291.7 
			372.3,292.7 		"/>
		<polygon class="st0" points="372.3,289.6 368.9,288.7 369.3,286.6 368.4,286.3 366.3,289.6 354.9,285.3 355,281.6 352.1,280.7 
			351.8,274.2 349.3,273.1 347,273.1 343.6,275.5 343.5,277.6 345.6,278.7 346.6,282.7 342.1,286.9 339.3,286.9 339.3,289.9 
			341.4,290.7 341.4,293.3 337.5,294.4 337.9,294.8 341.1,295.8 339.6,297.3 341,299.1 343.5,299.4 344,297.3 345,297.3 
			353.1,320.7 358.3,317.5 359.1,308.1 370.8,296.8 368.9,290.6 370.3,290 372.3,292.7 374.6,291.7 375.1,295 378,297.7 
			379.2,289.3 382.6,286.8 376.9,284.4 373.1,287.9 		"/>
		<polygon class="st0" points="355,281.6 354.9,285.3 366.3,289.6 368.4,286.3 		"/>
		<polygon class="st0" points="369.3,286.6 368.9,288.7 372.3,289.6 373.1,287.9 		"/>
		<polygon class="st0" points="304.9,259.5 307.3,261.5 310.4,260.6 313.1,262.9 312.7,257 316.9,256 322.4,259.8 327,258.9 
			330.4,263.4 333.6,263.2 336.8,260.6 344.4,260.3 349.2,262.5 347.9,256.7 355.4,251 351.1,248.4 325.9,239.5 315.9,241.8 
			315.9,246.3 298.3,246.3 298.3,252.1 300.6,255 305.7,253 308.7,255 305.1,256.8 		"/>
		<polygon class="st0" points="324.3,273.3 322.6,270.6 316,268.5 312.1,269.8 312,271.5 307,271.5 304.3,266.7 297.7,267.3 
			297.7,269.3 305.7,282.8 308,283 313.5,288.7 323.6,291.7 326.4,291.7 328.4,288.2 326.2,285.4 323,276.1 		"/>
		<polygon class="st0" points="313.1,262.9 310.4,260.6 307.3,261.5 312.2,265.5 312.1,269.8 316,268.5 322.6,270.6 324.3,273.3 
			330.5,270.1 320.2,261.8 315.8,261.8 		"/>
		<polygon class="st0" points="339.3,286.9 342.1,286.9 346.6,282.7 345.6,278.7 343.5,277.6 343.6,275.5 347,273.1 349.3,273.1 
			344.6,270.9 339.5,271.6 337.9,278.6 332,284 325.7,284 326.2,285.4 328.5,288.2 326.4,291.7 335.2,291.7 337.5,294.4 
			341.4,293.3 341.4,290.7 339.3,289.9 		"/>
		<polygon class="st0" points="322.4,259.8 316.9,256 312.7,257 313.1,262.9 315.8,261.8 320.2,261.8 330.6,270.1 333.9,271 
			332.4,266.5 337.2,265.1 337.5,263.1 330.4,263.4 327,258.9 		"/>
		<polygon class="st0" points="324.3,273.3 323,276.1 325.7,284 332,284 337.9,278.6 339.5,271.6 338.4,268.7 333.9,271 
			330.5,270.1 		"/>
		<polygon class="st0" points="338,267.3 334,266 332.4,266.5 333.9,271 338.4,268.7 339.5,271.6 344.6,270.9 343.8,270.6 
			342.3,266.9 		"/>
		<polygon class="st0" points="336.8,260.6 333.6,263.2 337.5,263.1 337.2,265.1 334,266 338,267.3 342.3,266.9 341.7,265.3 
			349.2,262.5 344.4,260.3 		"/>
		<polygon class="st0" points="298.3,264.4 301.2,267 304.3,266.7 302.1,262.9 299.8,262.3 		"/>
		<polygon class="st0" points="292.1,263.3 296.4,264.4 298.3,264.4 299.8,262.3 294.3,259.8 292.1,260.3 		"/>
		<polygon class="st0" points="297.7,267.3 301.2,267 298.3,264.4 296.4,264.4 		"/>
		<polygon class="st0" points="265.2,234.6 264.1,234.9 264.4,235.1 264,236.5 260.9,235.1 260.9,237 265.2,238.1 268.3,239.5 
			269.5,238.5 269.1,235.4 267.5,235.9 		"/>
		<polygon class="st0" points="260.9,239.1 263.3,239.9 264,241.3 264.5,242.7 268.3,239.5 265.2,238.1 260.9,237 		"/>
		<polygon class="st0" points="273.1,238.5 269.5,238.5 264.5,242.7 265.3,244.9 272.5,246.1 277,245.1 274.3,244 275.9,243 		"/>
		<polygon class="st0" points="263.1,232.9 262.7,233.8 264.1,234.9 265.2,234.6 267.5,235.9 269.1,235.4 268.6,231.9 267.7,232.8 
					"/>
		<polygon class="st0" points="272.5,246.1 265.3,244.9 265.7,246.2 263.1,249.4 263.1,251.2 272.9,251.2 273.8,253 272.1,255.7 
			273.6,256.3 274,255.1 279.8,255.1 278.5,256.4 280.3,257.4 282.7,257.2 280.4,254.3 286.4,253 288,249.6 277,245.1 		"/>
		<polygon class="st0" points="258.7,217.9 248.6,225.3 248.6,231.9 247.3,234.1 251.1,238.5 257.3,233 254.4,229.4 260.9,222.3 
			262.2,222.3 260.4,217.9 		"/>
		<polygon class="st0" points="240.9,234.6 246.8,233.6 247.3,234.1 248.6,231.9 248.6,225.3 258.8,217.9 264.3,217.9 264.3,216.1 
			258.6,216.4 239,230 		"/>
		<polygon class="st0" points="264.3,217.9 260.4,217.9 262.2,222.3 263.2,222.3 260.1,229.4 263.7,231.2 269.3,231.2 272.5,227.6 
			267.3,215.9 264.3,216.1 		"/>
		<polygon class="st0" points="433.7,250.3 435.7,250.3 428.9,243.4 426.9,243.3 432.4,250.1 435.1,255.1 437.1,255.1 		"/>
		<polygon class="st0" points="263.2,239.9 260.8,239.1 260.8,240.7 263.9,241.3 		"/>
		<polygon class="st0" points="407.3,215.8 405.5,213.3 394.1,211.4 390.8,214.3 381.6,214.3 377.7,211.4 356.8,211.4 355.5,206.8 
			336.2,206.8 319.1,214.4 322.8,219 319.6,222.4 316.7,212.9 311.6,212.4 314,218.1 294.2,218.6 275.6,226.2 273.2,221.6 
			280.2,221.8 283.7,220.1 270.1,215.8 267.2,215.9 272.5,227.6 269.3,231.2 268.6,231.9 269,235.4 269.5,238.5 273.1,238.5 
			275.9,243 274.3,244 277,245.1 287.9,249.6 286.4,253 287.1,254.7 285.3,255.2 285.7,258 292.1,260.3 294.3,259.8 299.7,262.3 
			302.1,262.9 300.6,260.3 300.6,255.1 298.3,252.1 298.3,246.3 315.9,246.3 315.9,241.8 325.8,239.6 351.1,248.5 355.4,251 
			360.7,246.9 367.9,249.1 369.8,244.8 387.4,249.1 396,249.1 399.2,248.5 397.5,242.4 405,242.4 412.7,250 423.2,252.6 
			423.2,261.1 427.8,260.3 430.3,256.6 430.3,249.7 423.2,241.7 416.4,241.6 417.5,233.1 431.7,233.2 433.3,228.4 439.2,230.7 
			439.3,228.4 440.7,228.6 443.3,231.1 440.8,232.8 440.5,237.8 450.6,247.4 450.6,238.2 444.9,232.7 458.4,228.4 458.6,227 
			451.8,225.2 454.4,223.1 460.5,224.4 464.6,224.5 461.3,220.9 440.1,216.7 		"/>
		<polygon class="st0" points="256.2,251.7 253.8,253.8 257.4,255.1 261.2,254.5 264.3,251.2 263.1,251.2 263.1,250.5 		"/>
		<polygon class="st0" points="254.4,250 256.2,251.7 263.1,250.5 263.1,249.4 256.9,248.7 256.6,248.6 		"/>
		<polygon class="st0" points="241.3,255 243.6,255.1 245.6,254.7 244.8,252.5 243,252.5 241.7,253 		"/>
		<polygon class="st0" points="249.8,250 254.4,250 256.6,248.6 252.3,246.8 248.4,248.1 		"/>
		<polygon class="st0" points="219.2,270.9 220.1,271 221.1,262.3 217.8,261.7 217.6,268.1 		"/>
		<polygon class="st0" points="272.1,255.7 273.8,253 272.8,251.2 269.9,251.2 		"/>
		<polygon class="st0" points="263.9,241.3 260.8,240.7 257.6,240.8 256.9,240.2 252.3,241.3 251.9,241.3 252.3,246.8 256.6,248.6 
			256.9,248.7 263.1,249.4 265.7,246.2 265.2,244.9 264.4,242.7 		"/>
		<polygon class="st0" points="264.3,251.2 261.2,254.5 264,259 270.8,258.2 272.8,258.8 273.6,256.3 272.1,255.7 269.9,251.2 		"/>
		<polygon class="st0" points="251.8,241.3 245.9,241.2 245.6,240.2 243.6,240.2 244,241.2 240.9,243 240.6,248.4 242.5,249.4 
			241.7,253 243,252.5 247.4,252.5 247.7,252.4 250.9,251.4 249.8,250 248.4,248 252.3,246.8 		"/>
		<polygon class="st0" points="243.6,240.2 245.6,240.2 245.5,239.7 246.2,235.9 244.3,235.9 243,238.9 		"/>
		<polygon class="st0" points="249.1,238.8 247.9,237.7 246.9,238.1 246.6,239.7 248.5,239.7 		"/>
		<polygon class="st0" points="250.9,251.4 247.4,252.5 244.8,252.5 245.6,254.7 249.4,253.8 253.8,253.8 255.6,252.3 256.2,251.7 
			254.4,250 249.8,250 		"/>
		<polygon class="st0" points="253.1,268.8 249.2,268.8 249.2,269.8 250.7,270.8 253.1,271.2 		"/>
		<polygon class="st0" points="243,263.4 243,267.3 244.8,267.3 244.8,263.9 		"/>
		<polygon class="st0" points="241.3,255 241,256.7 243.2,257.7 245.8,257.7 253.8,265.7 254.2,269.1 255.7,268.2 256.2,265.8 
			258,265.4 248.2,256.9 251,256.8 249.4,253.8 243.6,255.1 		"/>
		<polygon class="st0" points="243.9,260.6 243.9,262.3 244.8,262.6 245.2,260.6 		"/>
		<polygon class="st0" points="225.4,250.6 225.4,251.8 228.7,253.6 229.2,259.5 234.1,262.6 235.6,260.6 242.8,260.7 243,257.7 
			243.2,257.7 241,256.7 242.5,249.4 235.9,246 228.2,250.6 		"/>
		<polygon class="st0" points="237.8,244.9 235.9,246 239.6,247.9 240.6,247.3 240.7,246.5 		"/>
		<polygon class="st0" points="240.7,246.5 240.9,243 237.8,244.9 		"/>
		<polygon class="st0" points="239.6,247.9 240.6,248.4 240.6,247.3 		"/>
		<polygon class="st0" points="227.6,239.5 227.6,242 225.9,242.9 227.4,245.1 224.4,248 228.4,247.2 232.4,246.6 232.7,245.1 
			233.5,245.1 233.7,243.4 231.1,242.9 227.8,235.3 225.3,235.2 225.3,239.3 		"/>
		<polygon class="st0" points="224.4,241.3 224.4,239.7 221.5,239.5 223.1,241.8 		"/>
		<polygon class="st0" points="218.5,241.7 218.5,246.1 220.2,246.1 220.2,244.6 223.4,245 223.1,241.8 221.5,239.5 		"/>
		<polygon class="st0" points="220.1,271 227.1,271.5 234.1,262.6 229.2,259.5 217.8,259.5 217.8,261.7 221.1,262.3 		"/>
		<polygon class="st0" points="235.7,267.3 235.7,265.4 233.5,267.3 		"/>
		<polygon class="st0" points="261.5,265.1 265.9,263.6 264.9,261.2 261.2,261.9 		"/>
		<polygon class="st0" points="258.6,254.9 259.5,259.5 261.2,261.9 264.9,261.2 264,259 261.2,254.4 		"/>
		<polygon class="st0" points="251,256.8 251.4,256.8 253.5,255.7 254.5,254 253.8,253.8 249.4,253.8 		"/>
		<polygon class="st0" points="273.3,265.6 270,265.6 272.7,271.1 285.3,271.8 297.7,269.3 297.7,267.3 296.3,264.4 292,263.3 
			274.8,263.9 		"/>
		<polygon class="st0" points="270,264.4 273,264.4 271.8,261.7 270,262.3 		"/>
		<polygon class="st0" points="256.2,260.8 257.3,261.1 259.5,259.5 258.9,256.1 254.3,256.7 		"/>
		<polygon class="st0" points="259.8,265.6 261.2,267.2 264,268 262.3,268.7 264.5,271.5 265.9,269.3 264.4,265.9 267.4,264.4 
			270,264.4 269.9,262.3 		"/>
		<polygon class="st0" points="257.4,255.1 254.5,254 253.5,255.7 251.4,256.8 252.1,256.7 255.5,260.6 256.2,260.8 254.3,256.7 
			258.9,256.1 258.6,254.9 		"/>
		<polygon class="st0" points="258.7,261.4 260.3,260.6 259.5,259.5 257.3,261.1 259.6,265.3 259.8,265.6 261.5,265.1 261.2,261.9 
			260.3,260.6 		"/>
		<polygon class="st0" points="265.9,263.6 271.8,261.7 272.8,258.8 270.8,258.2 264,259 		"/>
		<polygon class="st0" points="309.7,291.7 311,292.6 311.9,291.7 310.4,289.5 		"/>
		<polygon class="st0" points="282.5,273.2 279,274.5 281.5,275.2 		"/>
		<polygon class="st0" points="284.9,277.8 284.9,284.3 286.2,284.4 288.2,283.5 288.8,279.9 290.4,279.2 290.5,279.2 290,277.2 
			286.8,279.2 		"/>
		<polygon class="st0" points="309.2,291.5 305.7,285.7 304.1,285.7 303,284.2 300,284.2 290.4,279.2 288.8,279.9 288.2,283.5 
			286.2,284.4 284.9,284.3 297.4,306 297.6,306.8 298.9,304.6 303.4,305.1 303,306.8 309.2,303.5 318.1,301.2 318.1,296.6 
			313.5,295.9 312.1,293.3 		"/>
		<polygon class="st0" points="301.6,284.2 303,284.2 304.1,285.7 305.7,285.7 303.8,282.6 302,282.6 		"/>
		<polygon class="st0" points="292.6,275.7 290,277.2 290.5,279.2 300,284.2 301.6,284.2 302,282.6 305.5,282.6 297.7,269.3 
			294.1,270 		"/>
		<polygon class="st0" points="315.4,294 312.1,293.3 313.5,295.9 316.1,296.3 319.8,292.5 318.1,291 		"/>
		<polygon class="st0" points="316.1,296.3 318.1,296.6 318.1,301.2 313.6,302.4 313.6,305 316.1,306.7 324.3,296.6 319.8,292.5 		
			"/>
		<polygon class="st0" points="286.3,275.1 284.9,277.8 286.8,279.2 292.7,275.7 294.1,270 285.3,271.8 284.7,274.6 		"/>
		<polygon class="st0" points="309.2,303.5 303,306.8 303.4,305.1 298.9,304.6 297.6,306.8 299.8,314.1 316.1,306.7 313.6,305 
			313.6,302.4 		"/>
		<polygon class="st0" points="284.9,277.8 286.3,275.1 284.7,274.6 284.2,277.3 		"/>
		<polygon class="st0" points="284.8,284.4 284.9,284.3 284.9,277.8 284.2,277.3 283,281.4 		"/>
		<polygon class="st0" points="298.2,376.5 299.9,380.5 304,380.7 310.9,358.5 308.4,358.5 300.4,366.8 299.6,372.6 		"/>
		<polygon class="st0" points="253.5,321.9 252.3,318.4 254.6,318.4 251.7,312.2 251.7,315.6 247.6,324.3 243.9,324.5 243.4,328.1 
			245,328.1 244.9,331.7 255,331.7 255.4,330.4 255.4,330.4 252.4,326.2 		"/>
		<polygon class="st0" points="247.7,334.4 244.8,334.4 244.7,338.7 248.4,343.5 248.4,339.4 253,339.4 250.7,331.7 247.7,331.7 
			247.7,331.7 244.9,331.7 244.8,334.4 		"/>
		<polygon class="st0" points="238.2,325.2 238.9,328.1 243.4,328.1 243.9,324.5 247.5,324.3 251.7,315.6 251.7,312.2 236.1,312.2 
			233.5,324.5 		"/>
		<polygon class="st0" points="215.1,322.9 216.3,324.2 216.3,329.5 224.8,327.1 224.8,319.2 216.5,317.5 216.5,321.7 		"/>
		<polygon class="st0" points="216.3,329.5 216.3,324.2 213.2,320.7 210.5,323.3 		"/>
		<polygon class="st0" points="267.6,354.6 264.6,353.1 264.6,347.8 261.3,347.8 260.6,350.1 257.3,350.2 256.5,347.3 251.2,347.3 
			251.2,359 248.2,364 248.5,367.2 267,367.2 264,363.4 264,359.3 267.7,359.3 		"/>
		<polygon class="st0" points="230.6,325.4 229.2,317 224.8,317 224.8,327.1 		"/>
		<polygon class="st0" points="250.6,331.7 253,339.4 248.4,339.4 248.4,343.5 250.2,346 254.6,344 259.3,336.2 260,330.4 
			255.4,330.4 255,331.7 		"/>
		<polygon class="st0" points="294,310.4 296.8,314.8 297.8,313.9 290.9,301.9 287.3,310.4 		"/>
		<polygon class="st0" points="210.5,323.3 213.2,320.7 210.4,317.5 207.7,320.3 		"/>
		<polygon class="st0" points="297.5,317.6 299.3,316.4 297.8,313.9 295.8,315.6 		"/>
		<polygon class="st0" points="284.6,356.7 284.6,359.3 286.8,360.8 286.8,364 284.7,365.9 284.7,362.1 282.5,360.3 282.5,360.4 
			278.4,363.2 282.5,365.9 282.5,369.6 279.9,375.5 279.9,382.1 281.8,382.1 281.9,381.2 285.7,378.5 285.4,370.5 294.4,363.2 
			293.5,354.8 		"/>
		<polygon class="st0" points="299.3,316.4 297.5,317.6 299.3,319.6 306.4,322.1 295.3,331.3 295.3,339.4 312.7,319.2 312,315.6 
			299.9,317.4 		"/>
		<polygon class="st0" points="255.1,385.8 261.7,385.8 261.7,368.8 270.6,368.8 269.4,367.2 248.5,367.2 		"/>
		<polygon class="st0" points="288,327.5 285,328 285.9,331.7 285.4,334.9 284.1,337.3 292.4,342.8 295.3,339.4 295.3,331.3 
			298.6,328.7 289.1,328.7 		"/>
		<polygon class="st0" points="284.1,337.3 283.6,338.2 280.6,338.2 281.4,336.9 280,336.9 276.9,344.5 282.5,352.3 284.6,352.3 
			284.6,356.7 293.5,354.8 292.4,342.8 		"/>
		<polygon class="st0" points="216,289.8 211,289.8 211,295.5 209.2,298.2 203.1,298.2 202.9,304.6 210.4,310 210.4,308 219.4,308 
			218.6,292.7 223.3,292.7 216,287.3 		"/>
		<polygon class="st0" points="278.8,340 280,336.9 277.3,336.9 276.5,340.4 		"/>
		<polygon class="st0" points="276.9,344.5 278.8,340 276.5,340.4 275.9,343 		"/>
		<polygon class="st0" points="204.8,317.1 207.7,320.3 210.4,317.5 213.2,320.7 215.1,322.9 216.5,321.7 216.5,317.5 215.8,314.6 
			207.2,314.6 		"/>
		<polygon class="st0" points="219.4,308 210.4,308 210.4,310 212.4,314.6 215.8,314.6 216.5,317.5 220.6,318.4 220.6,314.2 
			236.6,307.7 236.6,302.5 223.3,292.7 218.6,292.7 		"/>
		<polygon class="st0" points="274.9,355.7 278.1,357 277,359.3 267.6,354.6 267.7,359.3 264,359.3 264,363.4 267,367.2 
			272.7,367.2 282.5,360.4 282.5,352.3 281.3,350.6 275.9,351.4 		"/>
		<polygon class="st0" points="261.7,379.8 264.4,382.9 275.3,375.5 270.6,368.8 261.7,368.8 		"/>
		<polygon class="st0" points="220.6,318.4 224.8,319.2 224.8,317 229.2,317 234.3,315.1 229.4,310.6 220.6,314.2 		"/>
		<polygon class="st0" points="282.5,352.3 282.5,360.4 282.5,360.3 284.7,362.1 284.7,365.9 286.8,364 286.8,360.8 284.6,359.3 
			284.6,352.3 		"/>
		<polygon class="st0" points="296.8,314.8 294,310.4 287.3,310.4 282.5,321.7 289.1,328.7 298.5,328.7 306.4,322.1 299.3,319.6 
			295.8,315.6 		"/>
		<polygon class="st0" points="277.3,336.9 281.3,336.9 282.5,334.9 285.4,334.9 285.9,331.7 285,328 279.3,328.8 		"/>
		<polygon class="st0" points="236.6,302.5 236.6,307.7 229.4,310.6 234.3,315.1 235.6,314.6 236.1,312.2 251.7,312.2 255.3,305 
			253.9,295.5 246.9,295.5 		"/>
		<polygon class="st0" points="203.1,298.2 209.2,298.2 211,295.5 211,289.8 216,289.8 216,286.3 210.5,286.3 203.2,295.9 		"/>
		<polygon class="st0" points="202.7,310.8 207.6,312.2 202.6,312.2 202.5,314.6 212.4,314.6 210.4,310 202.9,304.6 		"/>
		<polygon class="st0" points="207.6,312.2 202.7,310.8 202.6,312.2 		"/>
		<polygon class="st0" points="255.2,305 251.7,312.2 254.6,318.4 252.3,318.4 253.5,321.9 265.1,316.4 265.1,310.4 267.7,307.8 
			268,302 257.9,295.5 253.9,295.5 		"/>
		<polygon class="st0" points="255.3,281.3 253.1,278.7 248.6,277.6 244.3,282.2 247.1,295.5 257.9,295.5 268,302 269,279.5 
			263.1,278.7 260.6,282.4 		"/>
		<polygon class="st0" points="215.1,286.3 216,286.3 216,285.6 228.2,278.9 228.2,274.1 219.2,275.1 210.5,286.3 		"/>
		<polygon class="st0" points="228.2,274.1 228.2,278.9 216,285.6 216,287.3 236.6,302.5 246.9,295.5 247.1,295.5 242.1,271.3 
			236.1,271.1 		"/>
		<polygon class="st0" points="242.1,271.3 244.3,282.2 248.6,277.6 246.9,277.2 247.1,271.4 		"/>
		<polygon class="st0" points="269.4,367.2 275.3,375.5 279.9,375.5 282.5,369.6 282.5,365.9 278.4,363.2 272.7,367.2 		"/>
		<polygon class="st0" points="272.1,389.9 274.5,389.9 275.9,388.4 275.9,386.5 274,386.5 272.1,387.7 		"/>
		<polygon class="st0" points="279.9,381.5 278.1,381.5 278.1,383.1 279.9,384.2 		"/>
		<polygon class="st0" points="284.8,284.4 284.8,284.3 283,281.4 269,279.5 268.2,296.5 283.6,296.5 286.7,294.8 280.3,283.8 
			283.8,286.7 		"/>
		<polygon class="st0" points="286.7,294.8 283.6,296.6 268.2,296.6 267.7,307.8 265.1,310.4 265.1,316.4 274.3,327 279.3,328.8 
			288,327.5 282.5,321.7 287.3,310.4 290.9,301.9 		"/>
		<polygon class="st0" points="275.9,343 279.3,328.8 274.4,327 260.4,327.4 259.3,336.2 254.6,344 250.2,346 251.2,347.3 
			256.5,347.3 257.3,350.2 260.6,350.1 261.3,347.8 264.6,347.8 264.6,353.1 277,359.3 278.1,357 274.9,355.7 275.9,351.4 
			281.3,350.6 		"/>
		<polygon class="st0" points="252.4,326.2 255.4,330.4 260,330.4 260.4,327.4 274.4,327 265.1,316.4 253.5,321.9 		"/>
		<polygon class="st0" points="235.6,314.6 231.2,316.2 232.7,324.8 233.5,324.5 		"/>
		<polygon class="st0" points="231.2,316.2 229.2,317 230.6,325.4 232.7,324.8 		"/>
		<polygon class="st0" points="204.8,317.1 207.2,314.6 202.5,314.6 202.5,314.7 		"/>
		<polygon class="st0" points="68.5,216.8 64.8,215.3 45.7,215.4 38,218.6 38,222 29.3,221.9 27.7,224.2 35,223.9 25.6,227.5 
			21,233.7 24.9,233.6 17.4,238.5 20.1,238.7 34.5,231.9 51.1,231.3 56.2,236.3 58.1,234.3 56.4,232.6 54.6,232.6 52.7,230.5 		"/>
		<polygon class="st0" points="56,248.8 53.4,246.7 52.3,247.6 54.1,250 56,250 		"/>
		<polygon class="st0" points="156.8,252.1 154.8,249 153.1,248.6 153.1,246.3 147.3,252.1 		"/>
		<polygon class="st0" points="153.8,215.8 142.3,211.1 140.6,211.1 136.5,214.4 137.9,211.1 135.9,211 131.3,216 142.6,215.4 
			149.6,221.6 144.9,221.5 142.5,223.4 137.3,223.4 137.3,224.9 142.6,224.9 147.2,228.7 148.4,228.2 147.3,225.8 150.5,227.3 
			151.5,226.8 151.5,222.2 155.1,223.4 157.2,222.1 156,219.9 153.9,219.1 		"/>
		<polygon class="st0" points="114.9,257.9 118.3,257.9 120.6,256.4 128.1,256.4 131.3,253.6 134.2,253.6 133.1,256.9 138.3,256 
			134.9,257.6 135.2,259 144.4,255.8 139.9,255.5 137.8,253.7 139.9,250.5 138.9,249.5 132.4,252.4 132.4,250.7 138.6,247.8 
			148.6,247.3 156,243.4 156.1,241.5 150.6,240.6 150,231.7 142.8,234.5 142.9,230.3 139.4,227.4 134.8,227.4 122.1,245.8 
			119.1,245.8 119.1,239.7 108.3,233.8 119.1,225.8 125.3,224.6 124,222.7 133.5,221.7 137.4,217.7 133.8,217.2 128.8,220.5 
			129.3,217.7 127,217.5 126.4,214.1 122.4,215.9 123.5,218.1 118.1,220.6 108.6,218.9 103.7,221.2 91.6,216.4 68.5,216.8 
			52.7,230.5 54.5,232.6 56.4,232.6 58,234.3 56.1,236.3 54.2,245.2 57.7,248.3 57.7,250 96.5,250 101.1,252.1 108.8,250.5 
			109.7,253.9 111.3,255 113.9,254.9 		"/>
		<polygon class="st0" points="128.9,223.4 125.9,225.8 131.8,226.5 132.4,224.9 		"/>
		<polygon class="st0" points="117.5,217.3 118.6,218.7 121.3,217.3 120.5,216 		"/>
		<polygon class="st0" points="119.6,212.6 121.3,214.4 125.1,213.1 126.1,210.5 		"/>
		<polygon class="st0" points="126.8,211.5 127.2,213.2 132.4,211.8 131.4,210.5 		"/>
		<polygon class="st0" points="139.9,208 137.1,206.9 134.3,209.2 145.4,210.1 148.3,208 		"/>
		<polygon class="st0" points="166.9,201.8 172.7,198.5 149.7,200.2 149.7,201.5 157.5,201.3 156.4,202.7 148.3,202.9 149.4,204.8 
			145.9,204.2 147.3,206 141.3,206 142.2,206.9 148.7,206.9 149.8,207.7 159.3,203.3 		"/>
		<polygon class="st0" points="138.8,203.1 143.1,203.9 145.5,202.4 143.7,201 		"/>
		<polygon class="st0" points="93.5,214.4 103.5,210.9 101.2,209.9 91.7,212.3 		"/>
		<polygon class="st0" points="104.8,211.6 99.4,213.4 102.6,214.8 97.6,216 103.8,218.5 108.1,216.6 112.8,217.7 116.4,216.9 
			112.9,215.3 115.6,211.8 112.9,211.8 111.3,213.9 110.7,211.8 107.8,212.9 		"/>
		<polygon class="st0" points="97,296.4 101.9,296.4 105.9,299.1 104.4,300.8 111.3,300.8 103,294.8 98.7,294.8 		"/>
		<polygon class="st0" points="103.9,303.8 104.9,304.7 107.9,304.7 107.9,303.7 106.9,302.6 103.9,302.6 		"/>
		<polygon class="st0" points="122.2,303 121.6,304 123.3,304 123.9,303 		"/>
		<polygon class="st0" points="85.5,307.3 82.6,307.3 81.3,309.7 85.3,311.7 88,306.8 87.5,304.2 85,304.2 		"/>
		<polygon class="st0" points="88.6,311.3 88.1,313 88.8,313.3 95.5,307.7 87.5,307.8 86.1,310.2 		"/>
		<polygon class="st0" points="88.1,313 88.6,311.3 86.1,310.2 85.3,311.7 		"/>
		<polygon class="st0" points="90.6,301.9 87.5,304.2 88,306.8 		"/>
		<polygon class="st0" points="91.4,316.7 95.7,317.2 95.5,307.7 88.8,313.3 		"/>
		<polygon class="st0" points="98.4,343.1 101.9,344.8 108.3,337 101.8,333.3 98.7,337.2 		"/>
		<polygon class="st0" points="111.4,315.5 109.7,315.5 106.1,320.4 104.3,320.5 104.8,322.2 103.8,323.6 104.6,326.1 103.9,330.7 
			101.8,333.3 116.6,341.7 116.6,332.3 120,332 120,324.5 114.4,323.9 111.9,321.2 		"/>
		<polygon class="st0" points="134.9,430.3 137.1,432.3 143.8,432.6 136.5,428.8 		"/>
		<polygon class="st0" points="145.3,381.6 142.3,383.4 138.3,383.4 138.3,379.8 130.2,374.3 129.8,375.2 123,375.2 121.2,392.1 
			125,408.8 128.4,415 128.6,419.6 133.7,427.5 135.6,427.7 134.6,407.5 145.5,402.8 140.6,395.9 140.6,388.4 145.4,383.4 		"/>
		<polygon class="st0" points="146.5,398.1 148.8,394 140.6,388.4 140.6,395.9 		"/>
		<polygon class="st0" points="123.5,318.2 119.9,315.6 111.4,315.5 111.9,321.2 114.4,323.9 120,324.5 120,332 120.9,332 
			122,334.5 125.7,333.3 125.4,329.4 130.3,327.6 131.7,320.4 130.1,318.8 		"/>
		<polygon class="st0" points="91.4,316.7 94.3,320.6 95.3,321 96.8,319.1 95.7,318.5 95.7,317.2 		"/>
		<polygon class="st0" points="136.8,325.3 131.7,320.4 130.3,327.6 132.4,326.8 132.1,332.9 137,332.4 135.3,328.1 		"/>
		<polygon class="st0" points="124.2,354.8 119.2,356.2 119.2,367.6 123,375.2 129.7,375.2 132.4,370.3 137.5,370.3 137.4,366.5 
			128.7,359.4 		"/>
		<polygon class="st0" points="141.4,331.9 144.7,331.5 145.6,328.8 144.4,325.9 141.6,325.7 		"/>
		<polygon class="st0" points="137.5,370.3 132.4,370.3 130.2,374.3 138.3,379.8 138.3,383.4 142.3,383.4 145.3,381.6 145.1,378.8 
			137.6,374.8 		"/>
		<polygon class="st0" points="137,332.4 141.4,331.9 141.6,325.7 136.8,325.3 135.3,328.1 		"/>
		<polygon class="st0" points="157.6,338.5 153.8,336.9 150.1,339.1 151.3,335.8 148.9,334.7 145.3,337.4 147.9,333.7 145.6,328.8 
			144.7,331.5 132.1,332.9 132.4,326.8 130.3,327.6 125.4,329.4 125.7,333.3 122,334.5 120.9,332 116.5,332.3 116.5,343.4 
			112.1,344 110.2,350.3 117.6,356.6 124.2,354.8 128.7,359.4 137.4,366.5 137.6,374.8 145.1,378.8 145.4,383.4 140.6,388.4 
			148.8,394 153.6,385.6 154.8,378.4 166.4,373.2 168.6,357.1 173.6,350.5 173.6,346.5 165.4,341.2 157.3,340.7 		"/>
		<polygon class="st0" points="99.9,319 98.6,320.1 96.8,319.1 95.3,321 99.6,322.5 100.7,321 103.1,321.2 103.8,323.6 104.8,322.2 
			104.4,320.6 103.8,318.6 		"/>
		<polygon class="st0" points="112.1,344 116.5,343.4 116.5,341.7 108.2,337 101.9,344.8 98.4,343.1 98.2,344.9 109,363.3 
			118.4,369.5 119.2,367.6 119.2,356.2 117.6,356.6 110.2,350.3 		"/>
		<polygon class="st0" points="125,408.8 121.1,392.1 123,375.2 119.2,367.6 118.4,369.5 119.9,407.8 124.1,411.1 124.3,418 
			131.4,427.2 133.7,427.5 128.6,419.6 128.4,415 		"/>
		<polygon class="st0" points="120,301.6 115.1,301.1 115.1,303.8 116.7,302.6 119.3,302.6 		"/>
		<polygon class="st0" points="115.1,303.1 115.1,301.1 112.1,301.1 113.1,302.5 111.3,302.5 111.3,303.1 		"/>
		<path id="path13058" class="st0" d="M481.4,406.6l-1,3.2l7.3-5.2l-2.1-2.8v-3.2l-1.2,0.5v4.5L481.4,406.6z M462.2,417.1l15.2-7.7
			v2l-11.7,7.7L462.2,417.1z M399.9,377.6l12.8-6l9.5-10.5l5.2,2.3l2.3-4.8l8.7-0.2l-2.2,4l7.2,6.2l4.8-4.8v-6.7l2.2,0.7l2.5,12
			l7.8,11l-0.8,8.3l-14.2,14.7l-12.3-0.7l-1.5-8.3l-4.2,1.8l-4-3.5l-24.3,5.3l-1.5-1.8l2-4.8V377.6z"/>
	</g>
	<path id="path13085" inkscape:connector-curvature="0" sodipodi:nodetypes="cccc" class="st1" d="M267.2,318.7l11-0.6l3.2-4.3
		l2.3,4.9"/>
</g>
<g>
	<polygon class="st2" points="275.9,388.4 274.5,389.9 272.1,389.9 272.1,387.7 274,386.6 275.9,386.6 	"/>
	<polygon class="st2" points="279.9,382.1 279.9,384.3 278.1,383.2 278.1,381.5 279.9,381.5 279.9,375.6 275.3,375.6 264.4,382.9 
		261.7,379.8 261.7,385.9 255.1,385.9 258.9,396.4 271.6,396.4 281.3,385.2 281.8,382.1 	"/>
	<polygon class="st2" points="108.3,262.7 110.9,261 113.9,261 111.4,262.7 	"/>
	<polygon class="st3" points="131.3,253.6 128.1,256.4 120.6,256.4 118.3,258 120.1,258 117.6,259.7 115.9,259.7 118.3,258 
		113.5,258 111.3,259.6 109.2,259.8 109.6,256.1 108,256.1 106,257.4 102.4,262.7 100.3,262.7 104.4,256.1 109.2,255.1 108.9,254.2 
		105.8,254.1 104.3,253.2 102.4,254.1 100.2,254.1 101.1,252.1 96.5,250.1 57.7,250.1 44.9,263.5 44.9,273.9 49.6,278.6 65.9,280.7 
		68.1,284 72.7,283.8 76.5,291.3 83.5,282.4 100.3,282.4 101.4,290.8 104.1,290.9 104.2,280.5 131.3,257.2 133.2,256.9 134.2,253.6 
			"/>
	<polygon class="st2" points="147.4,252.2 156.9,252.2 154.9,249 153.1,248.6 153.1,246.4 	"/>
	<polygon class="st2" points="77.1,302.9 73.4,295.1 76.5,291.2 72.7,283.8 68.1,284 65.9,280.7 49.6,278.6 49.6,278.6 50.3,285.9 
		55.4,295.4 57.4,293.9 53.4,285.4 53.4,280.7 55.8,280.7 55.9,285.1 63.4,302.7 75.6,307.8 78.7,307 81.3,309.7 82.7,307.4 
		85.5,307.4 85.1,304.3 87.5,304.3 90.7,301.9 90.8,298.5 87.4,298.5 84.6,302.9 	"/>
	<polygon class="st2" points="212.5,226.5 217,224.3 217,223.7 214.8,221.4 211.6,222.5 207.9,222.4 207.1,223.5 204.9,223.4 
		204.9,225.5 	"/>
	<polygon class="st2" points="252.9,274.5 252.9,272.4 250.5,272.3 250.5,273.9 	"/>
	<polygon class="st2" points="160.8,205.9 160.8,208.2 172.1,208.4 175,213.3 175,217.9 169.6,220.9 169.7,227 173.1,230.5 
		177.2,230.5 183.3,224 192,221.4 195.2,218.9 201.8,218.5 206.4,217.2 215,203.4 220.4,202.3 222.2,200.5 206.9,198.9 193.6,200.5 
		177.5,200.5 168.2,203.7 	"/>
	<polygon class="st2" points="422.4,293 421.1,291.6 419,294.7 421.1,296.7 	"/>
	<polygon class="st2" points="401.8,255.1 402.2,252.6 397.7,251.9 396,249.1 387.4,249.1 369.8,244.7 367.9,249.1 360.8,246.9 
		355.4,251 372.8,261.1 392.9,261.3 395.3,256.4 	"/>
	<polygon class="st2" points="405.6,301 403,301.6 403,303.1 404.1,304.4 405.6,302.5 	"/>
	<polygon class="st2" points="396,249.1 397.7,251.9 402.2,252.6 401.8,255.1 395.3,256.4 392.9,261.3 372.8,261.1 355.4,251 
		347.9,256.7 349.2,262.5 341.7,265.3 343.8,270.6 351.8,274.2 352.1,280.7 373.1,287.9 376.9,284.4 385.1,287.9 384,291 
		388.4,298.2 396,294.4 401,298.6 403.1,297.4 403.2,299.5 415.6,295 419.7,285.9 412.4,273.9 416.2,269.8 411.9,269.8 410.5,270.7 
		407.8,266.3 411.2,263.3 413.6,267.8 416.9,265.5 423.3,261.1 423.3,252.6 412.7,250 405,242.4 397.5,242.4 399.2,248.4 	"/>
	<polygon class="st2" points="439.4,261.9 442.3,261.8 443.6,259.7 437,256.9 437.2,262.3 438.5,263.1 	"/>
	<polygon class="st2" points="431.3,274.3 430.8,276 437.3,275 437.8,277.5 439.2,276.9 439.4,274.9 443.7,273.8 443.5,268.1 
		441.5,264.7 439.6,264.1 440.7,269.3 436.7,272.9 	"/>
	<polygon class="st2" points="430.1,277.5 432.5,277.2 433.2,278.4 432.4,281 	"/>
	<polygon class="st2" points="436.4,276.4 435.2,278.5 433.7,276.8 	"/>
	<polygon class="st2" points="429.3,311.5 425.7,311.1 424.4,309.5 425.7,306.5 424.5,303.7 422.1,303.6 421.5,308.6 424.9,312.6 
		428.7,313.1 	"/>
	<polygon class="st2" points="418.1,320.3 419.7,320.6 422.5,318.3 422.4,316.4 	"/>
	<polygon class="st2" points="430.4,323.9 430.4,326.2 432.7,325.5 431.9,324 433.8,323.5 432.2,318.5 431,321.6 427.1,321.6 	"/>
	<polygon class="st2" points="423.5,312.8 425.1,314.4 424.6,315.4 423.3,314.1 	"/>
	<polygon class="st2" points="425.1,316.8 426.3,317.6 427.6,315.6 425.9,315.4 	"/>
	<polygon class="st2" points="429.5,314.7 431.2,316.8 432.9,316.8 431.2,314.1 	"/>
	<polygon class="st2" points="429.5,316.5 430.5,318.1 429.7,319.1 428.4,317.1 	"/>
	<polygon class="st2" points="427.6,318.1 428.4,319.4 427.6,320.4 426.7,319.2 	"/>
	<polygon class="st2" points="430.8,350.9 431.9,352.4 434.9,352 434.9,350.9 	"/>
	<polygon class="st2" points="406.2,333.2 406.3,337.6 408.8,341.9 416.6,341.9 420.5,336.9 420.5,328 417.7,328.2 415.4,332.5 
		407.8,334.2 	"/>
	<polygon class="st2" points="400.6,344.5 400.6,341.2 387.7,327.8 383.3,326.2 398.2,346.5 	"/>
	<polygon class="st2" points="415.7,350.4 415.9,351.5 399.8,348.8 402.2,346.8 406.2,348.4 409.9,347.6 	"/>
	<polygon class="st2" points="426,350.4 423.5,350.4 424,352 426.3,352 427.3,351.2 	"/>
	<polygon class="st2" points="421.6,353 422.4,353.9 424.1,353.9 423.5,352.6 	"/>
	<polygon class="st2" points="430.8,350.9 428.3,353.7 430.2,353.9 431.9,352.4 	"/>
	<polygon class="st2" points="422.5,346 424.3,345.4 423.8,342.1 424.9,340.9 425.8,343.3 428,344.1 428,342.4 426.7,339.6 
		429.1,337.6 425.3,337.8 424.6,336.7 426.1,335.1 428.8,336 430.2,335.9 432.3,333.5 430.5,333.4 429.3,334.2 425.4,333.3 
		422.9,335.6 423,339.2 421.5,341.2 	"/>
	<polygon class="st2" points="436.4,340.8 435.9,342.3 440.1,341.9 440.1,340.8 	"/>
	<polygon class="st2" points="437.3,331 435.9,332.4 435.4,335.8 437.3,336.3 436.9,333.3 438,331.9 	"/>
	<polygon class="st2" points="446.8,340.2 446.3,337.2 441.7,337.8 	"/>
	<polygon class="st2" points="446.5,342.7 452.9,345.3 454.1,348.6 451.9,349.9 457.4,351.8 457.4,341 453,338.7 448.8,342.1 
		444.4,340.3 443.9,342.7 	"/>
	<polygon class="st2" points="427.5,271.5 423.1,267.9 421.2,269.7 423.8,275.3 426.9,275.1 	"/>
	<polygon class="st2" points="423.1,267.9 421.2,266.4 423.7,266.1 423.3,261.1 416.9,265.5 418.8,269 421.2,269.7 	"/>
	<polygon class="st2" points="417.6,324.9 414.2,329.6 406.2,333.2 407.9,334.2 415.4,332.5 417.7,328.3 420.5,328 420.5,324.7 	"/>
	<polygon class="st2" points="391.3,324.9 392.7,329.4 398.3,334.2 398.8,332.5 393.4,324.6 	"/>
	<polygon class="st2" points="459.4,352.5 463.2,349 468.1,353.8 472.7,354.7 467.1,349.2 467.4,346.2 457.4,341 457.4,351.8 	"/>
	<polygon class="st2" points="469.9,346.7 471.9,347.9 475.3,346 475.3,344 	"/>
	<polygon class="st2" points="472.7,341.1 476.7,344 478.3,343.4 474.2,341 	"/>
	<polygon class="st2" points="388.4,298.2 384,291 385.1,287.9 382.6,286.8 379.2,289.3 377.6,300.2 380.2,302.3 381.1,307.4 
		382.9,307.9 384.2,306.3 386.5,309 387.8,313.8 387.5,318.8 389.5,314.9 385.9,301.7 388.4,299.9 	"/>
	<polygon class="st2" points="395.7,304.4 398.6,308.4 395.9,311.1 402,311.1 402,309.5 396,303.2 394.7,299.1 390.6,297.1 
		388.4,298.2 388.4,299.9 390.5,301.2 390.5,304.4 	"/>
	<polygon class="st3" points="390.5,304.4 390.5,301.2 388.4,299.9 385.9,301.7 389.5,314.9 387.5,318.8 387.4,320.8 390.9,323.8 
		391.3,324.9 393.4,324.6 390,319.5 390.8,311.7 394.6,315.5 394.6,312.3 398.6,308.4 395.7,304.4 	"/>
	<polygon class="st2" points="394.6,312.3 394.6,315.5 396.6,317.4 398.7,317.1 402,314.7 402,311.1 395.9,311.1 	"/>
	<polygon class="st2" points="396,303.2 402,309.5 402,314.7 398.7,317.1 398.8,320.6 405,316.5 404.8,310.5 398.3,303.6 
		398.7,299.9 401,298.6 396,294.4 390.6,297.1 394.7,299.1 	"/>
	<polygon class="st2" points="370.2,290 368.9,290.6 370.8,296.8 372.1,295.6 377.6,300.2 378,297.7 375.1,295 374.6,291.7 
		372.3,292.7 	"/>
	<polygon class="st2" points="372.3,289.6 368.9,288.7 369.3,286.6 368.4,286.3 366.3,289.6 354.9,285.3 355,281.6 352.1,280.7 
		351.8,274.2 349.3,273.1 347,273.1 343.6,275.5 343.5,277.6 345.6,278.7 346.6,282.7 342.1,286.9 339.3,286.9 339.3,289.9 
		341.4,290.7 341.4,293.3 337.5,294.4 337.9,294.8 341.1,295.8 339.6,297.3 341,299.1 343.5,299.4 344,297.3 345,297.3 353.1,320.7 
		358.3,317.5 359.1,308.1 370.8,296.8 368.9,290.6 370.3,290 372.3,292.7 374.6,291.7 375.1,295 378,297.7 379.2,289.3 382.6,286.8 
		376.9,284.4 373.1,287.9 	"/>
	<polygon class="st2" points="355,281.6 354.9,285.3 366.3,289.6 368.4,286.3 	"/>
	<polygon class="st2" points="369.3,286.6 368.9,288.7 372.3,289.6 373.1,287.9 	"/>
	<polygon class="st2" points="304.9,259.5 307.3,261.5 310.4,260.6 313.1,262.9 312.7,257 316.9,256 322.4,259.8 327,258.9 
		330.4,263.4 333.6,263.2 336.8,260.6 344.4,260.3 349.2,262.5 347.9,256.7 355.4,251 351.1,248.4 325.9,239.5 315.9,241.8 
		315.9,246.3 298.3,246.3 298.3,252.1 300.6,255 305.7,253 308.7,255 305.1,256.8 	"/>
	<polygon class="st2" points="324.3,273.3 322.6,270.6 316,268.5 312.1,269.8 312,271.5 307,271.5 304.3,266.7 297.7,267.3 
		297.7,269.3 305.7,282.8 308,283 313.5,288.7 323.6,291.7 326.4,291.7 328.4,288.2 326.2,285.4 323,276.1 	"/>
	<polygon class="st2" points="313.1,262.9 310.4,260.6 307.3,261.5 312.2,265.5 312.1,269.8 316,268.5 322.6,270.6 324.3,273.3 
		330.5,270.1 320.2,261.8 315.8,261.8 	"/>
	<polygon class="st2" points="339.3,286.9 342.1,286.9 346.6,282.7 345.6,278.7 343.5,277.6 343.6,275.5 347,273.1 349.3,273.1 
		344.6,270.9 339.5,271.6 337.9,278.6 332,284 325.7,284 326.2,285.4 328.5,288.2 326.4,291.7 335.2,291.7 337.5,294.4 341.4,293.3 
		341.4,290.7 339.3,289.9 	"/>
	<polygon class="st2" points="322.4,259.8 316.9,256 312.7,257 313.1,262.9 315.8,261.8 320.2,261.8 330.6,270.1 333.9,271 
		332.4,266.5 337.2,265.1 337.5,263.1 330.4,263.4 327,258.9 	"/>
	<polygon class="st2" points="324.3,273.3 323,276.1 325.7,284 332,284 337.9,278.6 339.5,271.6 338.4,268.7 333.9,271 330.5,270.1 
			"/>
	<polygon class="st2" points="338,267.3 334,266 332.4,266.5 333.9,271 338.4,268.7 339.5,271.6 344.6,270.9 343.8,270.6 
		342.3,266.9 	"/>
	<polygon class="st2" points="336.8,260.6 333.6,263.2 337.5,263.1 337.2,265.1 334,266 338,267.3 342.3,266.9 341.7,265.3 
		349.2,262.5 344.4,260.3 	"/>
	<polygon class="st2" points="298.3,264.4 301.2,267 304.3,266.7 302.1,262.9 299.8,262.3 	"/>
	<polygon class="st2" points="292.1,263.3 296.4,264.4 298.3,264.4 299.8,262.3 294.3,259.8 292.1,260.3 	"/>
	<polygon class="st2" points="297.7,267.3 301.2,267 298.3,264.4 296.4,264.4 	"/>
	<polygon class="st2" points="265.2,234.6 264.1,234.9 264.4,235.1 264,236.5 260.9,235.1 260.9,237 265.2,238.1 268.3,239.5 
		269.5,238.5 269.1,235.4 267.5,235.9 	"/>
	<polygon class="st2" points="260.9,239.1 263.3,239.9 264,241.3 264.5,242.7 268.3,239.5 265.2,238.1 260.9,237 	"/>
	<polygon class="st2" points="273.1,238.5 269.5,238.5 264.5,242.7 265.3,244.9 272.5,246.1 277,245.1 274.3,244 275.9,243 	"/>
	<polygon class="st2" points="263.1,232.9 262.7,233.8 264.1,234.9 265.2,234.6 267.5,235.9 269.1,235.4 268.6,231.9 267.7,232.8 	
		"/>
	<polygon class="st2" points="272.5,246.1 265.3,244.9 265.7,246.2 263.1,249.4 263.1,251.2 272.9,251.2 273.8,253 272.1,255.7 
		273.6,256.3 274,255.1 279.8,255.1 278.5,256.4 280.3,257.4 282.7,257.2 280.4,254.3 286.4,253 288,249.6 277,245.1 	"/>
	<polygon class="st2" points="258.7,217.9 248.6,225.3 248.6,231.9 247.3,234.1 251.1,238.5 257.3,233 254.4,229.4 260.9,222.3 
		262.2,222.3 260.4,217.9 	"/>
	<polygon class="st2" points="240.9,234.6 246.8,233.6 247.3,234.1 248.6,231.9 248.6,225.3 258.8,217.9 264.3,217.9 264.3,216.1 
		258.6,216.4 239,230 	"/>
	<polygon class="st2" points="264.3,217.9 260.4,217.9 262.2,222.3 263.2,222.3 260.1,229.4 263.7,231.2 269.3,231.2 272.5,227.6 
		267.3,215.9 264.3,216.1 	"/>
	<polygon class="st2" points="433.7,250.3 435.7,250.3 428.9,243.4 426.9,243.3 432.4,250.1 435.1,255.1 437.1,255.1 	"/>
	<polygon class="st2" points="263.2,239.9 260.8,239.1 260.8,240.7 263.9,241.3 	"/>
	<polygon class="st2" points="407.3,215.8 405.5,213.3 394.1,211.4 390.8,214.3 381.6,214.3 377.7,211.4 356.8,211.4 355.5,206.8 
		336.2,206.8 319.1,214.4 322.8,219 319.6,222.4 316.7,212.9 311.6,212.4 314,218.1 294.2,218.6 275.6,226.2 273.2,221.6 
		280.2,221.8 283.7,220.1 270.1,215.8 267.2,215.9 272.5,227.6 269.3,231.2 268.6,231.9 269,235.4 269.5,238.5 273.1,238.5 
		275.9,243 274.3,244 277,245.1 287.9,249.6 286.4,253 287.1,254.7 285.3,255.2 285.7,258 292.1,260.3 294.3,259.8 299.7,262.3 
		302.1,262.9 300.6,260.3 300.6,255.1 298.3,252.1 298.3,246.3 315.9,246.3 315.9,241.8 325.8,239.6 351.1,248.5 355.4,251 
		360.7,246.9 367.9,249.1 369.8,244.8 387.4,249.1 396,249.1 399.2,248.5 397.5,242.4 405,242.4 412.7,250 423.2,252.6 423.2,261.1 
		427.8,260.3 430.3,256.6 430.3,249.7 423.2,241.7 416.4,241.6 417.5,233.1 431.7,233.2 433.3,228.4 439.2,230.7 439.3,228.4 
		440.7,228.6 443.3,231.1 440.8,232.8 440.5,237.8 450.6,247.4 450.6,238.2 444.9,232.7 458.4,228.4 458.6,227 451.8,225.2 
		454.4,223.1 460.5,224.4 464.6,224.5 461.3,220.9 440.1,216.7 	"/>
	<polygon class="st2" points="256.2,251.7 253.8,253.8 257.4,255.1 261.2,254.5 264.3,251.2 263.1,251.2 263.1,250.5 	"/>
	<polygon class="st2" points="254.4,250 256.2,251.7 263.1,250.5 263.1,249.4 256.9,248.7 256.6,248.6 	"/>
	<polygon class="st2" points="241.3,255 243.6,255.1 245.6,254.7 244.8,252.5 243,252.5 241.7,253 	"/>
	<polygon class="st2" points="249.8,250 254.4,250 256.6,248.6 252.3,246.8 248.4,248.1 	"/>
	<polygon class="st2" points="219.2,270.9 220.1,271 221.1,262.3 217.8,261.7 217.6,268.1 	"/>
	<polygon class="st2" points="272.1,255.7 273.8,253 272.8,251.2 269.9,251.2 	"/>
	<polygon class="st2" points="263.9,241.3 260.8,240.7 257.6,240.8 256.9,240.2 252.3,241.3 251.9,241.3 252.3,246.8 256.6,248.6 
		256.9,248.7 263.1,249.4 265.7,246.2 265.2,244.9 264.4,242.7 	"/>
	<polygon class="st2" points="264.3,251.2 261.2,254.5 264,259 270.8,258.2 272.8,258.8 273.6,256.3 272.1,255.7 269.9,251.2 	"/>
	<polygon class="st2" points="251.8,241.3 245.9,241.2 245.6,240.2 243.6,240.2 244,241.2 240.9,243 240.6,248.4 242.5,249.4 
		241.7,253 243,252.5 247.4,252.5 247.7,252.4 250.9,251.4 249.8,250 248.4,248 252.3,246.8 	"/>
	<polygon class="st2" points="243.6,240.2 245.6,240.2 245.5,239.7 246.2,235.9 244.3,235.9 243,238.9 	"/>
	<polygon class="st2" points="249.1,238.8 247.9,237.7 246.9,238.1 246.6,239.7 248.5,239.7 	"/>
	<polygon class="st2" points="250.9,251.4 247.4,252.5 244.8,252.5 245.6,254.7 249.4,253.8 253.8,253.8 255.6,252.3 256.2,251.7 
		254.4,250 249.8,250 	"/>
	<polygon class="st2" points="253.1,268.8 249.2,268.8 249.2,269.8 250.7,270.8 253.1,271.2 	"/>
	<polygon class="st2" points="243,263.4 243,267.3 244.8,267.3 244.8,263.9 	"/>
	<polygon class="st2" points="241.3,255 241,256.7 243.2,257.7 245.8,257.7 253.8,265.7 254.2,269.1 255.7,268.2 256.2,265.8 
		258,265.4 248.2,256.9 251,256.8 249.4,253.8 243.6,255.1 	"/>
	<polygon class="st2" points="243.9,260.6 243.9,262.3 244.8,262.6 245.2,260.6 	"/>
	<polygon class="st2" points="225.4,250.6 225.4,251.8 228.7,253.6 229.2,259.5 234.1,262.6 235.6,260.6 242.8,260.7 243,257.7 
		243.2,257.7 241,256.7 242.5,249.4 235.9,246 228.2,250.6 	"/>
	<polygon class="st2" points="237.8,244.9 235.9,246 239.6,247.9 240.6,247.3 240.7,246.5 	"/>
	<polygon class="st2" points="240.7,246.5 240.9,243 237.8,244.9 	"/>
	<polygon class="st2" points="239.6,247.9 240.6,248.4 240.6,247.3 	"/>
	<polygon class="st2" points="227.6,239.5 227.6,242 225.9,242.9 227.4,245.1 224.4,248 228.4,247.2 232.4,246.6 232.7,245.1 
		233.5,245.1 233.7,243.4 231.1,242.9 227.8,235.3 225.3,235.2 225.3,239.3 	"/>
	<polygon class="st2" points="224.4,241.3 224.4,239.7 221.5,239.5 223.1,241.8 	"/>
	<polygon class="st2" points="218.5,241.7 218.5,246.1 220.2,246.1 220.2,244.6 223.4,245 223.1,241.8 221.5,239.5 	"/>
	<polygon class="st2" points="220.1,271 227.1,271.5 234.1,262.6 229.2,259.5 217.8,259.5 217.8,261.7 221.1,262.3 	"/>
	<polygon class="st2" points="235.7,267.3 235.7,265.4 233.5,267.3 	"/>
	<polygon class="st2" points="261.5,265.1 265.9,263.6 264.9,261.2 261.2,261.9 	"/>
	<polygon class="st2" points="258.6,254.9 259.5,259.5 261.2,261.9 264.9,261.2 264,259 261.2,254.4 	"/>
	<polygon class="st2" points="251,256.8 251.4,256.8 253.5,255.7 254.5,254 253.8,253.8 249.4,253.8 	"/>
	<polygon class="st2" points="273.3,265.6 270,265.6 272.7,271.1 285.3,271.8 297.7,269.3 297.7,267.3 296.3,264.4 292,263.3 
		274.8,263.9 	"/>
	<polygon class="st2" points="270,264.4 273,264.4 271.8,261.7 270,262.3 	"/>
	<polygon class="st2" points="256.2,260.8 257.3,261.1 259.5,259.5 258.9,256.1 254.3,256.7 	"/>
	<polygon class="st2" points="259.8,265.6 261.2,267.2 264,268 262.3,268.7 264.5,271.5 265.9,269.3 264.4,265.9 267.4,264.4 
		270,264.4 269.9,262.3 	"/>
	<polygon class="st2" points="257.4,255.1 254.5,254 253.5,255.7 251.4,256.8 252.1,256.7 255.5,260.6 256.2,260.8 254.3,256.7 
		258.9,256.1 258.6,254.9 	"/>
	<polygon class="st2" points="258.7,261.4 260.3,260.6 259.5,259.5 257.3,261.1 259.6,265.3 259.8,265.6 261.5,265.1 261.2,261.9 
		260.3,260.6 	"/>
	<polygon class="st2" points="265.9,263.6 271.8,261.7 272.8,258.8 270.8,258.2 264,259 	"/>
	<polygon class="st2" points="309.7,291.7 311,292.6 311.9,291.7 310.4,289.5 	"/>
	<polygon class="st2" points="282.5,273.2 279,274.5 281.5,275.2 	"/>
	<polygon class="st2" points="284.9,277.8 284.9,284.3 286.2,284.4 288.2,283.5 288.8,279.9 290.4,279.2 290.5,279.2 290,277.2 
		286.8,279.2 	"/>
	<polygon class="st2" points="309.2,291.5 305.7,285.7 304.1,285.7 303,284.2 300,284.2 290.4,279.2 288.8,279.9 288.2,283.5 
		286.2,284.4 284.9,284.3 297.4,306 297.6,306.8 298.9,304.6 303.4,305.1 303,306.8 309.2,303.5 318.1,301.2 318.1,296.6 
		313.5,295.9 312.1,293.3 	"/>
	<polygon class="st2" points="301.6,284.2 303,284.2 304.1,285.7 305.7,285.7 303.8,282.6 302,282.6 	"/>
	<polygon class="st2" points="292.6,275.7 290,277.2 290.5,279.2 300,284.2 301.6,284.2 302,282.6 305.5,282.6 297.7,269.3 
		294.1,270 	"/>
	<polygon class="st2" points="315.4,294 312.1,293.3 313.5,295.9 316.1,296.3 319.8,292.5 318.1,291 	"/>
	<polygon class="st2" points="316.1,296.3 318.1,296.6 318.1,301.2 313.6,302.4 313.6,305 316.1,306.7 324.3,296.6 319.8,292.5 	"/>
	<polygon class="st2" points="286.3,275.1 284.9,277.8 286.8,279.2 292.7,275.7 294.1,270 285.3,271.8 284.7,274.6 	"/>
	<polygon class="st2" points="309.2,303.5 303,306.8 303.4,305.1 298.9,304.6 297.6,306.8 299.8,314.1 316.1,306.7 313.6,305 
		313.6,302.4 	"/>
	<polygon class="st2" points="284.9,277.8 286.3,275.1 284.7,274.6 284.2,277.3 	"/>
	<polygon class="st2" points="284.8,284.4 284.9,284.3 284.9,277.8 284.2,277.3 283,281.4 	"/>
	<polygon class="st2" points="298.2,376.5 299.9,380.5 304,380.7 310.9,358.5 308.4,358.5 300.4,366.8 299.6,372.6 	"/>
	<polygon class="st2" points="253.5,321.9 252.3,318.4 254.6,318.4 251.7,312.2 251.7,315.6 247.6,324.3 243.9,324.5 243.4,328.1 
		245,328.1 244.9,331.7 255,331.7 255.4,330.4 255.4,330.4 252.4,326.2 	"/>
	<polygon class="st2" points="247.7,334.4 244.8,334.4 244.7,338.7 248.4,343.5 248.4,339.4 253,339.4 250.7,331.7 247.7,331.7 
		247.7,331.7 244.9,331.7 244.8,334.4 	"/>
	<polygon class="st2" points="238.2,325.2 238.9,328.1 243.4,328.1 243.9,324.5 247.5,324.3 251.7,315.6 251.7,312.2 236.1,312.2 
		233.5,324.5 	"/>
	<polygon class="st2" points="215.1,322.9 216.3,324.2 216.3,329.5 224.8,327.1 224.8,319.2 216.5,317.5 216.5,321.7 	"/>
	<polygon class="st2" points="216.3,329.5 216.3,324.2 213.2,320.7 210.5,323.3 	"/>
	<polygon class="st2" points="267.6,354.6 264.6,353.1 264.6,347.8 261.3,347.8 260.6,350.1 257.3,350.2 256.5,347.3 251.2,347.3 
		251.2,359 248.2,364 248.5,367.2 267,367.2 264,363.4 264,359.3 267.7,359.3 	"/>
	<polygon class="st2" points="230.6,325.4 229.2,317 224.8,317 224.8,327.1 	"/>
	<polygon class="st2" points="250.6,331.7 253,339.4 248.4,339.4 248.4,343.5 250.2,346 254.6,344 259.3,336.2 260,330.4 
		255.4,330.4 255,331.7 	"/>
	<polygon class="st2" points="294,310.4 296.8,314.8 297.8,313.9 290.9,301.9 287.3,310.4 	"/>
	<polygon class="st2" points="210.5,323.3 213.2,320.7 210.4,317.5 207.7,320.3 	"/>
	<polygon class="st2" points="297.5,317.6 299.3,316.4 297.8,313.9 295.8,315.6 	"/>
	<polygon class="st2" points="284.6,356.7 284.6,359.3 286.8,360.8 286.8,364 284.7,365.9 284.7,362.1 282.5,360.3 282.5,360.4 
		278.4,363.2 282.5,365.9 282.5,369.6 279.9,375.5 279.9,382.1 281.8,382.1 281.9,381.2 285.7,378.5 285.4,370.5 294.4,363.2 
		293.5,354.8 	"/>
	<polygon class="st2" points="299.3,316.4 297.5,317.6 299.3,319.6 306.4,322.1 295.3,331.3 295.3,339.4 312.7,319.2 312,315.6 
		299.9,317.4 	"/>
	<polygon class="st2" points="255.1,385.8 261.7,385.8 261.7,368.8 270.6,368.8 269.4,367.2 248.5,367.2 	"/>
	<polygon class="st2" points="288,327.5 285,328 285.9,331.7 285.4,334.9 284.1,337.3 292.4,342.8 295.3,339.4 295.3,331.3 
		298.6,328.7 289.1,328.7 	"/>
	<polygon class="st2" points="284.1,337.3 283.6,338.2 280.6,338.2 281.4,336.9 280,336.9 276.9,344.5 282.5,352.3 284.6,352.3 
		284.6,356.7 293.5,354.8 292.4,342.8 	"/>
	<polygon class="st2" points="216,289.8 211,289.8 211,295.5 209.2,298.2 203.1,298.2 202.9,304.6 210.4,310 210.4,308 219.4,308 
		218.6,292.7 223.3,292.7 216,287.3 	"/>
	<polygon class="st2" points="278.8,340 280,336.9 277.3,336.9 276.5,340.4 	"/>
	<polygon class="st2" points="276.9,344.5 278.8,340 276.5,340.4 275.9,343 	"/>
	<polygon class="st2" points="204.8,317.1 207.7,320.3 210.4,317.5 213.2,320.7 215.1,322.9 216.5,321.7 216.5,317.5 215.8,314.6 
		207.2,314.6 	"/>
	<polygon class="st2" points="219.4,308 210.4,308 210.4,310 212.4,314.6 215.8,314.6 216.5,317.5 220.6,318.4 220.6,314.2 
		236.6,307.7 236.6,302.5 223.3,292.7 218.6,292.7 	"/>
	<polygon class="st2" points="274.9,355.7 278.1,357 277,359.3 267.6,354.6 267.7,359.3 264,359.3 264,363.4 267,367.2 272.7,367.2 
		282.5,360.4 282.5,352.3 281.3,350.6 275.9,351.4 	"/>
	<polygon class="st2" points="261.7,379.8 264.4,382.9 275.3,375.5 270.6,368.8 261.7,368.8 	"/>
	<polygon class="st2" points="220.6,318.4 224.8,319.2 224.8,317 229.2,317 234.3,315.1 229.4,310.6 220.6,314.2 	"/>
	<polygon class="st2" points="282.5,352.3 282.5,360.4 282.5,360.3 284.7,362.1 284.7,365.9 286.8,364 286.8,360.8 284.6,359.3 
		284.6,352.3 	"/>
	<polygon class="st2" points="296.8,314.8 294,310.4 287.3,310.4 282.5,321.7 289.1,328.7 298.5,328.7 306.4,322.1 299.3,319.6 
		295.8,315.6 	"/>
	<polygon class="st2" points="277.3,336.9 281.3,336.9 282.5,334.9 285.4,334.9 285.9,331.7 285,328 279.3,328.8 	"/>
	<polygon class="st2" points="236.6,302.5 236.6,307.7 229.4,310.6 234.3,315.1 235.6,314.6 236.1,312.2 251.7,312.2 255.3,305 
		253.9,295.5 246.9,295.5 	"/>
	<polygon class="st2" points="203.1,298.2 209.2,298.2 211,295.5 211,289.8 216,289.8 216,286.3 210.5,286.3 203.2,295.9 	"/>
	<polygon class="st2" points="202.7,310.8 207.6,312.2 202.6,312.2 202.5,314.6 212.4,314.6 210.4,310 202.9,304.6 	"/>
	<polygon class="st2" points="207.6,312.2 202.7,310.8 202.6,312.2 	"/>
	<polygon class="st2" points="255.2,305 251.7,312.2 254.6,318.4 252.3,318.4 253.5,321.9 265.1,316.4 265.1,310.4 267.7,307.8 
		268,302 257.9,295.5 253.9,295.5 	"/>
	<polygon class="st2" points="255.3,281.3 253.1,278.7 248.6,277.6 244.3,282.2 247.1,295.5 257.9,295.5 268,302 269,279.5 
		263.1,278.7 260.6,282.4 	"/>
	<polygon class="st2" points="215.1,286.3 216,286.3 216,285.6 228.2,278.9 228.2,274.1 219.2,275.1 210.5,286.3 	"/>
	<polygon class="st2" points="228.2,274.1 228.2,278.9 216,285.6 216,287.3 236.6,302.5 246.9,295.5 247.1,295.5 242.1,271.3 
		236.1,271.1 	"/>
	<polygon class="st2" points="242.1,271.3 244.3,282.2 248.6,277.6 246.9,277.2 247.1,271.4 	"/>
	<polygon class="st2" points="269.4,367.2 275.3,375.5 279.9,375.5 282.5,369.6 282.5,365.9 278.4,363.2 272.7,367.2 	"/>
	<polygon class="st2" points="272.1,389.9 274.5,389.9 275.9,388.4 275.9,386.5 274,386.5 272.1,387.7 	"/>
	<polygon class="st2" points="279.9,381.5 278.1,381.5 278.1,383.1 279.9,384.2 	"/>
	<polygon class="st2" points="284.8,284.4 284.8,284.3 283,281.4 269,279.5 268.2,296.5 283.6,296.5 286.7,294.8 280.3,283.8 
		283.8,286.7 	"/>
	<polygon class="st2" points="286.7,294.8 283.6,296.6 268.2,296.6 267.7,307.8 265.1,310.4 265.1,316.4 274.3,327 279.3,328.8 
		288,327.5 282.5,321.7 287.3,310.4 290.9,301.9 	"/>
	<polygon class="st2" points="275.9,343 279.3,328.8 274.4,327 260.4,327.4 259.3,336.2 254.6,344 250.2,346 251.2,347.3 
		256.5,347.3 257.3,350.2 260.6,350.1 261.3,347.8 264.6,347.8 264.6,353.1 277,359.3 278.1,357 274.9,355.7 275.9,351.4 
		281.3,350.6 	"/>
	<polygon class="st2" points="252.4,326.2 255.4,330.4 260,330.4 260.4,327.4 274.4,327 265.1,316.4 253.5,321.9 	"/>
	<polygon class="st2" points="235.6,314.6 231.2,316.2 232.7,324.8 233.5,324.5 	"/>
	<polygon class="st2" points="231.2,316.2 229.2,317 230.6,325.4 232.7,324.8 	"/>
	<polygon class="st2" points="204.8,317.1 207.2,314.6 202.5,314.6 202.5,314.7 	"/>
	<polygon class="st2" points="68.5,216.8 64.8,215.3 45.7,215.4 38,218.6 38,222 29.3,221.9 27.7,224.2 35,223.9 25.6,227.5 
		21,233.7 24.9,233.6 17.4,238.5 20.1,238.7 34.5,231.9 51.1,231.3 56.2,236.3 58.1,234.3 56.4,232.6 54.6,232.6 52.7,230.5 	"/>
	<polygon class="st2" points="56,248.8 53.4,246.7 52.3,247.6 54.1,250 56,250 	"/>
	<polygon class="st2" points="156.8,252.1 154.8,249 153.1,248.6 153.1,246.3 147.3,252.1 	"/>
	<polygon class="st2" points="153.8,215.8 142.3,211.1 140.6,211.1 136.5,214.4 137.9,211.1 135.9,211 131.3,216 142.6,215.4 
		149.6,221.6 144.9,221.5 142.5,223.4 137.3,223.4 137.3,224.9 142.6,224.9 147.2,228.7 148.4,228.2 147.3,225.8 150.5,227.3 
		151.5,226.8 151.5,222.2 155.1,223.4 157.2,222.1 156,219.9 153.9,219.1 	"/>
	<polygon class="st2" points="114.9,257.9 118.3,257.9 120.6,256.4 128.1,256.4 131.3,253.6 134.2,253.6 133.1,256.9 138.3,256 
		134.9,257.6 135.2,259 144.4,255.8 139.9,255.5 137.8,253.7 139.9,250.5 138.9,249.5 132.4,252.4 132.4,250.7 138.6,247.8 
		148.6,247.3 156,243.4 156.1,241.5 150.6,240.6 150,231.7 142.8,234.5 142.9,230.3 139.4,227.4 134.8,227.4 122.1,245.8 
		119.1,245.8 119.1,239.7 108.3,233.8 119.1,225.8 125.3,224.6 124,222.7 133.5,221.7 137.4,217.7 133.8,217.2 128.8,220.5 
		129.3,217.7 127,217.5 126.4,214.1 122.4,215.9 123.5,218.1 118.1,220.6 108.6,218.9 103.7,221.2 91.6,216.4 68.5,216.8 
		52.7,230.5 54.5,232.6 56.4,232.6 58,234.3 56.1,236.3 54.2,245.2 57.7,248.3 57.7,250 96.5,250 101.1,252.1 108.8,250.5 
		109.7,253.9 111.3,255 113.9,254.9 	"/>
	<polygon class="st2" points="128.9,223.4 125.9,225.8 131.8,226.5 132.4,224.9 	"/>
	<polygon class="st2" points="117.5,217.3 118.6,218.7 121.3,217.3 120.5,216 	"/>
	<polygon class="st2" points="119.6,212.6 121.3,214.4 125.1,213.1 126.1,210.5 	"/>
	<polygon class="st2" points="126.8,211.5 127.2,213.2 132.4,211.8 131.4,210.5 	"/>
	<polygon class="st2" points="139.9,208 137.1,206.9 134.3,209.2 145.4,210.1 148.3,208 	"/>
	<polygon class="st2" points="166.9,201.8 172.7,198.5 149.7,200.2 149.7,201.5 157.5,201.3 156.4,202.7 148.3,202.9 149.4,204.8 
		145.9,204.2 147.3,206 141.3,206 142.2,206.9 148.7,206.9 149.8,207.7 159.3,203.3 	"/>
	<polygon class="st2" points="138.8,203.1 143.1,203.9 145.5,202.4 143.7,201 	"/>
	<polygon class="st2" points="93.5,214.4 103.5,210.9 101.2,209.9 91.7,212.3 	"/>
	<polygon class="st2" points="104.8,211.6 99.4,213.4 102.6,214.8 97.6,216 103.8,218.5 108.1,216.6 112.8,217.7 116.4,216.9 
		112.9,215.3 115.6,211.8 112.9,211.8 111.3,213.9 110.7,211.8 107.8,212.9 	"/>
	<polygon class="st2" points="97,296.4 101.9,296.4 105.9,299.1 104.4,300.8 111.3,300.8 103,294.8 98.7,294.8 	"/>
	<polygon class="st2" points="103.9,303.8 104.9,304.7 107.9,304.7 107.9,303.7 106.9,302.6 103.9,302.6 	"/>
	<polygon class="st2" points="122.2,303 121.6,304 123.3,304 123.9,303 	"/>
	<polygon class="st2" points="85.5,307.3 82.6,307.3 81.3,309.7 85.3,311.7 88,306.8 87.5,304.2 85,304.2 	"/>
	<polygon class="st2" points="88.6,311.3 88.1,313 88.8,313.3 95.5,307.7 87.5,307.8 86.1,310.2 	"/>
	<polygon class="st2" points="88.1,313 88.6,311.3 86.1,310.2 85.3,311.7 	"/>
	<polygon class="st2" points="90.6,301.9 87.5,304.2 88,306.8 	"/>
	<polygon class="st2" points="91.4,316.7 95.7,317.2 95.5,307.7 88.8,313.3 	"/>
	<polygon class="st2" points="98.4,343.1 101.9,344.8 108.3,337 101.8,333.3 98.7,337.2 	"/>
	<polygon class="st2" points="111.4,315.5 109.7,315.5 106.1,320.4 104.3,320.5 104.8,322.2 103.8,323.6 104.6,326.1 103.9,330.7 
		101.8,333.3 116.6,341.7 116.6,332.3 120,332 120,324.5 114.4,323.9 111.9,321.2 	"/>
	<polygon class="st2" points="134.9,430.3 137.1,432.3 143.8,432.6 136.5,428.8 	"/>
	<polygon class="st2" points="145.3,381.6 142.3,383.4 138.3,383.4 138.3,379.8 130.2,374.3 129.8,375.2 123,375.2 121.2,392.1 
		125,408.8 128.4,415 128.6,419.6 133.7,427.5 135.6,427.7 134.6,407.5 145.5,402.8 140.6,395.9 140.6,388.4 145.4,383.4 	"/>
	<polygon class="st2" points="146.5,398.1 148.8,394 140.6,388.4 140.6,395.9 	"/>
	<polygon class="st2" points="123.5,318.2 119.9,315.6 111.4,315.5 111.9,321.2 114.4,323.9 120,324.5 120,332 120.9,332 122,334.5 
		125.7,333.3 125.4,329.4 130.3,327.6 131.7,320.4 130.1,318.8 	"/>
	<polygon class="st2" points="91.4,316.7 94.3,320.6 95.3,321 96.8,319.1 95.7,318.5 95.7,317.2 	"/>
	<polygon class="st2" points="136.8,325.3 131.7,320.4 130.3,327.6 132.4,326.8 132.1,332.9 137,332.4 135.3,328.1 	"/>
	<polygon class="st2" points="124.2,354.8 119.2,356.2 119.2,367.6 123,375.2 129.7,375.2 132.4,370.3 137.5,370.3 137.4,366.5 
		128.7,359.4 	"/>
	<polygon class="st2" points="141.4,331.9 144.7,331.5 145.6,328.8 144.4,325.9 141.6,325.7 	"/>
	<polygon class="st2" points="137.5,370.3 132.4,370.3 130.2,374.3 138.3,379.8 138.3,383.4 142.3,383.4 145.3,381.6 145.1,378.8 
		137.6,374.8 	"/>
	<polygon class="st2" points="137,332.4 141.4,331.9 141.6,325.7 136.8,325.3 135.3,328.1 	"/>
	<polygon class="st2" points="157.6,338.5 153.8,336.9 150.1,339.1 151.3,335.8 148.9,334.7 145.3,337.4 147.9,333.7 145.6,328.8 
		144.7,331.5 132.1,332.9 132.4,326.8 130.3,327.6 125.4,329.4 125.7,333.3 122,334.5 120.9,332 116.5,332.3 116.5,343.4 112.1,344 
		110.2,350.3 117.6,356.6 124.2,354.8 128.7,359.4 137.4,366.5 137.6,374.8 145.1,378.8 145.4,383.4 140.6,388.4 148.8,394 
		153.6,385.6 154.8,378.4 166.4,373.2 168.6,357.1 173.6,350.5 173.6,346.5 165.4,341.2 157.3,340.7 	"/>
	<polygon class="st2" points="99.9,319 98.6,320.1 96.8,319.1 95.3,321 99.6,322.5 100.7,321 103.1,321.2 103.8,323.6 104.8,322.2 
		104.4,320.6 103.8,318.6 	"/>
	<polygon class="st2" points="112.1,344 116.5,343.4 116.5,341.7 108.2,337 101.9,344.8 98.4,343.1 98.2,344.9 109,363.3 
		118.4,369.5 119.2,367.6 119.2,356.2 117.6,356.6 110.2,350.3 	"/>
	<polygon class="st2" points="125,408.8 121.1,392.1 123,375.2 119.2,367.6 118.4,369.5 119.9,407.8 124.1,411.1 124.3,418 
		131.4,427.2 133.7,427.5 128.6,419.6 128.4,415 	"/>
	<polygon class="st2" points="120,301.6 115.1,301.1 115.1,303.8 116.7,302.6 119.3,302.6 	"/>
	<polygon class="st2" points="115.1,303.1 115.1,301.1 112.1,301.1 113.1,302.5 111.3,302.5 111.3,303.1 	"/>
	<path class="st2" d="M481.4,406.6l-1,3.2l7.3-5.2l-2.1-2.8v-3.2l-1.2,0.5v4.5L481.4,406.6z M462.2,417.1l15.2-7.7v2l-11.7,7.7
		L462.2,417.1z M399.9,377.6l12.8-6l9.5-10.5l5.2,2.3l2.3-4.8l8.7-0.2l-2.2,4l7.2,6.2l4.8-4.8v-6.7l2.2,0.7l2.5,12l7.8,11l-0.8,8.3
		l-14.2,14.7l-12.3-0.7l-1.5-8.3l-4.2,1.8l-4-3.5l-24.3,5.3l-1.5-1.8l2-4.8V377.6z"/>
	<g>
		<g id="XMLID_3_">
			<g>
				<path class="st4" d="M107.4,116.5l0.5-0.6c0.9,0.8,2,1.9,2.6,2.8c0.8,1,0.8,1.8,1.2,3.1c0.4,1.3,1.2,3.3,1.4,4.7
					c0,0.2,0.1,0.4,0.1,0.6c0.1,1.1,0,1.8-0.2,2.8c0,0.1,0,0.2,0,0.2s0,0,0-0.1c-0.4-0.7-0.8-1.7-3.5-7.2l0,0
					c-0.1-0.5-0.2-1-0.4-1.4c-0.3-0.7-0.7-1.1-1.3-1.9c-0.7-0.7-1.6-1.8-2.5-2.5l0,0C106.4,116.7,107,116.5,107.4,116.5z"/>
				<path class="st4" d="M112.7,133.4c0,0.1,0,0.2-0.1,0.4c-0.1,0.7-0.3,1.3-0.5,1.9c-0.7-1.2-0.9-2.1-1-2.8c-0.1-0.7-0.1-1.2-0.2-2
					c0-0.5,0-1-0.1-1.6C111.1,131.2,111.9,132.5,112.7,133.4z"/>
				<path class="st4" d="M109.6,122.9c2.7,5.5,3.1,6.5,3.5,7.2v0.1c-0.1,1-0.2,2.3-0.4,3.3c-0.8-0.9-1.6-2.2-1.8-4.1c0,0,0,0,0-0.1
					c0-0.3-0.1-0.7-0.1-1c-0.1-0.9-0.3-1.7-0.5-2.3s-0.4-1.1-0.6-1.9C109.7,123.7,109.6,123.3,109.6,122.9z"/>
				<path class="st4" d="M107.9,115.9l-0.5,0.6c-0.3,0-0.9,0.1-2,0.6l0,0c-0.9-0.7-1.7-0.9-2.6-1c-0.4-0.1-0.8-0.1-1.2-0.1
					c0.8-0.4,1.2-0.9,1.6-1.2c0.4-0.3,0.7-0.5,0.9-0.7c0.2-0.1,0.5-0.2,1.7-0.3c0.6,0.5,0.8,0.9,1.5,1.6
					C107.5,115.6,107.7,115.7,107.9,115.9z"/>
				<path class="st4" d="M101.6,116c-0.4,0-0.8,0-1.2,0l0,0c0-0.5-0.3-0.8-0.5-1.1c-0.3-0.3-0.6-0.6-2.7-2.7
					c0.5-0.1,1.1-0.1,1.8-0.1c3.8-0.1,5.5,0.8,6.4,1.4c0.2,0.1,0.3,0.2,0.4,0.3c-1.2,0.1-1.4,0.2-1.7,0.3c-0.3,0.2-0.6,0.4-0.9,0.7
					C102.8,115.1,102.4,115.6,101.6,116z"/>
				<path class="st4" d="M98.1,116.2c-0.6,0.1-1.2,0.3-1.9,0.5c-0.6,0.2-1.3,0.4-2,0.6c-1.1,0.5-2,0.6-2.6,0.7s-1,0.2-1.6-0.1
					l-0.8-0.2c0.5-0.9,1.2-1.9,1.9-2.7c0.8-0.9,1.8-1.5,2.7-2c0.8-0.4,1.5-0.7,3.3-0.9c2.1,2.1,2.4,2.4,2.7,2.7
					c0.3,0.3,0.5,0.6,0.5,1.1l0,0c-0.1,0-0.2,0-0.2,0C99.4,116,98.7,116.1,98.1,116.2z"/>
				<path class="st4" d="M91.5,120.4L91.5,120.4c-0.2,0.7-0.3,1.4-0.4,2.2c-0.1,0.8-0.1,1.4-0.3,2.1c-0.2,0.7-0.5,1.3-0.9,1.8
					c-0.3,0.5-0.7,1-0.9,1.5c-0.2,0.5-0.2,1.2-0.2,1.7c0,0.1,0,0.3-0.1,0.4c0,0,0,0,0,0.1c-0.1,0.2-0.1,0.3-0.2,0.4
					c-0.2,0.1-0.4-0.1-0.7-0.5c-0.3-0.5-0.7-1.2-1.6-1c0.1-0.1,0.1-0.2,0.2-0.3c0.2-0.4,0.2-1.1,0.3-1.8c0.1-0.7,0.2-1.3,0.4-2.4
					h0.7C88.3,123.5,90.6,122.2,91.5,120.4z"/>
				<path class="st4" d="M89.2,137.3c0,1.8,0.4,2.6,0.6,3.1s0.4,0.9,0.5,1.1c0.1,0.1,0.1,0.3,0.3,0.5c-0.1,3.3,0.1,4.3,0.1,5.1
					c0,0.1,0,0.1,0,0.2c-1.4,1.1-1.8,1.6-2.1,2c-0.3,0.4-0.5,0.6-0.8,0.7c-0.2,0.1-0.4,0.1-0.7,0.1c-0.3,0-0.8,0.1-1.3,0.2
					c-0.5,0.1-1,0.2-3,1.2c0.4-0.3,0.6-0.7,0.8-1.1c0.3-0.8,0.6-1.7,1.1-2.6c0.4-0.8,0.9-1.5,1.4-2.2c0.5-0.7,1.1-1.5,1.5-2.6
					c0.5-1.1,0.8-2.5,1-3.5c0.2-0.9,0.1-1.4-0.2-1.9c-0.1-0.2-0.2-0.3-0.4-0.5C88.5,137.5,88.9,137.6,89.2,137.3z"/>
				<path class="st4" d="M92.4,118.7c-0.5,0.5-0.7,1-0.9,1.7c-0.9,1.8-3.1,3.2-3.6,4h-0.7c0.2-1,0.3-2.5,0.5-3.5
					c0.3-1,0.6-1.8,1.2-2.7c0.1-0.1,0.2-0.2,0.2-0.4l0.8,0.2c0.6,0.4,1,0.2,1.6,0.1c0.6-0.1,1.5-0.2,2.6-0.7c0,0-0.1,0-0.1,0.1
					C93.5,117.8,92.8,118.2,92.4,118.7z"/>
			</g>
		</g>
		<path class="st5" d="M112.8,152.3c3,3.6,4.3,5.4,5.3,6.7c0.9,1.4,1.4,2.3,1.4,7.2"/>
		<path class="st5" d="M85.9,154c-0.3,1.5-0.4,2.7-0.7,3.9c-0.2,1.2-0.5,2.4-1.1,3.5c-0.6,1.1-1.4,2.1-2.8,3.8"/>
		<path class="st5" d="M109.6,122.9c2.7,5.5,3.1,6.5,3.5,7.2"/>
		<path class="st5" d="M91.5,120.4c-0.9,1.8-3.1,3.2-3.6,4"/>
		<path class="st5" d="M94.3,117.4c-1.1,0.5-2,0.6-2.6,0.7c-0.6,0.1-1,0.2-1.6-0.1"/>
		<path class="st5" d="M105.4,117.1c1.3-0.5,1.9-0.6,2.2-0.5"/>
		<path class="st5" d="M101.6,116c0.8-0.4,1.2-0.9,1.6-1.2c0.4-0.3,0.7-0.5,0.9-0.7c0.3-0.1,0.4-0.2,1.7-0.3"/>
		<path class="st5" d="M97.2,112.2c2.1,2.1,2.4,2.4,2.7,2.7c0.3,0.3,0.5,0.6,0.5,1.1"/>
		<path class="st5" d="M97.8,116.3c-0.9-1-1.5-1.9-3-2.2"/>
		<path class="st5" d="M94.9,147.3c0.5,0.3,1.4,0.7,2,0.9c0.5,0.2,0.7,0.3,1,0.4c0.3,0.1,0.7,0.1,1.1,0.1s0.7-0.1,1-0.1s0.6,0,0.8,0
			c0.2,0,0.5,0,0.8,0s0.7-0.1,1.1-0.2c0.4-0.1,0.7-0.3,1-0.4c0.3-0.2,0.7-0.3,0.9-0.5c0.3-0.1,0.4-0.3,0.7-0.5
			c0.2-0.2,0.5-0.5,0.8-0.8c0.2-0.3,0.4-0.5,0.6-0.7c0.1-0.2,0.2-0.4,0.4-0.6c0.1-0.2,0.3-0.5,1.7-1.8"/>
		<path class="st5" d="M89.2,137.3c0,1.8,0.4,2.6,0.6,3.1s0.4,0.9,0.5,1.1c0.1,0.2,0.2,0.4,0.5,0.8c0.3,0.5,0.8,1.4,1.2,2.1"/>
		<path class="st5" d="M88.9,130c-0.4,1.7,0.1,5.4,0.4,6.1"/>
		<path class="st5" d="M110.7,159.7c-1.4,1.3-2.3,2-3.2,2.4c-0.9,0.4-1.9,0.4-2.9,0.5c-1,0.1-2.1,0.2-3,0.2c-0.9,0.1-1.8,0-2.7-0.1
			c-0.9-0.1-2-0.3-2.8-0.6c-0.8-0.2-1.3-0.5-2.3-0.9c-0.9-0.4-2.3-0.9-3.6-2.4"/>
		<path class="st5" d="M107.6,146.2c-0.2,2.5-0.2,3.1-0.3,3.8c-0.1,0.7-0.1,1.4,0,2.3c0.2,0.9,0.5,2.1,1.5,3.7
			c1,1.7,2.5,3.9,2.5,7.7"/>
		<path class="st5" d="M90.7,147.4c-1.4,1.1-1.8,1.6-2.1,2c-0.3,0.4-0.5,0.6-0.8,0.7c-0.2,0.1-0.4,0.1-0.7,0.1
			c-0.3,0-0.8,0.1-1.3,0.2c-0.5,0.1-1,0.2-3,1.2"/>
		<path class="st5" d="M90.6,142c-0.1,3.3,0.1,4.3,0.1,5.1c0.1,0.8,0,1.4-0.2,2.7c-0.2,1.3-0.5,3.3-0.5,4.7s0.2,2.1,0.2,2.7
			c0.1,0.7,0.1,1.3,0.1,2.8c0,1.4,0,3.7,0.2,3.9"/>
		<path class="st5" d="M88.1,137.1c0.4,0.4,0.8,0.5,1.1,0.2"/>
		<path class="st5" d="M86.4,129c0.9-0.2,1.3,0.5,1.6,1c0.3,0.4,0.5,0.6,0.7,0.5c0.2-0.1,0.2-0.3,0.3-0.8s0-1.1,0.2-1.7
			s0.5-1,0.9-1.5s0.7-1.1,0.9-1.8c0.2-0.7,0.2-1.4,0.3-2.1s0.2-1.5,0.4-2.2c0.2-0.7,0.4-1.2,0.9-1.7s1.1-0.9,1.8-1.3
			c0.7-0.3,1.4-0.5,2.1-0.7c0.7-0.2,1.2-0.4,1.9-0.5c0.6-0.1,1.3-0.2,2.1-0.2c0.8,0,1.7,0,2.6,0.1s1.7,0.4,2.6,1
			c0.9,0.7,1.8,1.7,2.5,2.5c0.7,0.7,1,1.1,1.3,1.9c0.3,0.7,0.5,1.8,0.7,2.6c0.2,0.8,0.4,1.3,0.6,1.9s0.4,1.4,0.5,2.3
			c0.1,0.9,0.2,1.9,0.2,2.6c0,0.8,0,1.3,0.2,2c0.1,0.7,0.4,1.6,1,2.8"/>
		<path class="st5" d="M111.1,134.8c0,0,0,2.7-0.4,3.7"/>
		<path class="st6" d="M127.9,165c-1.1-1.4-1.1-2.3-1.4-3.5c-0.4-1.2-1.1-2.8-1.5-4c-0.5-1.1-0.7-1.9-1-2.6s-0.9-1.5-1.3-2
			s-0.8-0.5-1.1-0.6c-0.3-0.1-0.5-0.2-0.8-0.5c-0.3-0.2-0.7-0.6-1.5-0.8s-2-0.4-3.2-0.5c-1.2-0.2-2.4-0.3-3.2-0.5
			c-0.9-0.2-1.4-0.4-2.1-0.7c-0.7-0.2-1.4-0.4-2-0.7c-0.5-0.3-0.9-0.7-1-1.3s-0.1-1.3,0-1.9c0.1-0.6,0.2-1,0.4-1.4
			c0.2-0.4,0.4-0.9,0.6-1.2c0.2-0.4,0.4-0.6,0.7-1.3c0.4-0.7,0.9-1.8,1.4-2.7c0.4-0.9,0.8-1.6,1.1-2.4c0.3-0.8,0.6-1.6,0.8-2.8
			c0.2-1.2,0.3-2.7,0.5-3.9c0.2-1.2,0.4-2,0.1-3.4s-1-3.4-1.4-4.7c-0.4-1.3-0.4-2-1.2-3.1c-0.8-1.1-2.3-2.4-3.2-3.3
			c-0.8-0.9-1-1.3-1.9-1.9c-0.9-0.6-2.6-1.6-6.4-1.4c-3.1,0.1-4.1,0.5-5.1,1c-1,0.5-1.9,1.1-2.7,2c-0.8,0.9-1.6,2.1-2.2,3.1
			s-0.9,1.6-1.2,2.7c-0.3,1-0.4,2.5-0.5,3.5c-0.2,1-0.3,1.7-0.4,2.4c-0.1,0.7-0.1,1.4-0.3,1.8c-0.2,0.4-0.4,0.6-0.7,0.9
			c-0.3,0.3-0.6,0.7-0.6,1.7s0.4,2.7,0.8,3.7c0.4,0.9,0.7,1.1,1.2,1.5c0.4,0.3,0.9,0.8,1.2,1.2c0.3,0.5,0.3,1,0.2,1.9
			c-0.1,0.9-0.5,2.3-1,3.5c-0.4,1.1-1,1.9-1.5,2.6s-1,1.4-1.4,2.2c-0.4,0.8-0.7,1.8-1.1,2.6c-0.7,0.8-1,1.3-2,1.7
			c-1,0.4-2.8,0.7-4.3,1.2s-2.6,1.3-4,2.1s-3,1.7-4.9,6.9"/>
	</g>
	<g>
		<g id="XMLID_2_">
			<g>
				<path class="st7" d="M310,126.3c0-0.1,0-0.1-0.1-0.2c-0.1-0.1-0.2-0.2-0.3-0.2c-0.1-0.1-0.3-0.2-0.5-0.2
					c-0.2-0.1-0.6-0.1-0.9-0.2c-0.1,0-0.1,0-0.2,0c-0.2-1.1-0.2-1.3-0.3-1.6c-0.1-0.2-0.2-0.4-0.3-0.7c-0.2-0.2-0.4-0.6-0.5-0.8
					c-0.1-0.3-0.2-0.5-0.3-0.8c-0.1-0.3-0.2-0.6-0.4-1.1c-0.2-0.5-0.6-1.2-0.8-1.6c-0.2-0.4-0.4-0.5-0.7-0.7
					c-0.3-0.1-0.7-0.3-1.3-0.5c-0.7-0.1-1.5-0.2-2.1-0.2s-0.8-0.1-1.1,0.1c-0.3,0.2-0.5,0.5-0.8,0.6c-0.2,0.1-0.4,0-0.8-0.1h-0.1
					c-0.4-0.1-1.1-0.2-1.6-0.1c-0.1,0-0.2,0-0.3,0c-0.3,0.1-0.6,0.1-0.8,0.2c-0.2,0-0.3,0-0.4,0s-0.3-0.1-0.5-0.1
					c-0.4-0.1-1-0.1-1.6-0.1c-0.1,0-0.2,0-0.4,0c-0.5,0-1.1,0.1-1.4,0.2c-0.5,0.2-0.8,0.5-1.1,0.8c-0.3,0.4-0.7,0.8-1.1,1.3
					s-0.8,1.1-1,1.6s-0.2,0.9-0.1,1.4s0.2,1.1-0.3,2.5c0,0-0.1,0-0.1,0.1c-0.3,0.2-0.6,0.5-1.3,0.8c0-0.5,0.1-1,0.1-1.7
					c0-0.9-0.1-2-0.2-2.8c-0.1-0.8,0-1.4,0.1-2.1c0.1-0.7,0.4-1.6,0.8-2.3c0.4-0.8,0.9-1.5,1.2-2.1c0.4-0.6,0.5-1,1-1.4
					c0.4-0.4,1.1-0.8,4.1-3.2c1-0.8,2.5-0.8,3.6-0.9s1.8-0.2,2.4-0.1c0.6,0,1.1,0.2,1.7,0.3s1.3,0.3,1.8,0.5
					c0.5,0.2,0.9,0.5,1.3,0.8c0.4,0.3,0.8,0.5,1.1,0.6c0.3,0.1,0.4,0,0.5,0.1c0.1,0.1,0.3,0.4,0.4,0.7c0.1,0.3,0.3,0.6,0.6,0.7
					c0.3,0.1,0.7,0.1,1,0.4c0.3,0.2,0.6,0.7,0.8,1.4c0.2,0.7,0.4,1.7,0.6,2.4c0.2,0.7,0.5,1.2,0.6,2.3s0.1,2.5,0.2,3.5
					s0.2,1.5,0.3,2c0.1,0.5,0,0.8,0,1.1c0,0.1,0,0.3,0.1,0.3c-0.4,0.5-0.8,0.9-1,1.2c-0.2,0.3-0.3,0.6-0.3,0.9s-0.1,0.5-0.1,0.8
					c-0.1,0.2-0.3,0.4-0.4,0.4s-0.1,0-0.1-0.2s0.1-0.4,0.1-0.8s-0.1-1.1-0.6-2.3c0.3-0.1,0.6-0.1,0.9-0.1c0.4,0,0.6,0,0.7-0.1
					C309.9,126.5,309.9,126.3,310,126.3z"/>
			</g>
		</g>
		<path class="st5" d="M298.5,118c1.6-1.6,2.9-2,5.1-2.2"/>
		<path class="st5" d="M295.8,112.4c0.8-0.7,1.8-0.4,2.3-0.2c0.5,0.2,0.6,0.2,1.1,0.2s1.4-0.1,2-0.1s1.1,0.1,1.5,0.2
			c0.4,0.1,0.7,0.3,1.2,0.5c0.5,0.2,1.1,0.5,1.5,0.8c0.4,0.3,0.6,0.6,0.8,1c0.1,0.4,0.3,0.7,0.4,1.2"/>
		<path class="st5" d="M286.5,126.6c0.8-0.3,1-0.6,1.4-0.8c0.3-0.2,0.6-0.3,1-0.4s0.7-0.2,1.3-0.2s1.4,0,2,0s1,0,1.4,0
			s0.8,0,1.1,0.1c0.4,0.1,0.8,0.3,1.1,0.5c0.3,0.2,0.4,0.2,0.5,0.3s0.3,0.1,0.5,0.1s0.6-0.1,0.8-0.2c0.3-0.1,0.4-0.3,0.8-0.4
			c0.3-0.2,0.8-0.3,1.2-0.5c0.4-0.2,0.7-0.3,1.6-0.4c0.8-0.1,2.2-0.2,3.1-0.2s1.6,0.1,2,0.2c0.4,0.2,0.8,0.4,1,0.6s0.2,0.2,0.3,0.3
			c0.1,0.1,0.4,0.1,0.7,0.1c0.3,0.1,0.7,0.1,0.9,0.2c0.2,0.1,0.4,0.1,0.5,0.2c0.1,0.1,0.3,0.2,0.4,0.2c0.1,0.1,0.1,0.1,0.1,0.2
			c0,0.1-0.1,0.2-0.2,0.3s-0.3,0.1-0.7,0.1c-0.4,0-0.9,0.1-1.2,0.2c-0.3,0.1-0.4,0.1-0.5,0.2s-0.2,0.2-0.4,0.5
			c-0.1,0.2-0.3,0.5-0.5,0.8c-0.2,0.3-0.3,0.4-0.5,0.5c-0.2,0.1-0.4,0.2-0.8,0.4c-0.4,0.1-1.1,0.3-1.7,0.4c-0.6,0.1-1,0-1.7,0
			c-0.6,0-1.4-0.1-1.9-0.1s-0.7,0-0.9-0.2c-0.2-0.1-0.5-0.3-0.7-0.5c-0.2-0.2-0.3-0.5-0.4-0.8s-0.2-0.6-0.3-0.9
			c-0.1-0.2-0.2-0.3-0.4-0.4c-0.2-0.1-0.5-0.1-0.7,0s-0.4,0.2-0.5,0.5c-0.1,0.4-0.3,1-0.4,1.4c-0.1,0.4-0.2,0.5-0.3,0.6
			c-0.1,0.1-0.4,0.3-0.6,0.4c-0.2,0.1-0.5,0.3-0.8,0.4c-0.3,0.1-0.7,0-1.4,0c-0.7,0-1.6,0.1-2.4,0c-0.8,0-1.5-0.1-1.9-0.3
			c-0.4-0.1-0.6-0.4-0.8-0.6c-0.2-0.2-0.3-0.4-0.5-0.6c-0.1-0.2-0.3-0.3-0.6-0.4"/>
		<path class="st5" d="M288.2,126c-0.1,0.1-0.4,0.2-0.6,0.3s-0.2,0.3-0.2,0.5c0,0.2,0,0.4,0,0.7c0,0.2,0.1,0.5,0.1,0.7
			c0.1,0.2,0.1,0.3,0.1,0.5c0.1,0.1,0.1,0.3,0.2,0.4c0.1,0.1,0.3,0.2,0.5,0.3c0.2,0.1,0.5,0.2,0.8,0.2c0.2,0.1,0.4,0.1,1.2,0.2
			c0.8,0.1,2.1,0,2.9-0.1c0.8-0.1,1-0.3,1.3-0.4c0.2-0.2,0.4-0.3,0.6-0.5c0.1-0.2,0.3-0.5,0.4-0.8c0.1-0.4,0.1-0.8,0.1-1.1
			c0-0.3-0.1-0.5-0.2-0.7c-0.1-0.2-0.4-0.3-0.7-0.4c-0.3-0.1-0.6-0.1-1.4-0.2c-0.8-0.1-2,0-2.8,0s-1.1,0.1-1.4,0.2s-0.6,0.2-0.7,0.2
			C288.2,125.9,288.3,125.9,288.2,126z"/>
		<path class="st5" d="M298.8,125.5c-0.2,0.2-0.5,0.3-0.6,0.5c-0.1,0.1-0.1,0.3-0.1,0.5c0,0.2,0.1,0.4,0.1,0.6
			c0.1,0.2,0.1,0.4,0.3,0.6s0.2,0.4,0.4,0.6c0.1,0.2,0.3,0.3,0.5,0.4c0.2,0.1,0.6,0.2,1.1,0.3c0.5,0.1,1.2,0.1,1.8,0.1
			c0.6,0,1.2,0,1.7-0.1c0.5-0.1,1-0.2,1.4-0.4s0.6-0.4,0.8-0.6c0.1-0.3,0.1-0.6,0.1-1s0-0.9-0.1-1.2c0-0.3-0.1-0.4-0.2-0.6
			c-0.1-0.1-0.3-0.2-0.7-0.3c-0.4-0.1-0.8-0.1-1.5-0.1c-0.6,0-1.4,0-2,0s-1,0.1-1.4,0.1c-0.4,0.1-0.7,0.1-1,0.2
			C299.3,125.2,299,125.4,298.8,125.5z"/>
		<path class="st5" d="M292.8,142.8c2,1.6,2.6,1.7,3,1.8c0.4,0.1,0.8,0.1,1.2,0.1c0.4,0,0.9,0,1.6-0.1c0.7,0,1.4,0,2.1-0.2
			c0.7-0.1,1.3-0.4,2.2-0.9c0.8-0.4,1.9-1,2.7-1.7c0.9-0.7,1.6-1.6,1.9-2.1c0.4-0.5,0.5-0.8,0.5-1.5"/>
		<path class="st5" d="M293.1,144c0.7,3.1,0.9,3.7,1.1,4.1c0.1,0.4,0.1,0.8,0.1,1.2c0,0.4-0.1,1-0.2,1.6c-0.1,0.6-0.2,1.3-0.1,2
			s0.5,1.4,0.7,1.9c0.2,0.6,0.4,1,0.5,1.4c0.1,0.4,0.3,0.7,0.5,0.8c0.2,0.2,0.6,0.2,1-0.2c0.4-0.4,0.8-1,1.6-1.5s2-0.7,2.8-1.1
			c0.8-0.4,1.2-0.9,1.7-1.4s0.9-0.9,1.3-1.4c0.4-0.4,0.8-0.9,1.3-1.4c0.6-0.6,1.4-1.3,1.9-1.9c0.5-0.6,0.8-1,1-1.4
			c0.2-0.4,0.4-0.8,0.8-1.2c0.3-0.4,0.6-0.8,0.9-1.2c0.3-0.4,0.5-0.8,0.7-1.3s0.2-1,0.3-2.3"/>
		<path class="st5" d="M309.3,139.9c0.4,2,0.7,3.4,0.9,4.3"/>
		<path class="st5" d="M303,152.8c2.6,0.2,2.9,1.6,3.2,2.5c0.3,1,0.5,1.5,0.4,1.9c-0.1,0.4-0.5,0.8-0.8,1s-0.7,0.4-0.8,0.6
			c-0.1,0.2,0.1,0.3,0.5,0.3c0.4-0.1,1.2-0.3,1.9-0.8c0.7-0.5,1.4-1.2,2.1-2s1.2-1.5,1.7-2.3s0.8-1.6,1.3-2.6s1-2.3,2.3-3.6"/>
		<path class="st5" d="M290.7,147.7c-1.5,2.8-1.9,3.7-2.3,4.4c-0.3,0.7-0.6,1.1-0.9,1.5c-0.3,0.4-0.7,0.8-1,1.1
			c-0.3,0.4-0.6,0.7-1,0.9c-0.3,0.2-0.8,0.3-1,0.4c-0.3,0.1-0.4,0.3-0.6,0.4c-0.1,0.2-0.3,0.3-0.2,0.3c0.1,0,0.6,0,1.1-0.1
			c0.5-0.1,1-0.3,1.5-0.5s0.9-0.5,1.2-0.9c0.3-0.3,0.4-0.7,0.6-1.1c0.2-0.4,0.5-1,0.8-1.3c0.2-0.3,0.5-0.3,0.6-0.3
			c0.1,0.1,0.1,0.2,0.1,0.5c-0.1,0.2-0.1,0.5-0.1,0.8s0.1,0.5,0.4,0.8c0.2,0.3,0.5,0.7,0.8,1.1c0.3,0.4,0.6,0.7,0.8,0.8
			c0.2,0.2,0.3,0.2,0.7,0.2c0.4,0,1.2,0.1,1.7,0.2c0.5,0.1,0.8,0.1,2.1,0.1"/>
		<path class="st5" d="M296,157.2c-1.4,1.1-2.4,1.6-2.9,1.9s-0.5,0.7-0.6,1.3c0,0.6,0,1.4-0.7,2.1"/>
		<path class="st5" d="M295.6,158.8c-0.2,0.1-0.3,0.2-0.6,0.5c-0.2,0.3-0.6,0.8-0.5,1.1c0.1,0.4,0.5,0.7,1,0.8s0.9,0,1.1-0.3
			s0.2-0.8,0.1-1.1c-0.1-0.4-0.2-0.7-0.4-0.8C296.1,158.7,295.9,158.7,295.6,158.8z"/>
		<path class="st5" d="M287.9,125.6c0.5-1.4,0.4-2,0.3-2.5s-0.1-0.9,0.1-1.4s0.6-1.1,1-1.6s0.8-0.9,1.1-1.3c0.3-0.4,0.6-0.6,1.1-0.8
			c0.5-0.2,1.2-0.2,1.8-0.2c0.6,0,1.2,0.1,1.6,0.2s0.6,0.2,0.9,0.1c0.3,0,0.6-0.2,1.1-0.2s1.2,0.1,1.7,0.2s0.6,0.2,0.8,0.1
			c0.2-0.1,0.5-0.5,0.8-0.6c0.3-0.2,0.5-0.1,1.1-0.1s1.4,0.1,2.1,0.2c0.6,0.1,1,0.3,1.3,0.5c0.3,0.1,0.4,0.3,0.7,0.7
			c0.2,0.4,0.6,1.1,0.8,1.6c0.2,0.5,0.3,0.8,0.4,1.1c0.1,0.3,0.1,0.5,0.3,0.8c0.2,0.3,0.4,0.6,0.5,0.8c0.1,0.2,0.3,0.5,0.3,0.7
			c0.1,0.2,0.1,0.5,0.3,1.6"/>
		<path class="st5" d="M308.2,126.8c0.5,1.2,0.6,1.8,0.6,2.3c0,0.4-0.1,0.7-0.1,0.8c0,0.2,0,0.2,0.1,0.2s0.3-0.2,0.4-0.4
			c0.1-0.2,0.1-0.5,0.1-0.8s0.1-0.6,0.3-0.9c0.2-0.3,0.6-0.7,1-1.2"/>
		<path class="st5" d="M309,134c0,1.4,0.2,2.6,0.1,2.9"/>
		<path class="st5" d="M287.4,129c0.1,2.1,0.2,3,0.4,3.8c0.2,0.8,0.3,1.4,0.3,2.5"/>
		<path class="st5" d="M292.9,117.8c-1.7-1.3-2.7-2-3-2"/>
		<path class="st5" d="M295.4,118.1c-1-1.6-1.9-2.9-2.8-3.5"/>
		<path class="st5" d="M296.6,117.9c0.5-2.1,0.8-3.2,0.7-3.6"/>
		<path class="st6" d="M328.8,159c-0.1-1.2-1.4-2.3-2.5-3.1c-1-0.8-1.8-1.3-2.3-1.6c-0.5-0.4-0.7-0.5-1-0.9
			c-0.3-0.4-0.7-0.9-1.8-1.6c-1.1-0.7-3-1.7-4.2-2.3c-1.2-0.7-1.7-1-2.2-1.4c-0.5-0.4-0.9-1-1.4-1.8s-1-1.9-1.3-2.8
			c-0.3-0.9-0.5-1.4-0.6-1.9c-0.1-0.4-0.3-0.6-0.6-0.8c-0.3-0.2-0.8-0.3-1.1-0.4c-0.3-0.1-0.4-0.1-0.5-0.7c-0.1-0.6-0.1-1.7-0.2-2.3
			c0-0.7,0-0.9,0.2-1c0.2-0.2,0.5-0.2,0.7-0.3c0.2-0.1,0.3-0.3,0.5-0.6c0.2-0.2,0.5-0.5,0.7-1.2c0.3-0.7,0.6-1.7,0.7-2.5
			c0.2-0.7,0.2-1.1,0.2-1.6c0-0.4-0.2-1-0.2-1.4c0-0.4,0.1-0.7,0.1-1c0-0.3-0.1-0.7-0.4-0.8c-0.3-0.2-0.7-0.1-0.9-0.2
			c-0.2,0-0.3-0.1-0.3-0.4c0-0.3,0.1-0.7,0-1.1s-0.2-1-0.3-2c-0.1-1-0.1-2.5-0.2-3.5s-0.4-1.5-0.6-2.3c-0.2-0.7-0.4-1.7-0.6-2.4
			c-0.2-0.7-0.5-1.2-0.8-1.4c-0.3-0.2-0.7-0.2-1-0.4c-0.3-0.1-0.4-0.4-0.6-0.7c-0.1-0.3-0.3-0.6-0.4-0.7s-0.3,0-0.5-0.1
			c-0.3-0.1-0.7-0.3-1.1-0.6c-0.4-0.3-0.8-0.5-1.3-0.8c-0.5-0.2-1.2-0.4-1.8-0.5c-0.6-0.1-1.1-0.3-1.7-0.3s-1.3,0.1-2.4,0.1
			c-1.1,0.1-2.6,0.1-3.6,0.9c-3,2.4-3.7,2.9-4.1,3.2c-0.4,0.4-0.6,0.8-1,1.4c-0.4,0.6-0.8,1.3-1.2,2.1c-0.4,0.8-0.7,1.6-0.8,2.3
			c-0.1,0.7-0.1,1.3-0.1,2.1c0.1,0.8,0.1,2,0.2,2.9s-0.1,1.5-0.1,2s0,0.8,0,1.1c0,0.2-0.1,0.4-0.2,0.6s-0.1,0.4-0.1,0.9
			s0.1,1.3,0.1,2s0,1.3,0.1,1.8s0.3,1,0.5,1.6c0.2,0.6,0.4,1.2,0.5,1.7s0.2,0.7,0.3,0.9c0.1,0.2,0.3,0.4,0.5,0.4
			c0.2,0.1,0.4,0.1,0.6,0.5c0.3,0.5,0.6,1.3,1,1.9c0.3,0.6,0.6,0.9,1,1.2c0.5,0.4,1,0.8,1.5,1.1s0.8,0.6,0.9,1
			c0.1,0.5-0.1,1.3-0.6,2.1s-1.3,1.6-1.7,2c-0.4,0.4-0.5,0.4-0.9,0.5c-0.4,0.1-1.1,0.3-1.9,0.5s-1.9,0.5-2.9,0.7
			c-1,0.1-2.2,0.1-3.3,0.2c-1.2,0.1-2.4,0.3-3.3,0.5s-1.4,0.4-2,0.8c-0.6,0.4-1.2,1-1.8,1.7c-0.7,0.7-1.4,1.5-2,2.4
			c-0.6,1-1,2.1-1.9,3.2c-0.9,1.1-2.3,2.3-2.9,3.7"/>
	</g>
	<g>
		<g id="XMLID_1_">
			<g>
				<path class="st7" d="M406.4,126c-0.1-0.4-0.1-0.9-0.3-1.3c-0.1-0.4-0.2-0.8-0.2-1.3c-0.1-0.4-0.1-0.9-0.1-1.5s0.1-1.3,0.1-1.9
					c0-0.7,0-1.3-0.3-2c-0.1-0.2-0.3-0.5-0.4-0.7c1.3,1.5,2.1,2.9,2.3,4.1l0,0c0,0.2-0.1,0.4-0.1,0.5c-0.1,1-0.1,1.3-0.1,1.7
					c0,0.2,0,0.5,0,0.9c-0.1,3.6-0.4,4-0.6,4c-0.2,0.1-0.2-0.2-0.2-0.5s0-0.6,0-1C406.4,126.9,406.4,126.4,406.4,126z"/>
				<path class="st7" d="M401.3,112.1c-0.4,0-1-0.1-1.7-0.2c-0.6-0.1-1.2-0.1-1.7-0.1c-0.6-0.1-1.1-0.1-1.6-0.1s-0.8-0.1-1.4-0.1
					c-0.5,0-1.1,0-1.9,0.1c0.1-0.7,0.3-1.2,0.4-1.6c0.2-0.6,0.3-0.8,0.6-1c0.3-0.2,0.7-0.3,1.2-0.3c0.5-0.1,1.1-0.1,1.9,0
					s1.7,0.2,2.5,0.4c0.8,0.2,1.4,0.4,1.7,0.7c0.3,0.3,0.4,0.5,0.4,0.8c0,0.3-0.1,0.6-0.1,0.8c0,0.2,0,0.4,0,0.5s0,0.1,0,0.1l0,0
					C401.7,112.1,401.6,112.1,401.3,112.1z"/>
				<path class="st7" d="M385.5,119.2c0.1-0.8,2.5-1.8,4.2-3.8c-0.1,0.1-0.2,0.3-0.3,0.4c-0.2,0.4-0.3,0.9-0.4,1.3
					c-0.1,0.5-0.1,0.9-0.1,1.3c-0.1,0.4-0.2,0.7-0.4,1.6c-0.2,0.9-0.6,2.3-0.9,3.3s-0.6,1.6-0.7,2.2s0.1,1.2,0.2,1.7
					s0.1,0.9,0.1,1.3c0,0.4-0.1,0.8-0.2,0.9s-0.1-0.1-0.3-0.6c-0.1-0.5-0.3-1.2-0.4-1.7V127c-0.1-0.5-0.1-0.8-0.2-1
					c-0.1-0.2-0.2-0.6-0.4-0.8c-0.1-0.3-0.2-0.5-0.4-0.8c-0.1-0.3-0.2-0.6-0.7-0.8c0.1-0.1,0.1-0.3,0.2-0.4c0.1-0.3-0.1-0.5,0.1-1.8
					C385.2,120.8,385.3,120.1,385.5,119.2L385.5,119.2z"/>
			</g>
		</g>
		<path class="st5" d="M387.9,135.9c0,1.6,0,2.5,0,3.1c0,0.6,0,1.1,0,1.6s0,1,0.2,1.8s0.6,1.7,1.1,2.3c0.4,0.7,1,1,1.5,1.5
			c0.5,0.4,1.1,0.9,1.5,1.3c0.4,0.4,0.6,0.8,0.8,1.1c0.2,0.3,0.4,0.5,0.6,0.7c0.1,0.2,0.2,0.5,0.2,0.9c0,0.4-0.1,1-0.1,1.4
			c-0.1,0.4-0.1,0.5-0.1,0.8c0.1,0.2,0.3,0.4,0.3,0.7c0,0.3-0.1,0.8-0.1,1.2c0,0.4,0.1,0.7,0.3,1.1c0.2,0.4,0.6,0.9,0.8,1.3
			c0.2,0.4,0.2,0.5,0.5,0.4c0.3-0.1,0.8-0.6,1.2-0.9c0.4-0.3,0.8-0.6,1-0.9c0.3-0.3,0.5-0.7,0.6-1.1c0.1-0.4,0.2-1,0.2-1.4
			c0-0.4-0.1-0.7,0-1.2s0.3-1.1,0.6-1.7c0.2-0.6,0.5-1.1,0.8-1.4s0.7-0.5,1.1-0.7s0.8-0.4,1.1-0.8c0.3-0.4,0.6-1,0.8-1.5
			c0.1-0.5,0.1-0.9,0.1-1.3c-0.1-0.4-0.1-0.9-0.2-1.5c-0.1-0.6-0.2-1.3,0.5-3.1"/>
		<path class="st5" d="M389.2,135.3c0.9,1.3,1.8,2.1,2.4,2.7c0.6,0.6,0.9,1,1.2,1.3c0.3,0.3,0.6,0.6,0.9,0.8s0.7,0.4,1.2,0.5
			c0.5,0.1,1.1,0.2,1.8,0.2c0.7,0,1.5-0.1,2.2-0.2c0.7-0.2,1.2-0.5,1.6-0.7c0.4-0.3,0.6-0.5,0.9-0.8s0.7-0.6,1.2-1
			c0.5-0.4,1.1-0.7,2-2.2"/>
		<path class="st5" d="M384.9,123.6c0.5,0.2,0.6,0.5,0.7,0.8c0.1,0.3,0.2,0.5,0.4,0.8c0.1,0.3,0.3,0.6,0.4,0.8
			c0.1,0.3,0.1,0.5,0.2,1s0.2,1.3,0.4,1.8c0.1,0.5,0.2,0.7,0.3,0.6c0.1-0.1,0.2-0.5,0.2-0.9c0-0.4,0-0.8-0.1-1.3s-0.3-1.1-0.2-1.7
			c0.1-0.6,0.3-1.2,0.7-2.2c0.3-1,0.7-2.4,0.9-3.3c0.2-0.9,0.3-1.2,0.4-1.6s0.1-0.8,0.1-1.3c0.1-0.4,0.2-0.9,0.4-1.3
			c0.2-0.4,0.5-0.7,1.2-1.1s1.8-0.8,3.1-1.1c1.3-0.2,2.8-0.2,4-0.2c1.1,0.1,1.9,0.2,2.5,0.3s1.1,0.3,1.7,0.6c0.6,0.4,1.3,0.9,2,1.5
			s1.3,1.4,1.6,2c0.3,0.7,0.4,1.3,0.3,2c-0.1,0.7-0.1,1.3-0.1,1.9c0,0.6,0,1,0.1,1.5c0.1,0.4,0.1,0.8,0.2,1.3
			c0.1,0.4,0.2,0.9,0.2,1.3c0.1,0.4,0,0.8,0,1.2s0,0.7,0,1c0,0.3,0,0.5,0.2,0.5c0.1-0.1,0.5-0.4,0.6-4"/>
		<path class="st5" d="M407.5,121.5c-0.3-1.2-1-2.6-2.4-4.1"/>
		<path class="st5" d="M389.7,115.5c-1.7,2-4.1,3-4.2,3.8"/>
		<path class="st5" d="M393.1,112.4c-0.1-0.9,0.2-1.8,0.4-2.3c0.2-0.6,0.3-0.8,0.6-1c0.3-0.2,0.7-0.3,1.2-0.3c0.5-0.1,1.1-0.1,1.9,0
			s1.7,0.2,2.5,0.4s1.4,0.5,1.7,0.7c0.3,0.3,0.4,0.5,0.4,0.8c0,0.3-0.1,0.6-0.1,0.8c0,0.2,0,0.4,0,0.5c0,0.1,0,0.1,0,0.1s0,0-0.4,0
			s-1-0.1-1.6-0.2s-1.2-0.1-1.7-0.2c-0.6-0.1-1.1-0.1-1.6-0.2c-0.5,0-0.8-0.1-1.4,0c-0.5,0-1.2,0-2,0.2"/>
		<path class="st5" d="M393.1,112.4c0,0.5,0.2,0.5,0.6,0.5s0.9-0.1,1.4-0.1c0.6,0,1.2,0,1.8,0c0.6,0,1.2,0.1,1.6,0.2
			s0.8,0.1,1.2,0.2c0.4,0.1,0.9,0.2,1.6,0.3s1.5,0.3,2.1,0.4c0.5,0.2,0.8,0.4,1,0.6c0.2,0.2,0.3,0.4,0.5,0.6
			c0.1,0.2,0.4,0.3,0.6,0.5c0.3,0.1,0.6,0.2,1.1,0.3s1.1,0.1,2.1,0.3"/>
		<path class="st5" d="M408.3,114.4c-1.7-0.3-2.3-0.5-2.6-0.7c-0.4-0.2-0.5-0.3-0.6-0.5c-0.1-0.2-0.3-0.4-0.5-0.6
			c-0.1-0.2-0.3-0.5-0.4-0.6c-0.2-0.2-0.3-0.3-0.5-0.3s-0.5,0.1-0.7,0.2c-0.2,0.1-0.4,0.1-1.2,0.1"/>
		<path class="st5" d="M403.1,111.9c0.6,0.5,0.6,0.7,0.6,0.9s-0.1,0.4,0.2,1.3"/>
		<path class="st5" d="M405.4,113.6c0.2,1.1-0.1,1.5-0.3,1.8"/>
		<path class="st5" d="M386.2,129.9c-0.2,1.8-0.2,2.3-0.2,2.8s0.1,0.9,0.1,1.3c0.1,0.4,0.2,0.8,0.4,1.4c0.3,0.6,0.7,1.3,1.2,1.7"/>
		<path class="st5" d="M393.3,152c-0.2-0.6,0.1-1.3,0.1-1.7c0-0.5-0.3-0.7-0.6-1c-0.3-0.3-0.5-0.6-0.8-0.9c-0.3-0.2-0.6-0.4-1-0.5
			c-0.3,0-0.7,0.1-0.9,0.3c-0.3,0.2-0.4,0.5-0.6,1c-0.1,0.5-0.2,1.1-0.4,1.7c-0.1,0.5-0.2,1-0.3,1.2c-0.1,0.3-0.2,0.4-0.6,0.2
			c-0.4-0.2-1-0.8-1.4-1.3c-0.4-0.6-0.6-1.2-0.8-1.7c-0.2-0.5-0.5-0.9-0.8-1.3c-0.2-0.5-0.3-1-0.2-2.1c0.1-1.1,0.5-2.7,0.2-5.9"/>
		<path class="st5" d="M399.9,150.4c0-1.1,0.1-1.6,0.5-1.9c0.4-0.2,1-0.1,1.3,0.2s0.4,0.7,0.4,1s0,0.5-0.1,0.9
			c-0.1,0.4-0.3,0.8-0.5,1.3c-0.1,0.4-0.2,0.8-0.3,1.2c0,0.4,0,1,0.1,1.1c0.1,0.2,0.2,0.1,0.3-0.2c0.1-0.3,0.3-0.8,0.6-1.6
			c0.2-0.7,0.6-1.7,1-2.6c0.4-0.9,0.8-1.9,1.3-2.8c0.4-0.9,0.9-1.8,0.8-3.3"/>
		<path class="st5" d="M373.3,148.1c3.2,3.3,2.8,4.7,2.6,5.9c-0.2,1.3-0.2,2.4-0.2,3.5c0,1.1,0,2.2,2,3.4"/>
		<path class="st5" d="M410.2,151.6c0,4-1.6,6.9-4.7,8.8"/>
		<path class="st5" d="M388.1,117.9c-0.4,0.8-1,1.3-1.4,2.1"/>
		<path class="st6" d="M360.6,157.9c2.9-4.6,3.2-6.3,3.7-7.5s1.1-1.9,1.8-2.6c0.8-0.6,1.6-1.2,2.5-1.8s1.9-1.1,3.9-2
			c2.1-0.9,5.3-2.1,7.5-2.8s3.3-0.9,4.3-1.1s1.7-0.5,2.2-0.9c0.5-0.4,0.7-0.8,0.8-1.2c0.1-0.4,0.3-0.9,0.4-1.1
			c0.1-0.3,0.1-0.4,0.1-0.9s0-1.5-0.1-2.3s-0.3-1.3-0.5-1.7c-0.2-0.4-0.4-0.6-0.6-1c-0.2-0.4-0.4-0.9-0.7-1.5
			c-0.4-0.7-1-1.5-1.3-2.2c-0.3-0.7-0.4-1.3-0.4-1.9c0-0.6,0.1-1,0.2-1.4s0.4-0.8,0.5-1.1c0.1-0.3,0-0.5,0.1-1.8
			c0.1-1.4,0.6-3.9,0.9-5.8c0.4-1.9,0.7-3.2,3.7-6.5c4.1-2,5.4-2,6.6-2s2.3,0,3.1,0.1c0.8,0.1,1.3,0.2,1.9,0.5
			c0.6,0.3,1.3,0.8,2,1.4s1.4,1.2,2,1.8c0.5,0.6,0.9,1.2,1.3,1.7c0.3,0.5,0.6,0.8,0.8,1.1c0.2,0.3,0.5,0.4,0.7,0.6
			c0.3,0.1,0.6,0.3,0.7,0.5c0.1,0.2,0.1,0.5,0.1,0.8c0,0.3-0.1,0.5-0.3,0.7c-0.2,0.2-0.4,0.3-0.5,0.5c-0.1,0.2-0.1,0.5-0.2,1.6
			c-0.1,1-0.4,2.7-0.5,3.7s-0.1,1.3-0.1,1.7s-0.1,0.8,0,1.4c0.1,0.6,0.2,1.2,0.3,1.9c0.1,0.7,0.1,1.3-0.1,1.8
			c-0.1,0.5-0.3,1-0.6,1.5c-0.4,0.5-0.9,1.1-1.2,1.9c-0.3,0.8-0.4,1.7-0.6,2.5c-0.2,0.8-0.5,1.2-0.8,1.7s-0.5,0.8-0.8,1.2
			c-0.2,0.4-0.4,0.8-0.5,1.3c-0.1,0.4-0.1,0.8-0.1,1.4c0,0.5,0,1.1,0.3,1.8c0.3,0.6,0.8,1.2,2.1,2.1c1.4,0.8,3.5,1.8,5.3,2.8
			c1.7,0.9,3,1.8,4.1,2.6c1.1,0.8,2.1,1.6,2.7,2.3c0.6,0.8,0.7,1.4,1.1,2.5c0.4,1.1,1,2.6,2.2,5.6"/>
	</g>
	<g>
		<g id="XMLID_4_">
			<g>
				<path class="st7" d="M192.9,117.9c-0.9-0.1-2,0-2.9,0.2c-0.9,0.2-1.6,0.6-2,1s-0.5,0.8-0.7,1.1c-0.1,0.3-0.2,0.5-0.3,0.9
					s-0.3,0.9-0.4,1.3c-0.1,0.4-0.3,0.8-0.4,1.3c-0.2,0.5-0.4,1.1-0.6,1.7c-0.5-0.2-1.3-0.5-2.7-1.2c0-0.1,0-0.1,0-0.2
					c-0.1-0.4-0.3-1-0.4-1.5s-0.1-1-0.1-1.8c0-0.9,0-2.2,0.1-3c0-0.9,0.1-1.3,0.3-1.8s0.5-0.9,0.9-1.4s1.1-1,1.5-1.5
					c0.4-0.4,0.6-0.8,1-1.1c0.4-0.3,0.9-0.5,1.6-0.7c0.7-0.2,1.6-0.5,2.8-1.3c1.4-0.9,1.9-1.3,2.9-1.2s2.5,0.6,3.3,0.9
					c0.8,0.3,0.9,0.4,1.2,0.6c0.3,0.2,0.7,0.6,1.4,1.1c0.8,0.5,1.9,0.9,2.7,1.4c0.7,0.3,1.1,0.6,1.5,1.2c0.1,0.1,0.2,0.3,0.3,0.4
					c0.6,0.9,1.3,2.4,1.6,3.5c0.4,1.1,0.3,1.8,0.3,2.7s-0.1,1.9-0.2,3c-0.2,1-0.5,2.1-0.7,2.8c-0.1,0.4-0.1,0.6-0.2,1.1
					c0-0.3,0-0.5-0.1-0.7l0,0c-0.4-1.3-0.5-2-0.5-2.8c-0.1-0.8-0.2-1.5-0.2-2s-0.1-0.8-0.1-1.1c0-0.3-0.1-0.6-0.2-0.9
					s-0.4-0.5-0.7-0.6c-0.3-0.2-0.5-0.2-0.9-0.4c-0.1-0.1-0.3-0.1-0.4-0.2c-0.3-0.1-0.7-0.3-1.1-0.4c-0.7-0.1-1.5-0.2-2-0.1
					c-0.1,0-0.3,0-0.4,0.1c-0.3,0.1-0.4,0.2-0.6,0.2c-0.3,0.1-0.6,0.2-1,0.1c-0.4,0-0.8-0.1-1.3-0.2
					C194.4,118.1,193.8,117.9,192.9,117.9z"/>
				<path class="st7" d="M185.2,125.9c-0.5,1.1-0.6,1.7-0.8,2.2c-0.1,0.5-0.2,0.8-0.3,0.9c-0.1,0.1-0.2,0.1-0.3,0
					c-0.1-0.1-0.1-0.3-0.1-0.5s0-0.5,0-0.8c0-0.3,0-0.6,0-1c0-0.3-0.1-0.7-0.6-1.9C184.2,125.4,184.9,125.7,185.2,125.9z"/>
			</g>
		</g>
		<path class="st5" d="M200.1,142.7c0.2,1.1,0.6,2,0.3,3.4"/>
		<path class="st5" d="M193.3,155.3c-0.3-0.2-0.8-0.2-1.2,0s-0.8,0.7-0.8,1.1c0,0.4,0.4,0.7,0.8,0.8c0.4,0.2,0.7,0.2,1,0.2
			s0.5-0.2,0.6-0.4s0.1-0.5,0.1-0.8C193.8,156,193.7,155.5,193.3,155.3z"/>
		<path class="st5" d="M216.2,147.6c3.2,5.6,2.2,8.5,1.4,11.4c-0.8,3-1.3,6-1.6,7.6"/>
		<path class="st5" d="M166.1,152.7c2,1.5,2.8,2.1,3.1,2.9s0.1,1.8,0,3s-0.2,2.5,1.7,5.5"/>
		<path class="st5" d="M184.8,139.2c-0.2,2.6-0.2,3.2-0.1,4.1c0.1,0.9,0.2,2,0.5,2.8c0.4,0.8,1,1.3,1.6,1.8c0.6,0.4,1.3,0.9,1.9,1.2
			c0.6,0.3,1.3,0.6,1.7,0.8s0.7,0.5,1,0.8c0.2,0.2,0.4,0.5,0.6,0.8c0.1,0.3,0.2,0.7,0.3,1s0.3,0.6,0.7,0.8c0.4,0.1,1.1,0.1,1.5,0.4
			s0.7,1,1,1.5c0.3,0.4,0.5,0.7,0.9,0.5s0.8-0.6,1-1.3c0.2-0.6,0.2-1.4,0.4-2.1s0.7-1.3,1.1-2c0.4-0.7,0.7-1.3,0.9-2
			c0.2-0.6,0.5-1.3,0.7-2c0.2-0.8,0.5-1.7,0.4-3.7"/>
		<path class="st5" d="M197.8,127.2c-0.1,0.1-0.1,0.1-0.1,0.3c0,0.2-0.1,0.5-0.1,0.8c0,0.3,0,0.5,0.2,0.8s0.4,0.7,0.7,0.9
			c0.2,0.2,0.4,0.3,0.7,0.5c0.3,0.1,0.8,0.2,1.3,0.3c0.4,0.1,0.7,0,1.1-0.1c0.4-0.1,0.8-0.2,1.2-0.5c0.4-0.2,0.7-0.5,0.9-0.8
			s0.2-0.6,0.3-1c0-0.3,0.1-0.7,0.1-0.9c0-0.2,0-0.5-0.2-0.7c-0.2-0.2-0.5-0.3-0.7-0.4s-0.4-0.1-0.6-0.2c-0.2-0.1-0.5-0.1-0.7-0.2
			c-0.3,0-0.6,0-0.9,0c-0.4,0.1-0.8,0.2-1.1,0.2c-0.3,0.1-0.6,0.1-0.9,0.2c-0.2,0.1-0.4,0.2-0.6,0.3
			C198,127,197.9,127.1,197.8,127.2z"/>
		<path class="st5" d="M188.8,125.7c0.2-0.1,0.6-0.1,1-0.2c0.4,0,1,0,1.4,0s0.9,0,1.2,0.1s0.5,0.1,0.8,0.3c0.2,0.1,0.5,0.3,0.7,0.4
			c0.2,0.1,0.3,0.2,0.4,0.3c0.1,0.1,0.2,0.2,0.2,0.4c0.1,0.2,0.1,0.3,0.1,0.5c0,0.2-0.1,0.6-0.2,0.9c-0.1,0.3-0.3,0.7-0.4,0.9
			c-0.2,0.2-0.4,0.4-0.7,0.5c-0.3,0.1-0.5,0.2-0.9,0.2c-0.3,0.1-0.8,0.1-1.2,0.1s-0.8-0.1-1.2-0.2c-0.4-0.1-0.7-0.2-0.9-0.4
			c-0.2-0.2-0.4-0.5-0.6-0.8c-0.1-0.4-0.2-0.8-0.3-1.2s-0.1-0.6,0-0.9s0.2-0.5,0.3-0.6C188.5,125.8,188.6,125.7,188.8,125.7z"/>
		<path class="st5" d="M191.1,117.9c-0.7-0.3-1.7-0.6-2.3-0.7s-1-0.1-2.3,0.4"/>
		<path class="st5" d="M197.9,118.1c-2.2-0.6-3.1-1.3-3.9-1.8c-0.8-0.5-1.3-0.7-2-0.8s-1.6-0.1-2.7,0"/>
		<path class="st5" d="M191.6,113.2c3.7,0.1,5.3,0.9,6.4,1.6c1.1,0.7,1.7,1.3,2.1,1.8s0.7,1,1.3,1.9"/>
		<path class="st5" d="M203.4,113.6c-4.2-1.8-5.1-2.1-5.9-2.3c-0.8-0.2-1.4-0.4-2.1-0.5c-0.7-0.1-1.3-0.1-2.1-0.1s-1.7,0.1-2.5,0.2
			c-0.7,0.1-1.2,0.3-1.6,0.5c-0.4,0.1-0.7,0.3-0.9,0.4s-0.3,0.1-0.6,0.4"/>
		<path class="st5" d="M185.5,125.4c0.2-0.5,0.4-1.2,0.6-1.7s0.3-0.8,0.4-1.3c0.2-0.4,0.3-0.9,0.4-1.3c0.1-0.4,0.2-0.6,0.3-0.9
			s0.2-0.7,0.7-1.1c0.4-0.4,1.1-0.8,2-1c0.9-0.2,2-0.3,2.9-0.2s1.5,0.2,2,0.3s1,0.2,1.4,0.2s0.7,0,1-0.1s0.4-0.2,1-0.3
			c0.5-0.1,1.3-0.1,2,0.1s1.2,0.4,1.5,0.5c0.4,0.2,0.6,0.3,0.9,0.4c0.2,0.2,0.5,0.3,0.7,0.6c0.2,0.2,0.2,0.6,0.2,0.9
			c0,0.3,0.1,0.6,0.2,1.1c0.1,0.5,0.1,1.3,0.2,2c0.1,0.8,0.1,1.5,0.5,2.8"/>
		<path class="st5" d="M183.2,124.8c0.6,1.2,0.6,1.5,0.6,1.9c0,0.3,0,0.7,0,1c0,0.3,0,0.6,0,0.8c0,0.2,0,0.4,0.1,0.5
			c0.1,0.1,0.2,0.2,0.3,0c0.1-0.1,0.2-0.5,0.3-0.9c0.1-0.5,0.3-1.1,0.8-2.2"/>
		<path class="st5" d="M182.9,124.1c2.7,1.4,3.2,1.4,3.8,1.4c0.5,0,1-0.1,1.4-0.2s0.6-0.2,0.9-0.3c0.2-0.1,0.5-0.1,1.2-0.1
			s1.8,0.1,2.6,0.1s1.1,0.2,1.3,0.3s0.4,0.2,0.5,0.3c0.2,0.1,0.2,0.2,0.4,0.3s0.4,0.2,0.7,0.3c0.2,0.1,0.5,0.2,0.8,0.2s0.7,0,0.9,0
			s0.3-0.1,0.7-0.2c0.3-0.2,0.9-0.4,1.4-0.6s0.9-0.2,1.3-0.3c0.4,0,0.8,0,1.3,0.1c0.4,0.1,0.9,0.3,1.4,0.4c0.5,0.2,0.9,0.2,1.1,0.5
			c0.2,0.2,0.1,0.7,0,1.2c-0.1,0.6-0.2,1.4-0.4,1.9s-0.5,0.8-0.9,1c-0.4,0.3-0.9,0.5-1.3,0.8c-0.4,0.2-0.6,0.3-1,0.3
			c-0.3,0-0.7,0-1-0.1c-0.4-0.1-0.7-0.2-0.9-0.3c-0.2-0.1-0.4-0.2-0.5-0.4c-0.1-0.1-0.2-0.2-0.4-0.4c-0.2-0.2-0.3-0.4-0.5-0.6
			c-0.1-0.2-0.2-0.5-0.3-0.8s-0.3-0.6-0.4-0.8c-0.1-0.2-0.2-0.3-0.4-0.4s-0.4-0.1-0.6,0c-0.2,0-0.4,0-0.6,0.1
			c-0.2,0.1-0.4,0.3-0.5,0.6c-0.2,0.3-0.4,0.8-0.6,1.1c-0.3,0.3-0.6,0.5-1,0.6c-0.4,0.1-0.9,0.2-1.3,0.3c-0.4,0.1-0.7,0.1-1,0.1
			s-0.6,0-0.9,0s-0.6-0.2-0.9-0.3c-0.2-0.1-0.4-0.3-0.6-0.4c-0.2-0.2-0.3-0.4-0.5-0.6c-0.1-0.2-0.2-0.5-0.3-0.8
			c-0.1-0.3-0.1-0.5-0.2-0.8c-0.1-0.2-0.2-0.4-0.3-0.6c-0.1-0.2-0.3-0.3-0.5-0.5c-0.2-0.2-0.5-0.3-0.8-0.4s-0.8-0.2-3.1-1.4"/>
		<path class="st5" d="M186,138.2c0.9,1.6,2.1,2.3,2.8,2.8s0.9,0.8,1.6,1.2c0.7,0.4,1.9,1,2.9,1.3c0.9,0.3,1.4,0.2,1.9,0.2
			s1-0.1,1.4-0.2c0.5-0.1,1-0.3,1.3-0.5c0.3-0.2,0.4-0.2,0.6-0.3c0.1-0.1,0.4-0.2,0.8-0.5s1-0.6,1.1-0.7"/>
		<path class="st6" d="M224.2,161.6c-0.5-2.9-1.1-4.2-1.9-6c-0.9-1.7-2-3.9-2.7-5c-0.7-1.1-0.9-1.3-1.1-1.6
			c-0.2-0.2-0.5-0.6-1.4-1.1s-2.6-1.1-4.8-1.8c-2.2-0.7-5-1.4-6.8-1.8c-1.8-0.5-2.7-0.7-3.3-1c-0.6-0.3-1.2-0.7-1.5-1
			c-0.3-0.3-0.4-0.4-0.1-0.8c0.2-0.4,0.7-0.9,1.1-1.4c0.4-0.5,0.7-0.9,1.1-3c0.5-2.1,1.2-5.8,1.5-7.9c0.3-2.1,0.4-2.4,0.5-3.2
			c0.1-0.7,0.5-1.7,0.7-2.8c0.2-1,0.2-2.1,0.3-3c0-0.9,0-1.6-0.3-2.7c-0.4-1.1-1.1-2.6-1.6-3.5c-0.6-0.9-1-1.2-1.8-1.6
			c-0.8-0.4-1.9-0.9-2.7-1.3c-0.8-0.5-1.2-0.8-1.4-1.1c-0.3-0.2-0.4-0.4-1.2-0.6c-0.8-0.3-2.3-0.8-3.3-0.9s-1.6,0.3-2.9,1.2
			c-1.3,0.8-2.1,1.1-2.8,1.3s-1.2,0.4-1.6,0.7c-0.4,0.3-0.6,0.7-1,1.1c-0.4,0.4-1.1,1-1.5,1.5s-0.8,0.9-0.9,1.4
			c-0.2,0.5-0.2,0.9-0.3,1.8s-0.1,2.2-0.1,3c0,0.9,0,1.3,0.1,1.8s0.3,1.1,0.4,1.5c0.1,0.4,0.1,0.6-0.1,0.8c-0.2,0.2-0.5,0.2-0.8,0.4
			c-0.3,0.2-0.6,0.2-0.8,0.6s-0.3,1-0.2,1.7c0.1,0.7,0.2,1.6,0.4,2.1s0.3,0.8,0.4,1c0.1,0.3,0.2,0.7,0.2,1.1
			c0.1,0.4,0.1,0.9,0.2,1.3c0.1,0.4,0.2,0.6,0.4,0.8c0.2,0.1,0.5,0.1,0.8,0.1c0.3-0.1,0.5-0.1,0.7-0.2c0.2,0,0.4,0.1,0.5,0.7
			s0.3,1.8,0.4,2.6c0.1,0.8,0.2,1.3,0.1,1.6s-0.2,0.5-0.5,0.7c-0.3,0.3-0.7,0.7-1.1,1c-0.3,0.3-0.5,0.6-0.8,1
			c-0.2,0.4-0.4,0.9-0.6,1.4c-0.2,0.5-0.4,0.9-0.5,1.3c-0.2,0.3-0.2,0.5-0.6,0.8c-0.4,0.3-1,0.7-1.8,1.2s-1.8,1.2-3.1,1.9
			s-2.8,1.3-3.8,1.8s-1.4,0.8-2,1s-1.4,0.5-2.1,0.7c-0.7,0.2-1.2,0.4-1.6,0.7c-0.4,0.3-0.6,0.6-0.8,0.9s-0.5,0.6-0.8,0.9
			s-0.7,0.7-0.9,1s-0.3,0.4-0.7,1.2c-0.4,0.8-1.3,2-2.8,6.5"/>
	</g>
</g>
</svg>
