<?xml version="1.0" encoding="utf-8"?>
<!-- Generator: Adobe Illustrator 23.0.1, SVG Export Plug-In . SVG Version: 6.00 Build 0)  -->
<svg version="1.1" id="Layer_1" xmlns="http://www.w3.org/2000/svg" xmlns:xlink="http://www.w3.org/1999/xlink" x="0px" y="0px"
	 viewBox="0 0 494.7 439.3" style="enable-background:new 0 0 494.7 439.3;" xml:space="preserve">
<style type="text/css">
	.st0{fill:none;stroke:#314584;stroke-linejoin:bevel;}
	.st1{fill:none;stroke:#314584;stroke-width:0.25;}
	.st2{fill:#FFFFFF;stroke:#314584;stroke-width:0.25;stroke-linejoin:bevel;}
	.st3{fill:#6174A3;stroke:#314584;stroke-width:0.25;stroke-linejoin:bevel;}
	.st4{fill:#9B9B9B;}
	.st5{fill:none;stroke:#314584;stroke-width:0.25;stroke-linecap:round;stroke-linejoin:round;}
	.st6{fill:none;stroke:#314584;stroke-width:0.75;stroke-linecap:round;stroke-linejoin:round;}
	.st7{fill:#606060;}
</style>
<g id="svg13063" xmlns:cc="http://creativecommons.org/ns#" xmlns:dc="http://purl.org/dc/elements/1.1/" xmlns:inkscape="http://www.inkscape.org/namespaces/inkscape" xmlns:rdf="http://www.w3.org/1999/02/22-rdf-syntax-ns#" xmlns:sodipodi="http://sodipodi.sourceforge.net/DTD/sodipodi-0.dtd" xmlns:svg="http://www.w3.org/2000/svg">
	
		<sodipodi:namedview  bordercolor="#666666" borderopacity="1" gridtolerance="10" guidetolerance="10" id="namedview13065" inkscape:current-layer="svg13063" inkscape:cx="284.3189" inkscape:cy="133.85176" inkscape:pageopacity="0" inkscape:pageshadow="2" inkscape:window-height="1017" inkscape:window-maximized="1" inkscape:window-width="1920" inkscape:window-x="-8" inkscape:window-y="-8" inkscape:zoom="2.8284271" objecttolerance="10" pagecolor="#ffffff" showgrid="false">
		</sodipodi:namedview>
	<g id="a">
		<polygon class="st0" points="275.9,365.4 274.5,366.9 272.1,366.9 272.1,364.7 274,363.6 275.9,363.6 		"/>
		<polygon class="st0" points="279.9,359.1 279.9,361.3 278.1,360.2 278.1,358.5 279.9,358.5 279.9,352.6 275.3,352.6 264.4,359.9 
			261.7,356.8 261.7,362.9 255.1,362.9 258.9,373.4 271.6,373.4 281.3,362.2 281.8,359.1 		"/>
		<polygon class="st0" points="108.3,239.7 110.9,238 113.9,238 111.4,239.7 		"/>
		<polygon class="st0" points="131.3,230.6 128.1,233.4 120.6,233.4 118.3,235 120.1,235 117.6,236.7 115.9,236.7 118.3,235 
			113.5,235 111.3,236.6 109.2,236.8 109.6,233.1 108,233.1 106,234.4 102.4,239.7 100.3,239.7 104.4,233.1 109.2,232.1 
			108.9,231.2 105.8,231.1 104.3,230.2 102.4,231.1 100.2,231.1 101.1,229.1 96.5,227.1 57.7,227.1 44.9,240.5 44.9,250.9 
			49.6,255.6 65.9,257.7 68.1,261 72.7,260.8 76.5,268.3 83.5,259.4 100.3,259.4 101.4,267.8 104.1,267.9 104.2,257.5 131.3,234.2 
			133.2,233.9 134.2,230.6 		"/>
		<polygon class="st0" points="147.4,229.2 156.9,229.2 154.9,226 153.1,225.6 153.1,223.4 		"/>
		<polygon class="st0" points="77.1,279.9 73.4,272.1 76.5,268.2 72.7,260.8 68.1,261 65.9,257.7 49.6,255.6 49.6,255.6 50.3,262.9 
			55.4,272.4 57.4,270.9 53.4,262.4 53.4,257.7 55.8,257.7 55.9,262.1 63.4,279.7 75.6,284.8 78.7,284 81.3,286.7 82.7,284.4 
			85.5,284.4 85.1,281.3 87.5,281.3 90.7,278.9 90.8,275.5 87.4,275.5 84.6,279.9 		"/>
		<polygon class="st0" points="212.5,203.5 217,201.3 217,200.7 214.8,198.4 211.6,199.5 207.9,199.4 207.1,200.5 204.9,200.4 
			204.9,202.5 		"/>
		<polygon class="st0" points="252.9,251.5 252.9,249.4 250.5,249.3 250.5,250.9 		"/>
		<polygon class="st0" points="160.8,182.9 160.8,185.2 172.1,185.4 175,190.3 175,194.9 169.6,197.9 169.7,204 173.1,207.5 
			177.2,207.5 183.3,201 192,198.4 195.2,195.9 201.8,195.5 206.4,194.2 215,180.4 220.4,179.3 222.2,177.5 206.9,175.9 
			193.6,177.5 177.5,177.5 168.2,180.7 		"/>
		<polygon class="st0" points="422.4,270 421.1,268.6 419,271.7 421.1,273.7 		"/>
		<polygon class="st0" points="401.8,232.1 402.2,229.6 397.7,228.9 396,226.1 387.4,226.1 369.8,221.7 367.9,226.1 360.8,223.9 
			355.4,228 372.8,238.1 392.9,238.3 395.3,233.4 		"/>
		<polygon class="st0" points="405.6,278 403,278.6 403,280.1 404.1,281.4 405.6,279.5 		"/>
		<polygon class="st0" points="396,226.1 397.7,228.9 402.2,229.6 401.8,232.1 395.3,233.4 392.9,238.3 372.8,238.1 355.4,228 
			347.9,233.7 349.2,239.5 341.7,242.3 343.8,247.6 351.8,251.2 352.1,257.7 373.1,264.9 376.9,261.4 385.1,264.9 384,268 
			388.4,275.2 396,271.4 401,275.6 403.1,274.4 403.2,276.5 415.6,272 419.7,262.9 412.4,250.9 416.2,246.8 411.9,246.8 
			410.5,247.7 407.8,243.3 411.2,240.3 413.6,244.8 416.9,242.5 423.3,238.1 423.3,229.6 412.7,227 405,219.4 397.5,219.4 
			399.2,225.4 		"/>
		<polygon class="st0" points="439.4,238.9 442.3,238.8 443.6,236.7 437,233.9 437.2,239.3 438.5,240.1 		"/>
		<polygon class="st0" points="431.3,251.3 430.8,253 437.3,252 437.8,254.5 439.2,253.9 439.4,251.9 443.7,250.8 443.5,245.1 
			441.5,241.7 439.6,241.1 440.7,246.3 436.7,249.9 		"/>
		<polygon class="st0" points="430.1,254.5 432.5,254.2 433.2,255.4 432.4,258 		"/>
		<polygon class="st0" points="436.4,253.4 435.2,255.5 433.7,253.8 		"/>
		<polygon class="st0" points="429.3,288.5 425.7,288.1 424.4,286.5 425.7,283.5 424.5,280.7 422.1,280.6 421.5,285.6 424.9,289.6 
			428.7,290.1 		"/>
		<polygon class="st0" points="418.1,297.3 419.7,297.6 422.5,295.3 422.4,293.4 		"/>
		<polygon class="st0" points="430.4,300.9 430.4,303.2 432.7,302.5 431.9,301 433.8,300.5 432.2,295.5 431,298.6 427.1,298.6 		"/>
		<polygon class="st0" points="423.5,289.8 425.1,291.4 424.6,292.4 423.3,291.1 		"/>
		<polygon class="st0" points="425.1,293.8 426.3,294.6 427.6,292.6 425.9,292.4 		"/>
		<polygon class="st0" points="429.5,291.7 431.2,293.8 432.9,293.8 431.2,291.1 		"/>
		<polygon class="st0" points="429.5,293.5 430.5,295.1 429.7,296.1 428.4,294.1 		"/>
		<polygon class="st0" points="427.6,295.1 428.4,296.4 427.6,297.4 426.7,296.2 		"/>
		<polygon class="st0" points="430.8,327.9 431.9,329.4 434.9,329 434.9,327.9 		"/>
		<polygon class="st0" points="406.2,310.2 406.3,314.6 408.8,318.9 416.6,318.9 420.5,313.9 420.5,305 417.7,305.2 415.4,309.5 
			407.8,311.2 		"/>
		<polygon class="st0" points="400.6,321.5 400.6,318.2 387.7,304.8 383.3,303.2 398.2,323.5 		"/>
		<polygon class="st0" points="415.7,327.4 415.9,328.5 399.8,325.8 402.2,323.8 406.2,325.4 409.9,324.6 		"/>
		<polygon class="st0" points="426,327.4 423.5,327.4 424,329 426.3,329 427.3,328.2 		"/>
		<polygon class="st0" points="421.6,330 422.4,330.9 424.1,330.9 423.5,329.6 		"/>
		<polygon class="st0" points="430.8,327.9 428.3,330.7 430.2,330.9 431.9,329.4 		"/>
		<polygon class="st0" points="422.5,323 424.3,322.4 423.8,319.1 424.9,317.9 425.8,320.3 428,321.1 428,319.4 426.7,316.6 
			429.1,314.6 425.3,314.8 424.6,313.7 426.1,312.1 428.8,313 430.2,312.9 432.3,310.5 430.5,310.4 429.3,311.2 425.4,310.3 
			422.9,312.6 423,316.2 421.5,318.2 		"/>
		<polygon class="st0" points="436.4,317.8 435.9,319.3 440.1,318.9 440.1,317.8 		"/>
		<polygon class="st0" points="437.3,308 435.9,309.4 435.4,312.8 437.3,313.3 436.9,310.3 438,308.9 		"/>
		<polygon class="st0" points="446.8,317.2 446.3,314.2 441.7,314.8 		"/>
		<polygon class="st0" points="446.5,319.7 452.9,322.3 454.1,325.6 451.9,326.9 457.4,328.8 457.4,318 453,315.7 448.8,319.1 
			444.4,317.3 443.9,319.7 		"/>
		<polygon class="st0" points="427.5,248.5 423.1,244.9 421.2,246.7 423.8,252.3 426.9,252.1 		"/>
		<polygon class="st0" points="423.1,244.9 421.2,243.4 423.7,243.1 423.3,238.1 416.9,242.5 418.8,246 421.2,246.7 		"/>
		<polygon class="st0" points="417.6,301.9 414.2,306.6 406.2,310.2 407.9,311.2 415.4,309.5 417.7,305.3 420.5,305 420.5,301.7 		
			"/>
		<polygon class="st0" points="391.3,301.9 392.7,306.4 398.3,311.2 398.8,309.5 393.4,301.6 		"/>
		<polygon class="st0" points="459.4,329.5 463.2,326 468.1,330.8 472.7,331.7 467.1,326.2 467.4,323.2 457.4,318 457.4,328.8 		"/>
		<polygon class="st0" points="469.9,323.7 471.9,324.9 475.3,323 475.3,321 		"/>
		<polygon class="st0" points="472.7,318.1 476.7,321 478.3,320.4 474.2,318 		"/>
		<polygon class="st0" points="388.4,275.2 384,268 385.1,264.9 382.6,263.8 379.2,266.3 377.6,277.2 380.2,279.3 381.1,284.4 
			382.9,284.9 384.2,283.3 386.5,286 387.8,290.8 387.5,295.8 389.5,291.9 385.9,278.7 388.4,276.9 		"/>
		<polygon class="st0" points="395.7,281.4 398.6,285.4 395.9,288.1 402,288.1 402,286.5 396,280.2 394.7,276.1 390.6,274.1 
			388.4,275.2 388.4,276.9 390.5,278.2 390.5,281.4 		"/>
		<polygon class="st0" points="390.5,281.4 390.5,278.2 388.4,276.9 385.9,278.7 389.5,291.9 387.5,295.8 387.4,297.8 390.9,300.8 
			391.3,301.9 393.4,301.6 390,296.5 390.8,288.7 394.6,292.5 394.6,289.3 398.6,285.4 395.7,281.4 		"/>
		<polygon class="st0" points="394.6,289.3 394.6,292.5 396.6,294.4 398.7,294.1 402,291.7 402,288.1 395.9,288.1 		"/>
		<polygon class="st0" points="396,280.2 402,286.5 402,291.7 398.7,294.1 398.8,297.6 405,293.5 404.8,287.5 398.3,280.6 
			398.7,276.9 401,275.6 396,271.4 390.6,274.1 394.7,276.1 		"/>
		<polygon class="st0" points="370.2,267 368.9,267.6 370.8,273.8 372.1,272.6 377.6,277.2 378,274.7 375.1,272 374.6,268.7 
			372.3,269.7 		"/>
		<polygon class="st0" points="372.3,266.6 368.9,265.7 369.3,263.6 368.4,263.3 366.3,266.6 354.9,262.3 355,258.6 352.1,257.7 
			351.8,251.2 349.3,250.1 347,250.1 343.6,252.5 343.5,254.6 345.6,255.7 346.6,259.7 342.1,263.9 339.3,263.9 339.3,266.9 
			341.4,267.7 341.4,270.3 337.5,271.4 337.9,271.8 341.1,272.8 339.6,274.3 341,276.1 343.5,276.4 344,274.3 345,274.3 
			353.1,297.7 358.3,294.5 359.1,285.1 370.8,273.8 368.9,267.6 370.3,267 372.3,269.7 374.6,268.7 375.1,272 378,274.7 
			379.2,266.3 382.6,263.8 376.9,261.4 373.1,264.9 		"/>
		<polygon class="st0" points="355,258.6 354.9,262.3 366.3,266.6 368.4,263.3 		"/>
		<polygon class="st0" points="369.3,263.6 368.9,265.7 372.3,266.6 373.1,264.9 		"/>
		<polygon class="st0" points="304.9,236.5 307.3,238.5 310.4,237.6 313.1,239.9 312.7,234 316.9,233 322.4,236.8 327,235.9 
			330.4,240.4 333.6,240.2 336.8,237.6 344.4,237.3 349.2,239.5 347.9,233.7 355.4,228 351.1,225.4 325.9,216.5 315.9,218.8 
			315.9,223.3 298.3,223.3 298.3,229.1 300.6,232 305.7,230 308.7,232 305.1,233.8 		"/>
		<polygon class="st0" points="324.3,250.3 322.6,247.6 316,245.5 312.1,246.8 312,248.5 307,248.5 304.3,243.7 297.7,244.3 
			297.7,246.3 305.7,259.8 308,260 313.5,265.7 323.6,268.7 326.4,268.7 328.4,265.2 326.2,262.4 323,253.1 		"/>
		<polygon class="st0" points="313.1,239.9 310.4,237.6 307.3,238.5 312.2,242.5 312.1,246.8 316,245.5 322.6,247.6 324.3,250.3 
			330.5,247.1 320.2,238.8 315.8,238.8 		"/>
		<polygon class="st0" points="339.3,263.9 342.1,263.9 346.6,259.7 345.6,255.7 343.5,254.6 343.6,252.5 347,250.1 349.3,250.1 
			344.6,247.9 339.5,248.6 337.9,255.6 332,261 325.7,261 326.2,262.4 328.5,265.2 326.4,268.7 335.2,268.7 337.5,271.4 
			341.4,270.3 341.4,267.7 339.3,266.9 		"/>
		<polygon class="st0" points="322.4,236.8 316.9,233 312.7,234 313.1,239.9 315.8,238.8 320.2,238.8 330.6,247.1 333.9,248 
			332.4,243.5 337.2,242.1 337.5,240.1 330.4,240.4 327,235.9 		"/>
		<polygon class="st0" points="324.3,250.3 323,253.1 325.7,261 332,261 337.9,255.6 339.5,248.6 338.4,245.7 333.9,248 
			330.5,247.1 		"/>
		<polygon class="st0" points="338,244.3 334,243 332.4,243.5 333.9,248 338.4,245.7 339.5,248.6 344.6,247.9 343.8,247.6 
			342.3,243.9 		"/>
		<polygon class="st0" points="336.8,237.6 333.6,240.2 337.5,240.1 337.2,242.1 334,243 338,244.3 342.3,243.9 341.7,242.3 
			349.2,239.5 344.4,237.3 		"/>
		<polygon class="st0" points="298.3,241.4 301.2,244 304.3,243.7 302.1,239.9 299.8,239.3 		"/>
		<polygon class="st0" points="292.1,240.3 296.4,241.4 298.3,241.4 299.8,239.3 294.3,236.8 292.1,237.3 		"/>
		<polygon class="st0" points="297.7,244.3 301.2,244 298.3,241.4 296.4,241.4 		"/>
		<polygon class="st0" points="265.2,211.6 264.1,211.9 264.4,212.1 264,213.5 260.9,212.1 260.9,214 265.2,215.1 268.3,216.5 
			269.5,215.5 269.1,212.4 267.5,212.9 		"/>
		<polygon class="st0" points="260.9,216.1 263.3,216.9 264,218.3 264.5,219.7 268.3,216.5 265.2,215.1 260.9,214 		"/>
		<polygon class="st0" points="273.1,215.5 269.5,215.5 264.5,219.7 265.3,221.9 272.5,223.1 277,222.1 274.3,221 275.9,220 		"/>
		<polygon class="st0" points="263.1,209.9 262.7,210.8 264.1,211.9 265.2,211.6 267.5,212.9 269.1,212.4 268.6,208.9 267.7,209.8 
					"/>
		<polygon class="st0" points="272.5,223.1 265.3,221.9 265.7,223.2 263.1,226.4 263.1,228.2 272.9,228.2 273.8,230 272.1,232.7 
			273.6,233.3 274,232.1 279.8,232.1 278.5,233.4 280.3,234.4 282.7,234.2 280.4,231.3 286.4,230 288,226.6 277,222.1 		"/>
		<polygon class="st0" points="258.7,194.9 248.6,202.3 248.6,208.9 247.3,211.1 251.1,215.5 257.3,210 254.4,206.4 260.9,199.3 
			262.2,199.3 260.4,194.9 		"/>
		<polygon class="st0" points="240.9,211.6 246.8,210.6 247.3,211.1 248.6,208.9 248.6,202.3 258.8,194.9 264.3,194.9 264.3,193.1 
			258.6,193.4 239,207 		"/>
		<polygon class="st0" points="264.3,194.9 260.4,194.9 262.2,199.3 263.2,199.3 260.1,206.4 263.7,208.2 269.3,208.2 272.5,204.6 
			267.3,192.9 264.3,193.1 		"/>
		<polygon class="st0" points="433.7,227.3 435.7,227.3 428.9,220.4 426.9,220.3 432.4,227.1 435.1,232.1 437.1,232.1 		"/>
		<polygon class="st0" points="263.2,216.9 260.8,216.1 260.8,217.7 263.9,218.3 		"/>
		<polygon class="st0" points="407.3,192.8 405.5,190.3 394.1,188.4 390.8,191.3 381.6,191.3 377.7,188.4 356.8,188.4 355.5,183.8 
			336.2,183.8 319.1,191.4 322.8,196 319.6,199.4 316.7,189.9 311.6,189.4 314,195.1 294.2,195.6 275.6,203.2 273.2,198.6 
			280.2,198.8 283.7,197.1 270.1,192.8 267.2,192.9 272.5,204.6 269.3,208.2 268.6,208.9 269,212.4 269.5,215.5 273.1,215.5 
			275.9,220 274.3,221 277,222.1 287.9,226.6 286.4,230 287.1,231.7 285.3,232.2 285.7,235 292.1,237.3 294.3,236.8 299.7,239.3 
			302.1,239.9 300.6,237.3 300.6,232.1 298.3,229.1 298.3,223.3 315.9,223.3 315.9,218.8 325.8,216.6 351.1,225.5 355.4,228 
			360.7,223.9 367.9,226.1 369.8,221.8 387.4,226.1 396,226.1 399.2,225.5 397.5,219.4 405,219.4 412.7,227 423.2,229.6 
			423.2,238.1 427.8,237.3 430.3,233.6 430.3,226.7 423.2,218.7 416.4,218.6 417.5,210.1 431.7,210.2 433.3,205.4 439.2,207.7 
			439.3,205.4 440.7,205.6 443.3,208.1 440.8,209.8 440.5,214.8 450.6,224.4 450.6,215.2 444.9,209.7 458.4,205.4 458.6,204 
			451.8,202.2 454.4,200.1 460.5,201.4 464.6,201.5 461.3,197.9 440.1,193.7 		"/>
		<polygon class="st0" points="256.2,228.7 253.8,230.8 257.4,232.1 261.2,231.5 264.3,228.2 263.1,228.2 263.1,227.5 		"/>
		<polygon class="st0" points="254.4,227 256.2,228.7 263.1,227.5 263.1,226.4 256.9,225.7 256.6,225.6 		"/>
		<polygon class="st0" points="241.3,232 243.6,232.1 245.6,231.7 244.8,229.5 243,229.5 241.7,230 		"/>
		<polygon class="st0" points="249.8,227 254.4,227 256.6,225.6 252.3,223.8 248.4,225.1 		"/>
		<polygon class="st0" points="219.2,247.9 220.1,248 221.1,239.3 217.8,238.7 217.6,245.1 		"/>
		<polygon class="st0" points="272.1,232.7 273.8,230 272.8,228.2 269.9,228.2 		"/>
		<polygon class="st0" points="263.9,218.3 260.8,217.7 257.6,217.8 256.9,217.2 252.3,218.3 251.9,218.3 252.3,223.8 256.6,225.6 
			256.9,225.7 263.1,226.4 265.7,223.2 265.2,221.9 264.4,219.7 		"/>
		<polygon class="st0" points="264.3,228.2 261.2,231.5 264,236 270.8,235.2 272.8,235.8 273.6,233.3 272.1,232.7 269.9,228.2 		"/>
		<polygon class="st0" points="251.8,218.3 245.9,218.2 245.6,217.2 243.6,217.2 244,218.2 240.9,220 240.6,225.4 242.5,226.4 
			241.7,230 243,229.5 247.4,229.5 247.7,229.4 250.9,228.4 249.8,227 248.4,225 252.3,223.8 		"/>
		<polygon class="st0" points="243.6,217.2 245.6,217.2 245.5,216.7 246.2,212.9 244.3,212.9 243,215.9 		"/>
		<polygon class="st0" points="249.1,215.8 247.9,214.7 246.9,215.1 246.6,216.7 248.5,216.7 		"/>
		<polygon class="st0" points="250.9,228.4 247.4,229.5 244.8,229.5 245.6,231.7 249.4,230.8 253.8,230.8 255.6,229.3 256.2,228.7 
			254.4,227 249.8,227 		"/>
		<polygon class="st0" points="253.1,245.8 249.2,245.8 249.2,246.8 250.7,247.8 253.1,248.2 		"/>
		<polygon class="st0" points="243,240.4 243,244.3 244.8,244.3 244.8,240.9 		"/>
		<polygon class="st0" points="241.3,232 241,233.7 243.2,234.7 245.8,234.7 253.8,242.7 254.2,246.1 255.7,245.2 256.2,242.8 
			258,242.4 248.2,233.9 251,233.8 249.4,230.8 243.6,232.1 		"/>
		<polygon class="st0" points="243.9,237.6 243.9,239.3 244.8,239.6 245.2,237.6 		"/>
		<polygon class="st0" points="225.4,227.6 225.4,228.8 228.7,230.6 229.2,236.5 234.1,239.6 235.6,237.6 242.8,237.7 243,234.7 
			243.2,234.7 241,233.7 242.5,226.4 235.9,223 228.2,227.6 		"/>
		<polygon class="st0" points="237.8,221.9 235.9,223 239.6,224.9 240.6,224.3 240.7,223.5 		"/>
		<polygon class="st0" points="240.7,223.5 240.9,220 237.8,221.9 		"/>
		<polygon class="st0" points="239.6,224.9 240.6,225.4 240.6,224.3 		"/>
		<polygon class="st0" points="227.6,216.5 227.6,219 225.9,219.9 227.4,222.1 224.4,225 228.4,224.2 232.4,223.6 232.7,222.1 
			233.5,222.1 233.7,220.4 231.1,219.9 227.8,212.3 225.3,212.2 225.3,216.3 		"/>
		<polygon class="st0" points="224.4,218.3 224.4,216.7 221.5,216.5 223.1,218.8 		"/>
		<polygon class="st0" points="218.5,218.7 218.5,223.1 220.2,223.1 220.2,221.6 223.4,222 223.1,218.8 221.5,216.5 		"/>
		<polygon class="st0" points="220.1,248 227.1,248.5 234.1,239.6 229.2,236.5 217.8,236.5 217.8,238.7 221.1,239.3 		"/>
		<polygon class="st0" points="235.7,244.3 235.7,242.4 233.5,244.3 		"/>
		<polygon class="st0" points="261.5,242.1 265.9,240.6 264.9,238.2 261.2,238.9 		"/>
		<polygon class="st0" points="258.6,231.9 259.5,236.5 261.2,238.9 264.9,238.2 264,236 261.2,231.4 		"/>
		<polygon class="st0" points="251,233.8 251.4,233.8 253.5,232.7 254.5,231 253.8,230.8 249.4,230.8 		"/>
		<polygon class="st0" points="273.3,242.6 270,242.6 272.7,248.1 285.3,248.8 297.7,246.3 297.7,244.3 296.3,241.4 292,240.3 
			274.8,240.9 		"/>
		<polygon class="st0" points="270,241.4 273,241.4 271.8,238.7 270,239.3 		"/>
		<polygon class="st0" points="256.2,237.8 257.3,238.1 259.5,236.5 258.9,233.1 254.3,233.7 		"/>
		<polygon class="st0" points="259.8,242.6 261.2,244.2 264,245 262.3,245.7 264.5,248.5 265.9,246.3 264.4,242.9 267.4,241.4 
			270,241.4 269.9,239.3 		"/>
		<polygon class="st0" points="257.4,232.1 254.5,231 253.5,232.7 251.4,233.8 252.1,233.7 255.5,237.6 256.2,237.8 254.3,233.7 
			258.9,233.1 258.6,231.9 		"/>
		<polygon class="st0" points="258.7,238.4 260.3,237.6 259.5,236.5 257.3,238.1 259.6,242.3 259.8,242.6 261.5,242.1 261.2,238.9 
			260.3,237.6 		"/>
		<polygon class="st0" points="265.9,240.6 271.8,238.7 272.8,235.8 270.8,235.2 264,236 		"/>
		<polygon class="st0" points="309.7,268.7 311,269.6 311.9,268.7 310.4,266.5 		"/>
		<polygon class="st0" points="282.5,250.2 279,251.5 281.5,252.2 		"/>
		<polygon class="st0" points="284.9,254.8 284.9,261.3 286.2,261.4 288.2,260.5 288.8,256.9 290.4,256.2 290.5,256.2 290,254.2 
			286.8,256.2 		"/>
		<polygon class="st0" points="309.2,268.5 305.7,262.7 304.1,262.7 303,261.2 300,261.2 290.4,256.2 288.8,256.9 288.2,260.5 
			286.2,261.4 284.9,261.3 297.4,283 297.6,283.8 298.9,281.6 303.4,282.1 303,283.8 309.2,280.5 318.1,278.2 318.1,273.6 
			313.5,272.9 312.1,270.3 		"/>
		<polygon class="st0" points="301.6,261.2 303,261.2 304.1,262.7 305.7,262.7 303.8,259.6 302,259.6 		"/>
		<polygon class="st0" points="292.6,252.7 290,254.2 290.5,256.2 300,261.2 301.6,261.2 302,259.6 305.5,259.6 297.7,246.3 
			294.1,247 		"/>
		<polygon class="st0" points="315.4,271 312.1,270.3 313.5,272.9 316.1,273.3 319.8,269.5 318.1,268 		"/>
		<polygon class="st0" points="316.1,273.3 318.1,273.6 318.1,278.2 313.6,279.4 313.6,282 316.1,283.7 324.3,273.6 319.8,269.5 		
			"/>
		<polygon class="st0" points="286.3,252.1 284.9,254.8 286.8,256.2 292.7,252.7 294.1,247 285.3,248.8 284.7,251.6 		"/>
		<polygon class="st0" points="309.2,280.5 303,283.8 303.4,282.1 298.9,281.6 297.6,283.8 299.8,291.1 316.1,283.7 313.6,282 
			313.6,279.4 		"/>
		<polygon class="st0" points="284.9,254.8 286.3,252.1 284.7,251.6 284.2,254.3 		"/>
		<polygon class="st0" points="284.8,261.4 284.9,261.3 284.9,254.8 284.2,254.3 283,258.4 		"/>
		<polygon class="st0" points="298.2,353.5 299.9,357.5 304,357.7 310.9,335.5 308.4,335.5 300.4,343.8 299.6,349.6 		"/>
		<polygon class="st0" points="253.5,298.9 252.3,295.4 254.6,295.4 251.7,289.2 251.7,292.6 247.6,301.3 243.9,301.5 243.4,305.1 
			245,305.1 244.9,308.7 255,308.7 255.4,307.4 255.4,307.4 252.4,303.2 		"/>
		<polygon class="st0" points="247.7,311.4 244.8,311.4 244.7,315.7 248.4,320.5 248.4,316.4 253,316.4 250.7,308.7 247.7,308.7 
			247.7,308.7 244.9,308.7 244.8,311.4 		"/>
		<polygon class="st0" points="238.2,302.2 238.9,305.1 243.4,305.1 243.9,301.5 247.5,301.3 251.7,292.6 251.7,289.2 236.1,289.2 
			233.5,301.5 		"/>
		<polygon class="st0" points="215.1,299.9 216.3,301.2 216.3,306.5 224.8,304.1 224.8,296.2 216.5,294.5 216.5,298.7 		"/>
		<polygon class="st0" points="216.3,306.5 216.3,301.2 213.2,297.7 210.5,300.3 		"/>
		<polygon class="st0" points="267.6,331.6 264.6,330.1 264.6,324.8 261.3,324.8 260.6,327.1 257.3,327.2 256.5,324.3 251.2,324.3 
			251.2,336 248.2,341 248.5,344.2 267,344.2 264,340.4 264,336.3 267.7,336.3 		"/>
		<polygon class="st0" points="230.6,302.4 229.2,294 224.8,294 224.8,304.1 		"/>
		<polygon class="st0" points="250.6,308.7 253,316.4 248.4,316.4 248.4,320.5 250.2,323 254.6,321 259.3,313.2 260,307.4 
			255.4,307.4 255,308.7 		"/>
		<polygon class="st0" points="294,287.4 296.8,291.8 297.8,290.9 290.9,278.9 287.3,287.4 		"/>
		<polygon class="st0" points="210.5,300.3 213.2,297.7 210.4,294.5 207.7,297.3 		"/>
		<polygon class="st0" points="297.5,294.6 299.3,293.4 297.8,290.9 295.8,292.6 		"/>
		<polygon class="st0" points="284.6,333.7 284.6,336.3 286.8,337.8 286.8,341 284.7,342.9 284.7,339.1 282.5,337.3 282.5,337.4 
			278.4,340.2 282.5,342.9 282.5,346.6 279.9,352.5 279.9,359.1 281.8,359.1 281.9,358.2 285.7,355.5 285.4,347.5 294.4,340.2 
			293.5,331.8 		"/>
		<polygon class="st0" points="299.3,293.4 297.5,294.6 299.3,296.6 306.4,299.1 295.3,308.3 295.3,316.4 312.7,296.2 312,292.6 
			299.9,294.4 		"/>
		<polygon class="st0" points="255.1,362.8 261.7,362.8 261.7,345.8 270.6,345.8 269.4,344.2 248.5,344.2 		"/>
		<polygon class="st0" points="288,304.5 285,305 285.9,308.7 285.4,311.9 284.1,314.3 292.4,319.8 295.3,316.4 295.3,308.3 
			298.6,305.7 289.1,305.7 		"/>
		<polygon class="st0" points="284.1,314.3 283.6,315.2 280.6,315.2 281.4,313.9 280,313.9 276.9,321.5 282.5,329.3 284.6,329.3 
			284.6,333.7 293.5,331.8 292.4,319.8 		"/>
		<polygon class="st0" points="216,266.8 211,266.8 211,272.5 209.2,275.2 203.1,275.2 202.9,281.6 210.4,287 210.4,285 219.4,285 
			218.6,269.7 223.3,269.7 216,264.3 		"/>
		<polygon class="st0" points="278.8,317 280,313.9 277.3,313.9 276.5,317.4 		"/>
		<polygon class="st0" points="276.9,321.5 278.8,317 276.5,317.4 275.9,320 		"/>
		<polygon class="st0" points="204.8,294.1 207.7,297.3 210.4,294.5 213.2,297.7 215.1,299.9 216.5,298.7 216.5,294.5 215.8,291.6 
			207.2,291.6 		"/>
		<polygon class="st0" points="219.4,285 210.4,285 210.4,287 212.4,291.6 215.8,291.6 216.5,294.5 220.6,295.4 220.6,291.2 
			236.6,284.7 236.6,279.5 223.3,269.7 218.6,269.7 		"/>
		<polygon class="st0" points="274.9,332.7 278.1,334 277,336.3 267.6,331.6 267.7,336.3 264,336.3 264,340.4 267,344.2 
			272.7,344.2 282.5,337.4 282.5,329.3 281.3,327.6 275.9,328.4 		"/>
		<polygon class="st0" points="261.7,356.8 264.4,359.9 275.3,352.5 270.6,345.8 261.7,345.8 		"/>
		<polygon class="st0" points="220.6,295.4 224.8,296.2 224.8,294 229.2,294 234.3,292.1 229.4,287.6 220.6,291.2 		"/>
		<polygon class="st0" points="282.5,329.3 282.5,337.4 282.5,337.3 284.7,339.1 284.7,342.9 286.8,341 286.8,337.8 284.6,336.3 
			284.6,329.3 		"/>
		<polygon class="st0" points="296.8,291.8 294,287.4 287.3,287.4 282.5,298.7 289.1,305.7 298.5,305.7 306.4,299.1 299.3,296.6 
			295.8,292.6 		"/>
		<polygon class="st0" points="277.3,313.9 281.3,313.9 282.5,311.9 285.4,311.9 285.9,308.7 285,305 279.3,305.8 		"/>
		<polygon class="st0" points="236.6,279.5 236.6,284.7 229.4,287.6 234.3,292.1 235.6,291.6 236.1,289.2 251.7,289.2 255.3,282 
			253.9,272.5 246.9,272.5 		"/>
		<polygon class="st0" points="203.1,275.2 209.2,275.2 211,272.5 211,266.8 216,266.8 216,263.3 210.5,263.3 203.2,272.9 		"/>
		<polygon class="st0" points="202.7,287.8 207.6,289.2 202.6,289.2 202.5,291.6 212.4,291.6 210.4,287 202.9,281.6 		"/>
		<polygon class="st0" points="207.6,289.2 202.7,287.8 202.6,289.2 		"/>
		<polygon class="st0" points="255.2,282 251.7,289.2 254.6,295.4 252.3,295.4 253.5,298.9 265.1,293.4 265.1,287.4 267.7,284.8 
			268,279 257.9,272.5 253.9,272.5 		"/>
		<polygon class="st0" points="255.3,258.3 253.1,255.7 248.6,254.6 244.3,259.2 247.1,272.5 257.9,272.5 268,279 269,256.5 
			263.1,255.7 260.6,259.4 		"/>
		<polygon class="st0" points="215.1,263.3 216,263.3 216,262.6 228.2,255.9 228.2,251.1 219.2,252.1 210.5,263.3 		"/>
		<polygon class="st0" points="228.2,251.1 228.2,255.9 216,262.6 216,264.3 236.6,279.5 246.9,272.5 247.1,272.5 242.1,248.3 
			236.1,248.1 		"/>
		<polygon class="st0" points="242.1,248.3 244.3,259.2 248.6,254.6 246.9,254.2 247.1,248.4 		"/>
		<polygon class="st0" points="269.4,344.2 275.3,352.5 279.9,352.5 282.5,346.6 282.5,342.9 278.4,340.2 272.7,344.2 		"/>
		<polygon class="st0" points="272.1,366.9 274.5,366.9 275.9,365.4 275.9,363.5 274,363.5 272.1,364.7 		"/>
		<polygon class="st0" points="279.9,358.5 278.1,358.5 278.1,360.1 279.9,361.2 		"/>
		<polygon class="st0" points="284.8,261.4 284.8,261.3 283,258.4 269,256.5 268.2,273.5 283.6,273.5 286.7,271.8 280.3,260.8 
			283.8,263.7 		"/>
		<polygon class="st0" points="286.7,271.8 283.6,273.6 268.2,273.6 267.7,284.8 265.1,287.4 265.1,293.4 274.3,304 279.3,305.8 
			288,304.5 282.5,298.7 287.3,287.4 290.9,278.9 		"/>
		<polygon class="st0" points="275.9,320 279.3,305.8 274.4,304 260.4,304.4 259.3,313.2 254.6,321 250.2,323 251.2,324.3 
			256.5,324.3 257.3,327.2 260.6,327.1 261.3,324.8 264.6,324.8 264.6,330.1 277,336.3 278.1,334 274.9,332.7 275.9,328.4 
			281.3,327.6 		"/>
		<polygon class="st0" points="252.4,303.2 255.4,307.4 260,307.4 260.4,304.4 274.4,304 265.1,293.4 253.5,298.9 		"/>
		<polygon class="st0" points="235.6,291.6 231.2,293.2 232.7,301.8 233.5,301.5 		"/>
		<polygon class="st0" points="231.2,293.2 229.2,294 230.6,302.4 232.7,301.8 		"/>
		<polygon class="st0" points="204.8,294.1 207.2,291.6 202.5,291.6 202.5,291.7 		"/>
		<polygon class="st0" points="68.5,193.8 64.8,192.3 45.7,192.4 38,195.6 38,199 29.3,198.9 27.7,201.2 35,200.9 25.6,204.5 
			21,210.7 24.9,210.6 17.4,215.5 20.1,215.7 34.5,208.9 51.1,208.3 56.2,213.3 58.1,211.3 56.4,209.6 54.6,209.6 52.7,207.5 		"/>
		<polygon class="st0" points="56,225.8 53.4,223.7 52.3,224.6 54.1,227 56,227 		"/>
		<polygon class="st0" points="156.8,229.1 154.8,226 153.1,225.6 153.1,223.3 147.3,229.1 		"/>
		<polygon class="st0" points="153.8,192.8 142.3,188.1 140.6,188.1 136.5,191.4 137.9,188.1 135.9,188 131.3,193 142.6,192.4 
			149.6,198.6 144.9,198.5 142.5,200.4 137.3,200.4 137.3,201.9 142.6,201.9 147.2,205.7 148.4,205.2 147.3,202.8 150.5,204.3 
			151.5,203.8 151.5,199.2 155.1,200.4 157.2,199.1 156,196.9 153.9,196.1 		"/>
		<polygon class="st0" points="114.9,234.9 118.3,234.9 120.6,233.4 128.1,233.4 131.3,230.6 134.2,230.6 133.1,233.9 138.3,233 
			134.9,234.6 135.2,236 144.4,232.8 139.9,232.5 137.8,230.7 139.9,227.5 138.9,226.5 132.4,229.4 132.4,227.7 138.6,224.8 
			148.6,224.3 156,220.4 156.1,218.5 150.6,217.6 150,208.7 142.8,211.5 142.9,207.3 139.4,204.4 134.8,204.4 122.1,222.8 
			119.1,222.8 119.1,216.7 108.3,210.8 119.1,202.8 125.3,201.6 124,199.7 133.5,198.7 137.4,194.7 133.8,194.2 128.8,197.5 
			129.3,194.7 127,194.5 126.4,191.1 122.4,192.9 123.5,195.1 118.1,197.6 108.6,195.9 103.7,198.2 91.6,193.4 68.5,193.8 
			52.7,207.5 54.5,209.6 56.4,209.6 58,211.3 56.1,213.3 54.2,222.2 57.7,225.3 57.7,227 96.5,227 101.1,229.1 108.8,227.5 
			109.7,230.9 111.3,232 113.9,231.9 		"/>
		<polygon class="st0" points="128.9,200.4 125.9,202.8 131.8,203.5 132.4,201.9 		"/>
		<polygon class="st0" points="117.5,194.3 118.6,195.7 121.3,194.3 120.5,193 		"/>
		<polygon class="st0" points="119.6,189.6 121.3,191.4 125.1,190.1 126.1,187.5 		"/>
		<polygon class="st0" points="126.8,188.5 127.2,190.2 132.4,188.8 131.4,187.5 		"/>
		<polygon class="st0" points="139.9,185 137.1,183.9 134.3,186.2 145.4,187.1 148.3,185 		"/>
		<polygon class="st0" points="166.9,178.8 172.7,175.5 149.7,177.2 149.7,178.5 157.5,178.3 156.4,179.7 148.3,179.9 149.4,181.8 
			145.9,181.2 147.3,183 141.3,183 142.2,183.9 148.7,183.9 149.8,184.7 159.3,180.3 		"/>
		<polygon class="st0" points="138.8,180.1 143.1,180.9 145.5,179.4 143.7,178 		"/>
		<polygon class="st0" points="93.5,191.4 103.5,187.9 101.2,186.9 91.7,189.3 		"/>
		<polygon class="st0" points="104.8,188.6 99.4,190.4 102.6,191.8 97.6,193 103.8,195.5 108.1,193.6 112.8,194.7 116.4,193.9 
			112.9,192.3 115.6,188.8 112.9,188.8 111.3,190.9 110.7,188.8 107.8,189.9 		"/>
		<polygon class="st0" points="97,273.4 101.9,273.4 105.9,276.1 104.4,277.8 111.3,277.8 103,271.8 98.7,271.8 		"/>
		<polygon class="st0" points="103.9,280.8 104.9,281.7 107.9,281.7 107.9,280.7 106.9,279.6 103.9,279.6 		"/>
		<polygon class="st0" points="122.2,280 121.6,281 123.3,281 123.9,280 		"/>
		<polygon class="st0" points="85.5,284.3 82.6,284.3 81.3,286.7 85.3,288.7 88,283.8 87.5,281.2 85,281.2 		"/>
		<polygon class="st0" points="88.6,288.3 88.1,290 88.8,290.3 95.5,284.7 87.5,284.8 86.1,287.2 		"/>
		<polygon class="st0" points="88.1,290 88.6,288.3 86.1,287.2 85.3,288.7 		"/>
		<polygon class="st0" points="90.6,278.9 87.5,281.2 88,283.8 		"/>
		<polygon class="st0" points="91.4,293.7 95.7,294.2 95.5,284.7 88.8,290.3 		"/>
		<polygon class="st0" points="98.4,320.1 101.9,321.8 108.3,314 101.8,310.3 98.7,314.2 		"/>
		<polygon class="st0" points="111.4,292.5 109.7,292.5 106.1,297.4 104.3,297.5 104.8,299.2 103.8,300.6 104.6,303.1 103.9,307.7 
			101.8,310.3 116.6,318.7 116.6,309.3 120,309 120,301.5 114.4,300.9 111.9,298.2 		"/>
		<polygon class="st0" points="134.9,407.3 137.1,409.3 143.8,409.6 136.5,405.8 		"/>
		<polygon class="st0" points="145.3,358.6 142.3,360.4 138.3,360.4 138.3,356.8 130.2,351.3 129.8,352.2 123,352.2 121.2,369.1 
			125,385.8 128.4,392 128.6,396.6 133.7,404.5 135.6,404.7 134.6,384.5 145.5,379.8 140.6,372.9 140.6,365.4 145.4,360.4 		"/>
		<polygon class="st0" points="146.5,375.1 148.8,371 140.6,365.4 140.6,372.9 		"/>
		<polygon class="st0" points="123.5,295.2 119.9,292.6 111.4,292.5 111.9,298.2 114.4,300.9 120,301.5 120,309 120.9,309 
			122,311.5 125.7,310.3 125.4,306.4 130.3,304.6 131.7,297.4 130.1,295.8 		"/>
		<polygon class="st0" points="91.4,293.7 94.3,297.6 95.3,298 96.8,296.1 95.7,295.5 95.7,294.2 		"/>
		<polygon class="st0" points="136.8,302.3 131.7,297.4 130.3,304.6 132.4,303.8 132.1,309.9 137,309.4 135.3,305.1 		"/>
		<polygon class="st0" points="124.2,331.8 119.2,333.2 119.2,344.6 123,352.2 129.7,352.2 132.4,347.3 137.5,347.3 137.4,343.5 
			128.7,336.4 		"/>
		<polygon class="st0" points="141.4,308.9 144.7,308.5 145.6,305.8 144.4,302.9 141.6,302.7 		"/>
		<polygon class="st0" points="137.5,347.3 132.4,347.3 130.2,351.3 138.3,356.8 138.3,360.4 142.3,360.4 145.3,358.6 145.1,355.8 
			137.6,351.8 		"/>
		<polygon class="st0" points="137,309.4 141.4,308.9 141.6,302.7 136.8,302.3 135.3,305.1 		"/>
		<polygon class="st0" points="157.6,315.5 153.8,313.9 150.1,316.1 151.3,312.8 148.9,311.7 145.3,314.4 147.9,310.7 145.6,305.8 
			144.7,308.5 132.1,309.9 132.4,303.8 130.3,304.6 125.4,306.4 125.7,310.3 122,311.5 120.9,309 116.5,309.3 116.5,320.4 
			112.1,321 110.2,327.3 117.6,333.6 124.2,331.8 128.7,336.4 137.4,343.5 137.6,351.8 145.1,355.8 145.4,360.4 140.6,365.4 
			148.8,371 153.6,362.6 154.8,355.4 166.4,350.2 168.6,334.1 173.6,327.5 173.6,323.5 165.4,318.2 157.3,317.7 		"/>
		<polygon class="st0" points="99.9,296 98.6,297.1 96.8,296.1 95.3,298 99.6,299.5 100.7,298 103.1,298.2 103.8,300.6 104.8,299.2 
			104.4,297.6 103.8,295.6 		"/>
		<polygon class="st0" points="112.1,321 116.5,320.4 116.5,318.7 108.2,314 101.9,321.8 98.4,320.1 98.2,321.9 109,340.3 
			118.4,346.5 119.2,344.6 119.2,333.2 117.6,333.6 110.2,327.3 		"/>
		<polygon class="st0" points="125,385.8 121.1,369.1 123,352.2 119.2,344.6 118.4,346.5 119.9,384.8 124.1,388.1 124.3,395 
			131.4,404.2 133.7,404.5 128.6,396.6 128.4,392 		"/>
		<polygon class="st0" points="120,278.6 115.1,278.1 115.1,280.8 116.7,279.6 119.3,279.6 		"/>
		<polygon class="st0" points="115.1,280.1 115.1,278.1 112.1,278.1 113.1,279.5 111.3,279.5 111.3,280.1 		"/>
		<path id="path13058" class="st0" d="M481.4,383.6l-1,3.2l7.3-5.2l-2.1-2.8v-3.2l-1.2,0.5v4.5L481.4,383.6z M462.2,394.1l15.2-7.7
			v2l-11.7,7.7L462.2,394.1z M399.9,354.6l12.8-6l9.5-10.5l5.2,2.3l2.3-4.8l8.7-0.2l-2.2,4l7.2,6.2l4.8-4.8v-6.7l2.2,0.7l2.5,12
			l7.8,11l-0.8,8.3l-14.2,14.7l-12.3-0.7l-1.5-8.3l-4.2,1.8l-4-3.5l-24.3,5.3l-1.5-1.8l2-4.8V354.6z"/>
	</g>
	<path id="path13085" inkscape:connector-curvature="0" sodipodi:nodetypes="cccc" class="st1" d="M267.2,295.7l11-0.6l3.2-4.3
		l2.3,4.9"/>
</g>
<g>
	<polygon class="st2" points="275.9,365.4 274.5,366.9 272.1,366.9 272.1,364.7 274,363.6 275.9,363.6 	"/>
	<polygon class="st2" points="279.9,359.1 279.9,361.3 278.1,360.2 278.1,358.5 279.9,358.5 279.9,352.6 275.3,352.6 264.4,359.9 
		261.7,356.8 261.7,362.9 255.1,362.9 258.9,373.4 271.6,373.4 281.3,362.2 281.8,359.1 	"/>
	<polygon class="st2" points="108.3,239.7 110.9,238 113.9,238 111.4,239.7 	"/>
	<polygon class="st3" points="131.3,230.6 128.1,233.4 120.6,233.4 118.3,235 120.1,235 117.6,236.7 115.9,236.7 118.3,235 
		113.5,235 111.3,236.6 109.2,236.8 109.6,233.1 108,233.1 106,234.4 102.4,239.7 100.3,239.7 104.4,233.1 109.2,232.1 108.9,231.2 
		105.8,231.1 104.3,230.2 102.4,231.1 100.2,231.1 101.1,229.1 96.5,227.1 57.7,227.1 44.9,240.5 44.9,250.9 49.6,255.6 65.9,257.7 
		68.1,261 72.7,260.8 76.5,268.3 83.5,259.4 100.3,259.4 101.4,267.8 104.1,267.9 104.2,257.5 131.3,234.2 133.2,233.9 134.2,230.6 
			"/>
	<polygon class="st2" points="147.4,229.2 156.9,229.2 154.9,226 153.1,225.6 153.1,223.4 	"/>
	<polygon class="st2" points="77.1,279.9 73.4,272.1 76.5,268.2 72.7,260.8 68.1,261 65.9,257.7 49.6,255.6 49.6,255.6 50.3,262.9 
		55.4,272.4 57.4,270.9 53.4,262.4 53.4,257.7 55.8,257.7 55.9,262.1 63.4,279.7 75.6,284.8 78.7,284 81.3,286.7 82.7,284.4 
		85.5,284.4 85.1,281.3 87.5,281.3 90.7,278.9 90.8,275.5 87.4,275.5 84.6,279.9 	"/>
	<polygon class="st2" points="212.5,203.5 217,201.3 217,200.7 214.8,198.4 211.6,199.5 207.9,199.4 207.1,200.5 204.9,200.4 
		204.9,202.5 	"/>
	<polygon class="st2" points="252.9,251.5 252.9,249.4 250.5,249.3 250.5,250.9 	"/>
	<polygon class="st2" points="160.8,182.9 160.8,185.2 172.1,185.4 175,190.3 175,194.9 169.6,197.9 169.7,204 173.1,207.5 
		177.2,207.5 183.3,201 192,198.4 195.2,195.9 201.8,195.5 206.4,194.2 215,180.4 220.4,179.3 222.2,177.5 206.9,175.9 193.6,177.5 
		177.5,177.5 168.2,180.7 	"/>
	<polygon class="st2" points="422.4,270 421.1,268.6 419,271.7 421.1,273.7 	"/>
	<polygon class="st2" points="401.8,232.1 402.2,229.6 397.7,228.9 396,226.1 387.4,226.1 369.8,221.7 367.9,226.1 360.8,223.9 
		355.4,228 372.8,238.1 392.9,238.3 395.3,233.4 	"/>
	<polygon class="st2" points="405.6,278 403,278.6 403,280.1 404.1,281.4 405.6,279.5 	"/>
	<polygon class="st2" points="396,226.1 397.7,228.9 402.2,229.6 401.8,232.1 395.3,233.4 392.9,238.3 372.8,238.1 355.4,228 
		347.9,233.7 349.2,239.5 341.7,242.3 343.8,247.6 351.8,251.2 352.1,257.7 373.1,264.9 376.9,261.4 385.1,264.9 384,268 
		388.4,275.2 396,271.4 401,275.6 403.1,274.4 403.2,276.5 415.6,272 419.7,262.9 412.4,250.9 416.2,246.8 411.9,246.8 410.5,247.7 
		407.8,243.3 411.2,240.3 413.6,244.8 416.9,242.5 423.3,238.1 423.3,229.6 412.7,227 405,219.4 397.5,219.4 399.2,225.4 	"/>
	<polygon class="st2" points="439.4,238.9 442.3,238.8 443.6,236.7 437,233.9 437.2,239.3 438.5,240.1 	"/>
	<polygon class="st2" points="431.3,251.3 430.8,253 437.3,252 437.8,254.5 439.2,253.9 439.4,251.9 443.7,250.8 443.5,245.1 
		441.5,241.7 439.6,241.1 440.7,246.3 436.7,249.9 	"/>
	<polygon class="st2" points="430.1,254.5 432.5,254.2 433.2,255.4 432.4,258 	"/>
	<polygon class="st2" points="436.4,253.4 435.2,255.5 433.7,253.8 	"/>
	<polygon class="st2" points="429.3,288.5 425.7,288.1 424.4,286.5 425.7,283.5 424.5,280.7 422.1,280.6 421.5,285.6 424.9,289.6 
		428.7,290.1 	"/>
	<polygon class="st2" points="418.1,297.3 419.7,297.6 422.5,295.3 422.4,293.4 	"/>
	<polygon class="st2" points="430.4,300.9 430.4,303.2 432.7,302.5 431.9,301 433.8,300.5 432.2,295.5 431,298.6 427.1,298.6 	"/>
	<polygon class="st2" points="423.5,289.8 425.1,291.4 424.6,292.4 423.3,291.1 	"/>
	<polygon class="st2" points="425.1,293.8 426.3,294.6 427.6,292.6 425.9,292.4 	"/>
	<polygon class="st2" points="429.5,291.7 431.2,293.8 432.9,293.8 431.2,291.1 	"/>
	<polygon class="st2" points="429.5,293.5 430.5,295.1 429.7,296.1 428.4,294.1 	"/>
	<polygon class="st2" points="427.6,295.1 428.4,296.4 427.6,297.4 426.7,296.2 	"/>
	<polygon class="st2" points="430.8,327.9 431.9,329.4 434.9,329 434.9,327.9 	"/>
	<polygon class="st2" points="406.2,310.2 406.3,314.6 408.8,318.9 416.6,318.9 420.5,313.9 420.5,305 417.7,305.2 415.4,309.5 
		407.8,311.2 	"/>
	<polygon class="st2" points="400.6,321.5 400.6,318.2 387.7,304.8 383.3,303.2 398.2,323.5 	"/>
	<polygon class="st2" points="415.7,327.4 415.9,328.5 399.8,325.8 402.2,323.8 406.2,325.4 409.9,324.6 	"/>
	<polygon class="st2" points="426,327.4 423.5,327.4 424,329 426.3,329 427.3,328.2 	"/>
	<polygon class="st2" points="421.6,330 422.4,330.9 424.1,330.9 423.5,329.6 	"/>
	<polygon class="st2" points="430.8,327.9 428.3,330.7 430.2,330.9 431.9,329.4 	"/>
	<polygon class="st2" points="422.5,323 424.3,322.4 423.8,319.1 424.9,317.9 425.8,320.3 428,321.1 428,319.4 426.7,316.6 
		429.1,314.6 425.3,314.8 424.6,313.7 426.1,312.1 428.8,313 430.2,312.9 432.3,310.5 430.5,310.4 429.3,311.2 425.4,310.3 
		422.9,312.6 423,316.2 421.5,318.2 	"/>
	<polygon class="st2" points="436.4,317.8 435.9,319.3 440.1,318.9 440.1,317.8 	"/>
	<polygon class="st2" points="437.3,308 435.9,309.4 435.4,312.8 437.3,313.3 436.9,310.3 438,308.9 	"/>
	<polygon class="st2" points="446.8,317.2 446.3,314.2 441.7,314.8 	"/>
	<polygon class="st2" points="446.5,319.7 452.9,322.3 454.1,325.6 451.9,326.9 457.4,328.8 457.4,318 453,315.7 448.8,319.1 
		444.4,317.3 443.9,319.7 	"/>
	<polygon class="st2" points="427.5,248.5 423.1,244.9 421.2,246.7 423.8,252.3 426.9,252.1 	"/>
	<polygon class="st2" points="423.1,244.9 421.2,243.4 423.7,243.1 423.3,238.1 416.9,242.5 418.8,246 421.2,246.7 	"/>
	<polygon class="st2" points="417.6,301.9 414.2,306.6 406.2,310.2 407.9,311.2 415.4,309.5 417.7,305.3 420.5,305 420.5,301.7 	"/>
	<polygon class="st2" points="391.3,301.9 392.7,306.4 398.3,311.2 398.8,309.5 393.4,301.6 	"/>
	<polygon class="st2" points="459.4,329.5 463.2,326 468.1,330.8 472.7,331.7 467.1,326.2 467.4,323.2 457.4,318 457.4,328.8 	"/>
	<polygon class="st2" points="469.9,323.7 471.9,324.9 475.3,323 475.3,321 	"/>
	<polygon class="st2" points="472.7,318.1 476.7,321 478.3,320.4 474.2,318 	"/>
	<polygon class="st2" points="388.4,275.2 384,268 385.1,264.9 382.6,263.8 379.2,266.3 377.6,277.2 380.2,279.3 381.1,284.4 
		382.9,284.9 384.2,283.3 386.5,286 387.8,290.8 387.5,295.8 389.5,291.9 385.9,278.7 388.4,276.9 	"/>
	<polygon class="st2" points="395.7,281.4 398.6,285.4 395.9,288.1 402,288.1 402,286.5 396,280.2 394.7,276.1 390.6,274.1 
		388.4,275.2 388.4,276.9 390.5,278.2 390.5,281.4 	"/>
	<polygon class="st3" points="390.5,281.4 390.5,278.2 388.4,276.9 385.9,278.7 389.5,291.9 387.5,295.8 387.4,297.8 390.9,300.8 
		391.3,301.9 393.4,301.6 390,296.5 390.8,288.7 394.6,292.5 394.6,289.3 398.6,285.4 395.7,281.4 	"/>
	<polygon class="st2" points="394.6,289.3 394.6,292.5 396.6,294.4 398.7,294.1 402,291.7 402,288.1 395.9,288.1 	"/>
	<polygon class="st2" points="396,280.2 402,286.5 402,291.7 398.7,294.1 398.8,297.6 405,293.5 404.8,287.5 398.3,280.6 
		398.7,276.9 401,275.6 396,271.4 390.6,274.1 394.7,276.1 	"/>
	<polygon class="st2" points="370.2,267 368.9,267.6 370.8,273.8 372.1,272.6 377.6,277.2 378,274.7 375.1,272 374.6,268.7 
		372.3,269.7 	"/>
	<polygon class="st2" points="372.3,266.6 368.9,265.7 369.3,263.6 368.4,263.3 366.3,266.6 354.9,262.3 355,258.6 352.1,257.7 
		351.8,251.2 349.3,250.1 347,250.1 343.6,252.5 343.5,254.6 345.6,255.7 346.6,259.7 342.1,263.9 339.3,263.9 339.3,266.9 
		341.4,267.7 341.4,270.3 337.5,271.4 337.9,271.8 341.1,272.8 339.6,274.3 341,276.1 343.5,276.4 344,274.3 345,274.3 353.1,297.7 
		358.3,294.5 359.1,285.1 370.8,273.8 368.9,267.6 370.3,267 372.3,269.7 374.6,268.7 375.1,272 378,274.7 379.2,266.3 382.6,263.8 
		376.9,261.4 373.1,264.9 	"/>
	<polygon class="st2" points="355,258.6 354.9,262.3 366.3,266.6 368.4,263.3 	"/>
	<polygon class="st2" points="369.3,263.6 368.9,265.7 372.3,266.6 373.1,264.9 	"/>
	<polygon class="st2" points="304.9,236.5 307.3,238.5 310.4,237.6 313.1,239.9 312.7,234 316.9,233 322.4,236.8 327,235.9 
		330.4,240.4 333.6,240.2 336.8,237.6 344.4,237.3 349.2,239.5 347.9,233.7 355.4,228 351.1,225.4 325.9,216.5 315.9,218.8 
		315.9,223.3 298.3,223.3 298.3,229.1 300.6,232 305.7,230 308.7,232 305.1,233.8 	"/>
	<polygon class="st2" points="324.3,250.3 322.6,247.6 316,245.5 312.1,246.8 312,248.5 307,248.5 304.3,243.7 297.7,244.3 
		297.7,246.3 305.7,259.8 308,260 313.5,265.7 323.6,268.7 326.4,268.7 328.4,265.2 326.2,262.4 323,253.1 	"/>
	<polygon class="st2" points="313.1,239.9 310.4,237.6 307.3,238.5 312.2,242.5 312.1,246.8 316,245.5 322.6,247.6 324.3,250.3 
		330.5,247.1 320.2,238.8 315.8,238.8 	"/>
	<polygon class="st2" points="339.3,263.9 342.1,263.9 346.6,259.7 345.6,255.7 343.5,254.6 343.6,252.5 347,250.1 349.3,250.1 
		344.6,247.9 339.5,248.6 337.9,255.6 332,261 325.7,261 326.2,262.4 328.5,265.2 326.4,268.7 335.2,268.7 337.5,271.4 341.4,270.3 
		341.4,267.7 339.3,266.9 	"/>
	<polygon class="st2" points="322.4,236.8 316.9,233 312.7,234 313.1,239.9 315.8,238.8 320.2,238.8 330.6,247.1 333.9,248 
		332.4,243.5 337.2,242.1 337.5,240.1 330.4,240.4 327,235.9 	"/>
	<polygon class="st2" points="324.3,250.3 323,253.1 325.7,261 332,261 337.9,255.6 339.5,248.6 338.4,245.7 333.9,248 330.5,247.1 
			"/>
	<polygon class="st2" points="338,244.3 334,243 332.4,243.5 333.9,248 338.4,245.7 339.5,248.6 344.6,247.9 343.8,247.6 
		342.3,243.9 	"/>
	<polygon class="st2" points="336.8,237.6 333.6,240.2 337.5,240.1 337.2,242.1 334,243 338,244.3 342.3,243.9 341.7,242.3 
		349.2,239.5 344.4,237.3 	"/>
	<polygon class="st2" points="298.3,241.4 301.2,244 304.3,243.7 302.1,239.9 299.8,239.3 	"/>
	<polygon class="st2" points="292.1,240.3 296.4,241.4 298.3,241.4 299.8,239.3 294.3,236.8 292.1,237.3 	"/>
	<polygon class="st2" points="297.7,244.3 301.2,244 298.3,241.4 296.4,241.4 	"/>
	<polygon class="st2" points="265.2,211.6 264.1,211.9 264.4,212.1 264,213.5 260.9,212.1 260.9,214 265.2,215.1 268.3,216.5 
		269.5,215.5 269.1,212.4 267.5,212.9 	"/>
	<polygon class="st2" points="260.9,216.1 263.3,216.9 264,218.3 264.5,219.7 268.3,216.5 265.2,215.1 260.9,214 	"/>
	<polygon class="st2" points="273.1,215.5 269.5,215.5 264.5,219.7 265.3,221.9 272.5,223.1 277,222.1 274.3,221 275.9,220 	"/>
	<polygon class="st2" points="263.1,209.9 262.7,210.8 264.1,211.9 265.2,211.6 267.5,212.9 269.1,212.4 268.6,208.9 267.7,209.8 	
		"/>
	<polygon class="st2" points="272.5,223.1 265.3,221.9 265.7,223.2 263.1,226.4 263.1,228.2 272.9,228.2 273.8,230 272.1,232.7 
		273.6,233.3 274,232.1 279.8,232.1 278.5,233.4 280.3,234.4 282.7,234.2 280.4,231.3 286.4,230 288,226.6 277,222.1 	"/>
	<polygon class="st2" points="258.7,194.9 248.6,202.3 248.6,208.9 247.3,211.1 251.1,215.5 257.3,210 254.4,206.4 260.9,199.3 
		262.2,199.3 260.4,194.9 	"/>
	<polygon class="st2" points="240.9,211.6 246.8,210.6 247.3,211.1 248.6,208.9 248.6,202.3 258.8,194.9 264.3,194.9 264.3,193.1 
		258.6,193.4 239,207 	"/>
	<polygon class="st2" points="264.3,194.9 260.4,194.9 262.2,199.3 263.2,199.3 260.1,206.4 263.7,208.2 269.3,208.2 272.5,204.6 
		267.3,192.9 264.3,193.1 	"/>
	<polygon class="st2" points="433.7,227.3 435.7,227.3 428.9,220.4 426.9,220.3 432.4,227.1 435.1,232.1 437.1,232.1 	"/>
	<polygon class="st2" points="263.2,216.9 260.8,216.1 260.8,217.7 263.9,218.3 	"/>
	<polygon class="st2" points="407.3,192.8 405.5,190.3 394.1,188.4 390.8,191.3 381.6,191.3 377.7,188.4 356.8,188.4 355.5,183.8 
		336.2,183.8 319.1,191.4 322.8,196 319.6,199.4 316.7,189.9 311.6,189.4 314,195.1 294.2,195.6 275.6,203.2 273.2,198.6 
		280.2,198.8 283.7,197.1 270.1,192.8 267.2,192.9 272.5,204.6 269.3,208.2 268.6,208.9 269,212.4 269.5,215.5 273.1,215.5 
		275.9,220 274.3,221 277,222.1 287.9,226.6 286.4,230 287.1,231.7 285.3,232.2 285.7,235 292.1,237.3 294.3,236.8 299.7,239.3 
		302.1,239.9 300.6,237.3 300.6,232.1 298.3,229.1 298.3,223.3 315.9,223.3 315.9,218.8 325.8,216.6 351.1,225.5 355.4,228 
		360.7,223.9 367.9,226.1 369.8,221.8 387.4,226.1 396,226.1 399.2,225.5 397.5,219.4 405,219.4 412.7,227 423.2,229.6 423.2,238.1 
		427.8,237.3 430.3,233.6 430.3,226.7 423.2,218.7 416.4,218.6 417.5,210.1 431.7,210.2 433.3,205.4 439.2,207.7 439.3,205.4 
		440.7,205.6 443.3,208.1 440.8,209.8 440.5,214.8 450.6,224.4 450.6,215.2 444.9,209.7 458.4,205.4 458.6,204 451.8,202.2 
		454.4,200.1 460.5,201.4 464.6,201.5 461.3,197.9 440.1,193.7 	"/>
	<polygon class="st2" points="256.2,228.7 253.8,230.8 257.4,232.1 261.2,231.5 264.3,228.2 263.1,228.2 263.1,227.5 	"/>
	<polygon class="st2" points="254.4,227 256.2,228.7 263.1,227.5 263.1,226.4 256.9,225.7 256.6,225.6 	"/>
	<polygon class="st2" points="241.3,232 243.6,232.1 245.6,231.7 244.8,229.5 243,229.5 241.7,230 	"/>
	<polygon class="st2" points="249.8,227 254.4,227 256.6,225.6 252.3,223.8 248.4,225.1 	"/>
	<polygon class="st2" points="219.2,247.9 220.1,248 221.1,239.3 217.8,238.7 217.6,245.1 	"/>
	<polygon class="st2" points="272.1,232.7 273.8,230 272.8,228.2 269.9,228.2 	"/>
	<polygon class="st2" points="263.9,218.3 260.8,217.7 257.6,217.8 256.9,217.2 252.3,218.3 251.9,218.3 252.3,223.8 256.6,225.6 
		256.9,225.7 263.1,226.4 265.7,223.2 265.2,221.9 264.4,219.7 	"/>
	<polygon class="st2" points="264.3,228.2 261.2,231.5 264,236 270.8,235.2 272.8,235.8 273.6,233.3 272.1,232.7 269.9,228.2 	"/>
	<polygon class="st2" points="251.8,218.3 245.9,218.2 245.6,217.2 243.6,217.2 244,218.2 240.9,220 240.6,225.4 242.5,226.4 
		241.7,230 243,229.5 247.4,229.5 247.7,229.4 250.9,228.4 249.8,227 248.4,225 252.3,223.8 	"/>
	<polygon class="st2" points="243.6,217.2 245.6,217.2 245.5,216.7 246.2,212.9 244.3,212.9 243,215.9 	"/>
	<polygon class="st2" points="249.1,215.8 247.9,214.7 246.9,215.1 246.6,216.7 248.5,216.7 	"/>
	<polygon class="st2" points="250.9,228.4 247.4,229.5 244.8,229.5 245.6,231.7 249.4,230.8 253.8,230.8 255.6,229.3 256.2,228.7 
		254.4,227 249.8,227 	"/>
	<polygon class="st2" points="253.1,245.8 249.2,245.8 249.2,246.8 250.7,247.8 253.1,248.2 	"/>
	<polygon class="st2" points="243,240.4 243,244.3 244.8,244.3 244.8,240.9 	"/>
	<polygon class="st2" points="241.3,232 241,233.7 243.2,234.7 245.8,234.7 253.8,242.7 254.2,246.1 255.7,245.2 256.2,242.8 
		258,242.4 248.2,233.9 251,233.8 249.4,230.8 243.6,232.1 	"/>
	<polygon class="st2" points="243.9,237.6 243.9,239.3 244.8,239.6 245.2,237.6 	"/>
	<polygon class="st2" points="225.4,227.6 225.4,228.8 228.7,230.6 229.2,236.5 234.1,239.6 235.6,237.6 242.8,237.7 243,234.7 
		243.2,234.7 241,233.7 242.5,226.4 235.9,223 228.2,227.6 	"/>
	<polygon class="st2" points="237.8,221.9 235.9,223 239.6,224.9 240.6,224.3 240.7,223.5 	"/>
	<polygon class="st2" points="240.7,223.5 240.9,220 237.8,221.9 	"/>
	<polygon class="st2" points="239.6,224.9 240.6,225.4 240.6,224.3 	"/>
	<polygon class="st2" points="227.6,216.5 227.6,219 225.9,219.9 227.4,222.1 224.4,225 228.4,224.2 232.4,223.6 232.7,222.1 
		233.5,222.1 233.7,220.4 231.1,219.9 227.8,212.3 225.3,212.2 225.3,216.3 	"/>
	<polygon class="st2" points="224.4,218.3 224.4,216.7 221.5,216.5 223.1,218.8 	"/>
	<polygon class="st2" points="218.5,218.7 218.5,223.1 220.2,223.1 220.2,221.6 223.4,222 223.1,218.8 221.5,216.5 	"/>
	<polygon class="st2" points="220.1,248 227.1,248.5 234.1,239.6 229.2,236.5 217.8,236.5 217.8,238.7 221.1,239.3 	"/>
	<polygon class="st2" points="235.7,244.3 235.7,242.4 233.5,244.3 	"/>
	<polygon class="st2" points="261.5,242.1 265.9,240.6 264.9,238.2 261.2,238.9 	"/>
	<polygon class="st2" points="258.6,231.9 259.5,236.5 261.2,238.9 264.9,238.2 264,236 261.2,231.4 	"/>
	<polygon class="st2" points="251,233.8 251.4,233.8 253.5,232.7 254.5,231 253.8,230.8 249.4,230.8 	"/>
	<polygon class="st2" points="273.3,242.6 270,242.6 272.7,248.1 285.3,248.8 297.7,246.3 297.7,244.3 296.3,241.4 292,240.3 
		274.8,240.9 	"/>
	<polygon class="st2" points="270,241.4 273,241.4 271.8,238.7 270,239.3 	"/>
	<polygon class="st2" points="256.2,237.8 257.3,238.1 259.5,236.5 258.9,233.1 254.3,233.7 	"/>
	<polygon class="st2" points="259.8,242.6 261.2,244.2 264,245 262.3,245.7 264.5,248.5 265.9,246.3 264.4,242.9 267.4,241.4 
		270,241.4 269.9,239.3 	"/>
	<polygon class="st2" points="257.4,232.1 254.5,231 253.5,232.7 251.4,233.8 252.1,233.7 255.5,237.6 256.2,237.8 254.3,233.7 
		258.9,233.1 258.6,231.9 	"/>
	<polygon class="st2" points="258.7,238.4 260.3,237.6 259.5,236.5 257.3,238.1 259.6,242.3 259.8,242.6 261.5,242.1 261.2,238.9 
		260.3,237.6 	"/>
	<polygon class="st2" points="265.9,240.6 271.8,238.7 272.8,235.8 270.8,235.2 264,236 	"/>
	<polygon class="st2" points="309.7,268.7 311,269.6 311.9,268.7 310.4,266.5 	"/>
	<polygon class="st2" points="282.5,250.2 279,251.5 281.5,252.2 	"/>
	<polygon class="st2" points="284.9,254.8 284.9,261.3 286.2,261.4 288.2,260.5 288.8,256.9 290.4,256.2 290.5,256.2 290,254.2 
		286.8,256.2 	"/>
	<polygon class="st2" points="309.2,268.5 305.7,262.7 304.1,262.7 303,261.2 300,261.2 290.4,256.2 288.8,256.9 288.2,260.5 
		286.2,261.4 284.9,261.3 297.4,283 297.6,283.8 298.9,281.6 303.4,282.1 303,283.8 309.2,280.5 318.1,278.2 318.1,273.6 
		313.5,272.9 312.1,270.3 	"/>
	<polygon class="st2" points="301.6,261.2 303,261.2 304.1,262.7 305.7,262.7 303.8,259.6 302,259.6 	"/>
	<polygon class="st2" points="292.6,252.7 290,254.2 290.5,256.2 300,261.2 301.6,261.2 302,259.6 305.5,259.6 297.7,246.3 
		294.1,247 	"/>
	<polygon class="st2" points="315.4,271 312.1,270.3 313.5,272.9 316.1,273.3 319.8,269.5 318.1,268 	"/>
	<polygon class="st2" points="316.1,273.3 318.1,273.6 318.1,278.2 313.6,279.4 313.6,282 316.1,283.7 324.3,273.6 319.8,269.5 	"/>
	<polygon class="st2" points="286.3,252.1 284.9,254.8 286.8,256.2 292.7,252.7 294.1,247 285.3,248.8 284.7,251.6 	"/>
	<polygon class="st2" points="309.2,280.5 303,283.8 303.4,282.1 298.9,281.6 297.6,283.8 299.8,291.1 316.1,283.7 313.6,282 
		313.6,279.4 	"/>
	<polygon class="st2" points="284.9,254.8 286.3,252.1 284.7,251.6 284.2,254.3 	"/>
	<polygon class="st2" points="284.8,261.4 284.9,261.3 284.9,254.8 284.2,254.3 283,258.4 	"/>
	<polygon class="st2" points="298.2,353.5 299.9,357.5 304,357.7 310.9,335.5 308.4,335.5 300.4,343.8 299.6,349.6 	"/>
	<polygon class="st2" points="253.5,298.9 252.3,295.4 254.6,295.4 251.7,289.2 251.7,292.6 247.6,301.3 243.9,301.5 243.4,305.1 
		245,305.1 244.9,308.7 255,308.7 255.4,307.4 255.4,307.4 252.4,303.2 	"/>
	<polygon class="st2" points="247.7,311.4 244.8,311.4 244.7,315.7 248.4,320.5 248.4,316.4 253,316.4 250.7,308.7 247.7,308.7 
		247.7,308.7 244.9,308.7 244.8,311.4 	"/>
	<polygon class="st2" points="238.2,302.2 238.9,305.1 243.4,305.1 243.9,301.5 247.5,301.3 251.7,292.6 251.7,289.2 236.1,289.2 
		233.5,301.5 	"/>
	<polygon class="st2" points="215.1,299.9 216.3,301.2 216.3,306.5 224.8,304.1 224.8,296.2 216.5,294.5 216.5,298.7 	"/>
	<polygon class="st2" points="216.3,306.5 216.3,301.2 213.2,297.7 210.5,300.3 	"/>
	<polygon class="st2" points="267.6,331.6 264.6,330.1 264.6,324.8 261.3,324.8 260.6,327.1 257.3,327.2 256.5,324.3 251.2,324.3 
		251.2,336 248.2,341 248.5,344.2 267,344.2 264,340.4 264,336.3 267.7,336.3 	"/>
	<polygon class="st2" points="230.6,302.4 229.2,294 224.8,294 224.8,304.1 	"/>
	<polygon class="st2" points="250.6,308.7 253,316.4 248.4,316.4 248.4,320.5 250.2,323 254.6,321 259.3,313.2 260,307.4 
		255.4,307.4 255,308.7 	"/>
	<polygon class="st2" points="294,287.4 296.8,291.8 297.8,290.9 290.9,278.9 287.3,287.4 	"/>
	<polygon class="st2" points="210.5,300.3 213.2,297.7 210.4,294.5 207.7,297.3 	"/>
	<polygon class="st2" points="297.5,294.6 299.3,293.4 297.8,290.9 295.8,292.6 	"/>
	<polygon class="st2" points="284.6,333.7 284.6,336.3 286.8,337.8 286.8,341 284.7,342.9 284.7,339.1 282.5,337.3 282.5,337.4 
		278.4,340.2 282.5,342.9 282.5,346.6 279.9,352.5 279.9,359.1 281.8,359.1 281.9,358.2 285.7,355.5 285.4,347.5 294.4,340.2 
		293.5,331.8 	"/>
	<polygon class="st2" points="299.3,293.4 297.5,294.6 299.3,296.6 306.4,299.1 295.3,308.3 295.3,316.4 312.7,296.2 312,292.6 
		299.9,294.4 	"/>
	<polygon class="st2" points="255.1,362.8 261.7,362.8 261.7,345.8 270.6,345.8 269.4,344.2 248.5,344.2 	"/>
	<polygon class="st2" points="288,304.5 285,305 285.9,308.7 285.4,311.9 284.1,314.3 292.4,319.8 295.3,316.4 295.3,308.3 
		298.6,305.7 289.1,305.7 	"/>
	<polygon class="st2" points="284.1,314.3 283.6,315.2 280.6,315.2 281.4,313.9 280,313.9 276.9,321.5 282.5,329.3 284.6,329.3 
		284.6,333.7 293.5,331.8 292.4,319.8 	"/>
	<polygon class="st2" points="216,266.8 211,266.8 211,272.5 209.2,275.2 203.1,275.2 202.9,281.6 210.4,287 210.4,285 219.4,285 
		218.6,269.7 223.3,269.7 216,264.3 	"/>
	<polygon class="st2" points="278.8,317 280,313.9 277.3,313.9 276.5,317.4 	"/>
	<polygon class="st2" points="276.9,321.5 278.8,317 276.5,317.4 275.9,320 	"/>
	<polygon class="st2" points="204.8,294.1 207.7,297.3 210.4,294.5 213.2,297.7 215.1,299.9 216.5,298.7 216.5,294.5 215.8,291.6 
		207.2,291.6 	"/>
	<polygon class="st2" points="219.4,285 210.4,285 210.4,287 212.4,291.6 215.8,291.6 216.5,294.5 220.6,295.4 220.6,291.2 
		236.6,284.7 236.6,279.5 223.3,269.7 218.6,269.7 	"/>
	<polygon class="st2" points="274.9,332.7 278.1,334 277,336.3 267.6,331.6 267.7,336.3 264,336.3 264,340.4 267,344.2 272.7,344.2 
		282.5,337.4 282.5,329.3 281.3,327.6 275.9,328.4 	"/>
	<polygon class="st2" points="261.7,356.8 264.4,359.9 275.3,352.5 270.6,345.8 261.7,345.8 	"/>
	<polygon class="st2" points="220.6,295.4 224.8,296.2 224.8,294 229.2,294 234.3,292.1 229.4,287.6 220.6,291.2 	"/>
	<polygon class="st2" points="282.5,329.3 282.5,337.4 282.5,337.3 284.7,339.1 284.7,342.9 286.8,341 286.8,337.8 284.6,336.3 
		284.6,329.3 	"/>
	<polygon class="st2" points="296.8,291.8 294,287.4 287.3,287.4 282.5,298.7 289.1,305.7 298.5,305.7 306.4,299.1 299.3,296.6 
		295.8,292.6 	"/>
	<polygon class="st2" points="277.3,313.9 281.3,313.9 282.5,311.9 285.4,311.9 285.9,308.7 285,305 279.3,305.8 	"/>
	<polygon class="st2" points="236.6,279.5 236.6,284.7 229.4,287.6 234.3,292.1 235.6,291.6 236.1,289.2 251.7,289.2 255.3,282 
		253.9,272.5 246.9,272.5 	"/>
	<polygon class="st2" points="203.1,275.2 209.2,275.2 211,272.5 211,266.8 216,266.8 216,263.3 210.5,263.3 203.2,272.9 	"/>
	<polygon class="st2" points="202.7,287.8 207.6,289.2 202.6,289.2 202.5,291.6 212.4,291.6 210.4,287 202.9,281.6 	"/>
	<polygon class="st2" points="207.6,289.2 202.7,287.8 202.6,289.2 	"/>
	<polygon class="st2" points="255.2,282 251.7,289.2 254.6,295.4 252.3,295.4 253.5,298.9 265.1,293.4 265.1,287.4 267.7,284.8 
		268,279 257.9,272.5 253.9,272.5 	"/>
	<polygon class="st2" points="255.3,258.3 253.1,255.7 248.6,254.6 244.3,259.2 247.1,272.5 257.9,272.5 268,279 269,256.5 
		263.1,255.7 260.6,259.4 	"/>
	<polygon class="st2" points="215.1,263.3 216,263.3 216,262.6 228.2,255.9 228.2,251.1 219.2,252.1 210.5,263.3 	"/>
	<polygon class="st2" points="228.2,251.1 228.2,255.9 216,262.6 216,264.3 236.6,279.5 246.9,272.5 247.1,272.5 242.1,248.3 
		236.1,248.1 	"/>
	<polygon class="st2" points="242.1,248.3 244.3,259.2 248.6,254.6 246.9,254.2 247.1,248.4 	"/>
	<polygon class="st2" points="269.4,344.2 275.3,352.5 279.9,352.5 282.5,346.6 282.5,342.9 278.4,340.2 272.7,344.2 	"/>
	<polygon class="st2" points="272.1,366.9 274.5,366.9 275.9,365.4 275.9,363.5 274,363.5 272.1,364.7 	"/>
	<polygon class="st2" points="279.9,358.5 278.1,358.5 278.1,360.1 279.9,361.2 	"/>
	<polygon class="st2" points="284.8,261.4 284.8,261.3 283,258.4 269,256.5 268.2,273.5 283.6,273.5 286.7,271.8 280.3,260.8 
		283.8,263.7 	"/>
	<polygon class="st2" points="286.7,271.8 283.6,273.6 268.2,273.6 267.7,284.8 265.1,287.4 265.1,293.4 274.3,304 279.3,305.8 
		288,304.5 282.5,298.7 287.3,287.4 290.9,278.9 	"/>
	<polygon class="st2" points="275.9,320 279.3,305.8 274.4,304 260.4,304.4 259.3,313.2 254.6,321 250.2,323 251.2,324.3 
		256.5,324.3 257.3,327.2 260.6,327.1 261.3,324.8 264.6,324.8 264.6,330.1 277,336.3 278.1,334 274.9,332.7 275.9,328.4 
		281.3,327.6 	"/>
	<polygon class="st2" points="252.4,303.2 255.4,307.4 260,307.4 260.4,304.4 274.4,304 265.1,293.4 253.5,298.9 	"/>
	<polygon class="st2" points="235.6,291.6 231.2,293.2 232.7,301.8 233.5,301.5 	"/>
	<polygon class="st2" points="231.2,293.2 229.2,294 230.6,302.4 232.7,301.8 	"/>
	<polygon class="st2" points="204.8,294.1 207.2,291.6 202.5,291.6 202.5,291.7 	"/>
	<polygon class="st2" points="68.5,193.8 64.8,192.3 45.7,192.4 38,195.6 38,199 29.3,198.9 27.7,201.2 35,200.9 25.6,204.5 
		21,210.7 24.9,210.6 17.4,215.5 20.1,215.7 34.5,208.9 51.1,208.3 56.2,213.3 58.1,211.3 56.4,209.6 54.6,209.6 52.7,207.5 	"/>
	<polygon class="st2" points="56,225.8 53.4,223.7 52.3,224.6 54.1,227 56,227 	"/>
	<polygon class="st2" points="156.8,229.1 154.8,226 153.1,225.6 153.1,223.3 147.3,229.1 	"/>
	<polygon class="st2" points="153.8,192.8 142.3,188.1 140.6,188.1 136.5,191.4 137.9,188.1 135.9,188 131.3,193 142.6,192.4 
		149.6,198.6 144.9,198.5 142.5,200.4 137.3,200.4 137.3,201.9 142.6,201.9 147.2,205.7 148.4,205.2 147.3,202.8 150.5,204.3 
		151.5,203.8 151.5,199.2 155.1,200.4 157.2,199.1 156,196.9 153.9,196.1 	"/>
	<polygon class="st2" points="114.9,234.9 118.3,234.9 120.6,233.4 128.1,233.4 131.3,230.6 134.2,230.6 133.1,233.9 138.3,233 
		134.9,234.6 135.2,236 144.4,232.8 139.9,232.5 137.8,230.7 139.9,227.5 138.9,226.5 132.4,229.4 132.4,227.7 138.6,224.8 
		148.6,224.3 156,220.4 156.1,218.5 150.6,217.6 150,208.7 142.8,211.5 142.9,207.3 139.4,204.4 134.8,204.4 122.1,222.8 
		119.1,222.8 119.1,216.7 108.3,210.8 119.1,202.8 125.3,201.6 124,199.7 133.5,198.7 137.4,194.7 133.8,194.2 128.8,197.5 
		129.3,194.7 127,194.5 126.4,191.1 122.4,192.9 123.5,195.1 118.1,197.6 108.6,195.9 103.7,198.2 91.6,193.4 68.5,193.8 
		52.7,207.5 54.5,209.6 56.4,209.6 58,211.3 56.1,213.3 54.2,222.2 57.7,225.3 57.7,227 96.5,227 101.1,229.1 108.8,227.5 
		109.7,230.9 111.3,232 113.9,231.9 	"/>
	<polygon class="st2" points="128.9,200.4 125.9,202.8 131.8,203.5 132.4,201.9 	"/>
	<polygon class="st2" points="117.5,194.3 118.6,195.7 121.3,194.3 120.5,193 	"/>
	<polygon class="st2" points="119.6,189.6 121.3,191.4 125.1,190.1 126.1,187.5 	"/>
	<polygon class="st2" points="126.8,188.5 127.2,190.2 132.4,188.8 131.4,187.5 	"/>
	<polygon class="st2" points="139.9,185 137.1,183.9 134.3,186.2 145.4,187.1 148.3,185 	"/>
	<polygon class="st2" points="166.9,178.8 172.7,175.5 149.7,177.2 149.7,178.5 157.5,178.3 156.4,179.7 148.3,179.9 149.4,181.8 
		145.9,181.2 147.3,183 141.3,183 142.2,183.9 148.7,183.9 149.8,184.7 159.3,180.3 	"/>
	<polygon class="st2" points="138.8,180.1 143.1,180.9 145.5,179.4 143.7,178 	"/>
	<polygon class="st2" points="93.5,191.4 103.5,187.9 101.2,186.9 91.7,189.3 	"/>
	<polygon class="st2" points="104.8,188.6 99.4,190.4 102.6,191.8 97.6,193 103.8,195.5 108.1,193.6 112.8,194.7 116.4,193.9 
		112.9,192.3 115.6,188.8 112.9,188.8 111.3,190.9 110.7,188.8 107.8,189.9 	"/>
	<polygon class="st2" points="97,273.4 101.9,273.4 105.9,276.1 104.4,277.8 111.3,277.8 103,271.8 98.7,271.8 	"/>
	<polygon class="st2" points="103.9,280.8 104.9,281.7 107.9,281.7 107.9,280.7 106.9,279.6 103.9,279.6 	"/>
	<polygon class="st2" points="122.2,280 121.6,281 123.3,281 123.9,280 	"/>
	<polygon class="st2" points="85.5,284.3 82.6,284.3 81.3,286.7 85.3,288.7 88,283.8 87.5,281.2 85,281.2 	"/>
	<polygon class="st2" points="88.6,288.3 88.1,290 88.8,290.3 95.5,284.7 87.5,284.8 86.1,287.2 	"/>
	<polygon class="st2" points="88.1,290 88.6,288.3 86.1,287.2 85.3,288.7 	"/>
	<polygon class="st2" points="90.6,278.9 87.5,281.2 88,283.8 	"/>
	<polygon class="st2" points="91.4,293.7 95.7,294.2 95.5,284.7 88.8,290.3 	"/>
	<polygon class="st2" points="98.4,320.1 101.9,321.8 108.3,314 101.8,310.3 98.7,314.2 	"/>
	<polygon class="st2" points="111.4,292.5 109.7,292.5 106.1,297.4 104.3,297.5 104.8,299.2 103.8,300.6 104.6,303.1 103.9,307.7 
		101.8,310.3 116.6,318.7 116.6,309.3 120,309 120,301.5 114.4,300.9 111.9,298.2 	"/>
	<polygon class="st2" points="134.9,407.3 137.1,409.3 143.8,409.6 136.5,405.8 	"/>
	<polygon class="st2" points="145.3,358.6 142.3,360.4 138.3,360.4 138.3,356.8 130.2,351.3 129.8,352.2 123,352.2 121.2,369.1 
		125,385.8 128.4,392 128.6,396.6 133.7,404.5 135.6,404.7 134.6,384.5 145.5,379.8 140.6,372.9 140.6,365.4 145.4,360.4 	"/>
	<polygon class="st2" points="146.5,375.1 148.8,371 140.6,365.4 140.6,372.9 	"/>
	<polygon class="st2" points="123.5,295.2 119.9,292.6 111.4,292.5 111.9,298.2 114.4,300.9 120,301.5 120,309 120.9,309 122,311.5 
		125.7,310.3 125.4,306.4 130.3,304.6 131.7,297.4 130.1,295.8 	"/>
	<polygon class="st2" points="91.4,293.7 94.3,297.6 95.3,298 96.8,296.1 95.7,295.5 95.7,294.2 	"/>
	<polygon class="st2" points="136.8,302.3 131.7,297.4 130.3,304.6 132.4,303.8 132.1,309.9 137,309.4 135.3,305.1 	"/>
	<polygon class="st2" points="124.2,331.8 119.2,333.2 119.2,344.6 123,352.2 129.7,352.2 132.4,347.3 137.5,347.3 137.4,343.5 
		128.7,336.4 	"/>
	<polygon class="st2" points="141.4,308.9 144.7,308.5 145.6,305.8 144.4,302.9 141.6,302.7 	"/>
	<polygon class="st2" points="137.5,347.3 132.4,347.3 130.2,351.3 138.3,356.8 138.3,360.4 142.3,360.4 145.3,358.6 145.1,355.8 
		137.6,351.8 	"/>
	<polygon class="st2" points="137,309.4 141.4,308.9 141.6,302.7 136.8,302.3 135.3,305.1 	"/>
	<polygon class="st2" points="157.6,315.5 153.8,313.9 150.1,316.1 151.3,312.8 148.9,311.7 145.3,314.4 147.9,310.7 145.6,305.8 
		144.7,308.5 132.1,309.9 132.4,303.8 130.3,304.6 125.4,306.4 125.7,310.3 122,311.5 120.9,309 116.5,309.3 116.5,320.4 112.1,321 
		110.2,327.3 117.6,333.6 124.2,331.8 128.7,336.4 137.4,343.5 137.6,351.8 145.1,355.8 145.4,360.4 140.6,365.4 148.8,371 
		153.6,362.6 154.8,355.4 166.4,350.2 168.6,334.1 173.6,327.5 173.6,323.5 165.4,318.2 157.3,317.7 	"/>
	<polygon class="st2" points="99.9,296 98.6,297.1 96.8,296.1 95.3,298 99.6,299.5 100.7,298 103.1,298.2 103.8,300.6 104.8,299.2 
		104.4,297.6 103.8,295.6 	"/>
	<polygon class="st2" points="112.1,321 116.5,320.4 116.5,318.7 108.2,314 101.9,321.8 98.4,320.1 98.2,321.9 109,340.3 
		118.4,346.5 119.2,344.6 119.2,333.2 117.6,333.6 110.2,327.3 	"/>
	<polygon class="st2" points="125,385.8 121.1,369.1 123,352.2 119.2,344.6 118.4,346.5 119.9,384.8 124.1,388.1 124.3,395 
		131.4,404.2 133.7,404.5 128.6,396.6 128.4,392 	"/>
	<polygon class="st2" points="120,278.6 115.1,278.1 115.1,280.8 116.7,279.6 119.3,279.6 	"/>
	<polygon class="st2" points="115.1,280.1 115.1,278.1 112.1,278.1 113.1,279.5 111.3,279.5 111.3,280.1 	"/>
	<path class="st2" d="M481.4,383.6l-1,3.2l7.3-5.2l-2.1-2.8v-3.2l-1.2,0.5v4.5L481.4,383.6z M462.2,394.1l15.2-7.7v2l-11.7,7.7
		L462.2,394.1z M399.9,354.6l12.8-6l9.5-10.5l5.2,2.3l2.3-4.8l8.7-0.2l-2.2,4l7.2,6.2l4.8-4.8v-6.7l2.2,0.7l2.5,12l7.8,11l-0.8,8.3
		l-14.2,14.7l-12.3-0.7l-1.5-8.3l-4.2,1.8l-4-3.5l-24.3,5.3l-1.5-1.8l2-4.8V354.6z"/>
	<g>
		<g id="XMLID_3_">
			<g>
				<path class="st4" d="M107.4,93.5l0.5-0.6c0.9,0.8,2,1.9,2.6,2.8c0.8,1,0.8,1.8,1.2,3.1c0.4,1.3,1.2,3.3,1.4,4.7
					c0,0.2,0.1,0.4,0.1,0.6c0.1,1.1,0,1.8-0.2,2.8c0,0.1,0,0.2,0,0.2s0,0,0-0.1c-0.4-0.7-0.8-1.7-3.5-7.2l0,0
					c-0.1-0.5-0.2-1-0.4-1.4c-0.3-0.7-0.7-1.1-1.3-1.9c-0.7-0.7-1.6-1.8-2.5-2.5l0,0C106.4,93.7,107,93.5,107.4,93.5z"/>
				<path class="st4" d="M112.7,110.4c0,0.1,0,0.2-0.1,0.4c-0.1,0.7-0.3,1.3-0.5,1.9c-0.7-1.2-0.9-2.1-1-2.8s-0.1-1.2-0.2-2
					c0-0.5,0-1-0.1-1.6C111.1,108.2,111.9,109.5,112.7,110.4z"/>
				<path class="st4" d="M109.6,99.9c2.7,5.5,3.1,6.5,3.5,7.2v0.1c-0.1,1-0.2,2.3-0.4,3.3c-0.8-0.9-1.6-2.2-1.8-4.1c0,0,0,0,0-0.1
					c0-0.3-0.1-0.7-0.1-1c-0.1-0.9-0.3-1.7-0.5-2.3s-0.4-1.1-0.6-1.9C109.7,100.7,109.6,100.3,109.6,99.9z"/>
				<path class="st4" d="M107.9,92.9l-0.5,0.6c-0.3,0-0.9,0.1-2,0.6l0,0c-0.9-0.7-1.7-0.9-2.6-1c-0.4-0.1-0.8-0.1-1.2-0.1
					c0.8-0.4,1.2-0.9,1.6-1.2c0.4-0.3,0.7-0.5,0.9-0.7c0.2-0.1,0.5-0.2,1.7-0.3c0.6,0.5,0.8,0.9,1.5,1.6
					C107.5,92.6,107.7,92.7,107.9,92.9z"/>
				<path class="st4" d="M101.6,93c-0.4,0-0.8,0-1.2,0l0,0c0-0.5-0.3-0.8-0.5-1.1c-0.3-0.3-0.6-0.6-2.7-2.7c0.5-0.1,1.1-0.1,1.8-0.1
					c3.8-0.1,5.5,0.8,6.4,1.4c0.2,0.1,0.3,0.2,0.4,0.3c-1.2,0.1-1.4,0.2-1.7,0.3c-0.3,0.2-0.6,0.4-0.9,0.7
					C102.8,92.1,102.4,92.6,101.6,93z"/>
				<path class="st4" d="M98.1,93.2c-0.6,0.1-1.2,0.3-1.9,0.5c-0.6,0.2-1.3,0.4-2,0.6c-1.1,0.5-2,0.6-2.6,0.7s-1,0.2-1.6-0.1
					l-0.8-0.2c0.5-0.9,1.2-1.9,1.9-2.7c0.8-0.9,1.8-1.5,2.7-2c0.8-0.4,1.5-0.7,3.3-0.9c2.1,2.1,2.4,2.4,2.7,2.7
					c0.3,0.3,0.5,0.6,0.5,1.1l0,0c-0.1,0-0.2,0-0.2,0C99.4,93,98.7,93.1,98.1,93.2z"/>
				<path class="st4" d="M91.5,97.4L91.5,97.4c-0.2,0.7-0.3,1.4-0.4,2.2c-0.1,0.8-0.1,1.4-0.3,2.1c-0.2,0.7-0.5,1.3-0.9,1.8
					c-0.3,0.5-0.7,1-0.9,1.5c-0.2,0.5-0.2,1.2-0.2,1.7c0,0.1,0,0.3-0.1,0.4c0,0,0,0,0,0.1c-0.1,0.2-0.1,0.3-0.2,0.4
					c-0.2,0.1-0.4-0.1-0.7-0.5c-0.3-0.5-0.7-1.2-1.6-1c0.1-0.1,0.1-0.2,0.2-0.3c0.2-0.4,0.2-1.1,0.3-1.8c0.1-0.7,0.2-1.3,0.4-2.4
					h0.7C88.3,100.5,90.6,99.2,91.5,97.4z"/>
				<path class="st4" d="M89.2,114.3c0,1.8,0.4,2.6,0.6,3.1s0.4,0.9,0.5,1.1c0.1,0.1,0.1,0.3,0.3,0.5c-0.1,3.3,0.1,4.3,0.1,5.1
					c0,0.1,0,0.1,0,0.2c-1.4,1.1-1.8,1.6-2.1,2c-0.3,0.4-0.5,0.6-0.8,0.7c-0.2,0.1-0.4,0.1-0.7,0.1c-0.3,0-0.8,0.1-1.3,0.2
					c-0.5,0.1-1,0.2-3,1.2c0.4-0.3,0.6-0.7,0.8-1.1c0.3-0.8,0.6-1.7,1.1-2.6c0.4-0.8,0.9-1.5,1.4-2.2s1.1-1.5,1.5-2.6
					c0.5-1.1,0.8-2.5,1-3.5c0.2-0.9,0.1-1.4-0.2-1.9c-0.1-0.2-0.2-0.3-0.4-0.5C88.5,114.5,88.9,114.6,89.2,114.3z"/>
				<path class="st4" d="M92.4,95.7c-0.5,0.5-0.7,1-0.9,1.7c-0.9,1.8-3.1,3.2-3.6,4h-0.7c0.2-1,0.3-2.5,0.5-3.5
					c0.3-1,0.6-1.8,1.2-2.7c0.1-0.1,0.2-0.2,0.2-0.4l0.8,0.2c0.6,0.4,1,0.2,1.6,0.1s1.5-0.2,2.6-0.7c0,0-0.1,0-0.1,0.1
					C93.5,94.8,92.8,95.2,92.4,95.7z"/>
			</g>
		</g>
		<path class="st5" d="M112.8,129.3c3,3.6,4.3,5.4,5.3,6.7c0.9,1.4,1.4,2.3,1.4,7.2"/>
		<path class="st5" d="M85.9,131c-0.3,1.5-0.4,2.7-0.7,3.9c-0.2,1.2-0.5,2.4-1.1,3.5s-1.4,2.1-2.8,3.8"/>
		<path class="st5" d="M109.6,99.9c2.7,5.5,3.1,6.5,3.5,7.2"/>
		<path class="st5" d="M91.5,97.4c-0.9,1.8-3.1,3.2-3.6,4"/>
		<path class="st5" d="M94.3,94.4c-1.1,0.5-2,0.6-2.6,0.7s-1,0.2-1.6-0.1"/>
		<path class="st5" d="M105.4,94.1c1.3-0.5,1.9-0.6,2.2-0.5"/>
		<path class="st5" d="M101.6,93c0.8-0.4,1.2-0.9,1.6-1.2c0.4-0.3,0.7-0.5,0.9-0.7c0.3-0.1,0.4-0.2,1.7-0.3"/>
		<path class="st5" d="M97.2,89.2c2.1,2.1,2.4,2.4,2.7,2.7c0.3,0.3,0.5,0.6,0.5,1.1"/>
		<path class="st5" d="M97.8,93.3c-0.9-1-1.5-1.9-3-2.2"/>
		<path class="st5" d="M94.9,124.3c0.5,0.3,1.4,0.7,2,0.9c0.5,0.2,0.7,0.3,1,0.4c0.3,0.1,0.7,0.1,1.1,0.1s0.7-0.1,1-0.1s0.6,0,0.8,0
			c0.2,0,0.5,0,0.8,0s0.7-0.1,1.1-0.2c0.4-0.1,0.7-0.3,1-0.4c0.3-0.2,0.7-0.3,0.9-0.5c0.3-0.1,0.4-0.3,0.7-0.5
			c0.2-0.2,0.5-0.5,0.8-0.8c0.2-0.3,0.4-0.5,0.6-0.7c0.1-0.2,0.2-0.4,0.4-0.6c0.1-0.2,0.3-0.5,1.7-1.8"/>
		<path class="st5" d="M89.2,114.3c0,1.8,0.4,2.6,0.6,3.1s0.4,0.9,0.5,1.1c0.1,0.2,0.2,0.4,0.5,0.8c0.3,0.5,0.8,1.4,1.2,2.1"/>
		<path class="st5" d="M88.9,107c-0.4,1.7,0.1,5.4,0.4,6.1"/>
		<path class="st5" d="M110.7,136.7c-1.4,1.3-2.3,2-3.2,2.4c-0.9,0.4-1.9,0.4-2.9,0.5s-2.1,0.2-3,0.2c-0.9,0.1-1.8,0-2.7-0.1
			c-0.9-0.1-2-0.3-2.8-0.6c-0.8-0.2-1.3-0.5-2.3-0.9c-0.9-0.4-2.3-0.9-3.6-2.4"/>
		<path class="st5" d="M107.6,123.2c-0.2,2.5-0.2,3.1-0.3,3.8c-0.1,0.7-0.1,1.4,0,2.3c0.2,0.9,0.5,2.1,1.5,3.7
			c1,1.7,2.5,3.9,2.5,7.7"/>
		<path class="st5" d="M90.7,124.4c-1.4,1.1-1.8,1.6-2.1,2c-0.3,0.4-0.5,0.6-0.8,0.7c-0.2,0.1-0.4,0.1-0.7,0.1
			c-0.3,0-0.8,0.1-1.3,0.2c-0.5,0.1-1,0.2-3,1.2"/>
		<path class="st5" d="M90.6,119c-0.1,3.3,0.1,4.3,0.1,5.1c0.1,0.8,0,1.4-0.2,2.7s-0.5,3.3-0.5,4.7s0.2,2.1,0.2,2.7
			c0.1,0.7,0.1,1.3,0.1,2.8c0,1.4,0,3.7,0.2,3.9"/>
		<path class="st5" d="M88.1,114.1c0.4,0.4,0.8,0.5,1.1,0.2"/>
		<path class="st5" d="M86.4,106c0.9-0.2,1.3,0.5,1.6,1c0.3,0.4,0.5,0.6,0.7,0.5s0.2-0.3,0.3-0.8s0-1.1,0.2-1.7s0.5-1,0.9-1.5
			s0.7-1.1,0.9-1.8c0.2-0.7,0.2-1.4,0.3-2.1s0.2-1.5,0.4-2.2c0.2-0.7,0.4-1.2,0.9-1.7s1.1-0.9,1.8-1.3c0.7-0.3,1.4-0.5,2.1-0.7
			s1.2-0.4,1.9-0.5c0.6-0.1,1.3-0.2,2.1-0.2c0.8,0,1.7,0,2.6,0.1s1.7,0.4,2.6,1c0.9,0.7,1.8,1.7,2.5,2.5c0.7,0.7,1,1.1,1.3,1.9
			c0.3,0.7,0.5,1.8,0.7,2.6c0.2,0.8,0.4,1.3,0.6,1.9s0.4,1.4,0.5,2.3s0.2,1.9,0.2,2.6c0,0.8,0,1.3,0.2,2c0.1,0.7,0.4,1.6,1,2.8"/>
		<path class="st5" d="M111.1,111.8c0,0,0,2.7-0.4,3.7"/>
		<path class="st6" d="M127.9,142c-1.1-1.4-1.1-2.3-1.4-3.5c-0.4-1.2-1.1-2.8-1.5-4c-0.5-1.1-0.7-1.9-1-2.6s-0.9-1.5-1.3-2
			s-0.8-0.5-1.1-0.6c-0.3-0.1-0.5-0.2-0.8-0.5c-0.3-0.2-0.7-0.6-1.5-0.8s-2-0.4-3.2-0.5c-1.2-0.2-2.4-0.3-3.2-0.5
			c-0.9-0.2-1.4-0.4-2.1-0.7c-0.7-0.2-1.4-0.4-2-0.7c-0.5-0.3-0.9-0.7-1-1.3s-0.1-1.3,0-1.9c0.1-0.6,0.2-1,0.4-1.4
			c0.2-0.4,0.4-0.9,0.6-1.2c0.2-0.4,0.4-0.6,0.7-1.3c0.4-0.7,0.9-1.8,1.4-2.7c0.4-0.9,0.8-1.6,1.1-2.4c0.3-0.8,0.6-1.6,0.8-2.8
			c0.2-1.2,0.3-2.7,0.5-3.9s0.4-2,0.1-3.4s-1-3.4-1.4-4.7c-0.4-1.3-0.4-2-1.2-3.1c-0.8-1.1-2.3-2.4-3.2-3.3c-0.8-0.9-1-1.3-1.9-1.9
			s-2.6-1.6-6.4-1.4c-3.1,0.1-4.1,0.5-5.1,1s-1.9,1.1-2.7,2c-0.8,0.9-1.6,2.1-2.2,3.1s-0.9,1.6-1.2,2.7c-0.3,1-0.4,2.5-0.5,3.5
			c-0.2,1-0.3,1.7-0.4,2.4c-0.1,0.7-0.1,1.4-0.3,1.8c-0.2,0.4-0.4,0.6-0.7,0.9c-0.3,0.3-0.6,0.7-0.6,1.7s0.4,2.7,0.8,3.7
			c0.4,0.9,0.7,1.1,1.2,1.5c0.4,0.3,0.9,0.8,1.2,1.2c0.3,0.5,0.3,1,0.2,1.9c-0.1,0.9-0.5,2.3-1,3.5c-0.4,1.1-1,1.9-1.5,2.6
			s-1,1.4-1.4,2.2s-0.7,1.8-1.1,2.6c-0.7,0.8-1,1.3-2,1.7s-2.8,0.7-4.3,1.2s-2.6,1.3-4,2.1s-3,1.7-4.9,6.9"/>
	</g>
	<g>
		<g id="XMLID_2_">
			<g>
				<path class="st7" d="M310,103.3c0-0.1,0-0.1-0.1-0.2s-0.2-0.2-0.3-0.2c-0.1-0.1-0.3-0.2-0.5-0.2c-0.2-0.1-0.6-0.1-0.9-0.2
					c-0.1,0-0.1,0-0.2,0c-0.2-1.1-0.2-1.3-0.3-1.6c-0.1-0.2-0.2-0.4-0.3-0.7c-0.2-0.2-0.4-0.6-0.5-0.8c-0.1-0.3-0.2-0.5-0.3-0.8
					c-0.1-0.3-0.2-0.6-0.4-1.1c-0.2-0.5-0.6-1.2-0.8-1.6c-0.2-0.4-0.4-0.5-0.7-0.7c-0.3-0.1-0.7-0.3-1.3-0.5
					c-0.7-0.1-1.5-0.2-2.1-0.2s-0.8-0.1-1.1,0.1c-0.3,0.2-0.5,0.5-0.8,0.6c-0.2,0.1-0.4,0-0.8-0.1h-0.1c-0.4-0.1-1.1-0.2-1.6-0.1
					c-0.1,0-0.2,0-0.3,0c-0.3,0.1-0.6,0.1-0.8,0.2c-0.2,0-0.3,0-0.4,0s-0.3-0.1-0.5-0.1c-0.4-0.1-1-0.1-1.6-0.1c-0.1,0-0.2,0-0.4,0
					c-0.5,0-1.1,0.1-1.4,0.2c-0.5,0.2-0.8,0.5-1.1,0.8c-0.3,0.4-0.7,0.8-1.1,1.3s-0.8,1.1-1,1.6s-0.2,0.9-0.1,1.4s0.2,1.1-0.3,2.5
					c0,0-0.1,0-0.1,0.1c-0.3,0.2-0.6,0.5-1.3,0.8c0-0.5,0.1-1,0.1-1.7c0-0.9-0.1-2-0.2-2.8s0-1.4,0.1-2.1s0.4-1.6,0.8-2.3
					c0.4-0.8,0.9-1.5,1.2-2.1c0.4-0.6,0.5-1,1-1.4c0.4-0.4,1.1-0.8,4.1-3.2c1-0.8,2.5-0.8,3.6-0.9s1.8-0.2,2.4-0.1
					c0.6,0,1.1,0.2,1.7,0.3s1.3,0.3,1.8,0.5s0.9,0.5,1.3,0.8s0.8,0.5,1.1,0.6c0.3,0.1,0.4,0,0.5,0.1s0.3,0.4,0.4,0.7
					c0.1,0.3,0.3,0.6,0.6,0.7c0.3,0.1,0.7,0.1,1,0.4c0.3,0.2,0.6,0.7,0.8,1.4c0.2,0.7,0.4,1.7,0.6,2.4c0.2,0.7,0.5,1.2,0.6,2.3
					s0.1,2.5,0.2,3.5s0.2,1.5,0.3,2c0.1,0.5,0,0.8,0,1.1c0,0.1,0,0.3,0.1,0.3c-0.4,0.5-0.8,0.9-1,1.2s-0.3,0.6-0.3,0.9
					s-0.1,0.5-0.1,0.8c-0.1,0.2-0.3,0.4-0.4,0.4s-0.1,0-0.1-0.2s0.1-0.4,0.1-0.8s-0.1-1.1-0.6-2.3c0.3-0.1,0.6-0.1,0.9-0.1
					c0.4,0,0.6,0,0.7-0.1C309.9,103.5,309.9,103.3,310,103.3z"/>
			</g>
		</g>
		<path class="st5" d="M298.5,95c1.6-1.6,2.9-2,5.1-2.2"/>
		<path class="st5" d="M295.8,89.4c0.8-0.7,1.8-0.4,2.3-0.2c0.5,0.2,0.6,0.2,1.1,0.2s1.4-0.1,2-0.1s1.1,0.1,1.5,0.2s0.7,0.3,1.2,0.5
			s1.1,0.5,1.5,0.8s0.6,0.6,0.8,1c0.1,0.4,0.3,0.7,0.4,1.2"/>
		<path class="st5" d="M286.5,103.6c0.8-0.3,1-0.6,1.4-0.8c0.3-0.2,0.6-0.3,1-0.4s0.7-0.2,1.3-0.2s1.4,0,2,0s1,0,1.4,0
			s0.8,0,1.1,0.1c0.4,0.1,0.8,0.3,1.1,0.5c0.3,0.2,0.4,0.2,0.5,0.3s0.3,0.1,0.5,0.1s0.6-0.1,0.8-0.2c0.3-0.1,0.4-0.3,0.8-0.4
			c0.3-0.2,0.8-0.3,1.2-0.5c0.4-0.2,0.7-0.3,1.6-0.4c0.8-0.1,2.2-0.2,3.1-0.2s1.6,0.1,2,0.2c0.4,0.2,0.8,0.4,1,0.6s0.2,0.2,0.3,0.3
			c0.1,0.1,0.4,0.1,0.7,0.1c0.3,0.1,0.7,0.1,0.9,0.2c0.2,0.1,0.4,0.1,0.5,0.2s0.3,0.2,0.4,0.2c0.1,0.1,0.1,0.1,0.1,0.2
			s-0.1,0.2-0.2,0.3s-0.3,0.1-0.7,0.1c-0.4,0-0.9,0.1-1.2,0.2c-0.3,0.1-0.4,0.1-0.5,0.2s-0.2,0.2-0.4,0.5c-0.1,0.2-0.3,0.5-0.5,0.8
			c-0.2,0.3-0.3,0.4-0.5,0.5s-0.4,0.2-0.8,0.4c-0.4,0.1-1.1,0.3-1.7,0.4c-0.6,0.1-1,0-1.7,0c-0.6,0-1.4-0.1-1.9-0.1s-0.7,0-0.9-0.2
			c-0.2-0.1-0.5-0.3-0.7-0.5s-0.3-0.5-0.4-0.8s-0.2-0.6-0.3-0.9c-0.1-0.2-0.2-0.3-0.4-0.4c-0.2-0.1-0.5-0.1-0.7,0s-0.4,0.2-0.5,0.5
			c-0.1,0.4-0.3,1-0.4,1.4s-0.2,0.5-0.3,0.6c-0.1,0.1-0.4,0.3-0.6,0.4c-0.2,0.1-0.5,0.3-0.8,0.4c-0.3,0.1-0.7,0-1.4,0
			c-0.7,0-1.6,0.1-2.4,0c-0.8,0-1.5-0.1-1.9-0.3c-0.4-0.1-0.6-0.4-0.8-0.6c-0.2-0.2-0.3-0.4-0.5-0.6c-0.1-0.2-0.3-0.3-0.6-0.4"/>
		<path class="st5" d="M288.2,103c-0.1,0.1-0.4,0.2-0.6,0.3s-0.2,0.3-0.2,0.5s0,0.4,0,0.7c0,0.2,0.1,0.5,0.1,0.7
			c0.1,0.2,0.1,0.3,0.1,0.5c0.1,0.1,0.1,0.3,0.2,0.4c0.1,0.1,0.3,0.2,0.5,0.3s0.5,0.2,0.8,0.2c0.2,0.1,0.4,0.1,1.2,0.2
			c0.8,0.1,2.1,0,2.9-0.1s1-0.3,1.3-0.4c0.2-0.2,0.4-0.3,0.6-0.5c0.1-0.2,0.3-0.5,0.4-0.8c0.1-0.4,0.1-0.8,0.1-1.1
			c0-0.3-0.1-0.5-0.2-0.7s-0.4-0.3-0.7-0.4c-0.3-0.1-0.6-0.1-1.4-0.2s-2,0-2.8,0s-1.1,0.1-1.4,0.2s-0.6,0.2-0.7,0.2
			C288.2,102.9,288.3,102.9,288.2,103z"/>
		<path class="st5" d="M298.8,102.5c-0.2,0.2-0.5,0.3-0.6,0.5c-0.1,0.1-0.1,0.3-0.1,0.5s0.1,0.4,0.1,0.6c0.1,0.2,0.1,0.4,0.3,0.6
			s0.2,0.4,0.4,0.6c0.1,0.2,0.3,0.3,0.5,0.4c0.2,0.1,0.6,0.2,1.1,0.3s1.2,0.1,1.8,0.1c0.6,0,1.2,0,1.7-0.1s1-0.2,1.4-0.4
			s0.6-0.4,0.8-0.6c0.1-0.3,0.1-0.6,0.1-1s0-0.9-0.1-1.2c0-0.3-0.1-0.4-0.2-0.6c-0.1-0.1-0.3-0.2-0.7-0.3c-0.4-0.1-0.8-0.1-1.5-0.1
			c-0.6,0-1.4,0-2,0s-1,0.1-1.4,0.1c-0.4,0.1-0.7,0.1-1,0.2C299.3,102.2,299,102.4,298.8,102.5z"/>
		<path class="st5" d="M292.8,119.8c2,1.6,2.6,1.7,3,1.8s0.8,0.1,1.2,0.1c0.4,0,0.9,0,1.6-0.1c0.7,0,1.4,0,2.1-0.2
			c0.7-0.1,1.3-0.4,2.2-0.9c0.8-0.4,1.9-1,2.7-1.7c0.9-0.7,1.6-1.6,1.9-2.1c0.4-0.5,0.5-0.8,0.5-1.5"/>
		<path class="st5" d="M293.1,121c0.7,3.1,0.9,3.7,1.1,4.1c0.1,0.4,0.1,0.8,0.1,1.2s-0.1,1-0.2,1.6s-0.2,1.3-0.1,2s0.5,1.4,0.7,1.9
			c0.2,0.6,0.4,1,0.5,1.4s0.3,0.7,0.5,0.8c0.2,0.2,0.6,0.2,1-0.2s0.8-1,1.6-1.5s2-0.7,2.8-1.1c0.8-0.4,1.2-0.9,1.7-1.4
			s0.9-0.9,1.3-1.4c0.4-0.4,0.8-0.9,1.3-1.4c0.6-0.6,1.4-1.3,1.9-1.9c0.5-0.6,0.8-1,1-1.4s0.4-0.8,0.8-1.2c0.3-0.4,0.6-0.8,0.9-1.2
			s0.5-0.8,0.7-1.3s0.2-1,0.3-2.3"/>
		<path class="st5" d="M309.3,116.9c0.4,2,0.7,3.4,0.9,4.3"/>
		<path class="st5" d="M303,129.8c2.6,0.2,2.9,1.6,3.2,2.5c0.3,1,0.5,1.5,0.4,1.9s-0.5,0.8-0.8,1s-0.7,0.4-0.8,0.6
			c-0.1,0.2,0.1,0.3,0.5,0.3c0.4-0.1,1.2-0.3,1.9-0.8c0.7-0.5,1.4-1.2,2.1-2s1.2-1.5,1.7-2.3s0.8-1.6,1.3-2.6s1-2.3,2.3-3.6"/>
		<path class="st5" d="M290.7,124.7c-1.5,2.8-1.9,3.7-2.3,4.4c-0.3,0.7-0.6,1.1-0.9,1.5s-0.7,0.8-1,1.1c-0.3,0.4-0.6,0.7-1,0.9
			c-0.3,0.2-0.8,0.3-1,0.4c-0.3,0.1-0.4,0.3-0.6,0.4c-0.1,0.2-0.3,0.3-0.2,0.3c0.1,0,0.6,0,1.1-0.1s1-0.3,1.5-0.5s0.9-0.5,1.2-0.9
			c0.3-0.3,0.4-0.7,0.6-1.1c0.2-0.4,0.5-1,0.8-1.3c0.2-0.3,0.5-0.3,0.6-0.3c0.1,0.1,0.1,0.2,0.1,0.5c-0.1,0.2-0.1,0.5-0.1,0.8
			s0.1,0.5,0.4,0.8c0.2,0.3,0.5,0.7,0.8,1.1c0.3,0.4,0.6,0.7,0.8,0.8c0.2,0.2,0.3,0.2,0.7,0.2c0.4,0,1.2,0.1,1.7,0.2
			c0.5,0.1,0.8,0.1,2.1,0.1"/>
		<path class="st5" d="M296,134.2c-1.4,1.1-2.4,1.6-2.9,1.9s-0.5,0.7-0.6,1.3c0,0.6,0,1.4-0.7,2.1"/>
		<path class="st5" d="M295.6,135.8c-0.2,0.1-0.3,0.2-0.6,0.5c-0.2,0.3-0.6,0.8-0.5,1.1c0.1,0.4,0.5,0.7,1,0.8s0.9,0,1.1-0.3
			s0.2-0.8,0.1-1.1c-0.1-0.4-0.2-0.7-0.4-0.8C296.1,135.7,295.9,135.7,295.6,135.8z"/>
		<path class="st5" d="M287.9,102.6c0.5-1.4,0.4-2,0.3-2.5s-0.1-0.9,0.1-1.4s0.6-1.1,1-1.6s0.8-0.9,1.1-1.3c0.3-0.4,0.6-0.6,1.1-0.8
			c0.5-0.2,1.2-0.2,1.8-0.2c0.6,0,1.2,0.1,1.6,0.2s0.6,0.2,0.9,0.1c0.3,0,0.6-0.2,1.1-0.2s1.2,0.1,1.7,0.2s0.6,0.2,0.8,0.1
			c0.2-0.1,0.5-0.5,0.8-0.6c0.3-0.2,0.5-0.1,1.1-0.1s1.4,0.1,2.1,0.2c0.6,0.1,1,0.3,1.3,0.5c0.3,0.1,0.4,0.3,0.7,0.7
			c0.2,0.4,0.6,1.1,0.8,1.6c0.2,0.5,0.3,0.8,0.4,1.1c0.1,0.3,0.1,0.5,0.3,0.8c0.2,0.3,0.4,0.6,0.5,0.8c0.1,0.2,0.3,0.5,0.3,0.7
			c0.1,0.2,0.1,0.5,0.3,1.6"/>
		<path class="st5" d="M308.2,103.8c0.5,1.2,0.6,1.8,0.6,2.3c0,0.4-0.1,0.7-0.1,0.8c0,0.2,0,0.2,0.1,0.2s0.3-0.2,0.4-0.4
			s0.1-0.5,0.1-0.8s0.1-0.6,0.3-0.9c0.2-0.3,0.6-0.7,1-1.2"/>
		<path class="st5" d="M309,111c0,1.4,0.2,2.6,0.1,2.9"/>
		<path class="st5" d="M287.4,106c0.1,2.1,0.2,3,0.4,3.8c0.2,0.8,0.3,1.4,0.3,2.5"/>
		<path class="st5" d="M292.9,94.8c-1.7-1.3-2.7-2-3-2"/>
		<path class="st5" d="M295.4,95.1c-1-1.6-1.9-2.9-2.8-3.5"/>
		<path class="st5" d="M296.6,94.9c0.5-2.1,0.8-3.2,0.7-3.6"/>
		<path class="st6" d="M328.8,136c-0.1-1.2-1.4-2.3-2.5-3.1c-1-0.8-1.8-1.3-2.3-1.6c-0.5-0.4-0.7-0.5-1-0.9s-0.7-0.9-1.8-1.6
			c-1.1-0.7-3-1.7-4.2-2.3c-1.2-0.7-1.7-1-2.2-1.4s-0.9-1-1.4-1.8s-1-1.9-1.3-2.8c-0.3-0.9-0.5-1.4-0.6-1.9
			c-0.1-0.4-0.3-0.6-0.6-0.8c-0.3-0.2-0.8-0.3-1.1-0.4c-0.3-0.1-0.4-0.1-0.5-0.7c-0.1-0.6-0.1-1.7-0.2-2.3c0-0.7,0-0.9,0.2-1
			c0.2-0.2,0.5-0.2,0.7-0.3s0.3-0.3,0.5-0.6c0.2-0.2,0.5-0.5,0.7-1.2c0.3-0.7,0.6-1.7,0.7-2.5c0.2-0.7,0.2-1.1,0.2-1.6
			c0-0.4-0.2-1-0.2-1.4s0.1-0.7,0.1-1s-0.1-0.7-0.4-0.8c-0.3-0.2-0.7-0.1-0.9-0.2c-0.2,0-0.3-0.1-0.3-0.4s0.1-0.7,0-1.1
			s-0.2-1-0.3-2c-0.1-1-0.1-2.5-0.2-3.5s-0.4-1.5-0.6-2.3c-0.2-0.7-0.4-1.7-0.6-2.4c-0.2-0.7-0.5-1.2-0.8-1.4
			c-0.3-0.2-0.7-0.2-1-0.4c-0.3-0.1-0.4-0.4-0.6-0.7c-0.1-0.3-0.3-0.6-0.4-0.7s-0.3,0-0.5-0.1c-0.3-0.1-0.7-0.3-1.1-0.6
			c-0.4-0.3-0.8-0.5-1.3-0.8c-0.5-0.2-1.2-0.4-1.8-0.5c-0.6-0.1-1.1-0.3-1.7-0.3s-1.3,0.1-2.4,0.1c-1.1,0.1-2.6,0.1-3.6,0.9
			c-3,2.4-3.7,2.9-4.1,3.2c-0.4,0.4-0.6,0.8-1,1.4s-0.8,1.3-1.2,2.1c-0.4,0.8-0.7,1.6-0.8,2.3c-0.1,0.7-0.1,1.3-0.1,2.1
			c0.1,0.8,0.1,2,0.2,2.9s-0.1,1.5-0.1,2s0,0.8,0,1.1c0,0.2-0.1,0.4-0.2,0.6s-0.1,0.4-0.1,0.9s0.1,1.3,0.1,2s0,1.3,0.1,1.8
			s0.3,1,0.5,1.6s0.4,1.2,0.5,1.7s0.2,0.7,0.3,0.9c0.1,0.2,0.3,0.4,0.5,0.4c0.2,0.1,0.4,0.1,0.6,0.5c0.3,0.5,0.6,1.3,1,1.9
			c0.3,0.6,0.6,0.9,1,1.2c0.5,0.4,1,0.8,1.5,1.1s0.8,0.6,0.9,1c0.1,0.5-0.1,1.3-0.6,2.1s-1.3,1.6-1.7,2c-0.4,0.4-0.5,0.4-0.9,0.5
			s-1.1,0.3-1.9,0.5s-1.9,0.5-2.9,0.7c-1,0.1-2.2,0.1-3.3,0.2c-1.2,0.1-2.4,0.3-3.3,0.5s-1.4,0.4-2,0.8c-0.6,0.4-1.2,1-1.8,1.7
			c-0.7,0.7-1.4,1.5-2,2.4c-0.6,1-1,2.1-1.9,3.2c-0.9,1.1-2.3,2.3-2.9,3.7"/>
	</g>
	<g>
		<g id="XMLID_1_">
			<g>
				<path class="st7" d="M406.4,103c-0.1-0.4-0.1-0.9-0.3-1.3c-0.1-0.4-0.2-0.8-0.2-1.3c-0.1-0.4-0.1-0.9-0.1-1.5s0.1-1.3,0.1-1.9
					c0-0.7,0-1.3-0.3-2c-0.1-0.2-0.3-0.5-0.4-0.7c1.3,1.5,2.1,2.9,2.3,4.1l0,0c0,0.2-0.1,0.4-0.1,0.5c-0.1,1-0.1,1.3-0.1,1.7
					c0,0.2,0,0.5,0,0.9c-0.1,3.6-0.4,4-0.6,4c-0.2,0.1-0.2-0.2-0.2-0.5s0-0.6,0-1C406.4,103.9,406.4,103.4,406.4,103z"/>
				<path class="st7" d="M401.3,89.1c-0.4,0-1-0.1-1.7-0.2c-0.6-0.1-1.2-0.1-1.7-0.1c-0.6-0.1-1.1-0.1-1.6-0.1s-0.8-0.1-1.4-0.1
					c-0.5,0-1.1,0-1.9,0.1c0.1-0.7,0.3-1.2,0.4-1.6c0.2-0.6,0.3-0.8,0.6-1c0.3-0.2,0.7-0.3,1.2-0.3c0.5-0.1,1.1-0.1,1.9,0
					s1.7,0.2,2.5,0.4c0.8,0.2,1.4,0.4,1.7,0.7c0.3,0.3,0.4,0.5,0.4,0.8s-0.1,0.6-0.1,0.8c0,0.2,0,0.4,0,0.5s0,0.1,0,0.1l0,0
					C401.7,89.1,401.6,89.1,401.3,89.1z"/>
				<path class="st7" d="M385.5,96.2c0.1-0.8,2.5-1.8,4.2-3.8c-0.1,0.1-0.2,0.3-0.3,0.4c-0.2,0.4-0.3,0.9-0.4,1.3
					c-0.1,0.5-0.1,0.9-0.1,1.3c-0.1,0.4-0.2,0.7-0.4,1.6c-0.2,0.9-0.6,2.3-0.9,3.3s-0.6,1.6-0.7,2.2s0.1,1.2,0.2,1.7
					s0.1,0.9,0.1,1.3c0,0.4-0.1,0.8-0.2,0.9s-0.1-0.1-0.3-0.6c-0.1-0.5-0.3-1.2-0.4-1.7V104c-0.1-0.5-0.1-0.8-0.2-1
					s-0.2-0.6-0.4-0.8c-0.1-0.3-0.2-0.5-0.4-0.8c-0.1-0.3-0.2-0.6-0.7-0.8c0.1-0.1,0.1-0.3,0.2-0.4c0.1-0.3-0.1-0.5,0.1-1.8
					C385.2,97.8,385.3,97.1,385.5,96.2L385.5,96.2z"/>
			</g>
		</g>
		<path class="st5" d="M387.9,112.9c0,1.6,0,2.5,0,3.1s0,1.1,0,1.6s0,1,0.2,1.8s0.6,1.7,1.1,2.3c0.4,0.7,1,1,1.5,1.5
			c0.5,0.4,1.1,0.9,1.5,1.3c0.4,0.4,0.6,0.8,0.8,1.1c0.2,0.3,0.4,0.5,0.6,0.7c0.1,0.2,0.2,0.5,0.2,0.9s-0.1,1-0.1,1.4
			c-0.1,0.4-0.1,0.5-0.1,0.8c0.1,0.2,0.3,0.4,0.3,0.7s-0.1,0.8-0.1,1.2s0.1,0.7,0.3,1.1c0.2,0.4,0.6,0.9,0.8,1.3
			c0.2,0.4,0.2,0.5,0.5,0.4s0.8-0.6,1.2-0.9c0.4-0.3,0.8-0.6,1-0.9c0.3-0.3,0.5-0.7,0.6-1.1c0.1-0.4,0.2-1,0.2-1.4s-0.1-0.7,0-1.2
			s0.3-1.1,0.6-1.7c0.2-0.6,0.5-1.1,0.8-1.4s0.7-0.5,1.1-0.7s0.8-0.4,1.1-0.8c0.3-0.4,0.6-1,0.8-1.5c0.1-0.5,0.1-0.9,0.1-1.3
			c-0.1-0.4-0.1-0.9-0.2-1.5s-0.2-1.3,0.5-3.1"/>
		<path class="st5" d="M389.2,112.3c0.9,1.3,1.8,2.1,2.4,2.7c0.6,0.6,0.9,1,1.2,1.3c0.3,0.3,0.6,0.6,0.9,0.8s0.7,0.4,1.2,0.5
			s1.1,0.2,1.8,0.2c0.7,0,1.5-0.1,2.2-0.2c0.7-0.2,1.2-0.5,1.6-0.7c0.4-0.3,0.6-0.5,0.9-0.8s0.7-0.6,1.2-1s1.1-0.7,2-2.2"/>
		<path class="st5" d="M384.9,100.6c0.5,0.2,0.6,0.5,0.7,0.8s0.2,0.5,0.4,0.8c0.1,0.3,0.3,0.6,0.4,0.8c0.1,0.3,0.1,0.5,0.2,1
			s0.2,1.3,0.4,1.8c0.1,0.5,0.2,0.7,0.3,0.6c0.1-0.1,0.2-0.5,0.2-0.9s0-0.8-0.1-1.3s-0.3-1.1-0.2-1.7c0.1-0.6,0.3-1.2,0.7-2.2
			c0.3-1,0.7-2.4,0.9-3.3c0.2-0.9,0.3-1.2,0.4-1.6s0.1-0.8,0.1-1.3c0.1-0.4,0.2-0.9,0.4-1.3c0.2-0.4,0.5-0.7,1.2-1.1
			s1.8-0.8,3.1-1.1c1.3-0.2,2.8-0.2,4-0.2c1.1,0.1,1.9,0.2,2.5,0.3s1.1,0.3,1.7,0.6c0.6,0.4,1.3,0.9,2,1.5s1.3,1.4,1.6,2
			c0.3,0.7,0.4,1.3,0.3,2s-0.1,1.3-0.1,1.9s0,1,0.1,1.5c0.1,0.4,0.1,0.8,0.2,1.3c0.1,0.4,0.2,0.9,0.2,1.3c0.1,0.4,0,0.8,0,1.2
			s0,0.7,0,1c0,0.3,0,0.5,0.2,0.5c0.1-0.1,0.5-0.4,0.6-4"/>
		<path class="st5" d="M407.5,98.5c-0.3-1.2-1-2.6-2.4-4.1"/>
		<path class="st5" d="M389.7,92.5c-1.7,2-4.1,3-4.2,3.8"/>
		<path class="st5" d="M393.1,89.4c-0.1-0.9,0.2-1.8,0.4-2.3c0.2-0.6,0.3-0.8,0.6-1c0.3-0.2,0.7-0.3,1.2-0.3c0.5-0.1,1.1-0.1,1.9,0
			s1.7,0.2,2.5,0.4s1.4,0.5,1.7,0.7c0.3,0.3,0.4,0.5,0.4,0.8s-0.1,0.6-0.1,0.8c0,0.2,0,0.4,0,0.5s0,0.1,0,0.1s0,0-0.4,0
			s-1-0.1-1.6-0.2s-1.2-0.1-1.7-0.2c-0.6-0.1-1.1-0.1-1.6-0.2c-0.5,0-0.8-0.1-1.4,0c-0.5,0-1.2,0-2,0.2"/>
		<path class="st5" d="M393.1,89.4c0,0.5,0.2,0.5,0.6,0.5s0.9-0.1,1.4-0.1c0.6,0,1.2,0,1.8,0c0.6,0,1.2,0.1,1.6,0.2s0.8,0.1,1.2,0.2
			c0.4,0.1,0.9,0.2,1.6,0.3s1.5,0.3,2.1,0.4c0.5,0.2,0.8,0.4,1,0.6s0.3,0.4,0.5,0.6c0.1,0.2,0.4,0.3,0.6,0.5
			c0.3,0.1,0.6,0.2,1.1,0.3s1.1,0.1,2.1,0.3"/>
		<path class="st5" d="M408.3,91.4c-1.7-0.3-2.3-0.5-2.6-0.7c-0.4-0.2-0.5-0.3-0.6-0.5s-0.3-0.4-0.5-0.6c-0.1-0.2-0.3-0.5-0.4-0.6
			c-0.2-0.2-0.3-0.3-0.5-0.3s-0.5,0.1-0.7,0.2s-0.4,0.1-1.2,0.1"/>
		<path class="st5" d="M403.1,88.9c0.6,0.5,0.6,0.7,0.6,0.9s-0.1,0.4,0.2,1.3"/>
		<path class="st5" d="M405.4,90.6c0.2,1.1-0.1,1.5-0.3,1.8"/>
		<path class="st5" d="M386.2,106.9c-0.2,1.8-0.2,2.3-0.2,2.8s0.1,0.9,0.1,1.3c0.1,0.4,0.2,0.8,0.4,1.4c0.3,0.6,0.7,1.3,1.2,1.7"/>
		<path class="st5" d="M393.3,129c-0.2-0.6,0.1-1.3,0.1-1.7c0-0.5-0.3-0.7-0.6-1c-0.3-0.3-0.5-0.6-0.8-0.9c-0.3-0.2-0.6-0.4-1-0.5
			c-0.3,0-0.7,0.1-0.9,0.3c-0.3,0.2-0.4,0.5-0.6,1c-0.1,0.5-0.2,1.1-0.4,1.7c-0.1,0.5-0.2,1-0.3,1.2c-0.1,0.3-0.2,0.4-0.6,0.2
			s-1-0.8-1.4-1.3c-0.4-0.6-0.6-1.2-0.8-1.7c-0.2-0.5-0.5-0.9-0.8-1.3c-0.2-0.5-0.3-1-0.2-2.1c0.1-1.1,0.5-2.7,0.2-5.9"/>
		<path class="st5" d="M399.9,127.4c0-1.1,0.1-1.6,0.5-1.9c0.4-0.2,1-0.1,1.3,0.2s0.4,0.7,0.4,1s0,0.5-0.1,0.9s-0.3,0.8-0.5,1.3
			c-0.1,0.4-0.2,0.8-0.3,1.2c0,0.4,0,1,0.1,1.1c0.1,0.2,0.2,0.1,0.3-0.2c0.1-0.3,0.3-0.8,0.6-1.6c0.2-0.7,0.6-1.7,1-2.6
			c0.4-0.9,0.8-1.9,1.3-2.8c0.4-0.9,0.9-1.8,0.8-3.3"/>
		<path class="st5" d="M373.3,125.1c3.2,3.3,2.8,4.7,2.6,5.9c-0.2,1.3-0.2,2.4-0.2,3.5s0,2.2,2,3.4"/>
		<path class="st5" d="M410.2,128.6c0,4-1.6,6.9-4.7,8.8"/>
		<path class="st5" d="M388.1,94.9c-0.4,0.8-1,1.3-1.4,2.1"/>
		<path class="st6" d="M360.6,134.9c2.9-4.6,3.2-6.3,3.7-7.5s1.1-1.9,1.8-2.6c0.8-0.6,1.6-1.2,2.5-1.8s1.9-1.1,3.9-2
			c2.1-0.9,5.3-2.1,7.5-2.8s3.3-0.9,4.3-1.1s1.7-0.5,2.2-0.9s0.7-0.8,0.8-1.2c0.1-0.4,0.3-0.9,0.4-1.1c0.1-0.3,0.1-0.4,0.1-0.9
			s0-1.5-0.1-2.3s-0.3-1.3-0.5-1.7s-0.4-0.6-0.6-1s-0.4-0.9-0.7-1.5c-0.4-0.7-1-1.5-1.3-2.2s-0.4-1.3-0.4-1.9s0.1-1,0.2-1.4
			s0.4-0.8,0.5-1.1c0.1-0.3,0-0.5,0.1-1.8c0.1-1.4,0.6-3.9,0.9-5.8c0.4-1.9,0.7-3.2,3.7-6.5c4.1-2,5.4-2,6.6-2s2.3,0,3.1,0.1
			c0.8,0.1,1.3,0.2,1.9,0.5s1.3,0.8,2,1.4s1.4,1.2,2,1.8c0.5,0.6,0.9,1.2,1.3,1.7c0.3,0.5,0.6,0.8,0.8,1.1c0.2,0.3,0.5,0.4,0.7,0.6
			c0.3,0.1,0.6,0.3,0.7,0.5s0.1,0.5,0.1,0.8s-0.1,0.5-0.3,0.7c-0.2,0.2-0.4,0.3-0.5,0.5s-0.1,0.5-0.2,1.6c-0.1,1-0.4,2.7-0.5,3.7
			s-0.1,1.3-0.1,1.7s-0.1,0.8,0,1.4s0.2,1.2,0.3,1.9c0.1,0.7,0.1,1.3-0.1,1.8c-0.1,0.5-0.3,1-0.6,1.5c-0.4,0.5-0.9,1.1-1.2,1.9
			c-0.3,0.8-0.4,1.7-0.6,2.5s-0.5,1.2-0.8,1.7s-0.5,0.8-0.8,1.2c-0.2,0.4-0.4,0.8-0.5,1.3c-0.1,0.4-0.1,0.8-0.1,1.4
			c0,0.5,0,1.1,0.3,1.8c0.3,0.6,0.8,1.2,2.1,2.1c1.4,0.8,3.5,1.8,5.3,2.8c1.7,0.9,3,1.8,4.1,2.6s2.1,1.6,2.7,2.3
			c0.6,0.8,0.7,1.4,1.1,2.5s1,2.6,2.2,5.6"/>
	</g>
	<g>
		<g id="XMLID_4_">
			<g>
				<path class="st7" d="M192.9,94.9c-0.9-0.1-2,0-2.9,0.2s-1.6,0.6-2,1s-0.5,0.8-0.7,1.1c-0.1,0.3-0.2,0.5-0.3,0.9
					s-0.3,0.9-0.4,1.3c-0.1,0.4-0.3,0.8-0.4,1.3c-0.2,0.5-0.4,1.1-0.6,1.7c-0.5-0.2-1.3-0.5-2.7-1.2c0-0.1,0-0.1,0-0.2
					c-0.1-0.4-0.3-1-0.4-1.5s-0.1-1-0.1-1.8c0-0.9,0-2.2,0.1-3c0-0.9,0.1-1.3,0.3-1.8s0.5-0.9,0.9-1.4s1.1-1,1.5-1.5
					c0.4-0.4,0.6-0.8,1-1.1c0.4-0.3,0.9-0.5,1.6-0.7c0.7-0.2,1.6-0.5,2.8-1.3c1.4-0.9,1.9-1.3,2.9-1.2s2.5,0.6,3.3,0.9
					s0.9,0.4,1.2,0.6s0.7,0.6,1.4,1.1c0.8,0.5,1.9,0.9,2.7,1.4c0.7,0.3,1.1,0.6,1.5,1.2c0.1,0.1,0.2,0.3,0.3,0.4
					c0.6,0.9,1.3,2.4,1.6,3.5c0.4,1.1,0.3,1.8,0.3,2.7s-0.1,1.9-0.2,3c-0.2,1-0.5,2.1-0.7,2.8c-0.1,0.4-0.1,0.6-0.2,1.1
					c0-0.3,0-0.5-0.1-0.7l0,0c-0.4-1.3-0.5-2-0.5-2.8c-0.1-0.8-0.2-1.5-0.2-2s-0.1-0.8-0.1-1.1c0-0.3-0.1-0.6-0.2-0.9
					s-0.4-0.5-0.7-0.6c-0.3-0.2-0.5-0.2-0.9-0.4c-0.1-0.1-0.3-0.1-0.4-0.2c-0.3-0.1-0.7-0.3-1.1-0.4c-0.7-0.1-1.5-0.2-2-0.1
					c-0.1,0-0.3,0-0.4,0.1c-0.3,0.1-0.4,0.2-0.6,0.2c-0.3,0.1-0.6,0.2-1,0.1c-0.4,0-0.8-0.1-1.3-0.2
					C194.4,95.1,193.8,94.9,192.9,94.9z"/>
				<path class="st7" d="M185.2,102.9c-0.5,1.1-0.6,1.7-0.8,2.2c-0.1,0.5-0.2,0.8-0.3,0.9c-0.1,0.1-0.2,0.1-0.3,0s-0.1-0.3-0.1-0.5
					s0-0.5,0-0.8s0-0.6,0-1c0-0.3-0.1-0.7-0.6-1.9C184.2,102.4,184.9,102.7,185.2,102.9z"/>
			</g>
		</g>
		<path class="st5" d="M200.1,119.7c0.2,1.1,0.6,2,0.3,3.4"/>
		<path class="st5" d="M193.3,132.3c-0.3-0.2-0.8-0.2-1.2,0s-0.8,0.7-0.8,1.1c0,0.4,0.4,0.7,0.8,0.8c0.4,0.2,0.7,0.2,1,0.2
			s0.5-0.2,0.6-0.4s0.1-0.5,0.1-0.8C193.8,133,193.7,132.5,193.3,132.3z"/>
		<path class="st5" d="M216.2,124.6c3.2,5.6,2.2,8.5,1.4,11.4c-0.8,3-1.3,6-1.6,7.6"/>
		<path class="st5" d="M166.1,129.7c2,1.5,2.8,2.1,3.1,2.9s0.1,1.8,0,3s-0.2,2.5,1.7,5.5"/>
		<path class="st5" d="M184.8,116.2c-0.2,2.6-0.2,3.2-0.1,4.1c0.1,0.9,0.2,2,0.5,2.8c0.4,0.8,1,1.3,1.6,1.8c0.6,0.4,1.3,0.9,1.9,1.2
			c0.6,0.3,1.3,0.6,1.7,0.8s0.7,0.5,1,0.8c0.2,0.2,0.4,0.5,0.6,0.8c0.1,0.3,0.2,0.7,0.3,1s0.3,0.6,0.7,0.8c0.4,0.1,1.1,0.1,1.5,0.4
			s0.7,1,1,1.5c0.3,0.4,0.5,0.7,0.9,0.5s0.8-0.6,1-1.3c0.2-0.6,0.2-1.4,0.4-2.1s0.7-1.3,1.1-2c0.4-0.7,0.7-1.3,0.9-2
			c0.2-0.6,0.5-1.3,0.7-2c0.2-0.8,0.5-1.7,0.4-3.7"/>
		<path class="st5" d="M197.8,104.2c-0.1,0.1-0.1,0.1-0.1,0.3c0,0.2-0.1,0.5-0.1,0.8s0,0.5,0.2,0.8s0.4,0.7,0.7,0.9
			c0.2,0.2,0.4,0.3,0.7,0.5c0.3,0.1,0.8,0.2,1.3,0.3c0.4,0.1,0.7,0,1.1-0.1c0.4-0.1,0.8-0.2,1.2-0.5c0.4-0.2,0.7-0.5,0.9-0.8
			s0.2-0.6,0.3-1c0-0.3,0.1-0.7,0.1-0.9c0-0.2,0-0.5-0.2-0.7s-0.5-0.3-0.7-0.4s-0.4-0.1-0.6-0.2c-0.2-0.1-0.5-0.1-0.7-0.2
			c-0.3,0-0.6,0-0.9,0c-0.4,0.1-0.8,0.2-1.1,0.2c-0.3,0.1-0.6,0.1-0.9,0.2c-0.2,0.1-0.4,0.2-0.6,0.3
			C198,104,197.9,104.1,197.8,104.2z"/>
		<path class="st5" d="M188.8,102.7c0.2-0.1,0.6-0.1,1-0.2c0.4,0,1,0,1.4,0s0.9,0,1.2,0.1s0.5,0.1,0.8,0.3c0.2,0.1,0.5,0.3,0.7,0.4
			s0.3,0.2,0.4,0.3c0.1,0.1,0.2,0.2,0.2,0.4c0.1,0.2,0.1,0.3,0.1,0.5s-0.1,0.6-0.2,0.9c-0.1,0.3-0.3,0.7-0.4,0.9
			c-0.2,0.2-0.4,0.4-0.7,0.5s-0.5,0.2-0.9,0.2c-0.3,0.1-0.8,0.1-1.2,0.1s-0.8-0.1-1.2-0.2c-0.4-0.1-0.7-0.2-0.9-0.4
			s-0.4-0.5-0.6-0.8c-0.1-0.4-0.2-0.8-0.3-1.2s-0.1-0.6,0-0.9s0.2-0.5,0.3-0.6C188.5,102.8,188.6,102.7,188.8,102.7z"/>
		<path class="st5" d="M191.1,94.9c-0.7-0.3-1.7-0.6-2.3-0.7s-1-0.1-2.3,0.4"/>
		<path class="st5" d="M197.9,95.1c-2.2-0.6-3.1-1.3-3.9-1.8c-0.8-0.5-1.3-0.7-2-0.8s-1.6-0.1-2.7,0"/>
		<path class="st5" d="M191.6,90.2c3.7,0.1,5.3,0.9,6.4,1.6c1.1,0.7,1.7,1.3,2.1,1.8s0.7,1,1.3,1.9"/>
		<path class="st5" d="M203.4,90.6c-4.2-1.8-5.1-2.1-5.9-2.3c-0.8-0.2-1.4-0.4-2.1-0.5c-0.7-0.1-1.3-0.1-2.1-0.1s-1.7,0.1-2.5,0.2
			c-0.7,0.1-1.2,0.3-1.6,0.5c-0.4,0.1-0.7,0.3-0.9,0.4s-0.3,0.1-0.6,0.4"/>
		<path class="st5" d="M185.5,102.4c0.2-0.5,0.4-1.2,0.6-1.7s0.3-0.8,0.4-1.3c0.2-0.4,0.3-0.9,0.4-1.3c0.1-0.4,0.2-0.6,0.3-0.9
			s0.2-0.7,0.7-1.1c0.4-0.4,1.1-0.8,2-1s2-0.3,2.9-0.2s1.5,0.2,2,0.3s1,0.2,1.4,0.2s0.7,0,1-0.1s0.4-0.2,1-0.3
			c0.5-0.1,1.3-0.1,2,0.1s1.2,0.4,1.5,0.5c0.4,0.2,0.6,0.3,0.9,0.4c0.2,0.2,0.5,0.3,0.7,0.6c0.2,0.2,0.2,0.6,0.2,0.9
			s0.1,0.6,0.2,1.1c0.1,0.5,0.1,1.3,0.2,2c0.1,0.8,0.1,1.5,0.5,2.8"/>
		<path class="st5" d="M183.2,101.8c0.6,1.2,0.6,1.5,0.6,1.9c0,0.3,0,0.7,0,1c0,0.3,0,0.6,0,0.8s0,0.4,0.1,0.5s0.2,0.2,0.3,0
			c0.1-0.1,0.2-0.5,0.3-0.9c0.1-0.5,0.3-1.1,0.8-2.2"/>
		<path class="st5" d="M182.9,101.1c2.7,1.4,3.2,1.4,3.8,1.4c0.5,0,1-0.1,1.4-0.2s0.6-0.2,0.9-0.3c0.2-0.1,0.5-0.1,1.2-0.1
			s1.8,0.1,2.6,0.1s1.1,0.2,1.3,0.3s0.4,0.2,0.5,0.3c0.2,0.1,0.2,0.2,0.4,0.3s0.4,0.2,0.7,0.3c0.2,0.1,0.5,0.2,0.8,0.2s0.7,0,0.9,0
			s0.3-0.1,0.7-0.2c0.3-0.2,0.9-0.4,1.4-0.6s0.9-0.2,1.3-0.3c0.4,0,0.8,0,1.3,0.1c0.4,0.1,0.9,0.3,1.4,0.4c0.5,0.2,0.9,0.2,1.1,0.5
			c0.2,0.2,0.1,0.7,0,1.2c-0.1,0.6-0.2,1.4-0.4,1.9s-0.5,0.8-0.9,1c-0.4,0.3-0.9,0.5-1.3,0.8c-0.4,0.2-0.6,0.3-1,0.3
			c-0.3,0-0.7,0-1-0.1c-0.4-0.1-0.7-0.2-0.9-0.3s-0.4-0.2-0.5-0.4c-0.1-0.1-0.2-0.2-0.4-0.4s-0.3-0.4-0.5-0.6
			c-0.1-0.2-0.2-0.5-0.3-0.8s-0.3-0.6-0.4-0.8c-0.1-0.2-0.2-0.3-0.4-0.4s-0.4-0.1-0.6,0c-0.2,0-0.4,0-0.6,0.1
			c-0.2,0.1-0.4,0.3-0.5,0.6c-0.2,0.3-0.4,0.8-0.6,1.1c-0.3,0.3-0.6,0.5-1,0.6s-0.9,0.2-1.3,0.3c-0.4,0.1-0.7,0.1-1,0.1
			s-0.6,0-0.9,0s-0.6-0.2-0.9-0.3c-0.2-0.1-0.4-0.3-0.6-0.4c-0.2-0.2-0.3-0.4-0.5-0.6c-0.1-0.2-0.2-0.5-0.3-0.8s-0.1-0.5-0.2-0.8
			c-0.1-0.2-0.2-0.4-0.3-0.6s-0.3-0.3-0.5-0.5s-0.5-0.3-0.8-0.4s-0.8-0.2-3.1-1.4"/>
		<path class="st5" d="M186,115.2c0.9,1.6,2.1,2.3,2.8,2.8s0.9,0.8,1.6,1.2c0.7,0.4,1.9,1,2.9,1.3c0.9,0.3,1.4,0.2,1.9,0.2
			s1-0.1,1.4-0.2c0.5-0.1,1-0.3,1.3-0.5s0.4-0.2,0.6-0.3c0.1-0.1,0.4-0.2,0.8-0.5s1-0.6,1.1-0.7"/>
		<path class="st6" d="M224.2,138.6c-0.5-2.9-1.1-4.2-1.9-6c-0.9-1.7-2-3.9-2.7-5s-0.9-1.3-1.1-1.6c-0.2-0.2-0.5-0.6-1.4-1.1
			s-2.6-1.1-4.8-1.8s-5-1.4-6.8-1.8c-1.8-0.5-2.7-0.7-3.3-1s-1.2-0.7-1.5-1s-0.4-0.4-0.1-0.8c0.2-0.4,0.7-0.9,1.1-1.4
			c0.4-0.5,0.7-0.9,1.1-3c0.5-2.1,1.2-5.8,1.5-7.9c0.3-2.1,0.4-2.4,0.5-3.2c0.1-0.7,0.5-1.7,0.7-2.8c0.2-1,0.2-2.1,0.3-3
			c0-0.9,0-1.6-0.3-2.7c-0.4-1.1-1.1-2.6-1.6-3.5c-0.6-0.9-1-1.2-1.8-1.6s-1.9-0.9-2.7-1.3c-0.8-0.5-1.2-0.8-1.4-1.1
			c-0.3-0.2-0.4-0.4-1.2-0.6c-0.8-0.3-2.3-0.8-3.3-0.9s-1.6,0.3-2.9,1.2c-1.3,0.8-2.1,1.1-2.8,1.3s-1.2,0.4-1.6,0.7
			c-0.4,0.3-0.6,0.7-1,1.1s-1.1,1-1.5,1.5s-0.8,0.9-0.9,1.4c-0.2,0.5-0.2,0.9-0.3,1.8s-0.1,2.2-0.1,3c0,0.9,0,1.3,0.1,1.8
			s0.3,1.1,0.4,1.5c0.1,0.4,0.1,0.6-0.1,0.8c-0.2,0.2-0.5,0.2-0.8,0.4c-0.3,0.2-0.6,0.2-0.8,0.6s-0.3,1-0.2,1.7s0.2,1.6,0.4,2.1
			s0.3,0.8,0.4,1c0.1,0.3,0.2,0.7,0.2,1.1c0.1,0.4,0.1,0.9,0.2,1.3c0.1,0.4,0.2,0.6,0.4,0.8c0.2,0.1,0.5,0.1,0.8,0.1
			c0.3-0.1,0.5-0.1,0.7-0.2c0.2,0,0.4,0.1,0.5,0.7s0.3,1.8,0.4,2.6c0.1,0.8,0.2,1.3,0.1,1.6s-0.2,0.5-0.5,0.7
			c-0.3,0.3-0.7,0.7-1.1,1c-0.3,0.3-0.5,0.6-0.8,1c-0.2,0.4-0.4,0.9-0.6,1.4c-0.2,0.5-0.4,0.9-0.5,1.3c-0.2,0.3-0.2,0.5-0.6,0.8
			c-0.4,0.3-1,0.7-1.8,1.2s-1.8,1.2-3.1,1.9s-2.8,1.3-3.8,1.8s-1.4,0.8-2,1s-1.4,0.5-2.1,0.7c-0.7,0.2-1.2,0.4-1.6,0.7
			c-0.4,0.3-0.6,0.6-0.8,0.9s-0.5,0.6-0.8,0.9s-0.7,0.7-0.9,1s-0.3,0.4-0.7,1.2s-1.3,2-2.8,6.5"/>
	</g>
</g>
</svg>
