<?xml version="1.0" encoding="utf-8"?>
<!-- Generator: Adobe Illustrator 23.0.1, SVG Export Plug-In . SVG Version: 6.00 Build 0)  -->
<svg version="1.1" id="Layer_1" xmlns="http://www.w3.org/2000/svg" xmlns:xlink="http://www.w3.org/1999/xlink" x="0px" y="0px"
	 viewBox="0 0 550.1 550.1" style="enable-background:new 0 0 550.1 550.1;" xml:space="preserve">
<style type="text/css">
	.st0{fill:#606060;}
	.st1{fill:#BFBFBF;}
	.st2{fill:#9B9B9B;}
	.st3{fill:none;stroke:#314584;stroke-width:0.5;stroke-linecap:round;stroke-linejoin:round;}
	.st4{fill:none;stroke:#314584;stroke-width:0.25;stroke-linecap:round;stroke-linejoin:round;}
	.st5{fill:none;}
	.st6{fill:none;stroke:#314584;stroke-linecap:round;stroke-linejoin:round;}
</style>
<g id="XMLID_1_">
	<g>
		<path class="st0" d="M455.4,370c-0.2-1.5-0.5-3-0.9-4.4c-0.3-1.4-0.6-2.8-0.8-4.2c-0.2-1.4-0.3-2.9-0.3-4.9c0-1.9,0.3-4.2,0.3-6.4
			c0-2.2-0.1-4.3-1.1-6.5c-0.4-0.8-0.9-1.6-1.4-2.4c4.3,5.1,6.9,9.7,7.8,13.7v0c-0.1,0.6-0.2,1.2-0.2,1.8c-0.4,3.4-0.4,4.4-0.5,5.7
			c-0.1,0.8-0.1,1.8-0.1,2.9c-0.4,12.1-1.5,13.3-2,13.5c-0.5,0.2-0.6-0.5-0.6-1.5c0-0.9,0-2,0-3.2
			C455.5,372.8,455.6,371.4,455.4,370z"/>
		<path class="st1" d="M441.7,406.5c0.1,0.7,0,1.5-0.3,2.4c-0.3,0.9-0.8,2-1.2,3.2c-0.6,0.5-1.2,1-1.7,1.4c-1,0.9-1.7,1.7-3,2.5
			c-1.3,0.9-3.1,1.8-5.3,2.4c-2.2,0.6-4.9,0.8-7.2,0.8c-2.3,0-4.4-0.4-6.1-0.8c-1.6-0.4-2.9-0.9-3.9-1.6c-1.1-0.7-1.9-1.6-2.9-2.7
			c-0.6-0.6-1.2-1.4-2.1-2.3c2.1,0,2.6-0.4,3-0.7c0.4-0.4,0.7-0.8,1.2-1.3c0.6-0.5,1.4-0.9,2.2-1c0.8-0.1,1.5,0.3,2,0.5
			c0.5,0.3,0.8,0.5,1.1,0.7c0.3,0.2,0.8,0.4,1.3,0.4c0.5,0,1.2-0.1,1.8-0.3c0.6-0.1,1.1-0.3,1.9-0.3c0.8,0,1.8,0.1,2.7,0.2
			c0.9,0.1,1.7,0.1,2.5,0.1c0.8,0,1.6,0,2.4-0.1s1.6-0.3,2.3-0.7c0.7-0.4,1.4-0.8,2.2-1.2c0.8-0.4,1.8-0.7,2.4-1.2
			c0.6-0.5,0.9-1.2,1.1-1.6c0.2-0.4,0.4-0.6,0.9-0.7c0.5-0.1,1.2-0.1,1.7,0.2C441.5,405.3,441.6,405.9,441.7,406.5z"/>
		<path class="st0" d="M440.5,362.6c0.7,1.3,0.7,2,0.7,2.5c0,0.5-0.2,1-0.4,1.3c-0.3,0.3-0.6,0.6-1.2,0.7c-0.6,0.1-1.5,0.2-2.2,0
			c-0.7-0.1-1.1-0.4-1.4-1c-0.3-0.6-0.4-1.4,0.3-3.4c0.5-0.3,1-0.4,1.3-0.4c0.9-0.1,1.9,0,2.8,0.2
			C440.4,362.5,440.4,362.5,440.5,362.6z"/>
		<path class="st0" d="M438.4,323.5c-1.2-0.1-3.4-0.4-5.5-0.6c-2-0.2-3.9-0.4-5.8-0.5c-1.9-0.2-3.8-0.3-5.4-0.5
			c-1.6-0.1-2.8-0.2-4.5-0.2c-1.7,0-3.8,0.1-6.2,0.5c0.2-2.2,0.9-4.1,1.4-5.4c0.7-1.9,1-2.7,1.9-3.3c0.9-0.6,2.3-0.9,4-1.1
			c1.7-0.2,3.6-0.2,6.2,0s5.8,0.6,8.4,1.2c2.6,0.6,4.6,1.4,5.7,2.3c1.1,0.9,1.4,1.8,1.4,2.7c0,0.9-0.2,1.9-0.4,2.7
			c-0.1,0.8-0.1,1.4,0,1.7c0,0.3,0.1,0.4,0.1,0.5c0,0,0,0,0,0.1C439.7,323.6,439.6,323.7,438.4,323.5z"/>
		<path class="st1" d="M429.4,387.9c0.3-0.2,1.1-0.5,1.9-0.9c0.8-0.4,1.6-0.9,2.4-1.3c0.8-0.3,1.7-0.4,2.4-0.4
			c0.7,0,1.3-0.1,1.9-0.1c0.7-0.1,1.5-0.2,2.3-0.1c0.8,0.1,1.5,0.5,2,0.8c0.5,0.3,0.6,0.6,0.8,1.1c0.2,0.4,0.3,1,0.3,1.4
			c0,0.4-0.1,0.6-0.5,0.7c-0.3,0.1-0.8,0-1.7-0.1c-0.9-0.1-2.1-0.4-3.4-0.5c-1.3-0.1-2.6-0.2-3.6-0.3c-0.9,0-1.5,0-2.3,0
			c-0.7,0-1.5,0-2,0C429.5,388.2,429.2,388.1,429.4,387.9z"/>
		<path class="st0" d="M430.1,358c-0.4,0-0.6-0.1-0.3-0.5c0.3-0.5,1-1.3,2.1-2c1-0.7,2.4-1.2,3.6-1.5c1.2-0.3,2.3-0.5,3.4-0.5
			s2.2,0,3.2,0.2c1,0.1,1.7,0.4,2.5,0.7c0.8,0.3,1.6,0.7,2.2,1s0.9,0.7,1,0.9s0,0.5-0.4,0.7s-1,0.2-2,0.2c-1,0-2.3,0-3.7,0.1
			c-1.4,0.1-2.9,0.3-4,0.3c-1.1,0.1-1.8,0.1-2.6,0.1c-0.8,0-1.5,0-2.1,0.1c-0.6,0-1.1,0-1.6,0.1C431,357.9,430.5,358,430.1,358z"/>
		<path class="st0" d="M420.2,357.8c-0.3,0.2-0.6,0.2-1.2,0.2c-0.5,0-1.1-0.1-1.8-0.2c-0.7-0.1-1.5-0.3-2.4-0.3c-1,0-2.1,0-3.4,0.2
			c-1.3,0.2-2.6,0.5-3.5,0.6c-0.9,0.1-1.4,0.1-2.2,0.1c-0.8-0.1-1.8-0.2-2.6-0.4c-0.9-0.2-1.5-0.4-1.7-0.6c-0.1-0.3,0.2-0.6,0.7-1
			c0.4-0.4,1-0.8,1.6-1.1c0.6-0.4,1.2-0.7,1.9-1c0.7-0.3,1.4-0.4,2.4-0.5c1-0.1,2.2-0.1,3.2-0.2c1,0,1.8-0.1,2.5-0.1
			c0.8,0,1.5,0,2.2,0.1c0.8,0.1,1.6,0.4,2.4,1c0.8,0.6,1.6,1.4,1.9,2.1C420.6,357.3,420.5,357.6,420.2,357.8z"/>
		<path class="st0" d="M413.5,363c0.6,1.7,0.4,2.2,0.2,2.6c-0.2,0.4-0.4,0.7-1,0.9s-1.7,0.4-2.4,0.3s-1.1-0.2-1.4-0.6
			c-0.3-0.3-0.6-0.8-0.9-1.5c-0.3-0.6-0.5-1.4,1.2-1.9c0.7-0.1,1.4-0.2,2-0.1C412.2,362.8,412.9,362.9,413.5,363L413.5,363z"/>
		<path class="st1" d="M408.8,391.6c-0.2-0.3-0.4-0.7-0.4-1c-0.1-0.3-0.1-0.4,0.1-0.6c0.2-0.2,0.5-0.3,1.1-0.7
			c0.6-0.4,1.5-0.9,2.2-1.3c0.7-0.4,1.2-0.7,2.1-0.8c0.8-0.1,2-0.1,3-0.1c1,0,2,0.2,2.9,0.3c0.9,0.1,1.8,0.4,2.5,0.6
			c0.7,0.3,1.2,0.6,1.3,0.8c0.1,0.2-0.3,0.1-0.6,0.1c-0.3,0-0.7,0.1-1.3,0.3c-0.6,0.2-1.6,0.5-2.5,0.7c-0.9,0.2-1.9,0.2-2.7,0.2
			c-0.8,0.1-1.6,0.3-2.4,0.5s-1.6,0.5-2.4,0.8c-0.8,0.3-1.5,0.6-2,0.7C409.1,392.3,409,392,408.8,391.6z"/>
		<path class="st0" d="M385.7,347.4c0.5-2.5,8.4-6,14.1-12.5c-0.4,0.4-0.7,0.9-0.9,1.4c-0.7,1.3-1.1,2.9-1.4,4.4
			c-0.2,1.5-0.3,2.9-0.4,4.2c-0.2,1.2-0.5,2.3-1.2,5.2c-0.7,2.9-1.9,7.7-2.9,11c-1,3.3-2,5.2-2.2,7.2c-0.2,2,0.4,4.1,0.7,5.8
			c0.4,1.7,0.5,3,0.4,4.4c-0.1,1.3-0.5,2.7-0.8,3c-0.3,0.3-0.5-0.4-0.9-2c-0.4-1.6-0.9-3.9-1.2-5.6c0-0.1,0-0.2-0.1-0.3
			c-0.3-1.7-0.3-2.5-0.6-3.4c-0.3-0.9-0.8-1.9-1.3-2.8c-0.5-0.9-0.8-1.6-1.2-2.5c-0.3-0.9-0.6-1.9-2.2-2.7c0.3-0.5,0.5-1.1,0.6-1.5
			c0.3-1-0.2-1.5,0.3-6C384.9,352.6,385.2,350.2,385.7,347.4C385.7,347.4,385.7,347.4,385.7,347.4z"/>
	</g>
</g>
<g id="XMLID_4_">
	<g>
		<path class="st0" d="M414.3,88.6c-2.9-0.2-6.6,0-9.6,0.7c-3,0.8-5.3,2.1-6.7,3.4c-1.4,1.3-1.8,2.5-2.2,3.6s-0.7,1.8-1.1,3.1
			c-0.4,1.2-1,2.9-1.5,4.3c-0.5,1.4-0.9,2.6-1.5,4.2c-0.6,1.6-1.3,3.7-2,5.6c-1.8-0.6-4.5-1.8-8.9-4c0-0.2-0.1-0.4-0.1-0.6
			c-0.3-1.4-1-3.3-1.4-5c-0.4-1.7-0.5-3.2-0.5-6.1c0-2.9,0.1-7.2,0.3-10.1c0.1-2.9,0.3-4.5,0.9-6.1c0.6-1.5,1.6-3.1,3.1-4.7
			c1.5-1.6,3.6-3.4,5-4.9c1.4-1.5,2.1-2.8,3.3-3.8c1.2-1,2.9-1.6,5.2-2.4c2.3-0.7,5.2-1.6,9.4-4.3c4.5-3,6.4-4.2,9.8-4
			c3.4,0.2,8.3,1.9,11,2.9c2.7,1,3,1.3,3.9,2.1c0.9,0.8,2.2,2.1,4.7,3.6c2.5,1.5,6.3,3.1,8.9,4.5c2.2,1.1,3.5,1.9,5,3.9
			c0.3,0.4,0.7,0.9,1,1.4c1.9,3,4.3,8.1,5.4,11.8c1.2,3.7,1.1,6.1,1,9c-0.1,2.9-0.2,6.5-0.8,10c-0.6,3.5-1.7,7-2.2,9.3
			c-0.3,1.2-0.4,2.1-0.6,3.7c0.1-1,0.1-1.8-0.2-2.4h0c-1.4-4.3-1.6-6.8-1.8-9.3c-0.2-2.5-0.5-5-0.8-6.7s-0.4-2.7-0.5-3.8
			c-0.1-1-0.2-2.1-0.7-3c-0.5-0.9-1.4-1.5-2.3-1.9c-0.9-0.5-1.6-0.8-2.9-1.3c-0.4-0.2-0.9-0.4-1.4-0.7c-1-0.4-2.2-0.9-3.7-1.2
			c-2.2-0.4-5-0.5-6.7-0.3c-0.5,0.1-0.9,0.1-1.2,0.2c-0.9,0.2-1.4,0.5-2,0.7c-0.9,0.3-2,0.5-3.3,0.4c-1.3-0.1-2.8-0.4-4.5-0.8
			C419.3,89.2,417.2,88.8,414.3,88.6z"/>
		<path class="st0" d="M436.1,123.6c-0.4-0.3-0.8-0.7-0.9-1.1c-0.2-0.4-0.2-0.8-0.2-1.2c0-0.5,0-1,1.4-2.4v0c0.4,0,0.7,0,1,0
			c0.9,0,1.8,0.1,2.5,0.3c0.4,1.3,0.5,1.7,0.5,2.2c0,0.4-0.1,0.9-0.3,1.3c-0.2,0.4-0.6,0.8-1,1c-0.4,0.2-0.8,0.4-1.4,0.3
			C437.1,124,436.5,123.8,436.1,123.6z"/>
		<path class="st0" d="M435.6,112.9c2.4-0.1,5.6,0.3,8.5,1.1c-1.4-0.2-2.7-0.2-3.9-0.1c-1.4,0.1-2.8,0.4-4.4,0.9
			c-1.6,0.6-3.5,1.4-4.6,1.9c-0.5,0.2-0.8,0.4-1.1,0.5c-1.1-0.9-0.4-2.1,0.7-2.9C431.9,113.4,433.2,113,435.6,112.9z"/>
		<path class="st0" d="M410,116.2c0.9,0.1,1.5,0.1,2.2,0.4c0.5,1.6,0.2,2.7-0.1,3.5c-0.4,0.8-0.8,1.4-1,1.6
			c-0.2,0.2-0.2,0.3-0.3,0.3c-0.1,0-0.2,0-0.3,0c-0.2,0-0.4,0-0.7-0.1c-0.4-0.1-0.8-0.4-1.2-0.8c-0.4-0.4-0.6-0.8-0.8-1.5
			c-0.2-0.7-0.3-1.5,0.4-3.5C408.9,116.1,409.5,116.1,410,116.2z"/>
		<path class="st0" d="M407.6,110c1.3,0,2.7,0,4.1,0c1.4,0.1,2.9,0.2,4.2,0.5c1.4,0.4,2.7,0.9,3.8,1.4c1.1,0.5,2.1,0.9,2.7,1.4
			c0.5,0.5,0.7,1.3-0.1,2.9c-0.6-0.3-1.1-0.5-1.5-0.8c-0.6-0.4-1-0.7-1.5-1.1c-0.5-0.4-1-0.8-1.8-1.2c-0.8-0.3-1.9-0.6-4.3-0.9
			c-2.4-0.2-6.2-0.4-8.5-0.4c-2.3,0-3.1,0.2-3.9,0.4c-0.2,0.1-0.4,0.1-0.6,0.2c0.9-1.5,2.3-2.1,3.6-2.4
			C405.2,110.1,406.3,110.1,407.6,110z"/>
		<path class="st0" d="M388.7,115.2c-1.5,3.6-2.1,5.7-2.5,7.3c-0.4,1.6-0.6,2.6-0.9,3c-0.3,0.4-0.7,0.3-0.9,0
			c-0.2-0.4-0.3-0.9-0.3-1.6c0-0.7,0-1.6,0-2.6c0-1-0.1-2.1-0.1-3.3c-0.1-1.1-0.2-2.3-2.1-6.3C385.3,113.6,387.4,114.6,388.7,115.2z
			"/>
	</g>
</g>
<g id="XMLID_3_">
	<g>
		<path class="st2" d="M186.9,77.6l1.7-2.1c2.9,2.8,6.7,6.3,8.8,9.2c2.6,3.5,2.8,5.9,4.1,10.3c1.3,4.4,3.9,10.9,4.8,15.6
			c0.1,0.7,0.2,1.4,0.3,2c0.4,3.6-0.1,6.1-0.6,9.5c0,0.2-0.1,0.5-0.1,0.8c0-0.1-0.1-0.1-0.1-0.2c-1.3-2.2-2.7-5.6-11.8-23.9
			c0,0,0,0,0,0c-0.4-1.7-0.8-3.4-1.3-4.7c-0.9-2.4-2.2-3.7-4.3-6.2c-2.2-2.4-5.2-6-8.2-8.3c0,0-0.1-0.1-0.1-0.1
			C183.8,78,185.8,77.6,186.9,77.6z"/>
		<path class="st2" d="M204.8,133.8c-0.1,0.4-0.1,0.8-0.2,1.2c-0.4,2.4-0.9,4.4-1.5,6.2c-2.2-3.9-3.1-7-3.5-9.3
			c-0.4-2.4-0.4-4.1-0.5-6.6c0-1.6-0.1-3.4-0.2-5.3C199.3,126.6,202.1,130.8,204.8,133.8z"/>
		<path class="st2" d="M194.2,98.7c9.1,18.3,10.4,21.6,11.8,23.9c0,0.1,0.1,0.2,0.1,0.2c-0.4,3.4-0.8,7.5-1.3,11
			c-2.7-3-5.4-7.2-5.9-13.8c0,0,0-0.1,0-0.2c-0.1-1.1-0.2-2.2-0.3-3.2c-0.4-2.9-1-5.6-1.6-7.7c-0.6-2.1-1.2-3.7-1.9-6.3
			C194.8,101.5,194.5,100.1,194.2,98.7z"/>
		<path class="st2" d="M188.7,75.5l-1.7,2.1c-1.1,0-3.1,0.3-6.7,1.9c0,0,0,0,0,0c-2.9-2.2-5.6-3-8.5-3.4c-1.3-0.2-2.6-0.3-3.9-0.4
			c2.7-1.3,4-2.9,5.2-4s2.2-1.8,3.1-2.3c0.8-0.5,1.5-0.8,5.7-1.1c2,1.6,2.8,2.9,5.1,5.4C187.4,74.3,188,74.9,188.7,75.5z"/>
		<path class="st2" d="M185.9,118.1c0.4,0.8,0.4,1.4,0.4,2c0,0.5-0.1,1-0.4,1.3c-0.2,0.4-0.6,0.6-1.2,0.8c-0.4,0.1-0.8,0.2-1.3,0.2
			c0,0,0,0,0,0c-0.5,0-1,0-1.6-0.1c-0.3,0-0.5-0.1-0.7-0.2c-0.4-0.2-0.8-0.4-1-0.7c-0.3-0.3-0.4-0.7-0.5-1.1c-0.1-0.4-0.2-1,0.4-2.2
			c0.1,0,0.2-0.1,0.3-0.1c1-0.2,1.9-0.3,2.8-0.3c0.9,0,1.7,0.1,2.4,0.3C185.7,118,185.8,118,185.9,118.1z"/>
		<path class="st2" d="M181.3,110.4c-1.6,0-3.3,0.1-4.5,0.1s-1.8,0-1.3-0.4c0.5-0.4,2.2-1.1,4.5-1.6c2.3-0.5,5.3-0.7,7.2-0.5
			c1.9,0.2,2.9,0.8,3.6,1.4c0.8,0.6,1.5,1.4,1.9,1.9c0.5,0.6,0.7,1,0.6,1.4c-0.1,0.4-0.5,0.6-1.5,0.5c-0.9-0.1-2.3-0.6-3.4-1.1
			s-2-1.1-3.2-1.4C184.2,110.4,182.9,110.4,181.3,110.4z"/>
		<path class="st2" d="M167.8,75.7c-1.4-0.1-2.7,0-4,0v0c0-1.8-0.9-2.7-1.8-3.7c-1-1-2.1-2-9-9c1.7-0.2,3.6-0.3,6-0.4
			c12.7-0.5,18.3,2.5,21.4,4.7c0.5,0.3,0.9,0.7,1.3,1c-4.1,0.3-4.8,0.6-5.7,1.1c-0.9,0.5-1.9,1.2-3.1,2.3S170.5,74.4,167.8,75.7z"/>
		<path class="st2" d="M156,76.5c-2.1,0.4-4,1.1-6.2,1.8c-2.1,0.6-4.4,1.2-6.5,2.1c-3.7,1.6-6.6,2-8.6,2.4s-3.4,0.8-5.5-0.4
			l-2.8-0.6c1.8-2.9,4.1-6.3,6.5-9c2.8-3,5.9-5.1,9.1-6.8c2.5-1.3,5.1-2.4,10.9-3c6.9,7,8,8,9,9c1,1,1.8,1.9,1.8,3.7v0
			c-0.2,0-0.5,0-0.7,0C160.5,75.8,158.1,76,156,76.5z"/>
		<path class="st2" d="M149.2,116.9c1,0.2,0.9,1.2,0.9,1.7c-0.1,0.5-0.6,0.7-0.3,1c0.4,0.3-0.6,1.1-0.9,1.3
			c-0.4,0.2-1.4,0.1-1.8,0.2c-0.1,0-0.2,0-0.2,0c0,0,0,0,0,0c-0.2,0-0.4,0-0.6,0c0,0-0.1,0-0.1,0c-0.1,0-0.2-0.1-0.3-0.1
			c-0.4-0.2-0.9-0.6-1.2-0.9c-0.3-0.3-0.4-0.6-0.4-0.9c0-0.3-0.1-0.8,0.4-2.2c0.2,0,0.3-0.1,0.5-0.1c0.6-0.1,1.5-0.1,2.3-0.1
			C148,116.7,148.6,116.7,149.2,116.9C149.1,116.9,149.2,116.9,149.2,116.9z"/>
		<path class="st2" d="M149.6,109.5c-1.6,0.1-3.6,0.6-5.2,0.9c-1.6,0.3-2.8,0.5-4.3,0.7c-1.4,0.2-3.1,0.3-3.2,0
			c-0.1-0.4,1.2-1.2,2.7-2c1.5-0.8,3-1.5,4.9-1.9c1.9-0.3,4.1-0.2,6.2,0.1c2.1,0.3,4,0.8,5.2,1.3c1.3,0.6,1.9,1.3,2.1,1.8
			c0.2,0.4-0.1,0.6-0.9,0.5c-0.8-0.2-2.2-0.7-3.4-1C152.3,109.5,151.2,109.4,149.6,109.5z"/>
		<path class="st2" d="M134,90.4C134,90.4,134,90.4,134,90.4c-0.6,2.2-1,4.8-1.2,7.2c-0.2,2.5-0.3,4.8-0.9,7c-0.6,2.2-1.7,4.2-2.9,6
			c-1.1,1.7-2.3,3.2-2.9,5.1c-0.6,1.9-0.5,4.1-0.6,5.7c0,0.5-0.1,1-0.2,1.3c0,0,0,0.1,0,0.2c-0.2,0.7-0.4,1.1-0.7,1.2
			c-0.5,0.2-1.2-0.3-2.2-1.8c-1-1.5-2.3-4-5.4-3.2c0.2-0.3,0.4-0.7,0.6-1.1c0.5-1.4,0.7-3.8,1-6.1s0.7-4.5,1.2-8l2.2,0.1
			C123.5,100.8,130.9,96.4,134,90.4z"/>
		<path class="st2" d="M126.5,146.8c0,5.9,1.2,8.6,2,10.4c0.8,1.8,1.2,2.9,1.6,3.6c0.2,0.5,0.4,0.9,0.9,1.6
			c-0.4,10.9,0.2,14.4,0.4,17.1c0,0.3,0,0.5,0,0.8c-4.7,3.6-6,5.4-7.1,6.6c-1,1.2-1.8,2-2.5,2.4s-1.3,0.4-2.4,0.4
			c-1.1,0.1-2.6,0.2-4.2,0.5c-1.6,0.2-3.2,0.6-10.1,3.9c1.3-1,2-2.3,2.7-3.8c1.1-2.5,2.1-5.8,3.5-8.6c1.4-2.8,3-5,4.7-7.4
			c1.7-2.4,3.5-5.1,5.1-8.7c1.5-3.7,2.7-8.3,3.2-11.5c0.5-3.1,0.3-4.8-0.6-6.3c-0.3-0.6-0.7-1.1-1.2-1.6
			C123.9,147.6,125.2,147.8,126.5,146.8z"/>
		<path class="st2" d="M136.9,84.8c-1.5,1.6-2.3,3.4-2.9,5.6c-3.1,6-10.5,10.5-11.9,13.4l-2.2-0.1c0.5-3.5,1-8.2,1.8-11.7
			c0.9-3.5,2.1-5.9,4-9c0.2-0.4,0.5-0.8,0.7-1.2l2.8,0.6c2.1,1.2,3.4,0.8,5.5,0.4s4.9-0.8,8.6-2.4c-0.1,0.1-0.3,0.1-0.4,0.2
			C140.6,81.7,138.4,83.1,136.9,84.8z"/>
	</g>
</g>
<g id="XMLID_2_">
	<g>
		<path class="st0" d="M176.6,350.7c-3.2,0-7.5,0.3-10.2,0.6c-2.8,0.4-3.9,0.9-5.2,1.3c-0.5,0.2-1,0.3-1.4,0.5
			c-0.8-2.3,0.3-2.3,1.1-2.6c0.8-0.3,1.2-0.7,2-1.3c0.8-0.6,1.9-1.2,2.8-1.6c0.9-0.4,1.6-0.6,2.8-0.7c1.2-0.1,2.8-0.2,4.5,0
			C174.6,347.2,176.6,347.5,176.6,350.7z"/>
		<path class="st0" d="M170.4,355.4c0.7,0,1.6,0,2.5,0.1c0.8,0.1,1.7,0.4,2.5,0.7v0c0.1,2.1-0.1,2.8-0.4,3.3
			c-0.3,0.5-0.7,0.7-1.5,0.9c-0.8,0.1-1.9,0.2-2.8,0.1c-0.9-0.1-1.5-0.4-1.8-0.7c-0.3-0.4-0.5-0.8-0.5-1.4c0-0.6,0.1-1.3,1.1-2.9
			C169.7,355.5,170,355.4,170.4,355.4z"/>
		<path class="st0" d="M196,357.4c0.1-0.3,0.1-0.4-0.2-0.6c-0.2-0.2-0.7-0.5-1.1-0.8c-0.5-0.3-0.9-0.5-1.7-0.8c-0.8-0.2-2-0.5-3-0.6
			c-0.2,0-0.5-0.1-0.7-0.1c-0.8-3.6-0.8-4.4-1-5.2c-0.2-0.8-0.6-1.4-1.1-2.3c-0.6-0.8-1.3-1.9-1.7-2.8c-0.5-0.9-0.7-1.8-1-2.7
			c-0.3-0.9-0.6-1.9-1.3-3.6c-0.7-1.7-1.9-4.1-2.7-5.4c-0.8-1.4-1.3-1.8-2.2-2.3c-0.9-0.5-2.3-1.1-4.4-1.6c-2.2-0.4-5.1-0.7-7-0.8
			c-1.9-0.1-2.8-0.2-3.6,0.4c-0.9,0.6-1.8,1.7-2.5,2.1c-0.7,0.4-1.2,0-2.7-0.3c-0.1,0-0.2,0-0.3-0.1c-1.5-0.3-3.7-0.6-5.3-0.5
			c-0.4,0-0.8,0.1-1.1,0.1c-1.1,0.2-1.9,0.5-2.5,0.6c-0.5,0.1-0.9,0-1.3-0.1c-0.4-0.1-0.9-0.2-1.6-0.4c-1.3-0.3-3.3-0.5-5.4-0.5
			c-0.4,0-0.8,0-1.3,0c-1.8,0-3.5,0.2-4.8,0.7c-1.7,0.6-2.6,1.5-3.8,2.7c-1.1,1.2-2.4,2.5-3.7,4.2c-1.3,1.7-2.6,3.7-3.2,5.4
			c-0.6,1.7-0.6,3-0.3,4.7c0.2,1.7,0.7,3.7-1,8.4c-0.1,0.1-0.2,0.1-0.3,0.2c-1,0.7-1.9,1.7-4.4,2.8c0.1-1.5,0.3-3.3,0.2-5.8
			c-0.1-2.9-0.4-6.7-0.6-9.5c-0.2-2.8-0.1-4.8,0.4-7.1c0.5-2.4,1.4-5.2,2.7-7.8c1.3-2.6,3-5,4.1-6.9c1.2-1.9,1.8-3.2,3.2-4.6
			c1.4-1.4,3.7-2.7,13.8-10.8c3.2-2.6,8.3-2.8,12-3c3.7-0.3,6-0.6,8.1-0.5c2,0.1,3.7,0.6,5.7,1.1c2,0.5,4.3,1,6,1.7
			c1.8,0.7,3.1,1.6,4.4,2.5c1.4,0.9,2.7,1.6,3.7,1.9c0.9,0.2,1.3-0.1,1.8,0.2c0.4,0.3,0.9,1.2,1.4,2.2c0.5,0.9,1,1.9,1.9,2.4
			c0.9,0.5,2.3,0.5,3.4,1.3c1.1,0.8,1.9,2.4,2.6,4.8c0.7,2.4,1.3,5.6,1.9,8c0.7,2.4,1.5,4.1,1.9,7.5c0.4,3.4,0.3,8.4,0.6,11.7
			c0.3,3.4,0.8,5.1,1.1,6.6c0.2,1.5,0,2.8,0,3.7c0,0.5,0.1,0.9,0.4,1.1c-1.4,1.8-2.7,2.9-3.4,4c-0.7,1.1-0.9,2-1,2.9
			c-0.1,0.9-0.2,1.8-0.5,2.5c-0.3,0.7-0.9,1.3-1.2,1.4c-0.3,0.1-0.4-0.1-0.3-0.6c0.1-0.5,0.3-1.2,0.3-2.7c0-1.4-0.2-3.6-2-7.5
			c1-0.2,2.1-0.3,3-0.4c1.2-0.1,1.9-0.1,2.3-0.3C195.8,358.1,195.9,357.6,196,357.4z"/>
		<path class="st0" d="M139.5,358c0.3,2.9,0.2,3.5-0.3,3.8c-0.4,0.4-1.1,0.6-1.8,0.7c-0.7,0.1-1.3,0.2-1.8,0.2
			c-0.5,0-0.8-0.2-1.1-0.6c-0.3-0.4-0.6-1-0.7-1.4c-0.1-0.5,0-0.9,0.1-1.5c0.1-0.5,0.3-1.3,1.1-1.5c0.4-0.1,0.8-0.1,1.2-0.2
			c0.9-0.1,1.8,0,2.4,0.1C138.9,357.9,139.2,357.9,139.5,358z"/>
		<path class="st0" d="M129.7,353.4c-1.8,0.1-3,0.3-4.1,0.5c1.2-1.6,1.9-2.1,2.3-2.5c0.4-0.4,0.6-0.6,1.6-1c1-0.4,2.7-1,4.4-1.3
			c1.7-0.3,3.4-0.3,8.2,1.6c0.9,0.3,1.2,1.2,1.1,2.5v0c-0.8-0.1-1.5-0.1-2.3-0.1c-1.2,0-2.5,0-4.5,0.1
			C134.5,353.3,131.8,353.3,129.7,353.4z"/>
	</g>
</g>
<line class="st3" x1="429.3" y1="141" x2="430.8" y2="141"/>
<line class="st4" x1="419.7" y1="147.2" x2="418" y2="147.3"/>
<path class="st4" d="M419.7,147.2c1.6-0.1,2.2,0.2,2.7,0.4c0.5,0.2,1,0.2,1.7,0.2c0.7,0,1.7-0.1,2.3-0.1c0.6,0,2.2,0.8,5.1,2.1"/>
<path class="st3" d="M409.2,385.6c-1.1,4.5-1.3,5-1.4,8.1"/>
<path class="st3" d="M424.4,390.2c0.8,0.3,1.7,0.3,2.5,0.2c0.8-0.1,1.7-0.4,2.5-0.6c0.8-0.2,1.7-0.3,2.9-0.4c1.2,0,2.8,0,5.7,1.5"/>
<path class="st3" d="M157.8,329.9c5.5-5.3,9.5-6.7,17.1-7.4"/>
<path class="st3" d="M148.9,311c2.8-2.2,6-1.3,7.8-0.7c1.8,0.6,2.1,0.8,3.7,0.8c1.6,0,4.5-0.2,6.7-0.2c2.2,0,3.7,0.3,5,0.7
	c1.3,0.4,2.3,0.9,3.9,1.7c1.6,0.8,3.7,1.8,5.1,2.8s2,2.1,2.6,3.2c0.5,1.2,1,2.4,1.4,4.1"/>
<path class="st3" d="M117.7,358.3c2.5-1.1,3.4-2.1,4.5-2.8c1-0.7,2.1-1.1,3.3-1.5c1.2-0.3,2.4-0.5,4.4-0.6c2-0.1,4.8-0.1,6.8-0.1
	c2,0,3.2-0.1,4.5-0.1c1.2,0,2.5,0,3.8,0.4c1.3,0.4,2.8,1.1,3.6,1.5c0.9,0.5,1.2,0.7,1.6,1c0.4,0.2,0.9,0.4,1.7,0.4
	c0.8-0.1,1.9-0.4,2.8-0.8c0.9-0.4,1.4-0.9,2.5-1.4c1.1-0.5,2.7-1,4-1.5c1.3-0.5,2.4-1,5.2-1.3c2.8-0.4,7.3-0.6,10.5-0.6
	c3.2,0,5.2,0.2,6.7,0.7c1.5,0.5,2.6,1.3,3.2,1.9s0.7,0.8,1.1,0.9c0.4,0.2,1.2,0.2,2.2,0.4c1,0.2,2.2,0.4,3,0.6
	c0.8,0.2,1.2,0.5,1.7,0.8c0.4,0.3,0.9,0.5,1.2,0.8c0.2,0.2,0.2,0.3,0.2,0.6c-0.1,0.3-0.2,0.7-0.5,0.9c-0.4,0.2-1.1,0.2-2.3,0.3
	c-1.2,0.1-3,0.4-4,0.6c-1,0.2-1.4,0.3-1.7,0.6c-0.3,0.3-0.7,0.7-1.2,1.5c-0.5,0.7-1.1,1.8-1.6,2.5c-0.5,0.7-1,1.2-1.5,1.6
	c-0.6,0.4-1.2,0.7-2.7,1.2c-1.5,0.5-3.7,1.1-5.7,1.4c-1.9,0.2-3.5,0-5.6-0.1c-2-0.1-4.5-0.2-6.2-0.3c-1.6-0.1-2.4-0.1-3.1-0.5
	c-0.8-0.4-1.6-1-2.2-1.8c-0.6-0.8-1.1-1.8-1.4-2.8c-0.3-1-0.6-2.1-0.9-2.9s-0.7-1.1-1.3-1.3c-0.7-0.2-1.7-0.2-2.4,0
	c-0.7,0.2-1.2,0.6-1.7,1.8c-0.5,1.2-1,3.3-1.4,4.5c-0.4,1.2-0.6,1.6-1,2.1c-0.5,0.4-1.2,0.9-2,1.4c-0.8,0.5-1.6,1-2.7,1.2
	s-2.4,0-4.6-0.1c-2.2,0-5.4,0.2-8.1,0.1c-2.7-0.1-4.9-0.4-6.3-1c-1.4-0.5-2.1-1.2-2.7-1.9c-0.6-0.7-1.1-1.4-1.7-2
	c-0.5-0.6-1-1.1-1.9-1.3"/>
<path class="st3" d="M123.4,356.3c-0.4,0.2-1.4,0.6-1.9,1.1c-0.5,0.5-0.6,1-0.6,1.6c0,0.7,0,1.5,0.1,2.3c0.1,0.8,0.3,1.7,0.4,2.4
	c0.2,0.7,0.3,1.1,0.4,1.5c0.2,0.4,0.3,0.9,0.7,1.2c0.3,0.4,0.9,0.7,1.6,1c0.8,0.3,1.8,0.5,2.6,0.7c0.8,0.2,1.4,0.4,3.9,0.5
	c2.5,0.1,6.9,0,9.5-0.3c2.6-0.3,3.5-0.9,4.3-1.4c0.8-0.5,1.4-1,1.9-1.7c0.5-0.7,1-1.6,1.2-2.8c0.3-1.2,0.4-2.7,0.3-3.7
	c-0.1-1.1-0.2-1.7-0.8-2.2c-0.5-0.5-1.4-1-2.3-1.3c-1-0.3-2-0.5-4.6-0.6c-2.6-0.1-6.6-0.1-9.2,0c-2.6,0.1-3.7,0.3-4.7,0.6
	c-1,0.3-2,0.6-2.4,0.8C123.5,356,123.8,356.1,123.4,356.3z"/>
<path class="st3" d="M158.8,354.8c-0.8,0.5-1.6,1-2,1.6c-0.4,0.5-0.3,1.1-0.2,1.7c0.1,0.6,0.3,1.2,0.5,1.9c0.2,0.7,0.5,1.4,0.9,2.1
	c0.4,0.7,0.8,1.3,1.3,1.9c0.5,0.6,0.9,1,1.8,1.4c0.8,0.4,2,0.7,3.7,0.9c1.7,0.2,3.9,0.3,5.9,0.3c2.1,0,4-0.1,5.8-0.4
	c1.8-0.3,3.4-0.8,4.7-1.4c1.3-0.6,2.1-1.2,2.6-2c0.5-0.9,0.5-2.1,0.5-3.4c0-1.4-0.1-2.9-0.2-3.9c-0.1-1-0.3-1.5-0.7-1.9
	s-1.1-0.8-2.2-1c-1.2-0.2-2.8-0.3-5-0.3c-2.1,0-4.7,0-6.7,0c-2,0.1-3.5,0.3-4.7,0.5c-1.3,0.2-2.3,0.4-3.3,0.8
	C160.4,353.9,159.6,354.3,158.8,354.8z"/>
<path class="st3" d="M163.5,359.9c2.9-3.1,3.9-3.7,4.7-4c0.8-0.3,1.4-0.4,2.2-0.5c0.7,0,1.6,0,2.5,0.2c0.9,0.2,2,0.4,2.8,0.8
	s1.4,0.9,2,1.3c0.5,0.4,1,0.8,1.3,1.1c0.3,0.3,0.6,0.5,0.6,0.6c0,0.2-0.2,0.3-1,0.5c-0.9,0.2-2.4,0.4-3.4,0.7"/>
<path class="st3" d="M169.4,355.5c-1,1.6-1.1,2.3-1.1,2.9c0,0.6,0.1,1,0.5,1.4c0.4,0.3,0.9,0.6,1.8,0.7c0.9,0.1,2,0.1,2.8-0.1
	c0.8-0.1,1.2-0.4,1.5-0.9c0.3-0.5,0.6-1.2,0.4-3.3"/>
<path class="st3" d="M128.5,361.7c2.7-2.4,3.7-3,4.6-3.4c1-0.4,2-0.6,2.9-0.7c0.9-0.1,1.8,0,2.4,0.1c0.7,0.1,1.2,0.3,1.5,0.5
	c0.4,0.2,0.6,0.3,1,0.6c0.4,0.3,0.8,0.6,1.3,0.9c0.4,0.3,0.9,0.5,1,0.7c0.1,0.2,0,0.5-1.3,1.3"/>
<path class="st3" d="M134.9,357.8c-0.8,0.2-1,0.9-1.1,1.5c-0.1,0.6-0.2,1-0.1,1.4c0.1,0.5,0.4,1.1,0.7,1.4c0.3,0.4,0.7,0.5,1.1,0.6
	c0.5,0,1.1,0,1.8-0.2c0.7-0.1,1.4-0.3,1.8-0.7c0.4-0.4,0.5-1,0.3-3.8"/>
<path class="st3" d="M146.3,372.3c-1.2,2.7-1.6,3.2-1.9,3.6c-0.3,0.4-0.5,0.8-0.6,1.3c-0.1,0.5-0.2,1-0.2,1.5c0,0.5,0.2,1,0.6,1.4
	c0.5,0.4,1.2,0.7,1.6,0.8"/>
<path class="st3" d="M150.5,380c0.3-0.4-0.2-0.9-0.8-1.3s-1.5-0.5-2.1-0.3c-0.6,0.2-1,0.8-1.1,1.2c0,0.4,0.3,0.7,0.7,0.9
	c0.4,0.1,0.8,0.1,1.4,0.1C149.2,380.5,150.2,380.3,150.5,380z"/>
<path class="st3" d="M156.9,379.2c-0.1-0.4,0.6-1.2,1.1-1.7c0.6-0.5,1-0.6,1.6-0.6c0.6,0,1.3,0.1,1.7,0.3c0.4,0.2,0.5,0.3,0.2,0.7
	c-0.2,0.3-0.8,0.9-1.4,1.2c-0.5,0.3-1,0.4-1.7,0.5C157.8,379.6,157,379.6,156.9,379.2z"/>
<path class="st3" d="M162.1,369.4c2.2,2.5,3.1,3.2,3.6,4c0.5,0.8,0.6,1.6,0.4,2.4c-0.2,0.8-0.6,1.6-0.9,2.3c-0.4,0.6-0.7,1-2.6,1.5"
	/>
<path class="st3" d="M166.1,374.7c5.6,5,8.9,8.7,9.3,10"/>
<path class="st3" d="M141.3,378.7c-0.8,2.7-3.6,5.4-5.9,6.8"/>
<path class="st3" d="M140.3,394.3c4.1-0.1,5.5-0.5,6.7-0.8c1.3-0.2,2.3-0.2,3.6-0.2c1.3,0,2.7,0.1,3.8,0.1c1.1,0,2,0,2.9-0.2
	c1-0.2,2.1-0.5,3.3-0.7c1.2-0.2,2.4-0.3,3.6-0.4c1.2-0.1,2.3-0.1,3.2-0.1s1.6,0.2,6-0.3"/>
<path class="st3" d="M152.7,405.2c2.5-0.6,5.5-0.7,9.2-0.5"/>
<path class="st3" d="M138.9,412.6c6.8,5.2,8.6,5.8,10.1,6.1c1.4,0.3,2.5,0.2,3.9,0.2c1.4-0.1,3.1-0.1,5.2-0.2
	c2.2-0.1,4.8-0.1,7.1-0.6c2.3-0.5,4.4-1.4,7.2-2.9c2.7-1.4,6.2-3.4,9-5.8c2.9-2.4,5.2-5.2,6.5-7c1.3-1.8,1.5-2.7,1.7-5"/>
<path class="st3" d="M139.9,416.5c2.2,10.5,3.1,12.3,3.6,13.8c0.5,1.5,0.4,2.6,0.3,4.1c-0.1,1.5-0.3,3.2-0.6,5.3
	c-0.3,2-0.6,4.4-0.2,6.7c0.4,2.3,1.6,4.6,2.4,6.5c0.8,1.9,1.3,3.4,1.8,4.6c0.5,1.3,0.9,2.3,1.7,2.8c0.8,0.5,2,0.5,3.3-0.7
	c1.3-1.2,2.8-3.5,5.5-5.1s6.6-2.4,9.3-3.7s4.1-3.1,5.6-4.7c1.5-1.6,3-3.1,4.4-4.6c1.3-1.4,2.5-2.9,4.4-4.8c1.9-1.9,4.6-4.4,6.3-6.3
	c1.7-1.9,2.5-3.4,3.3-4.7c0.8-1.4,1.5-2.6,2.5-3.9c0.9-1.3,2-2.8,2.9-4.1c0.9-1.4,1.7-2.6,2.2-4.2c0.5-1.6,0.8-3.4,0.9-7.6"/>
<path class="st3" d="M193.9,402.7c1.4,6.6,2.3,11.4,2.9,14.2"/>
<path class="st3" d="M172.8,445.9c8.7,0.5,9.7,5.2,10.6,8.4c0.9,3.2,1.6,4.9,1.3,6.3c-0.3,1.4-1.6,2.6-2.8,3.4
	c-1.2,0.8-2.3,1.4-2.5,1.9c-0.3,0.5,0.3,1.1,1.8,0.9c1.5-0.2,4.1-1,6.5-2.6c2.4-1.6,4.8-4,6.9-6.5c2.1-2.5,4.1-5,5.6-7.6
	c1.6-2.6,2.8-5.3,4.3-8.6c1.5-3.4,3.3-7.5,7.5-12.1"/>
<path class="st3" d="M131.9,428.8c-5.1,9.2-6.4,12.3-7.5,14.5c-1.1,2.2-2,3.6-3,4.9c-1,1.3-2.2,2.6-3.3,3.8c-1.1,1.2-2,2.4-3.2,3.1
	c-1.1,0.7-2.5,1-3.4,1.4c-0.9,0.4-1.4,1-2,1.5c-0.5,0.5-1.1,1-0.7,1.1c0.5,0.1,2-0.1,3.6-0.5c1.7-0.4,3.5-0.9,5.1-1.7
	c1.6-0.8,3-1.8,3.9-2.9c0.9-1.1,1.2-2.2,1.9-3.6c0.7-1.4,1.7-3.2,2.5-4.2s1.5-1.1,1.9-0.9c0.4,0.2,0.4,0.8,0.2,1.6
	c-0.2,0.8-0.5,1.8-0.4,2.7s0.5,1.8,1.3,2.8c0.8,1.1,1.8,2.3,2.8,3.5c1,1.2,1.9,2.2,2.5,2.8c0.6,0.6,0.9,0.6,2.4,0.7
	c1.4,0.1,4,0.3,5.7,0.5s2.5,0.3,7.1,0.4"/>
<path class="st3" d="M149.4,460.5c-4.7,3.8-8,5.2-9.7,6.4c-1.7,1.2-1.8,2.3-1.9,4.2c-0.1,1.9-0.1,4.6-2.4,7.1"/>
<path class="st3" d="M148.3,465.7c-0.7,0.2-1.1,0.6-1.9,1.6c-0.8,1-1.9,2.6-1.7,3.8c0.2,1.3,1.7,2.2,3.2,2.5c1.5,0.3,3,0,3.7-1
	c0.7-1,0.6-2.6,0.4-3.8c-0.2-1.3-0.7-2.2-1.4-2.7C150,465.6,149,465.5,148.3,465.7z"/>
<path class="st3" d="M142.2,350.7c-4.8-1.8-6.5-1.9-8.2-1.6c-1.7,0.3-3.4,0.9-4.4,1.3c-1,0.4-1.2,0.6-1.6,1
	c-0.4,0.4-1.1,0.9-2.3,2.5"/>
<path class="st3" d="M142.2,350.7c0.9,0.3,1.2,1.2,1.1,2.5"/>
<path class="st3" d="M176.6,350.7c0-3.2-2-3.6-3.7-3.7c-1.8-0.1-3.4-0.1-4.5,0c-1.2,0.1-1.9,0.3-2.8,0.7c-0.9,0.4-2,1-2.8,1.6
	c-0.8,0.6-1.2,1-2,1.3c-0.8,0.2-1.8,0.3-1,2.5"/>
<path class="st3" d="M122.4,355.2c1.7-4.7,1.2-6.7,1-8.4c-0.2-1.7-0.3-3,0.3-4.7s1.9-3.7,3.2-5.4c1.3-1.7,2.6-3,3.7-4.2
	c1.1-1.2,2.1-2.1,3.8-2.7c1.7-0.6,4-0.7,6.1-0.7c2.1,0,4.1,0.2,5.4,0.5c1.3,0.3,2,0.6,2.9,0.5c0.9-0.1,1.9-0.6,3.6-0.7
	c1.7-0.1,4.1,0.2,5.6,0.6c1.5,0.3,2,0.7,2.7,0.3c0.7-0.4,1.6-1.6,2.5-2.1c0.9-0.6,1.7-0.5,3.6-0.4c1.9,0.1,4.8,0.4,7,0.8
	c2.1,0.4,3.5,1.1,4.4,1.6c0.9,0.5,1.4,0.9,2.2,2.3c0.8,1.4,2,3.8,2.7,5.4s1,2.7,1.3,3.6c0.3,0.9,0.5,1.8,1,2.7
	c0.5,0.9,1.2,1.9,1.7,2.8c0.5,0.8,0.9,1.5,1.1,2.3c0.2,0.8,0.2,1.6,1,5.2"/>
<path class="st3" d="M190.1,359c1.8,3.9,2,6.1,2.1,7.5c0,1.4-0.2,2.2-0.3,2.7c-0.1,0.5,0,0.8,0.3,0.7c0.3-0.1,0.9-0.7,1.2-1.4
	c0.3-0.7,0.4-1.6,0.5-2.5c0.1-0.9,0.2-1.9,1-2.9c0.7-1.1,2-2.3,3.4-4"/>
<path class="st3" d="M199.8,364.7c-2.8,1.9-3.2,3.9-3.7,5.6c-0.4,1.7-0.9,3.1-1.1,4c-0.2,0.9-0.3,1.2-0.4,1.8
	c-0.1,0.6-0.3,1.5-0.3,2.1c-0.1,0.6,0,0.9,0.3,1c0.3,0.2,0.9,0.2,1.5,0.1c0.6-0.1,1.2-0.4,1.9-0.7c0.7-0.3,1.5-0.6,1.8-1.3"/>
<path class="st3" d="M192.8,383c-0.1,4.6,0.6,8.5,0.2,9.5"/>
<path class="st3" d="M120.9,366.4c0.3,6.9,0.8,9.9,1.3,12.5c0.5,2.6,0.9,4.8,1.1,8.3"/>
<path class="st3" d="M139.3,329.1c-5.8-4.3-9.1-6.6-9.9-6.8"/>
<path class="st3" d="M147.6,330c-3.3-5.3-6.4-9.8-9.2-11.6"/>
<path class="st3" d="M151.4,329.5c1.7-7,2.5-10.8,2.3-12"/>
<path class="st3" d="M152.5,389c4.5,0.4,5.5-0.3,6.6-0.6c1.1-0.3,2.4-0.3,3.7-0.3c1.3,0.1,2.5,0.2,3.9,0.6c1.4,0.4,2.8,1.2,5.9,1.8"
	/>
<path class="st3" d="M153.2,397.1c6.7,0.2,8.3,0.2,10.2-0.3c1.8-0.5,3.8-1.4,7.6-2.6"/>
<path class="st3" d="M120.6,375.6c0.1,1.8-0.3,3.2-0.5,4.2c-0.2,0.9-0.3,1.4-0.2,2c0,0.5,0.2,1.1,0.4,1.5c0.2,0.4,0.5,0.5,0.8,0.4
	s0.4-0.7,0.2-2.7"/>
<path class="st3" d="M140.5,393c3.4-1.3,5.4-2.2,6.8-2.8s2.1-0.7,2.8-0.7"/>
<path class="st3" d="M393.8,403.1c0,5.3-0.1,8.3-0.1,10.5c0,2.2,0,3.7,0,5.4c0,1.7,0,3.5,0.7,6c0.7,2.5,2,5.6,3.6,7.8
	c1.5,2.2,3.2,3.5,5,5c1.8,1.4,3.7,3,5,4.5c1.3,1.4,2.1,2.7,2.8,3.7c0.7,0.9,1.4,1.5,1.9,2.2s0.7,1.6,0.8,3c0,1.4-0.2,3.3-0.4,4.6
	c-0.2,1.3-0.5,1.8-0.2,2.5c0.2,0.6,0.9,1.3,1.1,2.4c0.1,1.1-0.4,2.7-0.4,4c-0.1,1.3,0.3,2.4,1.1,3.8c0.8,1.4,2,3.1,2.6,4.2
	c0.6,1.1,0.6,1.7,1.5,1.3c0.9-0.4,2.6-1.9,4-3c1.4-1.1,2.5-1.9,3.4-2.9s1.6-2.2,2-3.7c0.4-1.5,0.5-3.4,0.5-4.7
	c-0.1-1.4-0.4-2.3-0.1-3.9c0.3-1.6,1.1-3.8,1.9-5.7c0.8-1.9,1.6-3.6,2.6-4.7c1.1-1.1,2.4-1.6,3.7-2.2c1.3-0.6,2.6-1.4,3.7-2.8
	c1.1-1.4,2-3.4,2.5-5.1c0.4-1.7,0.4-2.9,0.2-4.4s-0.4-3-0.7-4.9c-0.4-2-0.8-4.3,1.5-10.2"/>
<path class="st3" d="M398.2,401c3,4.5,6,7.1,8,9c2,1.9,3,3.2,4,4.3c1,1.1,1.9,2,2.9,2.7c1.1,0.7,2.3,1.2,3.9,1.6
	c1.6,0.4,3.7,0.7,6,0.8c2.3,0,5-0.2,7.2-0.8c2.2-0.6,4.1-1.6,5.3-2.4c1.3-0.9,2-1.6,3-2.5c1-0.9,2.3-2,3.9-3.2
	c1.6-1.2,3.6-2.4,6.7-7.3"/>
<path class="st3" d="M412.8,393.6c7.5-1.1,8.4-1.7,9.6-1.8c1.2-0.2,2.7,0,3.9,0.1c1.2,0.1,2,0.2,2.8,0.1c0.7-0.1,1.3-0.3,1.8-0.4
	c0.5-0.1,0.9-0.2,1.5-0.2c0.6,0,1.3,0.2,1.9,0.4s1.3,0.3,2,0.5c0.8,0.1,1.8,0.1,2.3,0.1c0.6,0,0.7,0,1.6,0.1"/>
<path class="st3" d="M438.8,392.4c-3.3,1.6-5,2.6-6.2,3.3c-1.2,0.6-1.8,0.9-2.8,1.1s-2.2,0.2-3.4,0.2c-1.2,0-2.5,0-3.9-0.1
	c-1.4-0.1-2.9-0.3-4.5-0.7c-1.6-0.4-3.2-1-5.2-2.5"/>
<path class="st3" d="M416.6,398.2c1.6,1.1,2.6,1.8,4.2,2.2c1.5,0.4,3.5,0.6,5.2,0.5c1.7-0.1,3-0.5,6.1-2"/>
<path class="st3" d="M416.3,379.1c-1.1,1.9-1.2,2.8-1,3.5c0.2,0.7,0.7,1.2,1.2,1.4c0.5,0.2,1,0.2,1.5,0c0.5-0.1,1-0.3,1.6-0.5
	c0.6-0.3,1.2-0.6,1.9-0.8c0.7-0.2,1.4-0.2,1.9-0.1c0.5,0.1,0.9,0.4,1.2,0.6c0.3,0.2,0.6,0.5,0.9,0.6c0.3,0.1,0.7,0.1,1.1,0.1
	c0.4-0.1,0.7-0.2,1.3-0.5c0.6-0.3,1.5-0.8,2.1-1c0.6-0.3,1-0.3,1.4-0.2c0.4,0.1,0.9,0.3,1.1,0.4c0.2,0.1,0.3,0.2,0.2,0.4
	c-0.1,0.1-0.4,0.3-1,0.4s-1.7,0-3.3-0.3"/>
<path class="st3" d="M434.8,382.8c1.8-3.2,1.2-4.3-0.6-6.1"/>
<line class="st3" x1="428.9" y1="363.5" x2="429.7" y2="372.5"/>
<path class="st3" d="M403.6,365.5c2.7-1.5,3.4-2,4.4-2.4c1-0.3,2.2-0.4,3.3-0.4c1.1,0,2,0.1,2.8,0.4c0.8,0.3,1.5,0.7,1.9,1.1
	c0.5,0.4,0.7,0.7,0.8,1.1c0.1,0.3,0.1,0.7-0.3,1.1"/>
<path class="st3" d="M409.3,362.9c-1.7,0.5-1.5,1.2-1.3,1.9s0.5,1.1,0.9,1.5c0.3,0.3,0.7,0.5,1.4,0.6c0.7,0,1.8-0.1,2.4-0.3
	c0.6-0.2,0.8-0.5,1-0.9c0.2-0.4,0.5-0.9-0.2-2.6"/>
<path class="st3" d="M432.6,365.7c3.1-3,4-3.3,4.9-3.4c0.9-0.1,1.9,0,2.8,0.2c0.9,0.2,1.8,0.4,2.5,0.8c0.7,0.3,1.3,0.8,1.8,1.1
	c0.5,0.3,0.8,0.6,1,0.8c0.2,0.2,0.2,0.3,0,0.5c-0.2,0.2-0.6,0.5-2.4,1.1"/>
<path class="st3" d="M436.2,362.7c-0.6,2-0.5,2.8-0.3,3.4c0.3,0.6,0.7,0.9,1.4,1c0.7,0.1,1.6,0.1,2.2,0c0.6-0.1,1-0.4,1.2-0.7
	s0.4-0.8,0.4-1.3c0-0.5,0-1.2-0.7-2.5"/>
<path class="st3" d="M429.8,357.4c0.3-0.5,1-1.3,2.1-2c1-0.7,2.4-1.2,3.6-1.5c1.2-0.3,2.3-0.5,3.4-0.5c1.1,0,2.2,0,3.2,0.2
	c0.9,0.2,1.7,0.4,2.5,0.7c0.8,0.3,1.6,0.7,2.2,1c0.6,0.3,0.9,0.6,1,0.9c0.1,0.3,0,0.5-0.3,0.7c-0.4,0.2-1,0.2-2,0.2
	c-1,0-2.3,0-3.7,0.1c-1.4,0.1-2.9,0.2-4,0.3c-1.1,0.1-1.8,0.1-2.6,0.1c-0.7,0-1.5,0-2.1,0.1c-0.6,0-1.1,0-1.6,0.1
	c-0.5,0.1-1,0.2-1.4,0.2C429.8,358,429.6,357.9,429.8,357.4z"/>
<path class="st3" d="M420.3,356.6c-0.3-0.6-1.1-1.5-1.9-2.1c-0.8-0.6-1.6-0.9-2.4-1c-0.8-0.1-1.5-0.1-2.2-0.1
	c-0.8,0-1.6,0.1-2.6,0.1c-1,0-2.2,0.1-3.2,0.2c-1,0.1-1.7,0.2-2.4,0.5c-0.7,0.2-1.3,0.6-1.9,1c-0.6,0.4-1.1,0.8-1.6,1.1
	c-0.5,0.4-0.8,0.7-0.7,1c0.2,0.3,0.8,0.5,1.7,0.6c0.9,0.2,1.9,0.3,2.6,0.4s1.3,0.1,2.2,0s2.3-0.4,3.5-0.6c1.3-0.2,2.4-0.2,3.4-0.2
	c1,0,1.7,0.2,2.4,0.3s1.3,0.2,1.8,0.2c0.5,0,0.9,0,1.2-0.2C420.5,357.6,420.6,357.2,420.3,356.6z"/>
<path class="st3" d="M383.7,362c1.6,0.8,1.9,1.8,2.2,2.7c0.3,0.9,0.7,1.6,1.2,2.5c0.5,0.9,1,1.9,1.3,2.8c0.3,0.9,0.3,1.7,0.6,3.4
	c0.3,1.7,0.8,4.3,1.2,6c0.4,1.7,0.6,2.4,0.9,2c0.3-0.3,0.7-1.7,0.8-3c0.1-1.3-0.1-2.7-0.4-4.4c-0.4-1.7-0.9-3.8-0.7-5.8
	c0.2-2,1.1-3.9,2.2-7.2c1-3.3,2.2-8.1,2.9-11c0.7-2.9,1-3.9,1.2-5.2c0.2-1.2,0.2-2.7,0.5-4.2c0.2-1.5,0.7-3.1,1.4-4.4
	c0.7-1.3,1.7-2.4,4-3.7c2.3-1.3,5.9-2.8,10.3-3.6c4.4-0.7,9.4-0.7,13.3-0.5c3.8,0.2,6.4,0.5,8.5,1c2.1,0.4,3.8,1,5.8,2.1
	c2,1.2,4.4,3,6.6,5.1c2.2,2.1,4.3,4.6,5.4,6.8c1.1,2.3,1.2,4.4,1.1,6.6c-0.1,2.2-0.3,4.5-0.3,6.4c0,1.9,0.1,3.4,0.3,4.9
	c0.2,1.4,0.5,2.8,0.8,4.2s0.7,2.9,0.8,4.4c0.2,1.4,0.1,2.8,0.1,4.1c0,1.2,0,2.3,0,3.2c0,0.9,0.1,1.7,0.6,1.5c0.5-0.2,1.6-1.4,2-13.5
	"/>
<path class="st3" d="M459,354.9c-0.9-4-3.5-8.6-7.9-13.7"/>
<path class="st3" d="M399.8,334.9c-5.8,6.6-13.7,10.1-14.1,12.6"/>
<path class="st3" d="M411,324.7c-0.2-3.1,0.8-6,1.5-7.8c0.7-1.9,1-2.7,1.9-3.3c0.9-0.6,2.3-0.9,4-1.1c1.7-0.2,3.6-0.2,6.2,0
	c2.6,0.2,5.8,0.6,8.4,1.2c2.6,0.6,4.6,1.5,5.7,2.3c1.1,0.9,1.4,1.8,1.4,2.7c0,0.9-0.2,1.9-0.3,2.7c-0.1,0.8-0.1,1.4,0,1.7
	c0,0.4,0.1,0.5,0,0.5c0,0.1-0.1,0.1-1.3,0c-1.2-0.1-3.4-0.4-5.5-0.6c-2.1-0.2-3.9-0.4-5.8-0.6c-1.9-0.2-3.8-0.3-5.3-0.5
	c-1.6-0.1-2.8-0.2-4.5-0.1c-1.7,0-3.9,0.1-6.5,0.6"/>
<path class="st3" d="M411,324.7c0.1,1.8,0.7,1.7,1.9,1.6c1.2-0.1,2.9-0.3,4.8-0.3c1.9-0.1,4-0.1,6,0c2,0.1,3.9,0.5,5.3,0.7
	c1.5,0.2,2.5,0.3,3.9,0.5s3,0.6,5.2,1.1c2.2,0.4,5.1,0.9,6.9,1.4c1.8,0.6,2.6,1.2,3.3,1.9c0.6,0.7,1.1,1.4,1.7,2
	c0.5,0.6,1.2,1.1,2,1.5c0.9,0.4,2,0.8,3.6,1.1c1.6,0.3,3.5,0.5,7.1,1"/>
<path class="st3" d="M461.7,331.3c-5.7-1-7.6-1.7-8.8-2.2c-1.2-0.5-1.6-0.9-2.1-1.5c-0.5-0.6-1.1-1.3-1.6-2
	c-0.5-0.7-0.9-1.5-1.4-2.1c-0.5-0.6-1.1-0.9-1.8-0.9c-0.7,0-1.5,0.3-2.3,0.5c-0.8,0.2-1.5,0.4-4,0.3"/>
<path class="st3" d="M444.3,323c2,1.6,2,2.4,1.9,3.1c-0.1,0.7-0.4,1.4,0.6,4.3"/>
<path class="st3" d="M452.2,328.7c0.5,3.8-0.2,5-0.9,6"/>
<path class="st5" d="M408.1,411.9c2.1,0,2.6-0.4,3-0.7c0.4-0.4,0.7-0.8,1.2-1.3c0.6-0.5,1.4-0.9,2.2-1c0.8-0.1,1.5,0.3,2,0.5
	c0.5,0.3,0.8,0.5,1.1,0.7c0.3,0.2,0.8,0.4,1.3,0.4c0.5,0,1.2-0.1,1.8-0.3c0.6-0.1,1.1-0.3,1.9-0.3c0.8,0,1.8,0.1,2.7,0.2
	c0.9,0.1,1.7,0.1,2.5,0.1c0.8,0,1.6,0,2.4-0.1c0.8-0.1,1.6-0.3,2.3-0.7c0.7-0.3,1.4-0.8,2.2-1.2c0.8-0.4,1.8-0.7,2.4-1.2
	c0.6-0.5,0.9-1.2,1.1-1.6c0.2-0.4,0.4-0.6,0.9-0.7c0.5-0.1,1.2-0.1,1.7,0.2c0.5,0.3,0.6,0.9,0.7,1.6c0.1,0.7,0,1.5-0.3,2.4
	c-0.3,0.9-0.8,2-1.2,3.2"/>
<path class="st3" d="M438.1,381.1c1.5,1.9,3,3.6,4.7,5.2"/>
<path class="st3" d="M385.3,369.8c0.8,1.9,0.3,3,0.1,3.9c-0.2,0.9-0.3,1.4,0.1,1.9c0.3,0.5,1,0.8,1.5,0.5c0.5-0.3,0.7-1.2,0.5-2.1"
	/>
<path class="st3" d="M388,383.1c-0.5,6.1-0.6,7.7-0.6,9.2c0,1.5,0.2,2.9,0.4,4.3c0.2,1.4,0.6,2.8,1.4,4.7c0.9,1.9,2.3,4.2,4.1,5.6"
	/>
<path class="st3" d="M411.9,456.6c-0.6-2,0.5-4.2,0.5-5.7c0-1.5-1-2.4-2-3.3c-0.9-1-1.8-2-2.7-2.9c-1-0.8-2.1-1.4-3.2-1.5
	c-1.1-0.1-2.3,0.2-3.1,0.9c-0.9,0.7-1.4,1.7-1.9,3.2c-0.5,1.6-0.8,3.8-1.2,5.5c-0.3,1.8-0.7,3.2-1,4c-0.4,0.9-0.8,1.3-1.9,0.5
	c-1.2-0.7-3.2-2.6-4.5-4.5c-1.3-1.9-2-3.9-2.8-5.5c-0.8-1.6-1.8-2.9-2.5-4.5c-0.7-1.6-1.1-3.4-0.7-7c0.4-3.6,1.5-8.9,0.8-19.5"/>
<path class="st3" d="M433.7,451.4c-0.1-3.5,0.3-5.4,1.5-6.2s3.2-0.4,4.3,0.5c1.1,0.9,1.2,2.3,1.2,3.4c0,1.1-0.1,1.8-0.5,3
	c-0.4,1.2-1.1,2.8-1.7,4.2c-0.5,1.4-0.8,2.6-1,4.1c-0.1,1.5,0,3.2,0.2,3.8c0.2,0.7,0.7,0.3,1.1-0.8c0.5-1,1-2.7,1.9-5.2
	c0.8-2.4,2-5.7,3.3-8.8c1.3-3.1,2.7-6.2,4.2-9.2c1.5-3,3.1-6.1,2.5-10.9"/>
<path class="st3" d="M345.1,443.5c10.5,11,9.2,15.5,8.5,19.6c-0.7,4.2-0.7,8-0.7,11.7c0,3.7,0,7.3,6.5,11.5"/>
<path class="st3" d="M468.2,455.2c0,13.2-5.2,23-15.7,29.4"/>
<path class="st3" d="M394.5,343c-1.4,2.6-3.3,4.5-4.5,6.9"/>
<line class="st3" x1="141.2" y1="129.1" x2="140.3" y2="129.7"/>
<path class="st3" d="M438.1,171.4c0.6,3.8,2.1,6.7,1.1,11.2"/>
<path class="st3" d="M381.5,122.1c-1.1,2.8-1.2,3.7-1.2,4.4c0,0.7,0.2,1.3,0.6,2.1c0.3,0.7,0.8,1.6,1.2,2.2c0.3,0.7,0.5,1.1,0.7,1.4
	c0.2,0.4,0.4,0.6,0.7,0.6c0.4,0,0.9-0.3,0.1-4.6"/>
<line class="st3" x1="191.7" y1="128.9" x2="192.3" y2="129.4"/>
<line class="st3" x1="176.4" y1="131" x2="176.9" y2="131.4"/>
<line class="st3" x1="187.8" y1="131.3" x2="188.9" y2="131.5"/>
<line class="st3" x1="181.7" y1="131.8" x2="182.2" y2="132.1"/>
<line class="st3" x1="142.5" y1="132.1" x2="141.8" y2="132.6"/>
<line class="st3" x1="137" y1="129.8" x2="136.4" y2="130.2"/>
<line class="st3" x1="149.7" y1="132.5" x2="149.3" y2="132.9"/>
<line class="st3" x1="145.4" y1="131.3" x2="144.9" y2="131.7"/>
<path class="st3" d="M205,196.8c10,12.1,14.5,17.9,17.6,22.4c3.1,4.5,4.8,7.6,4.5,23.9"/>
<path class="st3" d="M115.3,202.6c-1.1,5-1.4,9.1-2.2,13.1s-1.8,8.1-3.7,11.8c-1.9,3.7-4.7,7-9.3,12.6"/>
<path class="st3" d="M194.2,98.7c9.1,18.3,10.4,21.6,11.8,23.9"/>
<path class="st3" d="M134,90.4c-3.1,6-10.5,10.5-11.9,13.4"/>
<path class="st3" d="M143.3,80.4c-3.7,1.6-6.6,2-8.6,2.4c-2.1,0.4-3.4,0.8-5.5-0.4"/>
<path class="st3" d="M180.2,79.5c4.3-1.8,6.2-2,7.3-1.8"/>
<path class="st3" d="M167.8,75.7c2.7-1.3,4-2.9,5.2-4c1.2-1.1,2.2-1.8,3.1-2.3c0.9-0.5,1.5-0.8,5.7-1.1"/>
<path class="st3" d="M153,63c6.9,7,8,8,9,9c1,1,1.8,1.9,1.8,3.7"/>
<path class="st3" d="M155.1,76.7c-3.1-3.4-5.1-6.4-10.1-7.4"/>
<path class="st3" d="M136.2,122.2c1.5-0.2,2-0.6,2.5-0.9c0.5-0.4,0.9-0.7,1.6-1.2c0.6-0.5,1.4-1.2,2-1.7c0.6-0.5,1-0.8,1.4-1
	s0.8-0.4,1.5-0.5c0.6-0.1,1.5-0.1,2.3-0.1c0.8,0,1.6,0.1,2.5,0.3c0.9,0.2,1.9,0.6,2.6,1.1c0.7,0.4,1.1,0.9,1.5,1.3
	c0.4,0.4,0.7,0.8,0.9,1.1c0.1,0.3,0.1,0.5-0.1,0.6c-0.1,0.1-0.3,0.2-0.5,0.2c-0.2,0-0.6,0-1,0.1c-0.4,0-0.9,0.1-1.3,0.1"/>
<path class="st3" d="M148.1,158.6c2.3,2.3,3.8,3.1,4.9,3.7c1.1,0.6,1.8,1.2,2.3,1.5c0.6,0.4,1.1,0.7,1.6,1c0.6,0.4,1.2,0.8,1.7,1.1
	c0.6,0.3,1.1,0.5,1.8,0.5c0.6,0.1,1.4,0.1,2.3,0.1c0.9,0,2-0.1,3-0.1c1-0.1,1.9-0.2,2.8-0.5c0.8-0.3,1.6-0.8,2.2-1.4
	c0.7-0.6,1.3-1.2,2-1.7c0.7-0.5,1.5-0.9,2.2-1.4c0.7-0.5,1.3-1.1,2.9-2"/>
<path class="st3" d="M148.6,157.1c3.2,1.8,4.6,2.6,5.8,3.2c1.2,0.6,2.3,0.9,3.2,1.2c0.9,0.3,1.7,0.4,3.2,0.6s3.6,0.2,5.7,0
	c2-0.2,3.9-0.7,5.4-1.3c1.5-0.6,2.6-1.4,5.6-2.6"/>
<path class="st3" d="M177.4,156c0,1.1,0.1,2,0.1,2.5"/>
<path class="st3" d="M148.3,154.6c0.3,0.9,0.4,2,0.3,3.1"/>
<path class="st3" d="M145,154c0.7,1.2,1.5,2,2.8,3.1s3.4,2.4,4.9,3.3c1.5,0.9,2.5,1.2,3.6,1.6c1,0.4,2.1,0.9,3.1,1.1
	c0.9,0.3,1.7,0.3,2.6,0.4c0.9,0,2,0.1,3.1,0.1c1.1,0,2.1,0,3.1-0.2c1-0.1,1.9-0.4,3-0.9c1-0.5,2.2-1.2,3-1.7
	c0.8-0.5,1.4-0.7,2.1-1.2c0.7-0.5,1.6-1.2,2.3-1.7c0.7-0.6,1.3-1,2.1-2"/>
<path class="st3" d="M145,154c5.8,1.1,7.9,1.2,9.1,1.3c1.2,0.1,1.4,0,2.1,0c0.7,0,1.9,0,3,0c1.2,0.1,2.3,0.2,3.4,0.3
	c1.1,0.1,2.3,0.3,3.2,0.3c0.9,0.1,1.5,0.1,2.2,0.1c0.7,0,1.3,0,2.2,0c0.9,0,2,0,3.1,0c1.1,0,2.1,0,2.9,0c0.9,0,1.6,0,2.2-0.1
	c0.6-0.1,1.1-0.1,2-0.1"/>
<path class="st3" d="M117.9,126.3c0.5,3.3,0,5-0.1,6.1c-0.1,1.2,0.3,1.9,1.1,2.6c0.8,0.7,2,1.5,3.1,2.5"/>
<path class="st3" d="M415.7,213.4c-1-0.7-2.6-0.8-4.1,0s-2.8,2.3-2.8,3.6c0.1,1.3,1.5,2.2,2.8,2.7c1.3,0.6,2.3,0.8,3.3,0.6
	c0.9-0.1,1.7-0.6,2.1-1.2c0.4-0.6,0.5-1.5,0.3-2.6C417.2,215.5,416.8,214.1,415.7,213.4z"/>
<path class="st3" d="M491.8,187.6c10.6,18.5,7.4,28.2,4.8,38c-2.6,9.9-4.5,20-5.2,25.3"/>
<path class="st3" d="M325,204.5c6.7,5,9.3,6.9,10.3,9.6c1,2.7,0.4,6.1,0,10c-0.4,3.9-0.6,8.3,5.7,18.4"/>
<path class="st3" d="M387.2,159.6c-0.8,8.6-0.7,10.7-0.5,13.6c0.2,2.9,0.6,6.6,1.8,9.3c1.2,2.7,3.2,4.4,5.3,5.9
	c2.1,1.5,4.3,2.9,6.4,4.1c2.1,1.1,4.2,2,5.7,2.8c1.5,0.8,2.4,1.7,3.2,2.5c0.8,0.8,1.5,1.5,2,2.5c0.4,1,0.5,2.3,0.9,3.4
	c0.3,1.1,0.9,2.1,2.2,2.5c1.3,0.4,3.5,0.2,5,1.3c1.5,1.1,2.4,3.5,3.3,5c0.9,1.5,1.7,2.3,2.9,1.8s2.6-2.1,3.3-4.2
	c0.7-2.1,0.7-4.7,1.4-7.1c0.8-2.4,2.3-4.5,3.6-6.7c1.3-2.2,2.2-4.3,3.1-6.5c0.8-2.1,1.6-4.3,2.3-6.8c0.8-2.6,1.6-5.6,1.4-12.3"/>
<path class="st3" d="M412.5,154.3c3.6,1.3,5,1.6,6.2,1.7c1.2,0.1,2.4,0.1,4.1,0.2c1.7,0.1,4.1,0.2,5.7,0.2c1.7-0.1,2.6-0.3,3.5-0.7
	c0.8-0.3,1.6-0.7,2.6-1.1"/>
<path class="st3" d="M409.4,151c0.7,0.4,2.6,0.5,3.9,0.6c1.4,0.1,2.2,0.1,3,0c0.8-0.1,1.7-0.2,2.3-0.3c0.6-0.1,0.9-0.2,1.4-0.2
	c0.4,0,1,0.1,1.6,0.3c0.6,0.1,1.3,0.3,2,0.4c0.7,0.1,1.3,0.1,1.8,0c0.5,0,0.7-0.1,1-0.2c0.3,0,0.6,0,1,0c0.4,0.1,1,0.2,1.7,0.4
	c0.7,0.2,1.4,0.3,2.1,0.4c0.7,0.1,1.2,0.2,1.7,0.2c0.5,0.1,0.9,0.1,1.4,0.1s0.9-0.1,2.6-0.3"/>
<path class="st3" d="M145.5,180.1c1.8,0.9,4.8,2.2,6.6,3c1.7,0.8,2.3,1,3.2,1.2c1,0.2,2.4,0.4,3.6,0.4c1.2,0,2.3-0.3,3.2-0.4
	c1-0.1,1.9-0.1,2.7-0.1c0.8,0,1.6,0,2.7,0c1.1-0.1,2.4-0.2,3.7-0.6c1.2-0.4,2.2-0.9,3.3-1.5c1.1-0.5,2.2-1,3-1.5
	c0.9-0.5,1.5-0.9,2.3-1.6c0.8-0.7,1.7-1.7,2.5-2.5c0.8-0.9,1.4-1.7,1.9-2.4c0.5-0.7,0.8-1.3,1.2-2.1c0.4-0.8,0.9-1.7,5.6-6.1"/>
<path class="st3" d="M137.6,120.7c1.4-1,2.5-1.8,3.2-2.3c0.7-0.5,0.9-0.9,1.4-1.2c0.4-0.3,1.1-0.7,1.8-1.1c0.7-0.4,1.5-0.7,2.3-0.8
	c0.8-0.1,1.6,0,2.5,0.2c0.9,0.2,1.8,0.4,2.6,0.6c0.7,0.3,1.3,0.6,1.8,1c0.5,0.4,1.1,1,1.6,1.5c0.5,0.5,1,0.9,1.8,1.4"/>
<path class="st3" d="M173.2,121.1c2.5-1.5,3.1-2.1,3.7-2.6c0.6-0.5,1.3-0.9,1.9-1.2c0.6-0.3,1.1-0.4,1.7-0.5c0.6-0.1,1.4-0.1,2.3,0
	c0.9,0,2,0.1,2.8,0.2c0.8,0.1,1.5,0.3,2,0.6c0.5,0.3,0.8,0.6,1.2,1c0.4,0.4,0.9,0.9,1.4,1.5c0.5,0.6,1,1.3,1.6,2.1"/>
<path class="st3" d="M180,118c-0.6,1.2-0.5,1.8-0.4,2.2s0.2,0.8,0.5,1.1c0.3,0.3,0.6,0.6,1,0.7c0.4,0.2,0.8,0.2,1.4,0.3
	c0.6,0,1.5,0,2.1-0.2c0.6-0.2,1-0.4,1.2-0.8c0.2-0.4,0.4-0.8,0.4-1.3c0-0.5,0-1.1-0.4-2"/>
<path class="st3" d="M173.5,122.4c2.6-2,3.3-2.8,4.1-3.3c0.8-0.5,1.8-0.9,2.7-1.1c1-0.2,1.9-0.3,2.8-0.3c0.9,0,1.7,0.1,2.4,0.3
	c0.7,0.2,1.3,0.4,1.8,0.7c0.5,0.3,0.9,0.6,1.2,1c0.3,0.4,0.7,0.8,0.9,1.2c0.3,0.4,0.5,0.8,0.9,1.2c0.3,0.4,0.8,0.6-0.9,0.6"/>
<path class="st3" d="M144.7,116.9c-0.5,1.4-0.5,1.9-0.5,2.2c0,0.3,0.1,0.6,0.4,0.9c0.3,0.3,0.8,0.7,1.2,0.9c0.4,0.2,1.2,0.3,1.6,0.3
	c0.4-0.1,0.8,0,1.2-0.2c0.4-0.2,0.7-0.5,0.9-0.8c0.2-0.4,0.5-1.1,0.6-1.6s0.3-0.9-0.1-1.5"/>
<path class="st3" d="M126.5,146.8c0.1,5.9,1.2,8.6,2,10.4c0.8,1.8,1.2,2.9,1.6,3.6c0.3,0.7,0.6,1.2,1.6,2.8c1,1.7,2.7,4.6,3.9,6.9"
	/>
<path class="st3" d="M152.6,141.7c-3.6,3.3-4.4,4-5.1,4.6c-0.7,0.6-1.3,1.1-2,1.6c-0.8,0.6-1.7,1.2-2.5,1.6
	c-0.7,0.5-1.3,0.8-1.6,1.2c-0.4,0.4-0.6,0.9-0.6,1.4c0,0.5,0.2,1.1,0.8,3.3"/>
<path class="st3" d="M152.7,140.7c-0.4,3.1,0,3.6,0.5,4c0.6,0.4,1.4,0.6,2,0.7c0.6,0.1,1.1,0.1,1.5,0.1c0.5,0,1,0,1.3,0.1
	c0.4,0.1,0.6,0.3,0.9,0.5c0.3,0.2,0.6,0.5,0.8,0.7c0.2,0.2,0.4,0.5,0.7,0.8c0.3,0.3,0.7,0.6,1.2,0.9c0.5,0.2,1.1,0.4,1.6,0.5
	c0.5,0.1,1.1,0.1,1.6,0.1c0.5,0,1,0,1.4-0.1c0.4-0.1,0.6-0.3,0.9-0.5c0.3-0.3,0.8-0.6,1.2-0.9c0.4-0.3,0.7-0.6,1-0.8
	c0.3-0.2,0.6-0.3,0.9-0.4c0.3-0.1,0.6,0,1,0c0.4,0.1,0.9,0.2,1.3,0.2c0.5,0,1-0.2,1.3-0.4c0.4-0.2,0.7-0.5,0.9-0.8
	c0.2-0.3,0.4-0.5,0.4-0.8c0.1-0.3,0-0.6,0-1c0-0.4,0-0.8-0.1-1.3c-0.1-0.4-0.2-0.8-0.5-1.2c-0.3-0.4-0.7-0.7-0.9-1.1
	c-0.3-0.4-0.4-0.8-0.7-1.4"/>
<path class="st3" d="M422.4,140.2c0.3-0.1,0.2-0.2,0-0.5c-0.2-0.3-0.6-0.6-0.8-0.8c-0.2-0.2-0.3-0.2-0.6-0.3
	c-0.3-0.1-0.8-0.1-1.1-0.1c-0.3,0-0.5,0-0.6,0.2c-0.1,0.2,0,0.6,0.3,0.9c0.3,0.3,0.8,0.4,1.4,0.5
	C421.5,140.3,422.1,140.3,422.4,140.2z"/>
<path class="st3" d="M428.3,127c0.4,3.9,1,5.4,1.6,6.3c0.6,0.9,1.1,1.3,1.7,1.7c0.6,0.4,1.3,0.8,1.6,1.3c0.4,0.5,0.4,1.1,0.3,1.7
	c0,0.6-0.1,1.2-0.3,1.6c-0.2,0.4-0.5,0.7-0.8,1c-0.3,0.3-0.7,0.5-0.9,0.6s-0.4,0.1-0.5,0.1c-0.1,0-0.2-0.1-0.2-0.3
	c0-0.2,0.1-0.7-0.1-1c-0.2-0.3-0.8-0.4-1.3-0.5c-0.4,0-0.7,0-1,0.2c-0.3,0.2-0.5,0.6-0.3,0.9c0.2,0.3,0.9,0.5,1.1,0.5"/>
<path class="st3" d="M417.5,133.2c-1.5,1.7-1.9,1.9-2.1,2.2c-0.2,0.3-0.4,0.7-0.4,1.1c0,0.4,0,0.9,0.1,1.3c0.1,0.4,0.3,0.7,0.5,1
	c0.3,0.3,0.7,0.5,1.1,0.8c0.4,0.2,0.8,0.4,1.2,0.4"/>
<path class="st3" d="M436.4,118.9c-1.3,1.4-1.4,1.9-1.4,2.4c0,0.5,0,0.8,0.2,1.2c0.2,0.4,0.5,0.8,0.9,1c0.5,0.3,1,0.4,1.6,0.5
	c0.5,0,1-0.1,1.4-0.3c0.4-0.2,0.8-0.6,1-1c0.2-0.4,0.3-0.9,0.3-1.3c0-0.4-0.1-0.8-0.5-2.2"/>
<path class="st3" d="M431.6,120.4c2.8-1.4,4.4-1.5,5.8-1.5c1.4,0,2.5,0.3,3.5,0.6c0.9,0.3,1.7,0.6,2.3,1.1c0.6,0.5,1.2,1.1,1.7,1.5
	c0.4,0.4,0.8,0.7,0.8,1c0.1,0.3-0.2,0.5-1,0.6"/>
<path class="st3" d="M408.2,116.2c-0.7,2-0.6,2.9-0.4,3.5c0.2,0.7,0.5,1.1,0.8,1.5c0.4,0.4,0.8,0.6,1.2,0.8c0.4,0.1,0.7,0.1,0.9,0.1
	c0.2,0,0.2,0,0.4-0.3c0.2-0.3,0.7-0.8,1-1.6c0.4-0.8,0.6-1.9,0.2-3.5"/>
<path class="st3" d="M401.9,118.7c2.3-1.7,3.7-2.1,5-2.3c1.2-0.2,2.3-0.2,3.2-0.1c0.9,0,1.5,0.1,2.2,0.4c0.7,0.3,1.5,0.8,2,1.2
	c0.5,0.4,0.9,0.7,1.1,1c0.2,0.3,0.2,0.6,0.2,0.8c0,0.2,0.1,0.4,0,0.5c0,0.1-0.1,0.2-0.4,0.4c-0.3,0.2-0.7,0.4-1.4,0.6
	c-0.6,0.2-1.4,0.5-2.4,0.7c-0.9,0.2-2,0.2-2.9,0.2c-0.8,0-1.5-0.1-2.1-0.4c-0.6-0.2-1.3-0.6-2.4-1.4"/>
<path class="st3" d="M430.6,119.7c-0.2,0.3-0.3,0.5-0.4,1.1c-0.1,0.6-0.2,1.6-0.2,2.5c0,0.9,0.1,1.6,0.6,2.6c0.5,1,1.4,2.2,2.2,3
	c0.7,0.8,1.3,1.1,2.4,1.5s2.8,0.7,4.2,0.9s2.4,0.1,3.6-0.2c1.2-0.3,2.7-0.8,4-1.6s2.3-1.7,2.9-2.7c0.6-1,0.7-2.1,0.9-3.2
	c0.1-1.1,0.2-2.2,0.2-3.1c0-0.9-0.1-1.6-0.6-2.2c-0.6-0.6-1.6-0.9-2.4-1.2c-0.8-0.3-1.4-0.4-2.1-0.6s-1.5-0.4-2.4-0.5
	c-0.9-0.1-1.9-0.1-3.1,0.1c-1.2,0.2-2.5,0.6-3.6,0.8c-1.1,0.2-2.1,0.4-2.9,0.6c-0.8,0.2-1.5,0.6-2.1,1
	C431.2,118.9,430.8,119.4,430.6,119.7z"/>
<path class="st3" d="M400.5,114.6c0.7-0.2,1.9-0.5,3.3-0.6s3.2-0.1,4.8-0.1c1.5,0,2.9,0,3.9,0.2c1,0.2,1.8,0.5,2.6,0.9
	c0.8,0.4,1.6,0.9,2.2,1.3c0.6,0.4,1.1,0.7,1.4,1c0.3,0.4,0.6,0.8,0.7,1.2c0.2,0.5,0.2,1,0.2,1.8c-0.1,0.8-0.4,1.9-0.8,3
	c-0.4,1.1-0.9,2.2-1.5,3c-0.6,0.8-1.4,1.2-2.3,1.5c-0.9,0.3-1.8,0.6-2.9,0.8c-1.1,0.2-2.5,0.5-3.9,0.5c-1.4,0-2.8-0.3-4.1-0.6
	c-1.2-0.3-2.2-0.6-3-1.2c-0.8-0.6-1.5-1.6-1.9-2.8c-0.4-1.2-0.7-2.8-0.9-4c-0.2-1.2-0.3-2.1-0.1-2.9c0.2-0.8,0.6-1.6,0.9-2.1
	C399.5,114.9,399.8,114.8,400.5,114.6z"/>
<path class="st3" d="M430,117.2c-1.1-0.9-0.3-2.1,0.7-2.9c1.1-0.8,2.5-1.3,4.8-1.3c2.3-0.1,5.6,0.3,8.5,1.1"/>
<path class="st3" d="M400.3,112.7c0.9-1.5,2.3-2.1,3.6-2.4c1.3-0.3,2.4-0.3,3.7-0.3c1.3,0,2.7,0,4.1,0c1.4,0.1,2.9,0.2,4.2,0.5
	c1.4,0.4,2.7,0.9,3.8,1.4c1.1,0.5,2.1,0.9,2.7,1.4c0.5,0.5,0.7,1.3-0.1,2.9"/>
<path class="st3" d="M408.2,88.7c-2.3-1.1-5.6-2.1-7.7-2.4s-3.2-0.2-7.6,1.2"/>
<path class="st3" d="M431,89.3c-7.3-1.9-10.5-4.4-13.1-6c-2.5-1.6-4.3-2.4-6.7-2.7c-2.4-0.4-5.4-0.4-9,0.1"/>
<path class="st3" d="M409.9,73c12.4,0.4,17.7,3,21.4,5.3c3.6,2.3,5.6,4.3,7,6c1.4,1.7,2.2,3.2,4.2,6.2"/>
<path class="st3" d="M449.3,74.4c-14-6-16.9-7-19.5-7.8c-2.6-0.8-4.8-1.4-6.9-1.8c-2.2-0.3-4.3-0.3-7-0.2c-2.7,0.1-5.8,0.4-8.2,0.8
	c-2.3,0.4-3.9,1-5.2,1.5s-2.4,1-3.1,1.3c-0.7,0.3-0.9,0.5-2.1,1.3"/>
<path class="st3" d="M389.7,113.5c0.7-1.8,1.4-4,2-5.6c0.6-1.6,1-2.8,1.5-4.2c0.5-1.4,1.1-3.1,1.5-4.3s0.7-2.1,1.1-3.1
	c0.4-1,0.8-2.3,2.2-3.6c1.4-1.3,3.7-2.7,6.7-3.4c3-0.8,6.7-0.9,9.6-0.7c2.9,0.2,5,0.6,6.8,1c1.8,0.4,3.3,0.7,4.5,0.8
	c1.3,0.1,2.4-0.1,3.3-0.4c0.9-0.3,1.5-0.7,3.2-1c1.7-0.2,4.5-0.2,6.7,0.2c2.2,0.4,3.9,1.3,5.1,1.8c1.2,0.6,2,0.9,2.9,1.3
	c0.8,0.5,1.8,1.1,2.3,1.9c0.5,0.8,0.6,1.9,0.7,3c0.1,1,0.2,2,0.5,3.8c0.2,1.7,0.5,4.2,0.8,6.7c0.2,2.5,0.4,5.1,1.8,9.3"/>
<path class="st3" d="M381.8,111.8c1.9,3.9,2,5.1,2.1,6.3c0.1,1.1,0.1,2.3,0.1,3.3c0,1,0,1.9,0,2.6s0.1,1.3,0.3,1.6
	c0.2,0.4,0.6,0.5,0.9,0c0.3-0.4,0.5-1.5,0.9-3c0.4-1.6,0.9-3.7,2.5-7.3"/>
<path class="st3" d="M380.8,109.4c9,4.6,10.8,4.8,12.5,4.8c1.7,0,3.4-0.3,4.7-0.7c1.3-0.3,2.1-0.7,2.9-1c0.8-0.3,1.6-0.4,3.9-0.4
	s6.1,0.2,8.5,0.4c2.4,0.2,3.5,0.5,4.3,0.9c0.8,0.4,1.3,0.8,1.8,1.1c0.5,0.4,0.8,0.7,1.5,1.1c0.6,0.4,1.4,0.8,2.3,1.1
	c0.8,0.3,1.7,0.6,2.7,0.7c1,0.1,2.2,0.1,3,0.1c0.8-0.1,1.1-0.2,2.2-0.7c1.1-0.5,3-1.4,4.6-1.9c1.6-0.6,3-0.8,4.4-1
	c1.4-0.1,2.8-0.1,4.2,0.2c1.5,0.3,3.1,0.9,4.6,1.4c1.5,0.5,3,0.8,3.7,1.6c0.6,0.8,0.4,2.2,0.1,4.1s-0.7,4.5-1.3,6.2
	c-0.7,1.7-1.6,2.5-2.9,3.4c-1.3,0.9-3,1.8-4.2,2.5c-1.3,0.6-2.1,0.9-3.2,0.9c-1,0.1-2.2-0.1-3.4-0.3c-1.2-0.3-2.3-0.7-3.1-1
	c-0.8-0.4-1.2-0.8-1.7-1.2c-0.4-0.4-0.8-0.8-1.4-1.4c-0.5-0.5-1.1-1.2-1.6-2c-0.5-0.8-0.7-1.7-1.1-2.7c-0.4-1-0.9-1.9-1.3-2.6
	c-0.4-0.7-0.8-1-1.3-1.2c-0.5-0.2-1.2-0.2-1.9-0.1c-0.7,0-1.4,0.1-2,0.4c-0.6,0.3-1.2,0.9-1.7,2c-0.6,1.1-1.2,2.6-2.1,3.7
	c-0.9,1-2,1.5-3.4,1.9c-1.4,0.4-3.1,0.7-4.4,0.9s-2.2,0.2-3.2,0.2c-1,0-2,0.1-3-0.1c-1-0.2-2.1-0.6-2.9-1c-0.8-0.4-1.4-0.9-2-1.5
	c-0.6-0.6-1.1-1.2-1.6-2c-0.4-0.8-0.8-1.7-1-2.6s-0.4-1.7-0.6-2.5c-0.2-0.7-0.6-1.3-1-1.9c-0.4-0.6-1-1.1-1.7-1.6
	c-0.7-0.5-1.6-1-2.8-1.3c-1.1-0.4-2.5-0.6-10.5-4.8"/>
<path class="st3" d="M391.3,156.4c3,5.3,7.1,7.8,9.4,9.5c2.4,1.7,3.1,2.6,5.5,4c2.4,1.4,6.5,3.3,9.5,4.2c3,0.9,4.8,0.8,6.5,0.7
	c1.7-0.1,3.2-0.3,4.8-0.7c1.6-0.4,3.3-1.1,4.3-1.6c1-0.5,1.4-0.8,1.9-1.1c0.5-0.3,1.2-0.7,2.6-1.5c1.4-0.8,3.4-2.1,3.5-2.3"/>
<path class="st3" d="M171.5,114.6c-2.6,4.5-2.9,5.8-3,7.1c-0.1,1.3-0.1,2.7-0.1,4.4c0,1.7,0,3.7,0.7,8.1"/>
<path class="st3" d="M125.3,122.6c-1.2,5.7,0.4,18,1.3,20.2"/>
<path class="st3" d="M198.1,221.6c-4.8,4.4-7.5,6.7-10.5,7.9c-3,1.2-6.4,1.4-9.8,1.7c-3.4,0.3-6.9,0.7-10,0.8
	c-3.1,0.2-5.9,0.1-9-0.3c-3.1-0.4-6.6-1.1-9.3-1.9c-2.6-0.8-4.4-1.7-7.5-2.9c-3.1-1.3-7.7-2.9-12-8.1"/>
<path class="st3" d="M187.7,176.4c-0.6,8.5-0.8,10.4-1,12.6c-0.2,2.2-0.3,4.6,0.1,7.7c0.5,3.1,1.6,6.9,4.9,12.4
	c3.2,5.6,8.5,13,8.5,25.5"/>
<path class="st3" d="M131.4,180.4c-4.7,3.6-6,5.4-7.1,6.6c-1,1.2-1.8,2-2.5,2.4c-0.7,0.4-1.3,0.4-2.4,0.4c-1.1,0.1-2.6,0.2-4.2,0.5
	c-1.6,0.2-3.2,0.6-10.1,3.9"/>
<path class="st3" d="M131,162.5c-0.4,10.9,0.2,14.4,0.4,17.1s0,4.6-0.6,8.9c-0.6,4.3-1.6,11-1.8,15.5c-0.2,4.5,0.5,6.9,0.8,9.1
	c0.3,2.2,0.3,4.4,0.2,9.2c0,4.8,0,12.2,0.5,12.9"/>
<path class="st3" d="M122.7,146.2c1.3,1.4,2.6,1.7,3.8,0.7"/>
<path class="st3" d="M177.2,144c2.6,1.9,2.8,2.3,3.3,3s1.3,1.8,2.1,2.9c0.8,1.2,1.7,2.5,1.9,3.7c0.2,1.3-0.2,2.5-0.5,3.5"/>
<path class="st3" d="M175.6,110.1c0.5-0.4,2.2-1.1,4.5-1.6c2.3-0.5,5.3-0.7,7.2-0.5c1.9,0.2,2.9,0.8,3.7,1.4
	c0.8,0.6,1.5,1.4,1.9,1.9c0.5,0.6,0.7,1,0.6,1.4c-0.1,0.3-0.5,0.6-1.5,0.5c-0.9-0.1-2.3-0.6-3.4-1.1c-1.1-0.5-2-1.1-3.2-1.4
	c-1.1-0.3-2.5-0.3-4-0.3c-1.6,0-3.3,0.1-4.5,0.1C175.7,110.5,175.1,110.4,175.6,110.1z"/>
<path class="st3" d="M136.9,111.1c-0.1-0.4,1.2-1.2,2.7-2c1.4-0.8,3-1.5,4.9-1.9c1.9-0.3,4.1-0.2,6.2,0.1c2.1,0.3,4,0.8,5.2,1.3
	c1.3,0.6,1.9,1.3,2.1,1.8c0.2,0.4-0.1,0.6-0.9,0.5c-0.8-0.2-2.2-0.7-3.4-1c-1.3-0.3-2.4-0.5-4-0.3c-1.6,0.1-3.6,0.6-5.2,0.9
	c-1.6,0.3-2.8,0.5-4.3,0.7C138.7,111.3,137,111.4,136.9,111.1z"/>
<path class="st3" d="M117.1,119c3.1-0.8,4.4,1.7,5.4,3.2c1,1.5,1.7,2,2.2,1.8c0.5-0.2,0.8-1.1,0.9-2.7c0.1-1.6,0.1-3.8,0.6-5.7
	c0.6-1.9,1.8-3.3,2.9-5.1c1.2-1.7,2.3-3.8,2.9-6c0.6-2.2,0.7-4.5,0.9-7c0.2-2.5,0.6-5,1.2-7.2c0.6-2.2,1.4-4,2.9-5.6s3.7-3.1,6-4.2
	c2.3-1.1,4.8-1.7,6.9-2.3c2.2-0.7,4.1-1.3,6.2-1.8c2.1-0.4,4.4-0.6,7.1-0.7c2.7-0.1,5.7-0.1,8.6,0.3c2.9,0.4,5.7,1.3,8.6,3.5
	c2.9,2.2,6,5.8,8.2,8.3c2.2,2.4,3.4,3.7,4.3,6.2c0.9,2.4,1.6,6,2.3,8.6c0.6,2.6,1.3,4.2,1.9,6.3c0.6,2.1,1.2,4.8,1.6,7.7
	c0.4,2.9,0.5,6.2,0.5,8.6c0.1,2.5,0.1,4.2,0.5,6.6c0.4,2.4,1.3,5.4,3.5,9.3"/>
<path class="st3" d="M412.9,139.6c-1.9,3.9-3.2,5.1-4.3,5.9c-1.1,0.8-2,1.3-2.4,1.8c-0.5,0.6-0.5,1.3-0.5,1.8"/>
<path class="st3" d="M199.3,138.6c0,0-0.1,8.9-1.2,12.4"/>
<path class="st6" d="M255.3,239.2c-3.6-4.7-3.6-7.5-4.8-11.6c-1.2-4.1-3.6-9.4-5.1-13.2c-1.6-3.8-2.3-6.2-3.5-8.7
	c-1.2-2.5-2.9-5.1-4.3-6.5c-1.4-1.4-2.6-1.6-3.5-1.9c-0.9-0.3-1.7-0.7-2.7-1.5c-1-0.8-2.4-2-5.1-2.8c-2.7-0.8-6.6-1.2-10.6-1.7
	c-4-0.5-7.9-0.9-10.8-1.6c-2.9-0.6-4.7-1.4-6.9-2.2c-2.2-0.7-4.8-1.4-6.7-2.3c-1.8-1-2.9-2.2-3.4-4.2c-0.5-1.9-0.3-4.5,0-6.5
	c0.3-2,0.7-3.3,1.3-4.7c0.6-1.4,1.3-2.9,2-4.1c0.7-1.2,1.2-2.1,2.4-4.4c1.2-2.3,3-5.9,4.5-8.9c1.5-3,2.8-5.3,3.8-7.9
	c1.1-2.6,2-5.5,2.6-9.5c0.7-4,1.1-9,1.6-13c0.5-4,1.2-6.8,0.2-11.5c-0.9-4.7-3.5-11.2-4.8-15.6c-1.3-4.4-1.5-6.8-4.1-10.3
	c-2.6-3.5-7.8-8-10.6-11c-2.8-2.9-3.4-4.2-6.5-6.4c-3.1-2.2-8.8-5.2-21.4-4.7c-10.2,0.4-13.6,1.7-16.9,3.4c-3.2,1.7-6.3,3.7-9.1,6.8
	c-2.8,3-5.4,7-7.3,10.2c-1.9,3.2-3.1,5.5-4,9c-0.9,3.5-1.4,8.2-1.8,11.7c-0.5,3.5-0.9,5.7-1.2,8c-0.3,2.3-0.5,4.7-1,6.1
	c-0.5,1.4-1.4,2-2.4,2.9c-1,0.9-2,2.3-1.9,5.8s1.4,9.1,2.6,12.2c1.2,3.1,2.4,3.8,3.9,4.9c1.4,1.1,3.1,2.6,4,4.1
	c0.9,1.6,1.1,3.2,0.6,6.3c-0.5,3.1-1.7,7.8-3.2,11.5c-1.5,3.7-3.3,6.3-5.1,8.7c-1.7,2.4-3.4,4.6-4.7,7.4c-1.4,2.8-2.4,6.1-3.5,8.6
	c-1.1,2.5-2.1,4.1-5.6,5.4c-3.5,1.3-9.3,2.2-14.2,3.9c-4.9,1.7-8.7,4.2-13.4,7c-4.6,2.7-10,5.7-16.2,22.9"/>
<path class="st6" d="M258.7,466.3c-0.5-3.9-4.8-7.6-8.2-10.3c-3.4-2.7-5.9-4.3-7.5-5.5c-1.6-1.2-2.3-1.8-3.3-3
	c-1-1.2-2.4-2.9-6.1-5.4c-3.8-2.4-9.9-5.6-13.9-7.7c-4-2.2-5.8-3.4-7.3-4.8c-1.6-1.4-3-3.2-4.5-5.9c-1.6-2.7-3.3-6.5-4.4-9.3
	c-1.1-2.9-1.6-4.8-2.1-6.2c-0.5-1.3-1-2-2-2.5c-1.1-0.5-2.7-0.9-3.8-1.2c-1-0.3-1.4-0.4-1.7-2.3c-0.3-1.9-0.5-5.6-0.6-7.8
	c-0.1-2.2,0-3,0.6-3.5c0.6-0.5,1.6-0.7,2.3-1.1c0.7-0.4,1-1.1,1.6-1.9c0.6-0.8,1.5-1.8,2.4-4c0.9-2.3,1.9-5.8,2.4-8.2
	c0.6-2.4,0.8-3.6,0.7-5.2c-0.1-1.5-0.6-3.4-0.6-4.8c0-1.4,0.4-2.2,0.5-3.3s-0.3-2.2-1.2-2.7s-2.2-0.4-3-0.5c-0.8-0.1-1-0.5-1.1-1.4
	c0-0.9,0.2-2.2,0-3.7s-0.8-3.3-1.1-6.7c-0.3-3.4-0.2-8.4-0.6-11.7c-0.4-3.4-1.2-5.1-1.9-7.5c-0.7-2.4-1.3-5.6-1.9-8
	c-0.7-2.4-1.5-4-2.6-4.8c-1.1-0.8-2.4-0.8-3.4-1.3c-0.9-0.5-1.4-1.5-1.9-2.4c-0.5-1-0.9-1.9-1.4-2.2c-0.4-0.3-0.9,0-1.8-0.2
	c-0.9-0.2-2.3-1-3.7-1.9c-1.4-0.9-2.7-1.8-4.4-2.5c-1.8-0.7-4.1-1.2-6-1.7c-2-0.5-3.7-1-5.7-1.1c-2-0.1-4.4,0.3-8.1,0.5
	c-3.7,0.3-8.7,0.4-12,3c-10.1,8.1-12.4,9.5-13.8,10.8c-1.4,1.4-2.1,2.7-3.2,4.6c-1.2,1.9-2.8,4.3-4.1,6.9c-1.3,2.6-2.2,5.4-2.7,7.8
	c-0.5,2.4-0.5,4.3-0.4,7.1c0.2,2.8,0.5,6.6,0.6,9.5c0.1,2.9-0.2,4.9-0.2,6.5c-0.1,1.6,0.1,2.8,0,3.6c-0.1,0.8-0.4,1.3-0.6,1.9
	c-0.2,0.6-0.4,1.2-0.4,2.9c0.1,1.7,0.4,4.4,0.5,6.7c0.1,2.3-0.1,4.2,0.2,6c0.3,1.8,1.1,3.5,1.8,5.4c0.7,1.9,1.2,4.1,1.6,5.5
	c0.4,1.5,0.6,2.3,1,3s1,1.2,1.6,1.5c0.6,0.3,1.2,0.3,2.1,1.8c0.9,1.5,2.1,4.4,3.2,6.3c1.1,1.9,2,2.9,3.5,4c1.5,1.2,3.5,2.5,5,3.6
	c1.5,1.1,2.7,1.9,2.9,3.5c0.3,1.7-0.3,4.2-1.9,6.9s-4.2,5.4-5.6,6.8c-1.4,1.4-1.7,1.3-3,1.6c-1.3,0.3-3.6,0.9-6.4,1.7
	c-2.8,0.8-6.2,1.7-9.8,2.2c-3.5,0.4-7.2,0.4-11.1,0.7c-3.9,0.3-7.9,1-10.9,1.7c-3,0.7-4.8,1.4-6.7,2.8c-1.9,1.4-3.9,3.4-6.1,5.7
	c-2.3,2.3-4.8,4.9-6.8,8.1s-3.4,6.9-6.4,10.6c-3,3.7-7.6,7.5-9.8,12.4"/>
<path class="st6" d="M302.9,476.4c9.7-15.3,10.8-20.9,12.4-24.9c1.6-4,3.6-6.4,6.1-8.5c2.5-2.1,5.3-4,8.3-5.9
	c3-1.9,6.2-3.7,13.1-6.7s17.6-7.1,24.9-9.4s11.1-2.9,14.2-3.6c3.2-0.7,5.7-1.7,7.2-2.9c1.6-1.2,2.2-2.7,2.8-4.1
	c0.6-1.4,1.1-2.9,1.4-3.7c0.3-0.9,0.3-1.2,0.4-2.9c0-1.8,0-5-0.3-7.5c-0.3-2.5-0.9-4.3-1.5-5.5c-0.6-1.3-1.3-2.1-1.9-3.3
	c-0.6-1.2-1.2-2.9-2.4-5.1c-1.3-2.2-3.3-4.9-4.4-7.3c-1.1-2.4-1.3-4.5-1.3-6.3s0.2-3.2,0.7-4.6s1.4-2.8,1.7-3.7c0.2-1-0.1-1.5,0.3-6
	c0.5-4.5,1.9-13,3.1-19.4c1.2-6.4,2.2-10.8,12.2-21.6c13.7-6.6,17.9-6.8,21.9-6.8c4,0,7.7,0.1,10.3,0.3c2.7,0.2,4.4,0.6,6.4,1.7
	c2,1.1,4.2,2.8,6.6,4.8c2.3,1.9,4.7,4,6.6,6.1c1.8,2.1,3.1,4.1,4.2,5.8c1.1,1.6,2,2.8,2.7,3.7c0.8,0.9,1.5,1.4,2.3,1.9
	c0.9,0.5,1.9,1,2.4,1.7c0.5,0.7,0.5,1.6,0.3,2.5c-0.2,0.9-0.5,1.6-1.1,2.2c-0.5,0.6-1.3,1-1.6,1.7s-0.4,1.8-0.8,5.2
	c-0.4,3.4-1.2,9-1.6,12.4c-0.4,3.4-0.4,4.4-0.5,5.7c-0.1,1.3-0.3,2.8,0,4.7c0.2,1.9,0.8,4.1,1.1,6.3c0.3,2.2,0.2,4.3-0.2,6.1
	c-0.3,1.8-0.9,3.3-2.1,5.1c-1.2,1.7-2.9,3.6-4,6.2c-1,2.6-1.3,5.8-2,8.3c-0.7,2.5-1.8,4.1-2.8,5.6c-1,1.5-1.7,2.7-2.5,4.1
	c-0.7,1.3-1.3,2.8-1.7,4.2c-0.3,1.4-0.4,2.8-0.4,4.5s0,3.8,0.9,5.9c0.9,2.1,2.6,4.1,7.1,6.9c4.5,2.7,11.7,6.1,17.5,9.2
	c5.8,3.1,10,5.9,13.8,8.6c3.8,2.7,7.1,5.2,8.9,7.7c1.9,2.5,2.4,4.8,3.6,8.4c1.2,3.6,3.2,8.5,7.2,18.5"/>
<path class="st6" d="M518.6,234.2c-1.6-9.8-3.7-14.1-6.5-19.9c-2.9-5.7-6.6-12.9-8.9-16.8c-2.2-3.8-3-4.4-3.8-5.2
	c-0.8-0.8-1.7-1.9-4.8-3.5c-3.1-1.6-8.5-3.8-15.9-6c-7.4-2.2-16.7-4.5-22.7-6.1c-6.1-1.5-8.9-2.3-11.1-3.3s-4-2.4-4.9-3.3
	c-1-0.9-1.2-1.5-0.4-2.7c0.7-1.2,2.3-3.1,3.6-4.8c1.3-1.6,2.2-3,3.8-10c1.6-7,3.9-19.5,5.1-26.4c1.2-6.9,1.2-8.1,1.7-10.5
	c0.5-2.4,1.6-5.8,2.2-9.3c0.6-3.5,0.8-7,0.9-10c0.1-2.9,0.1-5.3-1-9c-1.2-3.7-3.5-8.8-5.4-11.8c-1.9-3-3.4-4-6-5.3
	c-2.6-1.3-6.4-3-8.9-4.5c-2.6-1.5-3.9-2.7-4.7-3.6c-0.9-0.8-1.3-1.2-3.9-2.1c-2.7-1-7.6-2.6-11-2.9c-3.4-0.2-5.3,1-9.8,4
	c-4.2,2.7-7.1,3.5-9.4,4.3c-2.3,0.7-4,1.4-5.2,2.4c-1.2,1-1.9,2.2-3.3,3.8c-1.4,1.5-3.5,3.3-5,4.9c-1.5,1.6-2.5,3.1-3.1,4.7
	c-0.6,1.5-0.8,3.1-0.9,6.1c-0.2,2.9-0.3,7.2-0.3,10.1c0,2.9,0.1,4.4,0.5,6.1c0.4,1.7,1.1,3.7,1.4,5c0.3,1.4,0.3,2.1-0.2,2.7
	s-1.6,0.8-2.7,1.2c-1.1,0.4-2.1,0.8-2.8,2c-0.7,1.2-1,3.3-0.8,5.8c0.2,2.5,0.8,5.3,1.4,7.1s1.1,2.5,1.5,3.4c0.3,1,0.5,2.2,0.6,3.7
	c0.2,1.4,0.4,3,0.7,4.2c0.3,1.2,0.7,2,1.4,2.5c0.7,0.4,1.7,0.4,2.6,0.2c0.9-0.2,1.7-0.5,2.4-0.6s1.3,0.3,1.8,2.4
	c0.5,2.1,1,6,1.3,8.7c0.3,2.7,0.6,4.3,0.5,5.3c-0.1,1-0.6,1.5-1.6,2.4c-1,0.9-2.4,2.3-3.5,3.4c-1.1,1.1-1.8,1.9-2.5,3.2
	c-0.7,1.3-1.4,3-2,4.6c-0.6,1.6-1.2,3.1-1.6,4.2c-0.5,1.1-0.8,1.7-2,2.6c-1.2,0.9-3.3,2.2-6.1,3.9c-2.7,1.8-6.1,4.1-10.4,6.3
	c-4.3,2.3-9.4,4.5-12.7,6.1c-3.3,1.6-4.7,2.5-6.7,3.4c-2,0.8-4.7,1.5-6.9,2.2c-2.2,0.7-4,1.4-5.2,2.3c-1.2,0.9-1.9,2.1-2.7,3.1
	s-1.7,1.9-2.7,3c-1.1,1.1-2.3,2.3-3,3.3s-0.9,1.5-2.4,4s-4.3,6.7-9.3,21.6"/>
</svg>
