<?xml version="1.0" encoding="utf-8"?>
<!-- Generator: Adobe Illustrator 23.0.1, SVG Export Plug-In . SVG Version: 6.00 Build 0)  -->
<svg version="1.1" id="Layer_1" xmlns="http://www.w3.org/2000/svg" xmlns:xlink="http://www.w3.org/1999/xlink" x="0px" y="0px"
	 viewBox="0 0 550.1 550.1" style="enable-background:new 0 0 550.1 550.1;" xml:space="preserve">
<style type="text/css">
	.st0{fill:#606060;}
	.st1{fill:#9B9B9B;}
	.st2{fill:none;stroke:#314584;stroke-width:0.5;stroke-linecap:round;stroke-linejoin:round;}
	.st3{fill:none;stroke:#314584;stroke-linecap:round;stroke-linejoin:round;}
</style>
<g id="XMLID_1_">
	<g>
		<path class="st0" d="M455.4,370c-0.2-1.5-0.5-3-0.9-4.4c-0.3-1.4-0.6-2.8-0.8-4.2c-0.2-1.4-0.3-2.9-0.3-4.9c0-1.9,0.3-4.2,0.3-6.4
			c0-2.2-0.1-4.3-1.1-6.5c-0.4-0.8-0.9-1.6-1.4-2.4c4.3,5.1,6.9,9.7,7.8,13.7l0,0c-0.1,0.6-0.2,1.2-0.2,1.8
			c-0.4,3.4-0.4,4.4-0.5,5.7c-0.1,0.8-0.1,1.8-0.1,2.9c-0.4,12.1-1.5,13.3-2,13.5s-0.6-0.5-0.6-1.5c0-0.9,0-2,0-3.2
			C455.5,372.8,455.6,371.4,455.4,370z"/>
		<path class="st0" d="M438.4,323.5c-1.2-0.1-3.4-0.4-5.5-0.6c-2-0.2-3.9-0.4-5.8-0.5c-1.9-0.2-3.8-0.3-5.4-0.5
			c-1.6-0.1-2.8-0.2-4.5-0.2s-3.8,0.1-6.2,0.5c0.2-2.2,0.9-4.1,1.4-5.4c0.7-1.9,1-2.7,1.9-3.3c0.9-0.6,2.3-0.9,4-1.1s3.6-0.2,6.2,0
			s5.8,0.6,8.4,1.2s4.6,1.4,5.7,2.3s1.4,1.8,1.4,2.7c0,0.9-0.2,1.9-0.4,2.7c-0.1,0.8-0.1,1.4,0,1.7c0,0.3,0.1,0.4,0.1,0.5
			c0,0,0,0,0,0.1C439.7,323.6,439.6,323.7,438.4,323.5z"/>
		<path class="st0" d="M385.7,347.4c0.5-2.5,8.4-6,14.1-12.5c-0.4,0.4-0.7,0.9-0.9,1.4c-0.7,1.3-1.1,2.9-1.4,4.4
			c-0.2,1.5-0.3,2.9-0.4,4.2c-0.2,1.2-0.5,2.3-1.2,5.2c-0.7,2.9-1.9,7.7-2.9,11s-2,5.2-2.2,7.2s0.4,4.1,0.7,5.8
			c0.4,1.7,0.5,3,0.4,4.4c-0.1,1.3-0.5,2.7-0.8,3s-0.5-0.4-0.9-2s-0.9-3.9-1.2-5.6c0-0.1,0-0.2-0.1-0.3c-0.3-1.7-0.3-2.5-0.6-3.4
			c-0.3-0.9-0.8-1.9-1.3-2.8s-0.8-1.6-1.2-2.5c-0.3-0.9-0.6-1.9-2.2-2.7c0.3-0.5,0.5-1.1,0.6-1.5c0.3-1-0.2-1.5,0.3-6
			C384.9,352.6,385.2,350.2,385.7,347.4L385.7,347.4z"/>
	</g>
</g>
<g id="XMLID_4_">
	<g>
		<path class="st0" d="M414.3,88.6c-2.9-0.2-6.6,0-9.6,0.7c-3,0.8-5.3,2.1-6.7,3.4c-1.4,1.3-1.8,2.5-2.2,3.6s-0.7,1.8-1.1,3.1
			c-0.4,1.2-1,2.9-1.5,4.3s-0.9,2.6-1.5,4.2s-1.3,3.7-2,5.6c-1.8-0.6-4.5-1.8-8.9-4c0-0.2-0.1-0.4-0.1-0.6c-0.3-1.4-1-3.3-1.4-5
			s-0.5-3.2-0.5-6.1s0.1-7.2,0.3-10.1c0.1-2.9,0.3-4.5,0.9-6.1c0.6-1.5,1.6-3.1,3.1-4.7s3.6-3.4,5-4.9s2.1-2.8,3.3-3.8
			c1.2-1,2.9-1.6,5.2-2.4c2.3-0.7,5.2-1.6,9.4-4.3c4.5-3,6.4-4.2,9.8-4s8.3,1.9,11,2.9s3,1.3,3.9,2.1s2.2,2.1,4.7,3.6
			s6.3,3.1,8.9,4.5c2.2,1.1,3.5,1.9,5,3.9c0.3,0.4,0.7,0.9,1,1.4c1.9,3,4.3,8.1,5.4,11.8c1.2,3.7,1.1,6.1,1,9s-0.2,6.5-0.8,10
			c-0.6,3.5-1.7,7-2.2,9.3c-0.3,1.2-0.4,2.1-0.6,3.7c0.1-1,0.1-1.8-0.2-2.4l0,0c-1.4-4.3-1.6-6.8-1.8-9.3c-0.2-2.5-0.5-5-0.8-6.7
			s-0.4-2.7-0.5-3.8c-0.1-1-0.2-2.1-0.7-3s-1.4-1.5-2.3-1.9c-0.9-0.5-1.6-0.8-2.9-1.3c-0.4-0.2-0.9-0.4-1.4-0.7
			c-1-0.4-2.2-0.9-3.7-1.2c-2.2-0.4-5-0.5-6.7-0.3c-0.5,0.1-0.9,0.1-1.2,0.2c-0.9,0.2-1.4,0.5-2,0.7c-0.9,0.3-2,0.5-3.3,0.4
			s-2.8-0.4-4.5-0.8C419.3,89.2,417.2,88.8,414.3,88.6z"/>
		<path class="st0" d="M388.7,115.2c-1.5,3.6-2.1,5.7-2.5,7.3c-0.4,1.6-0.6,2.6-0.9,3s-0.7,0.3-0.9,0c-0.2-0.4-0.3-0.9-0.3-1.6
			s0-1.6,0-2.6s-0.1-2.1-0.1-3.3c-0.1-1.1-0.2-2.3-2.1-6.3C385.3,113.6,387.4,114.6,388.7,115.2z"/>
	</g>
</g>
<g id="XMLID_3_">
	<g>
		<path class="st1" d="M186.9,77.6l1.7-2.1c2.9,2.8,6.7,6.3,8.8,9.2c2.6,3.5,2.8,5.9,4.1,10.3s3.9,10.9,4.8,15.6
			c0.1,0.7,0.2,1.4,0.3,2c0.4,3.6-0.1,6.1-0.6,9.5c0,0.2-0.1,0.5-0.1,0.8c0-0.1-0.1-0.1-0.1-0.2c-1.3-2.2-2.7-5.6-11.8-23.9l0,0
			c-0.4-1.7-0.8-3.4-1.3-4.7c-0.9-2.4-2.2-3.7-4.3-6.2c-2.2-2.4-5.2-6-8.2-8.3l-0.1-0.1C183.8,78,185.8,77.6,186.9,77.6z"/>
		<path class="st1" d="M204.8,133.8c-0.1,0.4-0.1,0.8-0.2,1.2c-0.4,2.4-0.9,4.4-1.5,6.2c-2.2-3.9-3.1-7-3.5-9.3
			c-0.4-2.4-0.4-4.1-0.5-6.6c0-1.6-0.1-3.4-0.2-5.3C199.3,126.6,202.1,130.8,204.8,133.8z"/>
		<path class="st1" d="M194.2,98.7c9.1,18.3,10.4,21.6,11.8,23.9c0,0.1,0.1,0.2,0.1,0.2c-0.4,3.4-0.8,7.5-1.3,11
			c-2.7-3-5.4-7.2-5.9-13.8c0,0,0-0.1,0-0.2c-0.1-1.1-0.2-2.2-0.3-3.2c-0.4-2.9-1-5.6-1.6-7.7s-1.2-3.7-1.9-6.3
			C194.8,101.5,194.5,100.1,194.2,98.7z"/>
		<path class="st1" d="M188.7,75.5l-1.7,2.1c-1.1,0-3.1,0.3-6.7,1.9l0,0c-2.9-2.2-5.6-3-8.5-3.4c-1.3-0.2-2.6-0.3-3.9-0.4
			c2.7-1.3,4-2.9,5.2-4s2.2-1.8,3.1-2.3c0.8-0.5,1.5-0.8,5.7-1.1c2,1.6,2.8,2.9,5.1,5.4C187.4,74.3,188,74.9,188.7,75.5z"/>
		<path class="st1" d="M167.8,75.7c-1.4-0.1-2.7,0-4,0l0,0c0-1.8-0.9-2.7-1.8-3.7c-1-1-2.1-2-9-9c1.7-0.2,3.6-0.3,6-0.4
			c12.7-0.5,18.3,2.5,21.4,4.7c0.5,0.3,0.9,0.7,1.3,1c-4.1,0.3-4.8,0.6-5.7,1.1s-1.9,1.2-3.1,2.3S170.5,74.4,167.8,75.7z"/>
		<path class="st1" d="M156,76.5c-2.1,0.4-4,1.1-6.2,1.8c-2.1,0.6-4.4,1.2-6.5,2.1c-3.7,1.6-6.6,2-8.6,2.4s-3.4,0.8-5.5-0.4
			l-2.8-0.6c1.8-2.9,4.1-6.3,6.5-9c2.8-3,5.9-5.1,9.1-6.8c2.5-1.3,5.1-2.4,10.9-3c6.9,7,8,8,9,9s1.8,1.9,1.8,3.7l0,0
			c-0.2,0-0.5,0-0.7,0C160.5,75.8,158.1,76,156,76.5z"/>
		<path class="st1" d="M134,90.4L134,90.4c-0.6,2.2-1,4.8-1.2,7.2c-0.2,2.5-0.3,4.8-0.9,7c-0.6,2.2-1.7,4.2-2.9,6
			c-1.1,1.7-2.3,3.2-2.9,5.1s-0.5,4.1-0.6,5.7c0,0.5-0.1,1-0.2,1.3c0,0,0,0.1,0,0.2c-0.2,0.7-0.4,1.1-0.7,1.2
			c-0.5,0.2-1.2-0.3-2.2-1.8s-2.3-4-5.4-3.2c0.2-0.3,0.4-0.7,0.6-1.1c0.5-1.4,0.7-3.8,1-6.1s0.7-4.5,1.2-8l2.2,0.1
			C123.5,100.8,130.9,96.4,134,90.4z"/>
		<path class="st1" d="M126.5,146.8c0,5.9,1.2,8.6,2,10.4c0.8,1.8,1.2,2.9,1.6,3.6c0.2,0.5,0.4,0.9,0.9,1.6
			c-0.4,10.9,0.2,14.4,0.4,17.1c0,0.3,0,0.5,0,0.8c-4.7,3.6-6,5.4-7.1,6.6c-1,1.2-1.8,2-2.5,2.4s-1.3,0.4-2.4,0.4
			c-1.1,0.1-2.6,0.2-4.2,0.5c-1.6,0.2-3.2,0.6-10.1,3.9c1.3-1,2-2.3,2.7-3.8c1.1-2.5,2.1-5.8,3.5-8.6s3-5,4.7-7.4s3.5-5.1,5.1-8.7
			c1.5-3.7,2.7-8.3,3.2-11.5c0.5-3.1,0.3-4.8-0.6-6.3c-0.3-0.6-0.7-1.1-1.2-1.6C123.9,147.6,125.2,147.8,126.5,146.8z"/>
		<path class="st1" d="M136.9,84.8c-1.5,1.6-2.3,3.4-2.9,5.6c-3.1,6-10.5,10.5-11.9,13.4l-2.2-0.1c0.5-3.5,1-8.2,1.8-11.7
			c0.9-3.5,2.1-5.9,4-9c0.2-0.4,0.5-0.8,0.7-1.2l2.8,0.6c2.1,1.2,3.4,0.8,5.5,0.4s4.9-0.8,8.6-2.4c-0.1,0.1-0.3,0.1-0.4,0.2
			C140.6,81.7,138.4,83.1,136.9,84.8z"/>
	</g>
</g>
<g id="XMLID_2_">
	<g>
		<path class="st0" d="M196,357.4c0.1-0.3,0.1-0.4-0.2-0.6c-0.2-0.2-0.7-0.5-1.1-0.8c-0.5-0.3-0.9-0.5-1.7-0.8c-0.8-0.2-2-0.5-3-0.6
			c-0.2,0-0.5-0.1-0.7-0.1c-0.8-3.6-0.8-4.4-1-5.2c-0.2-0.8-0.6-1.4-1.1-2.3c-0.6-0.8-1.3-1.9-1.7-2.8c-0.5-0.9-0.7-1.8-1-2.7
			c-0.3-0.9-0.6-1.9-1.3-3.6s-1.9-4.1-2.7-5.4c-0.8-1.4-1.3-1.8-2.2-2.3s-2.3-1.1-4.4-1.6c-2.2-0.4-5.1-0.7-7-0.8
			c-1.9-0.1-2.8-0.2-3.6,0.4c-0.9,0.6-1.8,1.7-2.5,2.1s-1.2,0-2.7-0.3c-0.1,0-0.2,0-0.3-0.1c-1.5-0.3-3.7-0.6-5.3-0.5
			c-0.4,0-0.8,0.1-1.1,0.1c-1.1,0.2-1.9,0.5-2.5,0.6c-0.5,0.1-0.9,0-1.3-0.1c-0.4-0.1-0.9-0.2-1.6-0.4c-1.3-0.3-3.3-0.5-5.4-0.5
			c-0.4,0-0.8,0-1.3,0c-1.8,0-3.5,0.2-4.8,0.7c-1.7,0.6-2.6,1.5-3.8,2.7c-1.1,1.2-2.4,2.5-3.7,4.2s-2.6,3.7-3.2,5.4
			c-0.6,1.7-0.6,3-0.3,4.7c0.2,1.7,0.7,3.7-1,8.4c-0.1,0.1-0.2,0.1-0.3,0.2c-1,0.7-1.9,1.7-4.4,2.8c0.1-1.5,0.3-3.3,0.2-5.8
			c-0.1-2.9-0.4-6.7-0.6-9.5s-0.1-4.8,0.4-7.1c0.5-2.4,1.4-5.2,2.7-7.8c1.3-2.6,3-5,4.1-6.9c1.2-1.9,1.8-3.2,3.2-4.6
			s3.7-2.7,13.8-10.8c3.2-2.6,8.3-2.8,12-3c3.7-0.3,6-0.6,8.1-0.5c2,0.1,3.7,0.6,5.7,1.1s4.3,1,6,1.7c1.8,0.7,3.1,1.6,4.4,2.5
			c1.4,0.9,2.7,1.6,3.7,1.9c0.9,0.2,1.3-0.1,1.8,0.2c0.4,0.3,0.9,1.2,1.4,2.2c0.5,0.9,1,1.9,1.9,2.4s2.3,0.5,3.4,1.3
			c1.1,0.8,1.9,2.4,2.6,4.8c0.7,2.4,1.3,5.6,1.9,8c0.7,2.4,1.5,4.1,1.9,7.5s0.3,8.4,0.6,11.7c0.3,3.4,0.8,5.1,1.1,6.6
			c0.2,1.5,0,2.8,0,3.7c0,0.5,0.1,0.9,0.4,1.1c-1.4,1.8-2.7,2.9-3.4,4s-0.9,2-1,2.9s-0.2,1.8-0.5,2.5s-0.9,1.3-1.2,1.4
			s-0.4-0.1-0.3-0.6c0.1-0.5,0.3-1.2,0.3-2.7c0-1.4-0.2-3.6-2-7.5c1-0.2,2.1-0.3,3-0.4c1.2-0.1,1.9-0.1,2.3-0.3
			C195.8,358.1,195.9,357.6,196,357.4z"/>
	</g>
</g>
<path class="st2" d="M157.8,329.9c5.5-5.3,9.5-6.7,17.1-7.4"/>
<path class="st2" d="M148.9,311c2.8-2.2,6-1.3,7.8-0.7c1.8,0.6,2.1,0.8,3.7,0.8c1.6,0,4.5-0.2,6.7-0.2s3.7,0.3,5,0.7
	c1.3,0.4,2.3,0.9,3.9,1.7c1.6,0.8,3.7,1.8,5.1,2.8s2,2.1,2.6,3.2c0.5,1.2,1,2.4,1.4,4.1"/>
<path class="st2" d="M117.7,358.3c2.5-1.1,3.4-2.1,4.5-2.8c1-0.7,2.1-1.1,3.3-1.5c1.2-0.3,2.4-0.5,4.4-0.6c2-0.1,4.8-0.1,6.8-0.1
	s3.2-0.1,4.5-0.1c1.2,0,2.5,0,3.8,0.4s2.8,1.1,3.6,1.5c0.9,0.5,1.2,0.7,1.6,1c0.4,0.2,0.9,0.4,1.7,0.4c0.8-0.1,1.9-0.4,2.8-0.8
	c0.9-0.4,1.4-0.9,2.5-1.4s2.7-1,4-1.5s2.4-1,5.2-1.3c2.8-0.4,7.3-0.6,10.5-0.6s5.2,0.2,6.7,0.7s2.6,1.3,3.2,1.9s0.7,0.8,1.1,0.9
	c0.4,0.2,1.2,0.2,2.2,0.4c1,0.2,2.2,0.4,3,0.6s1.2,0.5,1.7,0.8c0.4,0.3,0.9,0.5,1.2,0.8c0.2,0.2,0.2,0.3,0.2,0.6
	c-0.1,0.3-0.2,0.7-0.5,0.9c-0.4,0.2-1.1,0.2-2.3,0.3c-1.2,0.1-3,0.4-4,0.6s-1.4,0.3-1.7,0.6c-0.3,0.3-0.7,0.7-1.2,1.5
	c-0.5,0.7-1.1,1.8-1.6,2.5s-1,1.2-1.5,1.6c-0.6,0.4-1.2,0.7-2.7,1.2s-3.7,1.1-5.7,1.4c-1.9,0.2-3.5,0-5.6-0.1
	c-2-0.1-4.5-0.2-6.2-0.3c-1.6-0.1-2.4-0.1-3.1-0.5c-0.8-0.4-1.6-1-2.2-1.8c-0.6-0.8-1.1-1.8-1.4-2.8c-0.3-1-0.6-2.1-0.9-2.9
	s-0.7-1.1-1.3-1.3c-0.7-0.2-1.7-0.2-2.4,0s-1.2,0.6-1.7,1.8c-0.5,1.2-1,3.3-1.4,4.5s-0.6,1.6-1,2.1c-0.5,0.4-1.2,0.9-2,1.4
	s-1.6,1-2.7,1.2s-2.4,0-4.6-0.1c-2.2,0-5.4,0.2-8.1,0.1c-2.7-0.1-4.9-0.4-6.3-1c-1.4-0.5-2.1-1.2-2.7-1.9c-0.6-0.7-1.1-1.4-1.7-2
	c-0.5-0.6-1-1.1-1.9-1.3"/>
<path class="st2" d="M123.4,356.3c-0.4,0.2-1.4,0.6-1.9,1.1s-0.6,1-0.6,1.6c0,0.7,0,1.5,0.1,2.3s0.3,1.7,0.4,2.4
	c0.2,0.7,0.3,1.1,0.4,1.5c0.2,0.4,0.3,0.9,0.7,1.2c0.3,0.4,0.9,0.7,1.6,1c0.8,0.3,1.8,0.5,2.6,0.7c0.8,0.2,1.4,0.4,3.9,0.5
	s6.9,0,9.5-0.3s3.5-0.9,4.3-1.4s1.4-1,1.9-1.7s1-1.6,1.2-2.8c0.3-1.2,0.4-2.7,0.3-3.7c-0.1-1.1-0.2-1.7-0.8-2.2
	c-0.5-0.5-1.4-1-2.3-1.3c-1-0.3-2-0.5-4.6-0.6s-6.6-0.1-9.2,0c-2.6,0.1-3.7,0.3-4.7,0.6c-1,0.3-2,0.6-2.4,0.8
	C123.5,356,123.8,356.1,123.4,356.3z"/>
<path class="st2" d="M158.8,354.8c-0.8,0.5-1.6,1-2,1.6c-0.4,0.5-0.3,1.1-0.2,1.7s0.3,1.2,0.5,1.9c0.2,0.7,0.5,1.4,0.9,2.1
	s0.8,1.3,1.3,1.9s0.9,1,1.8,1.4c0.8,0.4,2,0.7,3.7,0.9c1.7,0.2,3.9,0.3,5.9,0.3c2.1,0,4-0.1,5.8-0.4s3.4-0.8,4.7-1.4s2.1-1.2,2.6-2
	c0.5-0.9,0.5-2.1,0.5-3.4c0-1.4-0.1-2.9-0.2-3.9c-0.1-1-0.3-1.5-0.7-1.9s-1.1-0.8-2.2-1c-1.2-0.2-2.8-0.3-5-0.3c-2.1,0-4.7,0-6.7,0
	c-2,0.1-3.5,0.3-4.7,0.5c-1.3,0.2-2.3,0.4-3.3,0.8C160.4,353.9,159.6,354.3,158.8,354.8z"/>
<path class="st2" d="M138.9,412.6c6.8,5.2,8.6,5.8,10.1,6.1c1.4,0.3,2.5,0.2,3.9,0.2c1.4-0.1,3.1-0.1,5.2-0.2
	c2.2-0.1,4.8-0.1,7.1-0.6s4.4-1.4,7.2-2.9c2.7-1.4,6.2-3.4,9-5.8c2.9-2.4,5.2-5.2,6.5-7s1.5-2.7,1.7-5"/>
<path class="st2" d="M139.9,416.5c2.2,10.5,3.1,12.3,3.6,13.8s0.4,2.6,0.3,4.1c-0.1,1.5-0.3,3.2-0.6,5.3c-0.3,2-0.6,4.4-0.2,6.7
	c0.4,2.3,1.6,4.6,2.4,6.5c0.8,1.9,1.3,3.4,1.8,4.6c0.5,1.3,0.9,2.3,1.7,2.8s2,0.5,3.3-0.7s2.8-3.5,5.5-5.1s6.6-2.4,9.3-3.7
	s4.1-3.1,5.6-4.7s3-3.1,4.4-4.6c1.3-1.4,2.5-2.9,4.4-4.8s4.6-4.4,6.3-6.3s2.5-3.4,3.3-4.7c0.8-1.4,1.5-2.6,2.5-3.9
	c0.9-1.3,2-2.8,2.9-4.1c0.9-1.4,1.7-2.6,2.2-4.2s0.8-3.4,0.9-7.6"/>
<path class="st2" d="M193.9,402.7c1.4,6.6,2.3,11.4,2.9,14.2"/>
<path class="st2" d="M172.8,445.9c8.7,0.5,9.7,5.2,10.6,8.4c0.9,3.2,1.6,4.9,1.3,6.3s-1.6,2.6-2.8,3.4s-2.3,1.4-2.5,1.9
	c-0.3,0.5,0.3,1.1,1.8,0.9s4.1-1,6.5-2.6s4.8-4,6.9-6.5c2.1-2.5,4.1-5,5.6-7.6c1.6-2.6,2.8-5.3,4.3-8.6c1.5-3.4,3.3-7.5,7.5-12.1"/>
<path class="st2" d="M131.9,428.8c-5.1,9.2-6.4,12.3-7.5,14.5s-2,3.6-3,4.9s-2.2,2.6-3.3,3.8c-1.1,1.2-2,2.4-3.2,3.1
	c-1.1,0.7-2.5,1-3.4,1.4s-1.4,1-2,1.5c-0.5,0.5-1.1,1-0.7,1.1c0.5,0.1,2-0.1,3.6-0.5c1.7-0.4,3.5-0.9,5.1-1.7c1.6-0.8,3-1.8,3.9-2.9
	s1.2-2.2,1.9-3.6c0.7-1.4,1.7-3.2,2.5-4.2s1.5-1.1,1.9-0.9c0.4,0.2,0.4,0.8,0.2,1.6c-0.2,0.8-0.5,1.8-0.4,2.7s0.5,1.8,1.3,2.8
	c0.8,1.1,1.8,2.3,2.8,3.5s1.9,2.2,2.5,2.8c0.6,0.6,0.9,0.6,2.4,0.7c1.4,0.1,4,0.3,5.7,0.5s2.5,0.3,7.1,0.4"/>
<path class="st2" d="M149.4,460.5c-4.7,3.8-8,5.2-9.7,6.4c-1.7,1.2-1.8,2.3-1.9,4.2c-0.1,1.9-0.1,4.6-2.4,7.1"/>
<path class="st2" d="M148.3,465.7c-0.7,0.2-1.1,0.6-1.9,1.6c-0.8,1-1.9,2.6-1.7,3.8c0.2,1.3,1.7,2.2,3.2,2.5s3,0,3.7-1
	s0.6-2.6,0.4-3.8c-0.2-1.3-0.7-2.2-1.4-2.7C150,465.6,149,465.5,148.3,465.7z"/>
<path class="st2" d="M122.4,355.2c1.7-4.7,1.2-6.7,1-8.4c-0.2-1.7-0.3-3,0.3-4.7s1.9-3.7,3.2-5.4c1.3-1.7,2.6-3,3.7-4.2
	s2.1-2.1,3.8-2.7s4-0.7,6.1-0.7s4.1,0.2,5.4,0.5c1.3,0.3,2,0.6,2.9,0.5s1.9-0.6,3.6-0.7c1.7-0.1,4.1,0.2,5.6,0.6
	c1.5,0.3,2,0.7,2.7,0.3c0.7-0.4,1.6-1.6,2.5-2.1c0.9-0.6,1.7-0.5,3.6-0.4c1.9,0.1,4.8,0.4,7,0.8c2.1,0.4,3.5,1.1,4.4,1.6
	s1.4,0.9,2.2,2.3s2,3.8,2.7,5.4s1,2.7,1.3,3.6s0.5,1.8,1,2.7c0.5,0.9,1.2,1.9,1.7,2.8c0.5,0.8,0.9,1.5,1.1,2.3
	c0.2,0.8,0.2,1.6,1,5.2"/>
<path class="st2" d="M190.1,359c1.8,3.9,2,6.1,2.1,7.5c0,1.4-0.2,2.2-0.3,2.7s0,0.8,0.3,0.7c0.3-0.1,0.9-0.7,1.2-1.4
	c0.3-0.7,0.4-1.6,0.5-2.5s0.2-1.9,1-2.9c0.7-1.1,2-2.3,3.4-4"/>
<path class="st2" d="M192.8,383c-0.1,4.6,0.6,8.5,0.2,9.5"/>
<path class="st2" d="M120.9,366.4c0.3,6.9,0.8,9.9,1.3,12.5s0.9,4.8,1.1,8.3"/>
<path class="st2" d="M139.3,329.1c-5.8-4.3-9.1-6.6-9.9-6.8"/>
<path class="st2" d="M147.6,330c-3.3-5.3-6.4-9.8-9.2-11.6"/>
<path class="st2" d="M151.4,329.5c1.7-7,2.5-10.8,2.3-12"/>
<path class="st2" d="M393.8,403.1c0,5.3-0.1,8.3-0.1,10.5s0,3.7,0,5.4c0,1.7,0,3.5,0.7,6s2,5.6,3.6,7.8c1.5,2.2,3.2,3.5,5,5
	c1.8,1.4,3.7,3,5,4.5c1.3,1.4,2.1,2.7,2.8,3.7c0.7,0.9,1.4,1.5,1.9,2.2s0.7,1.6,0.8,3c0,1.4-0.2,3.3-0.4,4.6
	c-0.2,1.3-0.5,1.8-0.2,2.5c0.2,0.6,0.9,1.3,1.1,2.4c0.1,1.1-0.4,2.7-0.4,4c-0.1,1.3,0.3,2.4,1.1,3.8c0.8,1.4,2,3.1,2.6,4.2
	s0.6,1.7,1.5,1.3c0.9-0.4,2.6-1.9,4-3s2.5-1.9,3.4-2.9s1.6-2.2,2-3.7s0.5-3.4,0.5-4.7c-0.1-1.4-0.4-2.3-0.1-3.9s1.1-3.8,1.9-5.7
	c0.8-1.9,1.6-3.6,2.6-4.7c1.1-1.1,2.4-1.6,3.7-2.2c1.3-0.6,2.6-1.4,3.7-2.8s2-3.4,2.5-5.1c0.4-1.7,0.4-2.9,0.2-4.4s-0.4-3-0.7-4.9
	c-0.4-2-0.8-4.3,1.5-10.2"/>
<path class="st2" d="M398.2,401c3,4.5,6,7.1,8,9s3,3.2,4,4.3c1,1.1,1.9,2,2.9,2.7c1.1,0.7,2.3,1.2,3.9,1.6s3.7,0.7,6,0.8
	c2.3,0,5-0.2,7.2-0.8c2.2-0.6,4.1-1.6,5.3-2.4c1.3-0.9,2-1.6,3-2.5s2.3-2,3.9-3.2s3.6-2.4,6.7-7.3"/>
<path class="st2" d="M383.7,362c1.6,0.8,1.9,1.8,2.2,2.7c0.3,0.9,0.7,1.6,1.2,2.5s1,1.9,1.3,2.8s0.3,1.7,0.6,3.4
	c0.3,1.7,0.8,4.3,1.2,6c0.4,1.7,0.6,2.4,0.9,2c0.3-0.3,0.7-1.7,0.8-3c0.1-1.3-0.1-2.7-0.4-4.4c-0.4-1.7-0.9-3.8-0.7-5.8
	c0.2-2,1.1-3.9,2.2-7.2c1-3.3,2.2-8.1,2.9-11c0.7-2.9,1-3.9,1.2-5.2c0.2-1.2,0.2-2.7,0.5-4.2c0.2-1.5,0.7-3.1,1.4-4.4
	c0.7-1.3,1.7-2.4,4-3.7c2.3-1.3,5.9-2.8,10.3-3.6c4.4-0.7,9.4-0.7,13.3-0.5c3.8,0.2,6.4,0.5,8.5,1c2.1,0.4,3.8,1,5.8,2.1
	c2,1.2,4.4,3,6.6,5.1s4.3,4.6,5.4,6.8c1.1,2.3,1.2,4.4,1.1,6.6s-0.3,4.5-0.3,6.4s0.1,3.4,0.3,4.9c0.2,1.4,0.5,2.8,0.8,4.2
	s0.7,2.9,0.8,4.4c0.2,1.4,0.1,2.8,0.1,4.1c0,1.2,0,2.3,0,3.2c0,0.9,0.1,1.7,0.6,1.5s1.6-1.4,2-13.5"/>
<path class="st2" d="M459,354.9c-0.9-4-3.5-8.6-7.9-13.7"/>
<path class="st2" d="M399.8,334.9c-5.8,6.6-13.7,10.1-14.1,12.6"/>
<path class="st2" d="M411,324.7c-0.2-3.1,0.8-6,1.5-7.8c0.7-1.9,1-2.7,1.9-3.3c0.9-0.6,2.3-0.9,4-1.1s3.6-0.2,6.2,0s5.8,0.6,8.4,1.2
	s4.6,1.5,5.7,2.3c1.1,0.9,1.4,1.8,1.4,2.7c0,0.9-0.2,1.9-0.3,2.7c-0.1,0.8-0.1,1.4,0,1.7c0,0.4,0.1,0.5,0,0.5c0,0.1-0.1,0.1-1.3,0
	c-1.2-0.1-3.4-0.4-5.5-0.6s-3.9-0.4-5.8-0.6s-3.8-0.3-5.3-0.5c-1.6-0.1-2.8-0.2-4.5-0.1c-1.7,0-3.9,0.1-6.5,0.6"/>
<path class="st2" d="M411,324.7c0.1,1.8,0.7,1.7,1.9,1.6c1.2-0.1,2.9-0.3,4.8-0.3c1.9-0.1,4-0.1,6,0s3.9,0.5,5.3,0.7
	c1.5,0.2,2.5,0.3,3.9,0.5s3,0.6,5.2,1.1c2.2,0.4,5.1,0.9,6.9,1.4c1.8,0.6,2.6,1.2,3.3,1.9c0.6,0.7,1.1,1.4,1.7,2
	c0.5,0.6,1.2,1.1,2,1.5c0.9,0.4,2,0.8,3.6,1.1c1.6,0.3,3.5,0.5,7.1,1"/>
<path class="st2" d="M461.7,331.3c-5.7-1-7.6-1.7-8.8-2.2c-1.2-0.5-1.6-0.9-2.1-1.5s-1.1-1.3-1.6-2s-0.9-1.5-1.4-2.1
	s-1.1-0.9-1.8-0.9c-0.7,0-1.5,0.3-2.3,0.5s-1.5,0.4-4,0.3"/>
<path class="st2" d="M444.3,323c2,1.6,2,2.4,1.9,3.1s-0.4,1.4,0.6,4.3"/>
<path class="st2" d="M452.2,328.7c0.5,3.8-0.2,5-0.9,6"/>
<path class="st2" d="M388,383.1c-0.5,6.1-0.6,7.7-0.6,9.2s0.2,2.9,0.4,4.3c0.2,1.4,0.6,2.8,1.4,4.7c0.9,1.9,2.3,4.2,4.1,5.6"/>
<path class="st2" d="M411.9,456.6c-0.6-2,0.5-4.2,0.5-5.7s-1-2.4-2-3.3c-0.9-1-1.8-2-2.7-2.9c-1-0.8-2.1-1.4-3.2-1.5
	s-2.3,0.2-3.1,0.9c-0.9,0.7-1.4,1.7-1.9,3.2c-0.5,1.6-0.8,3.8-1.2,5.5c-0.3,1.8-0.7,3.2-1,4c-0.4,0.9-0.8,1.3-1.9,0.5
	c-1.2-0.7-3.2-2.6-4.5-4.5s-2-3.9-2.8-5.5s-1.8-2.9-2.5-4.5s-1.1-3.4-0.7-7s1.5-8.9,0.8-19.5"/>
<path class="st2" d="M433.7,451.4c-0.1-3.5,0.3-5.4,1.5-6.2s3.2-0.4,4.3,0.5c1.1,0.9,1.2,2.3,1.2,3.4s-0.1,1.8-0.5,3
	s-1.1,2.8-1.7,4.2c-0.5,1.4-0.8,2.6-1,4.1c-0.1,1.5,0,3.2,0.2,3.8c0.2,0.7,0.7,0.3,1.1-0.8c0.5-1,1-2.7,1.9-5.2
	c0.8-2.4,2-5.7,3.3-8.8c1.3-3.1,2.7-6.2,4.2-9.2s3.1-6.1,2.5-10.9"/>
<path class="st2" d="M345.1,443.5c10.5,11,9.2,15.5,8.5,19.6c-0.7,4.2-0.7,8-0.7,11.7s0,7.3,6.5,11.5"/>
<path class="st2" d="M468.2,455.2c0,13.2-5.2,23-15.7,29.4"/>
<path class="st2" d="M394.5,343c-1.4,2.6-3.3,4.5-4.5,6.9"/>
<path class="st2" d="M438.1,171.4c0.6,3.8,2.1,6.7,1.1,11.2"/>
<path class="st2" d="M205,196.8c10,12.1,14.5,17.9,17.6,22.4s4.8,7.6,4.5,23.9"/>
<path class="st2" d="M115.3,202.6c-1.1,5-1.4,9.1-2.2,13.1s-1.8,8.1-3.7,11.8c-1.9,3.7-4.7,7-9.3,12.6"/>
<path class="st2" d="M194.2,98.7c9.1,18.3,10.4,21.6,11.8,23.9"/>
<path class="st2" d="M134,90.4c-3.1,6-10.5,10.5-11.9,13.4"/>
<path class="st2" d="M143.3,80.4c-3.7,1.6-6.6,2-8.6,2.4c-2.1,0.4-3.4,0.8-5.5-0.4"/>
<path class="st2" d="M180.2,79.5c4.3-1.8,6.2-2,7.3-1.8"/>
<path class="st2" d="M167.8,75.7c2.7-1.3,4-2.9,5.2-4s2.2-1.8,3.1-2.3c0.9-0.5,1.5-0.8,5.7-1.1"/>
<path class="st2" d="M153,63c6.9,7,8,8,9,9s1.8,1.9,1.8,3.7"/>
<path class="st2" d="M155.1,76.7c-3.1-3.4-5.1-6.4-10.1-7.4"/>
<path class="st2" d="M415.7,213.4c-1-0.7-2.6-0.8-4.1,0s-2.8,2.3-2.8,3.6c0.1,1.3,1.5,2.2,2.8,2.7c1.3,0.6,2.3,0.8,3.3,0.6
	c0.9-0.1,1.7-0.6,2.1-1.2c0.4-0.6,0.5-1.5,0.3-2.6C417.2,215.5,416.8,214.1,415.7,213.4z"/>
<path class="st2" d="M491.8,187.6c10.6,18.5,7.4,28.2,4.8,38c-2.6,9.9-4.5,20-5.2,25.3"/>
<path class="st2" d="M325,204.5c6.7,5,9.3,6.9,10.3,9.6c1,2.7,0.4,6.1,0,10s-0.6,8.3,5.7,18.4"/>
<path class="st2" d="M387.2,159.6c-0.8,8.6-0.7,10.7-0.5,13.6c0.2,2.9,0.6,6.6,1.8,9.3c1.2,2.7,3.2,4.4,5.3,5.9
	c2.1,1.5,4.3,2.9,6.4,4.1c2.1,1.1,4.2,2,5.7,2.8s2.4,1.7,3.2,2.5c0.8,0.8,1.5,1.5,2,2.5c0.4,1,0.5,2.3,0.9,3.4
	c0.3,1.1,0.9,2.1,2.2,2.5c1.3,0.4,3.5,0.2,5,1.3s2.4,3.5,3.3,5s1.7,2.3,2.9,1.8s2.6-2.1,3.3-4.2c0.7-2.1,0.7-4.7,1.4-7.1
	c0.8-2.4,2.3-4.5,3.6-6.7c1.3-2.2,2.2-4.3,3.1-6.5c0.8-2.1,1.6-4.3,2.3-6.8c0.8-2.6,1.6-5.6,1.4-12.3"/>
<path class="st2" d="M145.5,180.1c1.8,0.9,4.8,2.2,6.6,3c1.7,0.8,2.3,1,3.2,1.2c1,0.2,2.4,0.4,3.6,0.4c1.2,0,2.3-0.3,3.2-0.4
	c1-0.1,1.9-0.1,2.7-0.1s1.6,0,2.7,0c1.1-0.1,2.4-0.2,3.7-0.6c1.2-0.4,2.2-0.9,3.3-1.5c1.1-0.5,2.2-1,3-1.5c0.9-0.5,1.5-0.9,2.3-1.6
	c0.8-0.7,1.7-1.7,2.5-2.5c0.8-0.9,1.4-1.7,1.9-2.4s0.8-1.3,1.2-2.1s0.9-1.7,5.6-6.1"/>
<path class="st2" d="M126.5,146.8c0.1,5.9,1.2,8.6,2,10.4c0.8,1.8,1.2,2.9,1.6,3.6c0.3,0.7,0.6,1.2,1.6,2.8c1,1.7,2.7,4.6,3.9,6.9"
	/>
<path class="st2" d="M430.6,119.7c-0.2,0.3-0.3,0.5-0.4,1.1s-0.2,1.6-0.2,2.5s0.1,1.6,0.6,2.6s1.4,2.2,2.2,3
	c0.7,0.8,1.3,1.1,2.4,1.5s2.8,0.7,4.2,0.9s2.4,0.1,3.6-0.2s2.7-0.8,4-1.6s2.3-1.7,2.9-2.7s0.7-2.1,0.9-3.2c0.1-1.1,0.2-2.2,0.2-3.1
	s-0.1-1.6-0.6-2.2c-0.6-0.6-1.6-0.9-2.4-1.2c-0.8-0.3-1.4-0.4-2.1-0.6s-1.5-0.4-2.4-0.5s-1.9-0.1-3.1,0.1s-2.5,0.6-3.6,0.8
	c-1.1,0.2-2.1,0.4-2.9,0.6s-1.5,0.6-2.1,1S430.8,119.4,430.6,119.7z"/>
<path class="st2" d="M400.5,114.6c0.7-0.2,1.9-0.5,3.3-0.6s3.2-0.1,4.8-0.1c1.5,0,2.9,0,3.9,0.2s1.8,0.5,2.6,0.9
	c0.8,0.4,1.6,0.9,2.2,1.3s1.1,0.7,1.4,1c0.3,0.4,0.6,0.8,0.7,1.2c0.2,0.5,0.2,1,0.2,1.8c-0.1,0.8-0.4,1.9-0.8,3s-0.9,2.2-1.5,3
	s-1.4,1.2-2.3,1.5s-1.8,0.6-2.9,0.8s-2.5,0.5-3.9,0.5s-2.8-0.3-4.1-0.6c-1.2-0.3-2.2-0.6-3-1.2s-1.5-1.6-1.9-2.8
	c-0.4-1.2-0.7-2.8-0.9-4c-0.2-1.2-0.3-2.1-0.1-2.9c0.2-0.8,0.6-1.6,0.9-2.1C399.5,114.9,399.8,114.8,400.5,114.6z"/>
<path class="st2" d="M408.2,88.7c-2.3-1.1-5.6-2.1-7.7-2.4s-3.2-0.2-7.6,1.2"/>
<path class="st2" d="M431,89.3c-7.3-1.9-10.5-4.4-13.1-6c-2.5-1.6-4.3-2.4-6.7-2.7c-2.4-0.4-5.4-0.4-9,0.1"/>
<path class="st2" d="M409.9,73c12.4,0.4,17.7,3,21.4,5.3c3.6,2.3,5.6,4.3,7,6s2.2,3.2,4.2,6.2"/>
<path class="st2" d="M449.3,74.4c-14-6-16.9-7-19.5-7.8s-4.8-1.4-6.9-1.8c-2.2-0.3-4.3-0.3-7-0.2c-2.7,0.1-5.8,0.4-8.2,0.8
	c-2.3,0.4-3.9,1-5.2,1.5s-2.4,1-3.1,1.3s-0.9,0.5-2.1,1.3"/>
<path class="st2" d="M389.7,113.5c0.7-1.8,1.4-4,2-5.6s1-2.8,1.5-4.2c0.5-1.4,1.1-3.1,1.5-4.3s0.7-2.1,1.1-3.1s0.8-2.3,2.2-3.6
	c1.4-1.3,3.7-2.7,6.7-3.4c3-0.8,6.7-0.9,9.6-0.7c2.9,0.2,5,0.6,6.8,1s3.3,0.7,4.5,0.8c1.3,0.1,2.4-0.1,3.3-0.4s1.5-0.7,3.2-1
	c1.7-0.2,4.5-0.2,6.7,0.2c2.2,0.4,3.9,1.3,5.1,1.8c1.2,0.6,2,0.9,2.9,1.3c0.8,0.5,1.8,1.1,2.3,1.9s0.6,1.9,0.7,3
	c0.1,1,0.2,2,0.5,3.8c0.2,1.7,0.5,4.2,0.8,6.7c0.2,2.5,0.4,5.1,1.8,9.3"/>
<path class="st2" d="M381.8,111.8c1.9,3.9,2,5.1,2.1,6.3c0.1,1.1,0.1,2.3,0.1,3.3s0,1.9,0,2.6s0.1,1.3,0.3,1.6
	c0.2,0.4,0.6,0.5,0.9,0c0.3-0.4,0.5-1.5,0.9-3c0.4-1.6,0.9-3.7,2.5-7.3"/>
<path class="st2" d="M380.8,109.4c9,4.6,10.8,4.8,12.5,4.8s3.4-0.3,4.7-0.7c1.3-0.3,2.1-0.7,2.9-1s1.6-0.4,3.9-0.4s6.1,0.2,8.5,0.4
	c2.4,0.2,3.5,0.5,4.3,0.9s1.3,0.8,1.8,1.1c0.5,0.4,0.8,0.7,1.5,1.1c0.6,0.4,1.4,0.8,2.3,1.1c0.8,0.3,1.7,0.6,2.7,0.7s2.2,0.1,3,0.1
	c0.8-0.1,1.1-0.2,2.2-0.7s3-1.4,4.6-1.9c1.6-0.6,3-0.8,4.4-1c1.4-0.1,2.8-0.1,4.2,0.2c1.5,0.3,3.1,0.9,4.6,1.4s3,0.8,3.7,1.6
	c0.6,0.8,0.4,2.2,0.1,4.1s-0.7,4.5-1.3,6.2c-0.7,1.7-1.6,2.5-2.9,3.4s-3,1.8-4.2,2.5c-1.3,0.6-2.1,0.9-3.2,0.9
	c-1,0.1-2.2-0.1-3.4-0.3c-1.2-0.3-2.3-0.7-3.1-1c-0.8-0.4-1.2-0.8-1.7-1.2c-0.4-0.4-0.8-0.8-1.4-1.4c-0.5-0.5-1.1-1.2-1.6-2
	s-0.7-1.7-1.1-2.7s-0.9-1.9-1.3-2.6s-0.8-1-1.3-1.2s-1.2-0.2-1.9-0.1c-0.7,0-1.4,0.1-2,0.4s-1.2,0.9-1.7,2c-0.6,1.1-1.2,2.6-2.1,3.7
	c-0.9,1-2,1.5-3.4,1.9c-1.4,0.4-3.1,0.7-4.4,0.9s-2.2,0.2-3.2,0.2s-2,0.1-3-0.1c-1-0.2-2.1-0.6-2.9-1s-1.4-0.9-2-1.5
	c-0.6-0.6-1.1-1.2-1.6-2c-0.4-0.8-0.8-1.7-1-2.6s-0.4-1.7-0.6-2.5c-0.2-0.7-0.6-1.3-1-1.9s-1-1.1-1.7-1.6s-1.6-1-2.8-1.3
	c-1.1-0.4-2.5-0.6-10.5-4.8"/>
<path class="st2" d="M391.3,156.4c3,5.3,7.1,7.8,9.4,9.5c2.4,1.7,3.1,2.6,5.5,4s6.5,3.3,9.5,4.2s4.8,0.8,6.5,0.7s3.2-0.3,4.8-0.7
	c1.6-0.4,3.3-1.1,4.3-1.6s1.4-0.8,1.9-1.1s1.2-0.7,2.6-1.5s3.4-2.1,3.5-2.3"/>
<path class="st2" d="M125.3,122.6c-1.2,5.7,0.4,18,1.3,20.2"/>
<path class="st2" d="M198.1,221.6c-4.8,4.4-7.5,6.7-10.5,7.9s-6.4,1.4-9.8,1.7c-3.4,0.3-6.9,0.7-10,0.8c-3.1,0.2-5.9,0.1-9-0.3
	c-3.1-0.4-6.6-1.1-9.3-1.9c-2.6-0.8-4.4-1.7-7.5-2.9c-3.1-1.3-7.7-2.9-12-8.1"/>
<path class="st2" d="M187.7,176.4c-0.6,8.5-0.8,10.4-1,12.6c-0.2,2.2-0.3,4.6,0.1,7.7c0.5,3.1,1.6,6.9,4.9,12.4
	c3.2,5.6,8.5,13,8.5,25.5"/>
<path class="st2" d="M131.4,180.4c-4.7,3.6-6,5.4-7.1,6.6c-1,1.2-1.8,2-2.5,2.4s-1.3,0.4-2.4,0.4c-1.1,0.1-2.6,0.2-4.2,0.5
	c-1.6,0.2-3.2,0.6-10.1,3.9"/>
<path class="st2" d="M131,162.5c-0.4,10.9,0.2,14.4,0.4,17.1s0,4.6-0.6,8.9c-0.6,4.3-1.6,11-1.8,15.5s0.5,6.9,0.8,9.1
	c0.3,2.2,0.3,4.4,0.2,9.2c0,4.8,0,12.2,0.5,12.9"/>
<path class="st2" d="M122.7,146.2c1.3,1.4,2.6,1.7,3.8,0.7"/>
<path class="st2" d="M117.1,119c3.1-0.8,4.4,1.7,5.4,3.2s1.7,2,2.2,1.8s0.8-1.1,0.9-2.7s0.1-3.8,0.6-5.7c0.6-1.9,1.8-3.3,2.9-5.1
	c1.2-1.7,2.3-3.8,2.9-6c0.6-2.2,0.7-4.5,0.9-7s0.6-5,1.2-7.2c0.6-2.2,1.4-4,2.9-5.6s3.7-3.1,6-4.2s4.8-1.7,6.9-2.3
	c2.2-0.7,4.1-1.3,6.2-1.8c2.1-0.4,4.4-0.6,7.1-0.7c2.7-0.1,5.7-0.1,8.6,0.3c2.9,0.4,5.7,1.3,8.6,3.5c2.9,2.2,6,5.8,8.2,8.3
	c2.2,2.4,3.4,3.7,4.3,6.2c0.9,2.4,1.6,6,2.3,8.6c0.6,2.6,1.3,4.2,1.9,6.3c0.6,2.1,1.2,4.8,1.6,7.7c0.4,2.9,0.5,6.2,0.5,8.6
	c0.1,2.5,0.1,4.2,0.5,6.6c0.4,2.4,1.3,5.4,3.5,9.3"/>
<path class="st2" d="M199.3,138.6c0,0-0.1,8.9-1.2,12.4"/>
<path class="st3" d="M255.3,239.2c-3.6-4.7-3.6-7.5-4.8-11.6s-3.6-9.4-5.1-13.2c-1.6-3.8-2.3-6.2-3.5-8.7s-2.9-5.1-4.3-6.5
	c-1.4-1.4-2.6-1.6-3.5-1.9c-0.9-0.3-1.7-0.7-2.7-1.5s-2.4-2-5.1-2.8c-2.7-0.8-6.6-1.2-10.6-1.7s-7.9-0.9-10.8-1.6
	c-2.9-0.6-4.7-1.4-6.9-2.2c-2.2-0.7-4.8-1.4-6.7-2.3c-1.8-1-2.9-2.2-3.4-4.2c-0.5-1.9-0.3-4.5,0-6.5s0.7-3.3,1.3-4.7s1.3-2.9,2-4.1
	c0.7-1.2,1.2-2.1,2.4-4.4c1.2-2.3,3-5.9,4.5-8.9s2.8-5.3,3.8-7.9c1.1-2.6,2-5.5,2.6-9.5c0.7-4,1.1-9,1.6-13s1.2-6.8,0.2-11.5
	c-0.9-4.7-3.5-11.2-4.8-15.6s-1.5-6.8-4.1-10.3s-7.8-8-10.6-11c-2.8-2.9-3.4-4.2-6.5-6.4c-3.1-2.2-8.8-5.2-21.4-4.7
	c-10.2,0.4-13.6,1.7-16.9,3.4c-3.2,1.7-6.3,3.7-9.1,6.8c-2.8,3-5.4,7-7.3,10.2s-3.1,5.5-4,9s-1.4,8.2-1.8,11.7
	c-0.5,3.5-0.9,5.7-1.2,8c-0.3,2.3-0.5,4.7-1,6.1s-1.4,2-2.4,2.9s-2,2.3-1.9,5.8s1.4,9.1,2.6,12.2c1.2,3.1,2.4,3.8,3.9,4.9
	c1.4,1.1,3.1,2.6,4,4.1c0.9,1.6,1.1,3.2,0.6,6.3s-1.7,7.8-3.2,11.5s-3.3,6.3-5.1,8.7c-1.7,2.4-3.4,4.6-4.7,7.4
	c-1.4,2.8-2.4,6.1-3.5,8.6s-2.1,4.1-5.6,5.4c-3.5,1.3-9.3,2.2-14.2,3.9c-4.9,1.7-8.7,4.2-13.4,7c-4.6,2.7-10,5.7-16.2,22.9"/>
<path class="st3" d="M258.7,466.3c-0.5-3.9-4.8-7.6-8.2-10.3c-3.4-2.7-5.9-4.3-7.5-5.5s-2.3-1.8-3.3-3s-2.4-2.9-6.1-5.4
	c-3.8-2.4-9.9-5.6-13.9-7.7c-4-2.2-5.8-3.4-7.3-4.8c-1.6-1.4-3-3.2-4.5-5.9c-1.6-2.7-3.3-6.5-4.4-9.3c-1.1-2.9-1.6-4.8-2.1-6.2
	c-0.5-1.3-1-2-2-2.5c-1.1-0.5-2.7-0.9-3.8-1.2c-1-0.3-1.4-0.4-1.7-2.3s-0.5-5.6-0.6-7.8c-0.1-2.2,0-3,0.6-3.5s1.6-0.7,2.3-1.1
	s1-1.1,1.6-1.9s1.5-1.8,2.4-4c0.9-2.3,1.9-5.8,2.4-8.2c0.6-2.4,0.8-3.6,0.7-5.2c-0.1-1.5-0.6-3.4-0.6-4.8s0.4-2.2,0.5-3.3
	s-0.3-2.2-1.2-2.7s-2.2-0.4-3-0.5s-1-0.5-1.1-1.4c0-0.9,0.2-2.2,0-3.7s-0.8-3.3-1.1-6.7c-0.3-3.4-0.2-8.4-0.6-11.7
	c-0.4-3.4-1.2-5.1-1.9-7.5s-1.3-5.6-1.9-8c-0.7-2.4-1.5-4-2.6-4.8s-2.4-0.8-3.4-1.3c-0.9-0.5-1.4-1.5-1.9-2.4
	c-0.5-1-0.9-1.9-1.4-2.2c-0.4-0.3-0.9,0-1.8-0.2c-0.9-0.2-2.3-1-3.7-1.9s-2.7-1.8-4.4-2.5c-1.8-0.7-4.1-1.2-6-1.7
	c-2-0.5-3.7-1-5.7-1.1s-4.4,0.3-8.1,0.5c-3.7,0.3-8.7,0.4-12,3c-10.1,8.1-12.4,9.5-13.8,10.8c-1.4,1.4-2.1,2.7-3.2,4.6
	c-1.2,1.9-2.8,4.3-4.1,6.9c-1.3,2.6-2.2,5.4-2.7,7.8s-0.5,4.3-0.4,7.1c0.2,2.8,0.5,6.6,0.6,9.5s-0.2,4.9-0.2,6.5
	c-0.1,1.6,0.1,2.8,0,3.6c-0.1,0.8-0.4,1.3-0.6,1.9s-0.4,1.2-0.4,2.9c0.1,1.7,0.4,4.4,0.5,6.7c0.1,2.3-0.1,4.2,0.2,6
	c0.3,1.8,1.1,3.5,1.8,5.4c0.7,1.9,1.2,4.1,1.6,5.5c0.4,1.5,0.6,2.3,1,3s1,1.2,1.6,1.5s1.2,0.3,2.1,1.8s2.1,4.4,3.2,6.3
	c1.1,1.9,2,2.9,3.5,4c1.5,1.2,3.5,2.5,5,3.6s2.7,1.9,2.9,3.5c0.3,1.7-0.3,4.2-1.9,6.9s-4.2,5.4-5.6,6.8c-1.4,1.4-1.7,1.3-3,1.6
	c-1.3,0.3-3.6,0.9-6.4,1.7c-2.8,0.8-6.2,1.7-9.8,2.2c-3.5,0.4-7.2,0.4-11.1,0.7c-3.9,0.3-7.9,1-10.9,1.7s-4.8,1.4-6.7,2.8
	c-1.9,1.4-3.9,3.4-6.1,5.7c-2.3,2.3-4.8,4.9-6.8,8.1s-3.4,6.9-6.4,10.6s-7.6,7.5-9.8,12.4"/>
<path class="st3" d="M302.9,476.4c9.7-15.3,10.8-20.9,12.4-24.9s3.6-6.4,6.1-8.5s5.3-4,8.3-5.9s6.2-3.7,13.1-6.7s17.6-7.1,24.9-9.4
	s11.1-2.9,14.2-3.6c3.2-0.7,5.7-1.7,7.2-2.9c1.6-1.2,2.2-2.7,2.8-4.1c0.6-1.4,1.1-2.9,1.4-3.7c0.3-0.9,0.3-1.2,0.4-2.9
	c0-1.8,0-5-0.3-7.5s-0.9-4.3-1.5-5.5c-0.6-1.3-1.3-2.1-1.9-3.3c-0.6-1.2-1.2-2.9-2.4-5.1c-1.3-2.2-3.3-4.9-4.4-7.3s-1.3-4.5-1.3-6.3
	s0.2-3.2,0.7-4.6s1.4-2.8,1.7-3.7c0.2-1-0.1-1.5,0.3-6c0.5-4.5,1.9-13,3.1-19.4s2.2-10.8,12.2-21.6c13.7-6.6,17.9-6.8,21.9-6.8
	s7.7,0.1,10.3,0.3c2.7,0.2,4.4,0.6,6.4,1.7s4.2,2.8,6.6,4.8c2.3,1.9,4.7,4,6.6,6.1c1.8,2.1,3.1,4.1,4.2,5.8c1.1,1.6,2,2.8,2.7,3.7
	c0.8,0.9,1.5,1.4,2.3,1.9c0.9,0.5,1.9,1,2.4,1.7s0.5,1.6,0.3,2.5s-0.5,1.6-1.1,2.2c-0.5,0.6-1.3,1-1.6,1.7s-0.4,1.8-0.8,5.2
	c-0.4,3.4-1.2,9-1.6,12.4s-0.4,4.4-0.5,5.7c-0.1,1.3-0.3,2.8,0,4.7c0.2,1.9,0.8,4.1,1.1,6.3c0.3,2.2,0.2,4.3-0.2,6.1
	c-0.3,1.8-0.9,3.3-2.1,5.1c-1.2,1.7-2.9,3.6-4,6.2c-1,2.6-1.3,5.8-2,8.3s-1.8,4.1-2.8,5.6s-1.7,2.7-2.5,4.1
	c-0.7,1.3-1.3,2.8-1.7,4.2c-0.3,1.4-0.4,2.8-0.4,4.5s0,3.8,0.9,5.9s2.6,4.1,7.1,6.9c4.5,2.7,11.7,6.1,17.5,9.2s10,5.9,13.8,8.6
	s7.1,5.2,8.9,7.7c1.9,2.5,2.4,4.8,3.6,8.4s3.2,8.5,7.2,18.5"/>
<path class="st3" d="M518.6,234.2c-1.6-9.8-3.7-14.1-6.5-19.9c-2.9-5.7-6.6-12.9-8.9-16.8c-2.2-3.8-3-4.4-3.8-5.2s-1.7-1.9-4.8-3.5
	c-3.1-1.6-8.5-3.8-15.9-6s-16.7-4.5-22.7-6.1c-6.1-1.5-8.9-2.3-11.1-3.3s-4-2.4-4.9-3.3c-1-0.9-1.2-1.5-0.4-2.7
	c0.7-1.2,2.3-3.1,3.6-4.8c1.3-1.6,2.2-3,3.8-10c1.6-7,3.9-19.5,5.1-26.4s1.2-8.1,1.7-10.5s1.6-5.8,2.2-9.3s0.8-7,0.9-10
	c0.1-2.9,0.1-5.3-1-9c-1.2-3.7-3.5-8.8-5.4-11.8s-3.4-4-6-5.3s-6.4-3-8.9-4.5c-2.6-1.5-3.9-2.7-4.7-3.6c-0.9-0.8-1.3-1.2-3.9-2.1
	c-2.7-1-7.6-2.6-11-2.9c-3.4-0.2-5.3,1-9.8,4c-4.2,2.7-7.1,3.5-9.4,4.3c-2.3,0.7-4,1.4-5.2,2.4s-1.9,2.2-3.3,3.8
	c-1.4,1.5-3.5,3.3-5,4.9s-2.5,3.1-3.1,4.7c-0.6,1.5-0.8,3.1-0.9,6.1c-0.2,2.9-0.3,7.2-0.3,10.1s0.1,4.4,0.5,6.1s1.1,3.7,1.4,5
	c0.3,1.4,0.3,2.1-0.2,2.7s-1.6,0.8-2.7,1.2c-1.1,0.4-2.1,0.8-2.8,2c-0.7,1.2-1,3.3-0.8,5.8s0.8,5.3,1.4,7.1c0.6,1.8,1.1,2.5,1.5,3.4
	c0.3,1,0.5,2.2,0.6,3.7c0.2,1.4,0.4,3,0.7,4.2c0.3,1.2,0.7,2,1.4,2.5c0.7,0.4,1.7,0.4,2.6,0.2s1.7-0.5,2.4-0.6s1.3,0.3,1.8,2.4
	c0.5,2.1,1,6,1.3,8.7s0.6,4.3,0.5,5.3s-0.6,1.5-1.6,2.4s-2.4,2.3-3.5,3.4c-1.1,1.1-1.8,1.9-2.5,3.2s-1.4,3-2,4.6s-1.2,3.1-1.6,4.2
	c-0.5,1.1-0.8,1.7-2,2.6c-1.2,0.9-3.3,2.2-6.1,3.9c-2.7,1.8-6.1,4.1-10.4,6.3c-4.3,2.3-9.4,4.5-12.7,6.1c-3.3,1.6-4.7,2.5-6.7,3.4
	c-2,0.8-4.7,1.5-6.9,2.2c-2.2,0.7-4,1.4-5.2,2.3c-1.2,0.9-1.9,2.1-2.7,3.1s-1.7,1.9-2.7,3c-1.1,1.1-2.3,2.3-3,3.3s-0.9,1.5-2.4,4
	s-4.3,6.7-9.3,21.6"/>
</svg>
