<?xml version="1.0" encoding="utf-8"?>
<!-- Generator: Adobe Illustrator 23.0.1, SVG Export Plug-In . SVG Version: 6.00 Build 0)  -->
<svg version="1.1" id="Layer_1" xmlns="http://www.w3.org/2000/svg" xmlns:xlink="http://www.w3.org/1999/xlink" x="0px" y="0px"
	 viewBox="0 0 626.9 375.3" style="enable-background:new 0 0 626.9 375.3;" xml:space="preserve">
<style type="text/css">
	.st0{fill:#314584;}
	.st1{fill:#FF3946;}
</style>
<g id="XMLID_1_">
	<g>
		<path class="st0" d="M493.2,204.5v71c0,4-2.1,7.7-5.6,9.7c-3.5,2-7.7,2-11.2,0c-3.5-2-5.6-5.7-5.6-9.7v-70.6
			c-1.7-13.9-10-26.2-22.3-32.9c-12.3-6.8-27.1-7.2-39.7-1.2c-12.7,6-21.7,17.7-24.3,31.5c12.8,14.5,20.8,32.5,22.9,51.7
			c0,0.4,0,0.8,0,1.2v65.1c0,4-2.1,7.7-5.6,9.7c-3.5,2-7.7,2-11.2,0c-3.5-2-5.6-5.7-5.6-9.7v-64.4c-2.8-23.4-16.9-43.9-37.8-54.9
			c-20.8-11-45.8-11-66.6,0c-20.9,11-35,31.5-37.8,54.9v64.4c0,4-2.1,7.7-5.6,9.7c-3.5,2-7.7,2-11.2,0c-3.5-2-5.6-5.7-5.6-9.7v-65.1
			c0-0.4,0-0.8,0-1.2c2.1-19.2,10.1-37.2,22.9-51.7c-2.7-13.7-11.7-25.3-24.3-31.2c-12.6-5.9-27.3-5.5-39.5,1.2
			c-12.2,6.7-20.5,18.8-22.4,32.6v70.6c0,4-2.1,7.7-5.6,9.7c-3.5,2-7.7,2-11.2,0c-3.5-2-5.6-5.7-5.6-9.7v-71c0-0.4,0-0.8,0-1.2
			c2.2-19.7,13.2-37.3,29.8-48.1c16.6-10.8,37.2-13.5,56.1-7.4c18.9,6.1,34,20.3,41.3,38.7c15.4-10.3,33.4-15.7,51.9-15.7
			s36.5,5.5,51.9,15.7c7.3-18.4,22.4-32.6,41.3-38.7c18.9-6.1,39.5-3.3,56.1,7.4c16.6,10.8,27.6,28.4,29.8,48.1
			C493.1,203.7,493.2,204.1,493.2,204.5z"/>
		<path class="st1" d="M469.1,85.4c0,11.1-4.4,21.6-12.2,29.4c-7.8,7.8-18.4,12.2-29.4,12.2c-11,0-21.6-4.4-29.4-12.2
			c-7.8-7.8-12.1-18.4-12.2-29.4c0-11,4.4-21.6,12.1-29.4c7.8-7.8,18.4-12.2,29.4-12.2c11,0,21.6,4.4,29.4,12.2
			C464.7,63.8,469,74.4,469.1,85.4z M446.6,85.5C446.6,85.5,446.6,85.5,446.6,85.5C446.6,85.4,446.6,85.4,446.6,85.5
			c0-5.1-2-10-5.6-13.6c-3.6-3.6-8.5-5.7-13.6-5.7c-5.1,0-10,2-13.6,5.6c-3.6,3.6-5.6,8.5-5.6,13.6c0,5.1,2,10,5.6,13.6
			c3.6,3.6,8.5,5.6,13.6,5.6s10-2,13.6-5.7C444.6,95.4,446.6,90.6,446.6,85.5z"/>
		<path class="st0" d="M368.1,100.1c0,14.4-5.7,28.2-15.9,38.3c-10.2,10.2-24,15.9-38.3,15.9c-14.4,0-28.2-5.7-38.3-15.9
			c-10.2-10.2-15.9-24-15.9-38.3c0-14.4,5.7-28.2,15.9-38.3c10.2-10.2,24-15.9,38.3-15.8c14.4,0,28.1,5.8,38.3,15.9
			C362.4,71.9,368.1,85.7,368.1,100.1z M345.8,100c0-8.5-3.3-16.6-9.3-22.5c-6-6-14.1-9.3-22.5-9.3c-8.4,0-16.5,3.3-22.5,9.3
			s-9.3,14.1-9.3,22.5c0,8.4,3.4,16.5,9.3,22.5c6,6,14.1,9.3,22.5,9.3c8.4,0,16.5-3.3,22.5-9.3C342.4,116.5,345.8,108.4,345.8,100z"
			/>
		<path class="st1" d="M230,61.8c7.8,7.8,12.2,18.4,12.2,29.4c0,11-4.4,21.6-12.2,29.4c-7.8,7.8-18.4,12.2-29.4,12.2
			c-11,0-21.6-4.4-29.4-12.2S159,102.2,159,91.1c0-11,4.4-21.6,12.2-29.4s18.4-12.2,29.4-12.2C211.6,49.6,222.2,54,230,61.8z
			 M214.1,104.7c3.6-3.6,5.6-8.5,5.6-13.6c0-5.1-2-9.9-5.6-13.5c-3.6-3.6-8.5-5.6-13.6-5.6c-5.1,0-10,2-13.6,5.6
			c-3.6,3.6-5.6,8.5-5.6,13.6c0,5.1,2,10,5.6,13.6c3.6,3.6,8.5,5.6,13.6,5.6C205.7,110.4,210.6,108.3,214.1,104.7z"/>
	</g>
	<g>
	</g>
</g>
</svg>
