<?xml version="1.0" encoding="utf-8"?>
<!-- Generator: Adobe Illustrator 26.0.3, SVG Export Plug-In . SVG Version: 6.00 Build 0)  -->
<svg version="1.1" id="Layer_1" xmlns="http://www.w3.org/2000/svg" xmlns:xlink="http://www.w3.org/1999/xlink" x="0px" y="0px"
	 viewBox="0 0 1296.3 1050" style="enable-background:new 0 0 1296.3 1050;" xml:space="preserve">
<style type="text/css">
	.st0{opacity:0.3;fill:#DAE1ED;}
	.st1{fill:none;stroke:#314584;stroke-miterlimit:10;stroke-dasharray:3;}
	.st2{fill:none;stroke:#267750;stroke-miterlimit:10;stroke-dasharray:3;}
	.st3{fill:#314584;}
	.st4{fill-rule:evenodd;clip-rule:evenodd;fill:#314584;}
	.st5{fill:#F7F5F5;}
	.st6{fill:#267750;}
	.st7{opacity:0.8;fill:#FFFFFF;stroke:#314584;stroke-width:1.5;stroke-miterlimit:10;enable-background:new    ;}
	.st8{opacity:0.3;}
	.st9{fill:#FFFFFF;stroke:#314584;stroke-miterlimit:10;}
	.st10{fill:#FFFFFF;}
	.st11{fill:none;stroke:#314584;stroke-miterlimit:10;}
	.st12{fill:none;stroke:#314584;stroke-linecap:round;stroke-linejoin:round;}
	.st13{fill:none;stroke:#314584;stroke-width:0.5;stroke-linecap:round;stroke-linejoin:round;}
	.st14{fill:none;stroke:#314584;stroke-width:2;stroke-linecap:round;stroke-linejoin:round;}
</style>
<path class="st0" d="M1142.4,515.1c-13.5-16.2-21.9-39.2-21.9-64.7c0-18.8,4.6-36.1,12.3-50.5c1.5-2.8,3.2-5.5,5.1-8.1
	c14.5-19.7,23-43.7,23-69.7c0-66.1-55.2-119.8-123.4-119.8c-22.6,0-43.9,5.9-62.2,16.3c-29.6,15-66.9,23.9-107.3,23.9
	c-61.7,0-115.9-20.7-146.8-52c-24.5-23.7-57.9-38.3-94.7-38.3c-39.7,0-75.5,17-100.3,44.2c-7.6,8.3-17.2,14.5-27.7,18.5
	c-12.9,4.8-23.1,10-30.7,13.3c-14.3,6.2-27.7,15.2-39,26.9c-27.4,28.5-33.9,72.6-22.3,114c6.1,22.2,1.4,48.7-14.7,70.3
	c-17,22.9-42.4,34.4-65.7,32.2c-2.2-0.2-4.3-0.6-6.5-1c-6.6-1.3-13.5-2-20.4-2c-61.2,0-111.4,50.8-111.4,114.6c0,30,11,57.4,29,77.9
	c13.5,16.2,21.9,39.2,21.9,64.7c0,18.8-4.6,36.1-12.3,50.5c-1.5,2.8-3.2,5.5-5.1,8.1c-14.5,19.7-23,43.7-23,69.7
	c0,66.1,55.2,119.8,123.4,119.8c22.6,0,43.9-5.9,62.2-16.3c29.6-15,66.9-23.9,107.3-23.9c61.7,0,115.9,20.7,146.8,52
	c24.5,23.7,57.9,38.3,94.7,38.3c39.7,0,75.5-17,100.3-44.2c7.6-8.3,17.2-14.5,27.7-18.5c12.9-4.8,23.1-10,30.7-13.3
	c14.3-6.2,27.7-15.2,39-26.9c27.4-28.5,33.9-72.6,22.3-114c-6.1-22.2-1.4-48.7,14.7-70.3c17-22.9,42.4-34.4,65.7-32.2
	c2.2,0.2,4.3,0.6,6.5,1c6.6,1.3,13.5,2,20.4,2c61.2,0,111.4-50.8,111.4-114.6C1171.3,563,1160.4,535.6,1142.4,515.1z"/>
<path class="st1" d="M639,679.1"/>
<path class="st2" d="M453.3,331.7"/>
<path class="st2" d="M470.1,325.2"/>
<g>
	<g>
		<path class="st3" d="M268.7,286c0-1.7-1.2-3.2-2.6-3.4l-1.2-0.2c-1.4-0.2-3.7-0.2-5.1,0l-1.2,0.2c-1.4,0.2-2.6,1.7-2.6,3.4v1.1
			c0,4.6,0.3,8.2,0.3,8.2h1.5l0.6-9.1l0.4,6.6l0.4,14.9h2.3l0.8-12l0.1-0.4l0.8,12.4h2.3l0.4-14.9l0.4-6.6l0.5,9.1h1.6
			c0,0,0.3-3.6,0.3-8.2V286z"/>
	</g>
	<path class="st3" d="M264.7,279.4c0,1.3-1.1,2.4-2.4,2.4c-1.3,0-2.4-1.1-2.4-2.4s1.1-2.4,2.4-2.4
		C263.6,277,264.7,278.1,264.7,279.4"/>
</g>
<g>
	<path class="st4" d="M403.3,307.8h-11.8V296h-11.8v11.8h-11.9V290c-1.6,0-3-1.3-3-3l20.7-17.8l8.9,7.6v-4.7h5.9v9.7l5.9,5.1
		c0,1.6-1.3,3-3,3L403.3,307.8z"/>
</g>
<g>
	<g>
		<path class="st4" d="M504.6,303.6v-13h-14.3v13h-11.8v-19.5h-0.6c-1.4,0-2.5-1-2.6-2.4l22.1-19l10.4,8.9v-5.8h5.3v10.4l6.5,5.6
			c-0.1,1.3-1.3,2.4-2.6,2.4h-0.6v19.5L504.6,303.6L504.6,303.6z"/>
		<g>
			<path class="st5" d="M497.4,263.5l8.9,7.7l2.1,1.8v-2.7v-3.9h4v9.4v0.6l0.4,0.4l6,5.1c-0.2,0.9-1,1.5-1.9,1.5h-1.2v1.2v18.3
				h-10.5v-11.8v-1.3h-1.3h-13h-1.3v1.3v11.8h-10.5v-18.3v-1.3h-1.3c-0.9,0-1.7-0.6-1.9-1.5L497.4,263.5 M497.4,261.9l-22.8,19.5
				c0,1.8,1.5,3.3,3.3,3.3v19.5h13v-13h13v13h13v-19.5c1.8,0,3.3-1.5,3.3-3.3l-6.5-5.6v-10.7h-6.5v5.1L497.4,261.9L497.4,261.9z"/>
		</g>
	</g>
	<g>
		<path class="st4" d="M574.4,303.6v-13h-14.3v13h-11.8v-19.5h-0.6c-1.4,0-2.5-1-2.6-2.4l22.1-19l10.4,8.9v-5.8h5.3v10.4l6.5,5.6
			c-0.1,1.3-1.3,2.4-2.6,2.4h-0.6v19.5L574.4,303.6L574.4,303.6z"/>
		<g>
			<path class="st5" d="M567.2,263.5l8.9,7.7l2.1,1.8v-2.7v-3.9h4v9.4v0.6l0.4,0.4l6,5.1c-0.2,0.9-1,1.5-1.9,1.5h-1.2v1.2v18.3H575
				v-11.8v-1.3h-1.3h-13h-1.3v1.3v11.8h-10.5v-18.3v-1.3h-1.3c-0.9,0-1.7-0.6-1.9-1.5L567.2,263.5 M567.2,261.9l-22.8,19.5
				c0,1.8,1.5,3.3,3.3,3.3v19.5h13v-13h13v13h13v-19.5c1.8,0,3.3-1.5,3.3-3.3l-6.5-5.6v-10.7H577v5.1L567.2,261.9L567.2,261.9z"/>
		</g>
	</g>
	<g>
		<path class="st4" d="M538.7,312.3v-13.9h-15.2v13.9h-12.7v-20.9h-0.6c-1.5,0-2.7-1.1-2.8-2.6l23.7-20.3l11.1,9.5v-6.2h5.7v11.1
			l6.9,5.9c-0.1,1.4-1.4,2.6-2.8,2.6h-0.6v20.9H538.7z"/>
		<path class="st5" d="M531.1,269.4l9.6,8.2l2.1,1.8v-2.7v-4.2h4.5v10.2v0.6l0.4,0.4l6.5,5.5c-0.2,1-1.1,1.7-2.2,1.7h-1.2v1.2v19.6
			h-11.4V299v-1.3h-1.3h-13.9h-1.3v1.3v12.7h-11.4v-19.6v-1.3h-1.3c-1,0-1.9-0.7-2.2-1.7L531.1,269.4 M531.1,267.7l-24.3,20.9
			c0,1.9,1.6,3.5,3.5,3.5V313h13.9v-13.9h13.9V313H552v-20.9c1.9,0,3.5-1.6,3.5-3.5l-7-6v-11.4h-7v5.5L531.1,267.7L531.1,267.7z"/>
	</g>
</g>
<g>
	<path class="st3" d="M882.6,256.1l1-1.8l-1.6-0.1c0,0-0.2,0.1-0.2-0.2s-0.1-1.1-0.1-1.1s0.2-0.6,0.4-0.9c0.2-0.3,0.3-0.4,0.3-0.4
		s-0.1-3.1-0.1-3.6c-0.1-0.5,0.1-0.5,0.1-0.5l0.9-6.7c0,0,0.4-3.1,0.5-3.8c0.1-0.6,0.1-3.9,0.1-3.9l-1.5-0.1c0,0-0.7-0.2-1.9,0.1
		c-1.3,0.2-20.7,4.2-20.7,4.2s-14,1.8-15,1.8c-1,0.1-5.8,0.1-5.8,0.1s0.5-0.7,0.5-1.1c0-0.4-0.1-0.7-0.1-0.7l-6,0.2l-0.3-0.2
		c0,0-2.9,0.4-3.3,0.1c-0.3-0.3-0.5-0.7-0.5-0.7l-2.8-0.2c0,0-0.1-0.6-0.1-1c0-0.5,0.3-1.1-0.2-1.7c-0.5-0.6-1-1-1.3-1.1
		s-1.4-0.1-1.4-0.1l-1.3,0.2l0.5,2c0,0-0.8-0.4-1.9-0.7l-1.1-0.3c0,0-0.8-0.5-1.1-0.6s-1.3-0.5-1.8-0.4s-1,0.1-1.3,0.4
		c-0.3,0.3-0.6,1.3-0.6,1.3l-4.4,19.5l-0.5,0.1c0,0-0.1-0.2-1,0.5s-1.9,1.8-1.9,1.8l-1.9,1.8l-0.7,0.7c0,0-0.1-0.4-0.5-0.1
		s-0.8,0.3-0.9,0.7c-0.1,0.3-0.1,0.6-0.2,0.7c0.2,0.1,0.4,0.2,0.5,0.2c0.3,0,1.2,0.4,1.6,0.7l-0.4,0.4c0,0.2-0.4,0.4-0.4,0.4
		l-1.9,1.8c0,0-1.2,0.4-1.7,0.6s-2.1,0.7-2.3,0.8s-2.6,1.1-2.6,1.1s0.1,0.2-0.3,0.1c-0.4-0.1-0.5-0.1-0.3-0.3
		c0.1-0.2,0.4-0.2,0.5-0.5c0.1-0.3-0.1-0.5-0.1-0.5s-0.3-0.5-0.9-0.6c-0.5-0.1-0.5-0.1-0.8-0.1s-8.8-0.5-9.6-0.6s-5.4-0.4-6-0.3
		s-10.5-0.1-10.5-0.1l0.1,0.8l0.1,1c0,0,0.1,0.9,0.1,1.1c-0.1,0.2-0.1,3-0.1,3s-0.2,0.9-0.2,1.3c0,0.4,0.2,0.3,0.3,1
		c0.1,0.7,0.4,2.4,0.4,2.4l-0.1,1c0,0,0.1,1.1,0.3,1.7c0.2,0.5,0.6,1.7,0.6,2.2c0.1,0.5,0.2,2.1,0.1,2.6c-0.1,0.6,0.1,0.5-0.2,0.7
		c-0.3,0.2-0.1-0.3-0.4,0.1c-0.3,0.4-0.3,1-0.3,1s-0.3,0.1-0.3,0.7v1.5l0.5,1.6c0,0-0.2,0.8,0.1,1.1c0.2,0.3,0.4,0.7,0.4,0.7
		l0.3-0.1l0.2,1.3c0,0,0,0.6,0.2,0.9s0.5,0.7,0.4,1.1s-0.3,0.4-0.4,0.6c-0.1,0.2-0.1,1.6-0.1,1.6l-0.1,1.3c0,0-0.3-0.1,0.3,0.5
		c0.6,0.5-0.1,0.7,0.8,0.4c0.9-0.3,1-0.5,1.3-0.5c0.3-0.1,0.8-0.1,1.1,0.1s0.3,0.9,0.3,0.9l0.4,0.8c0,0-0.1,0.3,0.4,0.7
		c0.5,0.5,2.1,2.7,2.1,2.7s0.8,0.5,1,0.9c0.2,0.3,0.3,0.8,0.3,0.8l-0.1,1.5c0,0,0.1,1.4,0.3,1.7c0.2,0.2,0.3,0.3,0.6,0.6
		c0.2,0.3,0.3,0.3,0.3,0.7c0,0.4,0.1,1,0.1,1s-0.1,0.1,0.1,0.6c0.2,0.5,0.4,1,0.4,1l0.5,0.9v0.7c0,0,0,0.1,0.2,0.3
		c0.2,0.3,0,0.6,0.5,0.8s0.4,0.3,1,0.2c0.6-0.1,0.6-0.3,1-0.3s0.1,0,0.9-0.1c0.7-0.1,0.9-0.2,1.1-0.3c0.2-0.1,0.3-0.1,0.5-0.1
		c0.2,0.1,0.1,0.2,0.1,0.5s-0.3,0.3-0.3,0.9s-0.1,0.7,0.1,1c0.2,0.3,0.8,0.6,0.8,0.9s0.3,0.3,0,0.7s-0.3,0.2-0.7,0.7
		s-2.3,5.7-2.3,5.7s0,0.5,0.1,1s0.5,1.1,0.5,1.3c-0.1,0.2-0.2,1.4-0.2,1.5h0.1c0.2,0,0.3,0,0.4,0h0.2c0.2,0,0.4-0.1,0.7-0.1
		c0.7-0.1,1.1-0.2,1.6-0.2c0.2,0,0.3,0,0.4,0c0.1,0,0.2,0,0.4-0.1c0.1,0,0.1,0,0.2-0.1c0.4-0.2,0.9,0,1.6-0.1c0.3,0,0.7-0.1,1.2-0.2
		c0.6-0.2,1.3-0.4,2-0.4c0.7-0.1,0.5-0.1,0.8-0.1l-1.8-11.3l0.2-1.9l0.1-4.4c0,0,0.5-0.5,0.6-0.7s0.4-1.8,0.4-1.8l0.3-1.5
		c0,0,0.6,0.3,0.9,0.3s0.5-0.1,0.7-0.2c0.3-0.1,0.5-0.1,0.6,0.1s0.2,1.1,0.2,1.1l0.6,1c0,0,0.3,0.3,0.6,0.2c0.2-0.1,0.5-0.5,0.5-0.5
		s-0.3-0.5-0.2-0.7s0.5-1,0.7-0.9s0.3,0.7,0.3,0.7s-0.1,0.2,0.2,0.3c0.3,0.1,0.3,0.5,0.5,0.8s1.2,0.8,1.2,0.8l0.7,0.6l0.7-0.2l1-0.8
		c0,0-0.3-0.3-0.2-0.6c0.1-0.2,0.6-0.6,0.6-0.6h0.9h1c0,0-0.1-0.5,0.2-0.8s0.7-0.4,1-0.5c0.2-0.1,0.7-0.2,0.7-0.2l0.1-0.6
		c0,0-0.4-0.3-0.6-0.5c-0.2-0.2-0.3-0.1-0.3-0.5c0.1-0.5,0-0.7,0-0.7l-0.3-1.1c0,0-0.3-0.7-0.2-1c0.1-0.2,0.4-1,0.4-1l0.5-0.5
		l-0.4-0.6l1.2-1.1l-0.9-0.5l0.5-0.6c0,0-0.3-0.2-0.3-0.6c-0.1-0.4-0.1-1.8-0.1-1.8l-0.2-1.9c0,0-0.3-0.3-0.2-0.6
		c0.1-0.3,0.1-0.5,0.5-0.6c0.3-0.1,0.4-0.3,0.7-0.3l0.8-0.4c0.4,0.4,1,1,1.3,1.3s1.4,0.3,2.1,0.2c0.8-0.1,1.1-1.4,1.2-1.7
		c0-0.1,0.1-0.8,0.2-1.2c0.1-0.3-0.1-2.2-0.1-2.8c0-0.4,0.1-0.7,0.3-1c0.2-0.3,0.5-0.7,0.9-0.7c0.3-0.1,1.7,0.2,1.9,0.3
		s2.3,0.8,2.9,1.1c0.6,0.3,1.1,0.8,1.3,1.1c0.3,0.3,0.5,0.7,0.6,1.1c0.1,0.4,0.1,1,0,1.4s-0.5,1.3-0.7,1.5c-0.1,0.2-0.7,0.9-1.4,1.7
		v0.1c0,0,0.9,0,1.2,0.2s1.6,0.7,1.6,0.7l1.3,1.1l0.5-0.5l1.1,1c0,0,0.2,0.1,0.5,0s0.8-0.9,0.8-0.9l0.5,0.9l1.7,0.6
		c0,0,0.7,0.7,1.4,0.4s1.8-1.2,1.8-1.2l1.8,0.4l-0.2-1.6l0.6-1.1l0.6-1.4l0.7,0.7l0.5-0.3c0,0,0.7,0.6,1.1,0.9s1.3,0.7,1.3,0.7
		l4.9,1.8c0,0-0.2-0.8,0-1.3s0.4-1,0.4-1l1-2.2c0,0-0.1-0.8,0.1-1.2c0.2-0.4,0.7-1.2,0.7-1.5c0.1-0.3,0.1-1.2,0.1-1.2l-0.1-0.7
		l0.5-0.3l-0.5-3.5h3.8l0.3,0.5l7.2-0.1l0.3,0.3l3.8-0.3l14.3,5.6l0.3-1.6l-1.1-0.6l9.5-15.7l0.9-1.7c0,0-0.3-0.1,0.6-0.7
		c0.9-0.6,2.1-1.5,2.1-1.5s1.4-0.6,1.6-0.9c0.2-0.3,1.9-2.5,1.9-2.5L882.6,256.1z"/>
</g>
<g>
	<g>
		<path class="st3" d="M949.4,332.8l3.9-8.3l-0.5-2.8l3.3-2.4v-1.6l1,0.1l2.6-3.4l3.5-6.9l1.4-0.2l1.5-3l-1.1-0.9l-0.4-4.2l-1.4,0.2
			l-0.5-7l-2.9-2.3l-1.2-3.1l0.5-1l-1.6-1.3l0.4-1.8l1.3-0.4l-0.8-8.5l-2.9-5.1l-5.8-4l-5.1-7.7l-1.2-4.7l0.4-1.9h0.9l0.4-1.4
			l1.7,1.1l0.2-1.7l2.5-0.5l-0.5-5.4l1-2.5l-0.8-2.5l1.8-1.4l2.5-0.1l1.2-3.8l-1.2-0.8l-2.4,2.6l-0.4-3.4l-3-4.4l1.4-1.1l-0.3-1.4
			l-4.6-4.1l-8-10.4l0.4-2.5l-1.8-5.6l-1-0.5l-0.7,1l-2.7-4.6l0.4-0.8l1.2,1.8h1.4l1.2-1.2l2.3-0.2l-0.4-4.5l-1.1-1.5l2.5-2.3
			l-0.6-5.2l1.6-1.4l-0.4-1.3l2.6-1l0.3-2.8l2.8,2.1l6.3-0.5l2.8-1.4l2.5,1.2l1.4-5.8l6.5-0.5l0.9-1.5l-1.7-3l2.7,0.8l2.5,0.3
			l2.6-2.2l1.8,1.8l0.3,1.6l1,0.2l1.6-2.4h0.9l1.7,2.7l1.9,1l-0.6,4.6l-1.9,2.3l1.4,3.1l1,1l1.6-0.9l1.4,1l1.9-2.3l5.5,0.7v2l-0.9,1
			l0.9,2.1l0.3,1.7l1.5,1.8l-1.6,3l-0.1,3.7l-2.8,3.3l1.9,1.5v4.4l-2.5,2.8l-0.9,5l2.8,2l3.9-4.2l2.5-0.9l0.2-1.5l2-0.5l1-2.6
			l1.8,0.6l2.7-2.9h1.2l2,2.3l4.7,1.6v1.9l1.4,0.5v-1.2l2.4-1.2l2.8-0.1l2.5-4.6l6.2-2.4l4.3,1.9l1.6-1l4.5,7.6l8.2,7.6l-1.1,6
			l0.4,8.3l4,4.5l0.4,2.1l5.5,1.5l-0.8,1.5l0.8,2l3.6,2l-0.7,4.1l-1.7,1l1.6,1.2l-1.7,2.1l2.1,2.4l-0.8,0.6l-0.8,2.6l0.3,3.9l-1.6,2
			l-3,1l-2.2,2.2l-1.7-2.9l-4.1-0.4l-3.5,1.2l-3.2-1l-4.6,1.3l-1.4-0.8l-2.3-0.2l-0.1-0.9l-9.9,2.4l-1.8,1.4l-0.6,2.9l-1.8,1.4
			l-0.8,2.4l-2.7,1.8l0.8,1l-4.1,0.6l0.3,4.9l2.7,3.9l-0.8,1.3l0.5,4.1l1.9,0.9l2.2,3l-1.3,3.8l0.4,1.9l-0.7-1l-0.5-0.6l-0.3-0.7
			l-0.4-0.3l-0.6,0.3l-0.4,1h-0.6l-0.3-0.3l-1.4-0.3l-1.5-0.3l-0.3-0.5v-0.4l0.3-0.3l0.3-0.3l0.4-0.3l-0.2-0.3l-0.8,0.3h-0.6
			l-0.3-0.4l-0.3-0.3l-1.3-1.3l-1-0.6l-1-0.7l-0.3-0.4v-0.5l-0.6-0.5l-0.6-0.3l-0.6-0.6l-2.3-0.3l-0.3-0.1l-0.3,0.1l-0.6,0.3
			l-0.6,0.3l-0.7,0.3l-0.8,0.3l-0.4,0.4h-0.7l-0.7-0.6l-1.3-0.7l-1.6-0.6l-1.4,0.1l-2,0.5l-0.7,0.1l-0.3-0.7v-1l0.3-0.6l-0.3-0.5
			v-0.9l0.4-0.5l-0.1-0.9V285l-0.4-0.5l0.1-0.7l0.3-0.5l0.1-0.9l-0.3-0.8l0.2-0.6l0.8-0.5l0.2-0.5l-0.3-0.5l-0.2-0.7l-1.4-0.3
			l-1.7-0.4l-1.5-0.4l-0.6-0.3l-0.6,0.3l-1.6,0.2l-2.6,0.3l-1.3,0.3l-1,0.3l-1,0.3l-0.6,0.3l-0.3,0.4l-0.6,0.6l-0.3,0.6l-0.3,0.4
			v0.5l0.4,0.4l0.2,0.4l0.4,0.5l0.3,0.5l0.3,0.5l0.5,0.7l-0.2,0.8l-0.6,1l-0.4,1.1l-0.3,0.9l-0.4,1v2.4l0.1,2.3l0.3,1.5v1l0.2,1.1
			l-0.2,0.8l-0.6,1.3l-0.4,0.6l-0.9,0.9l-0.3,0.7l-0.4,0.6l-0.4,1l0.1,1.3l-0.5,0.5l-1.1,1.7l-0.6,1.2L965,310l-0.3,1l-0.6,1
			l-0.2,0.4l0.2,0.6l0.2,0.6l-0.3,0.3l-0.5,0.1l-0.3,3.1l0.1,0.8l0.1,0.5l-0.3,0.2l-0.7,0.3l-0.3,0.5l-0.4,1l-0.3,0.6l-0.6,0.9
			l-0.6,0.9l-0.3,0.6l-0.9,1v0.8l0.2,0.5l0.3,0.9l-1.5,0.1v1.4l0.3,0.5l0.3,0.4l-0.3,0.7l-0.3,0.7l-0.3,0.4l0.1,0.6l0.5,0.4
			l-0.2,2.2l-0.4,2.2l0.1,1l0.6,1l0.3,0.9l0.4,0.6l0.3,0.7l0.3,0.6l0.4,0.4l0.1,0.4l-1.1,0.7v0.8l0.3,0.5v0.5l0.4,0.4l0.3-0.3h0.5
			l0.4,0.3l0.5,0.5h0.5l0.9-0.4l0.7-0.7l0.3-0.4l0.9,0.1l0.4,0.2l0.1-0.5l0.4-0.4l2.4,0.1l0.7,0.8l0.5,1.1l0.4,1.4v1l0.1,1.8
			l0.1,1.8l0.1,0.7l0.3,1.6l0.1,0.5l0.5,0.4l0.6,0.7l0.4,0.7l0.3,0.6l0.3,0.6l0.1,0.6h0.5l0.2-0.9l0.3-0.9l0.3,0.5l0.5,0.7l0.3,1
			l0.3,1.5l0.3,0.6l0.1,0.7l0.3,1l0.1,0.6l0.2,1l0.3,1.3l0.1,0.5l0.3,1.1l0.3,1.3l0.1,0.5l0.3,1l0.3,1.2l0.3,1.6l0.4,1l0.3,0.6
			l0.4,0.7l0.3,0.7l0.4,0.6l-0.2,0.3l-0.5-0.3h-0.4l-0.6,0.3l-0.5,0.3l0.1,0.4l1.1,0.3l0.3,0.3l0.7-0.3l0.2-0.4l0.5-0.5l0.5,0.6
			l0.6,0.7l0.6,1l0.9,1l1,0.6l1.2,0.7l0.8,0.7l1,0.3l1.6-0.2l1.4-0.1l0.9,0.2l1.1-0.2l0.7-0.1l1.6,0.3l0.6,0.3l0.4,0.7l0.6,0.7
			l0.6,0.7l0.6,0.9l1,1.3l0.4,0.7l0.8,0.8l0.8,0.9l0.9,0.9l1.1,0.8l0.8,0.8l0.5,0.3l-4,7.6l-2.2-0.5l-1.6-2.5l-4.5,2l-0.3,1.4
			l-1.7,1.5l-2.4-2.8l2.2-2.6l-0.1-2l-0.9-0.7l0.7-1.4l-2-0.7l-1.9,0.9l-1.8-4.5l-1.1,1.1l-4.5-1.5l-0.8-1.9l-2.1-0.6l-0.7,3.6
			l-0.6-1.1l-0.3,0.3h-0.4l-0.3-0.5l-0.4-0.5l-0.3-0.4l-0.1-0.6l-0.8-0.7l-0.7-0.5l-0.9-0.7l-0.4-0.5l-0.7-0.4l-0.5-0.7l-0.1-0.8
			l-0.2-1l-0.3-0.6l0.4-0.5l0.7-0.6l0.2-0.3l-1.3-0.1l-0.1-0.8l-0.5,0.6L966,377l-1.2-0.7l-0.4-0.6l-0.3-0.6l-0.4-0.7l0.2-1.2
			l0.3-0.8l-0.1-0.3l-0.4,0.6l-0.4,1l-0.5,0.8l-0.3-0.1l-0.5-0.5l-0.7-0.6l-0.3-1.1l-0.3-1.1l-0.3-1l-0.3-0.7l-0.5-0.5l-0.8-0.4
			l-0.3-0.7l-0.4-0.5l-0.3-0.1l-0.4,0.3c-0.1,0.3-0.3,0.6-0.4,0.9c-0.1-0.1-0.3-0.2-0.4-0.3c-0.1-0.1-0.3-0.2-0.4-0.4v-0.5l0.3-0.5
			l0.3-0.5l-0.3-0.5l-1-0.9l-0.9-1.3l-0.2-0.3l-0.6-0.2l-1.4,0.3l-0.3-0.5v-2.2l-0.3-0.6l-0.3-0.7l-0.3-0.3l-0.5,0.1l-0.4,0.4
			l-0.2-1l0.4-0.5l-0.1-0.4l-0.9,0.2l-0.7,0.5l-1.2,0.4l-0.3,0.9l-0.2,1.7l-0.5,0.1l-0.3-0.3l-0.5-0.1l-0.1,0.5l0.6,0.5l0.7,0.7
			l-0.1,0.9l-0.4,0.4l0.1,0.4l0.3,0.7l-0.3,1.3l-0.7,0.4l-0.8,0.3l-0.3-0.5l0.1-2.8l-0.1-0.6l0.3-0.8l0.3-0.5l-0.2-0.7v-1.3
			l-0.4-0.6l-0.1-0.9l-0.5-1.5l-0.1-1.2l0.2-2l0.3-1.7l0.4-1.6l0.1-1.9l0.7-0.4l-0.2-0.6l-1-0.2v-1.6l0.6,0.3l0.2,0.2l0.1-0.8
			l0.6-0.4l0.4-0.3l0.4-1.9l0.3-1.3l0.8-0.9l0.9-0.9l0.4-0.2L949,339l-0.4-0.5l0.2-3.4l0.6-0.7l0.5-0.8L949.4,332.8z"/>
	</g>
	<g>
		<polygon class="st3" points="970.2,339.5 970.2,341.5 971.4,341.2 972,340.8 972.3,340.1 972.3,339.7 970.5,339.3 		"/>
	</g>
	<g>
		<polygon class="st3" points="970.8,336.1 970.8,336.9 971.4,337.2 972.3,337.3 972.3,336.5 971.3,336.3 		"/>
	</g>
</g>
<g>
	<g>
		<polygon class="st3" points="721.4,256.1 694.9,256.1 694.9,272.4 706.3,272.4 706.3,265.3 721.4,261.8 		"/>
	</g>
	<g>
		<path class="st3" d="M709.6,267.9V320h24.7v-57.9L709.6,267.9z M719.7,308.8h-4.4v-4.4h4.4V308.8z M719.7,299.2h-4.4v-4.4h4.4
			V299.2z M719.7,289.5h-4.4v-4.4h4.4V289.5z M719.7,279.9h-4.4v-4.4h4.4V279.9z M728.5,299.2h-4.4v-4.4h4.4V299.2z M728.5,289.5
			h-4.4v-4.4h4.4V289.5z M728.5,279.9h-4.4v-4.4h4.4V279.9z"/>
	</g>
	<g>
		<path class="st3" d="M681.6,272.4h10v-17.3l-12.2-12.2h-20.5v16.4h22.6L681.6,272.4z M668.9,253.7h-4.4v-4.4h4.4V253.7z
			 M677.7,253.7h-4.4v-4.4h4.4V253.7z"/>
	</g>
	<g>
		<path class="st3" d="M653.6,320.1h24.7v-57.4h-24.7V320.1z M668.1,269.9h4.4v4.4h-4.4V269.9z M668.1,279.5h4.4v4.4h-4.4V279.5z
			 M668.1,289.1h4.4v4.4h-4.4V289.1z M668.1,298.7h4.4v4.4h-4.4V298.7z M659.3,269.9h4.4v4.4h-4.4V269.9z M659.3,279.5h4.4v4.4h-4.4
			V279.5z M659.3,289.1h4.4v4.4h-4.4V289.1z M659.3,298.7h4.4v4.4h-4.4V298.7z"/>
	</g>
	<g>
		<path class="st3" d="M681.6,320.1h24.7v-44.4h-24.7V320.1z M696.1,283h4.4v4.4h-4.4L696.1,283L696.1,283z M696.1,292.6h4.4v4.4
			h-4.4L696.1,292.6L696.1,292.6z M687.3,283h4.4v4.4h-4.4V283z M687.3,292.6h4.4v4.4h-4.4V292.6z M687.3,302.2h4.4v4.4h-4.4V302.2z
			"/>
	</g>
</g>
<g>
	<g>
		<polygon class="st6" points="262.4,294.1 265.4,294.1 265.4,294.1 		"/>
		<polygon class="st6" points="268.4,294.1 271.4,294.1 271.4,294.1 		"/>
		<polygon class="st6" points="274.4,294.1 277.4,294.1 277.4,294.1 		"/>
		<polygon class="st6" points="280.4,294.1 283.4,294.1 283.4,294.1 		"/>
		<polygon class="st6" points="286.4,294.1 289.4,294.1 289.4,294.1 		"/>
		<polygon class="st6" points="292.4,294.1 295.4,294.1 295.4,294.1 		"/>
		<rect x="298.4" y="294.1" class="st6" width="3" height="0.1"/>
		<rect x="304.4" y="294.1" class="st6" width="3" height="0.1"/>
		<rect x="310.4" y="294.1" class="st6" width="3" height="0.1"/>
		<rect x="316.4" y="294.1" class="st6" width="3" height="0.1"/>
		<rect x="322.4" y="294.1" class="st6" width="3" height="0.1"/>
		<rect x="328.4" y="294.1" class="st6" width="3" height="0.1"/>
		<rect x="334.4" y="294.1" class="st6" width="3" height="0.1"/>
		<rect x="340.4" y="294.1" class="st6" width="3" height="0.1"/>
		<rect x="346.4" y="294.1" class="st6" width="3" height="0.1"/>
		<rect x="352.4" y="294.1" class="st6" width="3" height="0.1"/>
		<rect x="358.4" y="294.1" class="st6" width="3" height="0.1"/>
		<rect x="364.4" y="294.1" class="st6" width="3" height="0.2"/>
		<rect x="370.4" y="294.1" class="st6" width="3" height="0.2"/>
		<rect x="376.4" y="294.1" class="st6" width="3" height="0.2"/>
		<rect x="382.4" y="294.1" class="st6" width="3" height="0.2"/>
		<rect x="388.4" y="294" class="st6" width="3" height="0.2"/>
		<rect x="394.4" y="294" class="st6" width="3" height="0.2"/>
		<rect x="400.4" y="294" class="st6" width="3" height="0.2"/>
		<rect x="406.4" y="294" class="st6" width="3" height="0.2"/>
		<rect x="412.4" y="294" class="st6" width="3" height="0.2"/>
		<rect x="418.4" y="294" class="st6" width="3" height="0.2"/>
		<rect x="424.4" y="294" class="st6" width="3" height="0.2"/>
		<rect x="430.4" y="294" class="st6" width="3" height="0.2"/>
		<rect x="436.4" y="294" class="st6" width="3" height="0.3"/>
		<rect x="442.4" y="294" class="st6" width="3" height="0.3"/>
		<rect x="448.4" y="294" class="st6" width="3" height="0.3"/>
		<rect x="454.4" y="294" class="st6" width="3" height="0.3"/>
		<rect x="460.4" y="294" class="st6" width="3" height="0.3"/>
		<rect x="466.4" y="294" class="st6" width="3" height="0.3"/>
		<rect x="472.4" y="294" class="st6" width="3" height="0.3"/>
		<rect x="478.4" y="294" class="st6" width="3" height="0.3"/>
		<rect x="484.4" y="294" class="st6" width="3" height="0.3"/>
		<rect x="490.4" y="294" class="st6" width="3" height="0.3"/>
		<rect x="496.4" y="294" class="st6" width="3" height="0.3"/>
		<rect x="502.4" y="294" class="st6" width="3" height="0.4"/>
		<rect x="508.4" y="294" class="st6" width="3" height="0.4"/>
		<rect x="514.4" y="294" class="st6" width="3" height="0.4"/>
		<rect x="520.4" y="294" class="st6" width="3" height="0.4"/>
		<rect x="526.4" y="293.9" class="st6" width="3" height="0.4"/>
		<rect x="532.4" y="293.9" class="st6" width="3" height="0.4"/>
		<rect x="538.4" y="293.9" class="st6" width="3" height="0.4"/>
		<rect x="544.4" y="293.9" class="st6" width="3" height="0.4"/>
		<rect x="550.4" y="293.9" class="st6" width="3" height="0.4"/>
		<rect x="556.4" y="293.9" class="st6" width="3" height="0.4"/>
		<rect x="562.4" y="293.9" class="st6" width="3" height="0.4"/>
		<rect x="568.4" y="293.9" class="st6" width="3" height="0.5"/>
		<rect x="574.4" y="293.9" class="st6" width="3" height="0.5"/>
		<rect x="580.4" y="293.9" class="st6" width="3" height="0.5"/>
		<rect x="586.4" y="293.9" class="st6" width="3" height="0.5"/>
		<rect x="592.4" y="293.9" class="st6" width="3" height="0.5"/>
		<rect x="598.4" y="293.9" class="st6" width="3" height="0.5"/>
		<rect x="604.4" y="293.9" class="st6" width="3" height="0.5"/>
		<rect x="610.4" y="293.9" class="st6" width="3" height="0.5"/>
		<rect x="616.4" y="293.9" class="st6" width="3" height="0.5"/>
		<rect x="622.4" y="293.9" class="st6" width="3" height="0.5"/>
		<rect x="628.4" y="293.9" class="st6" width="3" height="0.5"/>
		<rect x="634.4" y="293.9" class="st6" width="3" height="0.5"/>
		<rect x="640.4" y="293.9" class="st6" width="3" height="0.6"/>
		<rect x="646.4" y="293.9" class="st6" width="3" height="0.6"/>
		<rect x="652.4" y="293.9" class="st6" width="3" height="0.6"/>
		<rect x="658.4" y="293.9" class="st6" width="3" height="0.6"/>
		<rect x="664.4" y="293.8" class="st6" width="3" height="0.6"/>
		<rect x="670.4" y="293.8" class="st6" width="3" height="0.6"/>
		<rect x="676.4" y="293.8" class="st6" width="3" height="0.6"/>
		<rect x="682.4" y="293.8" class="st6" width="3" height="0.6"/>
		<rect x="688.4" y="293.8" class="st6" width="3" height="0.6"/>
		<rect x="694.4" y="293.8" class="st6" width="3" height="0.6"/>
		<rect x="700.4" y="293.8" class="st6" width="3" height="0.6"/>
		<rect x="706.4" y="293.8" class="st6" width="3" height="0.7"/>
		<rect x="712.4" y="293.8" class="st6" width="3" height="0.7"/>
		<rect x="718.4" y="293.8" class="st6" width="3" height="0.7"/>
		<rect x="724.4" y="293.8" class="st6" width="3" height="0.7"/>
		<rect x="730.4" y="293.8" class="st6" width="3" height="0.7"/>
		<rect x="736.4" y="293.8" class="st6" width="3" height="0.7"/>
		<rect x="742.4" y="293.8" class="st6" width="3" height="0.7"/>
		<rect x="748.4" y="293.8" class="st6" width="3" height="0.7"/>
		<rect x="754.4" y="293.8" class="st6" width="3" height="0.7"/>
		<rect x="760.4" y="293.8" class="st6" width="3" height="0.7"/>
		<rect x="766.4" y="293.8" class="st6" width="3" height="0.7"/>
		<rect x="772.4" y="293.8" class="st6" width="3" height="0.8"/>
		<rect x="778.4" y="293.8" class="st6" width="3" height="0.8"/>
		<rect x="784.4" y="293.8" class="st6" width="3" height="0.8"/>
		<rect x="790.4" y="293.8" class="st6" width="3" height="0.8"/>
		<rect x="796.4" y="293.7" class="st6" width="3" height="0.8"/>
		<rect x="802.4" y="293.7" class="st6" width="3" height="0.8"/>
		<rect x="808.4" y="293.7" class="st6" width="3" height="0.8"/>
		<rect x="814.4" y="293.7" class="st6" width="3" height="0.8"/>
		<rect x="820.4" y="293.7" class="st6" width="3" height="0.8"/>
		<rect x="826.4" y="293.7" class="st6" width="3" height="0.8"/>
		<rect x="832.4" y="293.7" class="st6" width="3" height="0.8"/>
		<rect x="838.4" y="293.7" class="st6" width="3" height="0.8"/>
		<rect x="844.4" y="293.7" class="st6" width="3" height="0.9"/>
		<rect x="850.4" y="293.7" class="st6" width="3" height="0.9"/>
		<rect x="856.4" y="293.7" class="st6" width="3" height="0.9"/>
		<rect x="862.4" y="293.7" class="st6" width="3" height="0.9"/>
		<rect x="868.4" y="293.7" class="st6" width="3" height="0.9"/>
		<rect x="874.4" y="293.7" class="st6" width="3" height="0.9"/>
		<rect x="880.4" y="293.7" class="st6" width="3" height="0.9"/>
		<rect x="886.4" y="293.7" class="st6" width="3" height="0.9"/>
		<rect x="892.4" y="293.7" class="st6" width="3" height="0.9"/>
		<rect x="898.4" y="293.7" class="st6" width="3" height="0.9"/>
		<rect x="904.4" y="293.7" class="st6" width="3" height="0.9"/>
		<rect x="910.4" y="293.7" class="st6" width="3" height="1"/>
		<rect x="916.4" y="293.7" class="st6" width="3" height="1"/>
		<rect x="922.4" y="293.7" class="st6" width="3" height="1"/>
		<rect x="928.4" y="293.7" class="st6" width="3" height="1"/>
		<rect x="934.4" y="293.6" class="st6" width="3" height="1"/>
		<rect x="940.4" y="293.6" class="st6" width="1.5" height="1"/>
		<g>
			<polygon class="st6" points="938.6,298.2 937.9,297.5 941.5,294.1 937.9,290.8 938.6,290.1 943,294.1 			"/>
		</g>
	</g>
</g>
<path class="st7" d="M809,789.8c5.4-10.2,9.8-20.8,13.2-31.7c3.6-11.6,6.1-23.6,7.4-35.7c2.8-25.6,0.3-51.4-7.3-75.9
	c-7.6-24.6-20.2-47.3-36.9-66.8c-7.9-9.2-16.7-17.7-26.3-25.2c-9-7.1-18.7-13.4-28.8-18.7c-10.2-5.4-20.8-9.8-31.7-13.2
	c-11.6-3.6-23.6-6.1-35.7-7.4c-25.6-2.8-51.4-0.3-75.9,7.3c-24.6,7.6-47.3,20.2-66.8,36.9c-9.2,7.9-17.7,16.7-25.2,26.3
	c-7.1,9-13.4,18.7-18.7,28.8c-5.4,10.2-9.8,20.8-13.2,31.7c-3.6,11.6-6.1,23.6-7.4,35.7c-2.8,25.6-0.3,51.4,7.3,75.9
	c7.6,24.6,20.2,47.3,36.9,66.8c7.9,9.2,16.7,17.7,26.3,25.2c9,7.1,18.7,13.4,28.8,18.7c10.2,5.4,20.8,9.8,31.7,13.2
	c11.6,3.6,23.6,6.1,35.7,7.4c25.6,2.8,51.4,0.3,75.9-7.3c24.6-7.6,47.3-20.2,66.8-36.9c9.2-7.9,17.7-16.7,25.2-26.3
	C797.4,809.6,803.6,799.9,809,789.8z"/>
<g class="st8">
	
		<rect x="670.6" y="621.8" transform="matrix(8.037846e-02 -0.9968 0.9968 8.037846e-02 -5.2995 1259.876)" class="st3" width="19.1" height="22"/>
</g>
<g class="st8">
	
		<rect x="638.2" y="797.8" transform="matrix(8.037846e-02 -0.9968 0.9968 8.037846e-02 -211.7828 1400.6034)" class="st3" width="30" height="34.6"/>
</g>
<g class="st8">
	<polygon class="st3" points="570.3,646.3 597.5,628.6 581.8,605.1 554.6,622.8 	"/>
</g>
<g>
	<rect x="583.6" y="648.6" class="st3" width="123.3" height="123.3"/>
</g>
<path class="st9" d="M576.5,818c-0.8-1.2-1.3-1-2.6,0.2c-1.3,1.1-3.3,3.2-2.8,4c-1.3,0.7-2.3,1.1-3.1,1.5c-1,0.5-1.5,1.1-2.3,2.5
	c-0.8,1.5-2,3.9-2.8,5.9c-0.8,1.9-1.1,3.4-1.9,4.8c-0.8,1.4-2.1,2.7-3.2,4.9c-1.1,2.2-2,5.2-2.6,7.7c-0.6,2.5-1,4.4-1.6,5.7
	c-0.6,1.3-1.5,1.9-2.5,2.9c-1,1.1-2,2.6-2.7,4.5s-1.1,4-1.8,6.5c-0.7,2.4-1.7,5.1-2.4,6.6s-1,2-1.2,2.4s-0.3,0.9-0.4,2.2
	c0,1.4,0,3.6,0.2,5.3c0.1,1.6,0.4,2.6,0.8,3.8c0.5,1.2,1.2,2.6,1.7,4.2c0.6,1.6,1,3.3,2.5,7.5s4.2,10.8,6.4,15.5
	c2.3,4.6,4.1,7.2,5.9,10.1s3.3,6.2,4.7,8.8s2.5,4.7,3.5,7.5s1.9,6.3,2.8,8.6c0.9,2.2,1.8,3.2,3.3,3.9s3.5,1.2,8,3.6
	c4.5,2.4,11.5,6.7,15.5,8.9s5.1,2.2,7.2,2.6c2.1,0.4,5.2,1.1,9.4,1.9c4.2,0.8,9.6,1.6,16,2.7c6.4,1.1,13.9,2.5,19.2,3.2
	c5.3,0.7,8.5,0.7,11.4,0.2c2.9-0.5,5.7-1.5,8.1-2.2c2.4-0.7,4.3-1.3,6.9-2.8c2.6-1.5,5.9-3.9,7.8-5.3c1.9-1.4,2.6-1.8,3.6-2.3
	c1-0.4,2.4-0.9,4.2-1.7c1.8-0.7,3.9-1.7,5.6-3.1c1.7-1.3,2.8-3,3.7-4.5c0.9-1.6,1.5-3.1,3.3-6.1s4.7-7.4,6.7-10.5s3.1-4.7,4.4-6.6
	c1.3-1.9,2.7-4.2,3.6-6c0.9-1.8,1.1-3.3,1.4-4.5c0.3-1.2,0.6-2.2,1-3.1c0.4-0.9,1-1.7,1.5-2.4s0.8-1.4,0.8-2.3c0-0.9-0.2-2-0.1-2.9
	c0.1-0.9,0.5-1.5,1.1-2.3s1.3-1.7,1.5-2.6c0.2-0.9,0-1.8,0-2.7s0.3-1.7,0.4-2.6c0.1-0.9,0.2-1.9-0.1-2.8s-0.9-1.9-1.3-2.8
	c-0.4-0.9-0.6-1.9-0.6-3.1s0.4-2.7,0.6-4.2c0.2-1.4,0.4-2.8,0.3-4.4c-0.1-1.6-0.3-3.3-0.5-4.7c-0.1-1.3-0.1-2.3-0.1-3.5
	c0-1.3,0-2.8-0.2-5.2c-0.3-2.4-0.8-5.6-1.1-7.6s-0.3-2.9-0.2-3.7c0.1-0.9,0.4-1.8,0.5-3s0.1-2.6-0.2-5.1s-0.9-6-1.2-8
	s-0.3-2.6-0.5-3.1s-0.5-0.9-0.9-1.2c-0.4-0.2-0.8-0.2-1.9-0.3c-1.1,0-3-0.1-4.1-0.2c-1.1-0.1-1.4-0.2-1.5-0.7s-0.2-1.5-0.1-2.5
	s0.3-1.8,0.6-2.9c0.3-1.1,0.8-2.4,1.1-3.8c0.3-1.4,0.4-2.9,0.9-4.9c0.4-1.9,1.2-4.2,1.4-5.9s0-2.7-0.4-3.4s-1-1-1.8-1.6
	s-1.7-1.4-2.3-2.2s-1.1-1.6-1.6-2.3c-0.5-0.6-1.1-1.1-1.8-1.7c-0.7-0.6-1.6-1.2-2.6-1.9c-0.9-0.7-1.8-1.4-3-2.1
	c-1.2-0.7-2.5-1.3-3.6-1.6s-2-0.2-2.7-0.1c-0.7,0.1-1.2,0.1-1.4,0.5c-0.2,0.3-0.1,0.9,0.2,1.5c0.4,0.6,1,1.1,2.3,2
	c1.2,0.9,3.1,2.1,4.1,3c1,0.8,1.3,1.3,0.9,1.4c-0.3,0.1-1.2-0.1-1.9-0.5s-1.4-1.1-2.3-1.6c-0.8-0.5-1.8-0.9-3-1s-2.6,0.2-3.6,0.5
	c-1,0.2-1.5,0.4-1.8,0.8c-0.3,0.4-0.5,1-0.5,1.4c0,0.5,0.1,0.8,1,0.9c0.9,0.1,2.6,0,3.7,0c1.1,0,1.6,0,2.2,0.2
	c0.7,0.2,1.5,0.5,1.7,0.7c0.2,0.3-0.3,0.5-0.9,0.7c-0.6,0.2-1.5,0.3-2.1,0.7c-0.6,0.4-0.9,1.1-1.4,2s-1.1,2.2-1.5,3
	c-0.3,0.8-0.3,1.2,0.1,1.6c0.5,0.4,1.4,0.8,2.1,0.9c0.7,0.1,1.3,0,1.9-0.6c0.6-0.6,1.2-1.5,1.8-2.1c0.7-0.6,1.5-0.7,2.1-0.7
	s1.2,0,1.5,0.4c0.3,0.3,0.4,0.8,0.5,1.4s0.2,1.3,0,1.8c-0.2,0.6-0.6,1-1.1,1.7c-0.5,0.6-1.1,1.4-1.5,2.2c-0.4,0.9-0.5,1.8-0.4,3.2
	s0.5,3.1,0.8,5s0.5,3.9,0.5,5.2s-0.2,1.7-0.6,2.1s-1,0.7-1.6,1.1s-1.1,0.9-1.6,1.4s-1,1-1,1.6s0.4,1.2,0.8,2.5
	c0.4,1.3,0.8,3.3,1.7,5.6s2.3,5.1,2.8,7.2s-0.1,3.5-0.3,5.1s0,3.3-0.3,4.9c-0.3,1.6-1,3-1.3,4.8s0,3.9,0.8,6.4s2.2,5.3,2.1,6.8
	c-0.2,1.4-1.9,1.5-3.3,0.6c-1.4-0.8-2.4-2.5-3.9-3.9s-3.5-2.5-6.9-2.6c-3.4-0.1-8,0.6-11.4,1.4c-3.4,0.8-5.3,1.4-8.7,2.3
	c-3.4,0.9-8.1,2-10.5,1.7c-2.4-0.3-2.4-2.1-3.8-4.4c-1.4-2.3-4.2-5.1-7.1-7.1c-2.9-2-6-3.1-8.8-3.7c-2.7-0.5-5-0.4-8.6,0
	c-3.5,0.4-8.3,1.1-11.6,2.8c-3.3,1.7-5.1,4.3-6.3,6.3c-1.2,2-1.7,3.5-2.7,4.4s-2.4,1.2-4.4,1.5c-2,0.2-4.4,0.3-6.4,0.5
	s-3.5,0.4-5.3,1.2s-3.9,2-5.3,4c-1.4,2-2.2,4.8-3.1,7.9c-0.8,3.2-1.8,6.8-2.2,7.9c-0.5,1.1-0.5-0.4-1-2.4c-0.6-2-1.7-4.5-2.6-6.5
	c-0.9-2-1.6-3.6-2.4-4.5s-1.8-1.1-2.9-2.1c-1.1-1-2.5-2.9-3.2-4.5c-0.7-1.7-0.8-3.2-0.7-4.5c0.1-1.3,0.4-2.4,1.7-4.8
	c1.2-2.4,3.3-6,4.8-9.4s2.4-6.6,2.4-9.2c0-2.6-0.9-4.5-0.2-5.9c0.8-1.4,3.2-2.4,4.4-3.1c1.2-0.7,1.1-1.2,1.3-2.3
	c0.2-1.1,0.6-2.9,1.5-5.6c0.9-2.7,2.3-6.3,3-8.2s0.6-2.1,0.6-2.5c0-0.5,0-1.2-0.2-1.7s-0.4-0.7-0.4-1.1c0-0.4,0.2-1,0.2-1.5
	s-0.4-1-0.3-1.5c0-0.5,0.3-1,0.7-1.5s0.8-0.8,1.2-1.4c0.4-0.5,0.8-1.3,1.6-2c0.8-0.7,1.9-1.5,2.5-2c0.6-0.5,0.8-0.7,1.1-2.1
	c0.3-1.4,0.9-4.1,1.2-6.1s0.4-3.4,0.4-4.4c0.1-1,0.2-1.5,1.9-1.9c1.7-0.4,5.3-0.6,7.3-1.1s2.6-1.2,2.9-1.7s0.1-0.8-1.4-1.2
	s-4.5-0.9-6.3-1.3c-1.9-0.5-2.7-0.9-2.2-1.1c0.5-0.2,2.2-0.1,4,0s3.7,0.1,5.1,0.2c1.4,0.1,2.3,0.4,3,0.4s1.2-0.2,1.5-0.6
	c0.3-0.3,0.5-0.8,0.4-1.3c-0.1-0.5-0.5-1.1-1-1.5s-1-0.8-3-1s-5.5-0.3-6.3-0.8c-0.8-0.6,1-1.6,2.5-2.2s2.7-0.5,3.8-1s1.9-1.4,1.9-2
	c0-0.5-0.9-0.7-2.8-0.4c-1.9,0.3-4.9,1-6.6,1.4s-2.3,0.5-2.4,0.3c-0.1-0.2,0-0.7,0.3-1.3c0.3-0.5,0.6-1,1.1-1.8s1-1.9,1.2-2.8
	s0.2-1.6-0.3-1.8s-1.3,0.2-2.2,0.8s-1.9,1.5-2.7,2.4c-0.8,0.9-1.6,1.7-2.5,3c-0.9,1.3-2,3.1-2.6,4.6c-0.6,1.5-0.8,2.6-1.3,3.5
	s-1.2,1.7-2.6,3.6c-1.4,1.9-3.5,5.1-4.9,7.7c-1.4,2.6-2.2,4.7-2.8,5.9c-0.6,1.2-1.1,1.7-2.4,2.9C577.3,817.3,576.9,817.7,576.5,818z
	"/>
<g id="XMLID_4_">
	<g>
		<path class="st10" d="M881.8,577.9c0.2,2.7,0.1,5.1-0.1,6.8c-0.1,1.7-0.3,2.8-0.2,4.7s0.4,4.7,0.2,7.6c-0.3,3-1.1,6.1-3,9.7
			c-1.9,3.6-4.9,7.5-7.6,11.3c-2.7,3.8-5.2,7.6-8.5,11.6s-7.4,8.2-10.1,12c-2.7,3.8-4,7.1-7.5,10.3c-3.4,3.3-9,6.5-12.2,9.6
			s-4,6-6.2,8.5c-2.2,2.6-5.8,4.7-8.9,7c-3.1,2.2-5.8,4.5-7.3,5.8s-1.7,1.6-2.4,2s-1.8,1.1-2.4,1.4c-0.6,0.3-0.8,0.4-2,0.5
			s-3.6,0.3-5.9-0.8c-2.4-1-4.8-3.2-6.6-5.8s-3-5.5-4.6-8.8s-3.5-7.1-5.9-13.1s-5.3-14.2-7.8-20.9s-4.5-11.8-5.6-14.7
			s-1.2-3.7-1.2-4.5c-0.1-0.9-0.1-1.8,0.3-2.4c0.5-0.6,1.4-1,1.3-1.9c-0.1-0.9-1.1-2.3-2.4-4c-1.3-1.6-2.7-3.4-3.9-5.3
			c-1.1-1.9-2-3.9-2.5-5.7c-0.5-1.7-0.8-3.2-0.9-4.1c-0.2-0.9-0.2-1.1-0.8-1.1s-1.8,0.3-3,0.6c-1.1,0.3-2.2,0.6-3.2,0.6
			c-0.9,0-1.8-0.3-2.4-0.8c-0.6-0.5-1-1.1-2-1.8s-2.5-1.5-3.3-2.2c-0.8-0.6-1-1.1-1.5-1.5s-1.3-0.8-1.6-1.6s-0.2-2.1-0.3-3.4
			c-0.2-1.2-0.8-2.3-1.1-3.2c-0.4-0.9-0.5-1.7-0.1-2.4s1.3-1.4,1.3-2.6c0-1.2-0.9-3-1.7-4.5s-1.4-2.7-2.1-4c-0.7-1.3-1.4-2.6-1.8-4
			c-0.5-1.4-0.7-2.9-0.3-4.8c0.4-2,1.5-4.4,3.2-6.2s3.9-2.9,5.2-3.8s1.7-1.7,2.3-2.2s1.4-0.7,3.2-1.2s4.6-1.4,7.3-2.1
			c2.7-0.8,5.2-1.5,7.9-2.2s5.4-1.5,8.4-2.8c3-1.4,6.1-3.3,9.9-5.1c3.8-1.8,8.3-3.5,13.6-5c5.2-1.5,11.2-2.7,15.6-3.5
			c4.4-0.8,7.3-1.1,13.1,0.3c5.8,1.5,14.6,4.8,21,7.2s10.3,3.8,14.6,7.3c4.3,3.6,8.9,9.2,12.4,14.6c3.6,5.4,6.1,10.4,7.7,14.5
			C881,572.1,881.6,575.2,881.8,577.9z M827.8,630.4c1-2.3,0.2-3.1-0.7-3.6c-0.9-0.4-1.9-0.4-3.6-0.3c-1.7,0.1-4,0.2-6,0.1
			c-2-0.1-3.7-0.5-5.9-1.7s-4.9-3.1-6.6-4.2c-1.7-1.1-2.3-1.5-3.4-3.1c-1.1-1.6-2.6-4.4-3.4-6c-0.8-1.5-0.9-1.7-1.3-2.1
			c-0.3-0.4-0.9-0.9-2.2-1.7s-3.2-1.7-3.8-3.3c-0.6-1.5,0.2-3.7,0.6-6c0.4-2.4,0.5-5,0.6-7.7c0-2.7,0-5.6-0.1-7.6s-0.2-3.1-0.6-5.5
			c-0.4-2.4-1.1-6-1.4-9.5c-0.3-3.5-0.2-6.9-0.4-8.3s-0.8-0.9-1.7-0.4s-2,1-3.5,1.5s-3.4,1-5,1.6c-1.6,0.5-2.9,1.1-4.3,1.7
			c-1.5,0.6-3.1,1.3-4.6,1.9c-1.5,0.6-2.8,1-4.6,1.4s-4,0.8-4.9,1.2s-0.5,0.9-0.2,1.5s0.5,1.2,1,1.5s1.3,0.3,1.9,0.6
			c0.5,0.3,0.7,1,1.1,1.6c0.4,0.6,1,1,1.6,1.1s1.2-0.3,1.6-0.6c0.4-0.2,0.7-0.3,1.2-0.4c0.5,0,1.2,0,1.7,0.3s0.8,0.8,1.2,1.8
			s0.9,2.6,1.2,3.9c0.3,1.3,0.3,2.3,0.7,3.2c0.4,1,1.2,1.9,2,2.9s1.5,2,2.2,2.9s1.4,1.6,2,2.4c0.6,0.8,1.1,1.7,1.7,4.4
			c0.6,2.6,1.5,6.9,2.1,9.1c0.6,2.3,1.1,2.5,1.4,2.9c0.3,0.4,0.3,0.9,0.9,2.4c0.5,1.5,1.5,3.8,2.7,5.9c1.1,2,2.4,3.7,4.1,6.4
			c1.6,2.7,3.6,6.5,5.2,9.2s2.7,4.3,3.7,5.8c0.9,1.5,1.6,2.9,2.1,4.5c0.5,1.5,0.6,3.2,1.2,5c0.6,1.8,1.5,3.8,2.3,4.5
			s1.6,0.2,2.4-0.5c0.8-0.7,1.6-1.4,2.8-2.5s2.9-2.5,4.3-4c1.5-1.5,2.8-3,4.8-5.7C824.1,636.4,826.9,632.7,827.8,630.4z"/>
	</g>
	<g>
		<path class="st11" d="M761.3,569c0.9-0.4,3.1-0.8,4.9-1.2c1.8-0.4,3.1-0.9,4.6-1.4c1.5-0.6,3.1-1.3,4.6-1.9s2.7-1.2,4.3-1.7
			s3.5-1,5-1.6c1.5-0.5,2.6-1,3.5-1.5c0.8-0.5,1.4-1,1.7,0.4c0.2,1.4,0.1,4.8,0.4,8.3c0.3,3.5,1,7.1,1.4,9.5s0.5,3.5,0.6,5.5
			s0.1,4.9,0.1,7.6c0,2.7-0.1,5.3-0.6,7.7c-0.4,2.4-1.2,4.5-0.6,6c0.6,1.6,2.6,2.5,3.8,3.3c1.3,0.7,1.8,1.3,2.2,1.7
			c0.3,0.4,0.5,0.6,1.3,2.1s2.3,4.4,3.4,6c1.1,1.6,1.7,1.9,3.4,3.1c1.7,1.1,4.4,3.1,6.6,4.2c2.2,1.2,3.9,1.6,5.9,1.7
			c2,0.1,4.4,0,6-0.1c1.7-0.1,2.7-0.1,3.6,0.3c0.9,0.4,1.7,1.3,0.7,3.6s-3.7,6-5.8,8.6c-2,2.6-3.3,4.2-4.8,5.7s-3.1,2.9-4.3,4
			s-2,1.9-2.8,2.5c-0.8,0.7-1.5,1.2-2.4,0.5c-0.8-0.7-1.7-2.7-2.3-4.5s-0.8-3.4-1.2-5c-0.5-1.5-1.2-3-2.1-4.5
			c-0.9-1.5-2.1-3.1-3.7-5.8s-3.6-6.5-5.2-9.2c-1.6-2.7-2.9-4.4-4.1-6.4c-1.1-2-2.1-4.4-2.7-5.9c-0.5-1.5-0.6-2-0.9-2.4
			c-0.3-0.4-0.8-0.6-1.4-2.9c-0.6-2.3-1.5-6.5-2.1-9.1c-0.7-2.6-1.2-3.5-1.7-4.4c-0.6-0.8-1.3-1.5-2-2.4s-1.4-1.9-2.2-2.9
			s-1.6-1.9-2-2.9s-0.4-2-0.7-3.2c-0.3-1.3-0.8-2.9-1.2-3.9s-0.7-1.5-1.2-1.8s-1.2-0.3-1.7-0.3s-0.8,0.1-1.2,0.4
			c-0.4,0.2-1,0.6-1.6,0.6s-1.2-0.5-1.6-1.1c-0.4-0.6-0.6-1.3-1.1-1.6s-1.3-0.3-1.9-0.6c-0.5-0.3-0.7-1-1-1.5
			C760.8,569.9,760.4,569.5,761.3,569z"/>
		<path class="st11" d="M739.9,575.5c0-1.2-0.9-3-1.7-4.5s-1.4-2.7-2.1-4c-0.7-1.3-1.4-2.6-1.8-4c-0.5-1.4-0.7-2.9-0.3-4.8
			c0.4-2,1.5-4.4,3.2-6.2s3.9-2.9,5.2-3.8s1.7-1.7,2.3-2.2s1.4-0.7,3.2-1.2s4.6-1.4,7.3-2.1c2.7-0.8,5.2-1.5,7.9-2.2
			s5.4-1.5,8.4-2.8c3-1.4,6.1-3.3,9.9-5.1c3.8-1.8,8.3-3.5,13.6-5c5.2-1.5,11.2-2.7,15.6-3.5c4.4-0.8,7.3-1.1,13.1,0.3
			c5.8,1.5,14.6,4.8,21,7.2s10.3,3.8,14.6,7.3c4.3,3.6,8.9,9.2,12.4,14.6c3.6,5.4,6.1,10.4,7.7,14.5c1.6,4.1,2.2,7.2,2.4,9.9
			s0.1,5.1-0.1,6.8c-0.1,1.7-0.3,2.8-0.2,4.7s0.4,4.7,0.2,7.6c-0.3,3-1.1,6.1-3,9.7c-1.9,3.6-4.9,7.5-7.6,11.3
			c-2.7,3.8-5.2,7.6-8.5,11.6s-7.4,8.2-10.1,12c-2.7,3.8-4,7.1-7.5,10.3c-3.4,3.3-9,6.5-12.2,9.6s-4,6-6.2,8.5
			c-2.2,2.6-5.8,4.7-8.9,7c-3.1,2.2-5.8,4.5-7.3,5.8s-1.7,1.6-2.4,2s-1.8,1.1-2.4,1.4c-0.6,0.3-0.8,0.4-2,0.5s-3.6,0.3-5.9-0.8
			c-2.4-1-4.8-3.2-6.6-5.8s-3-5.5-4.6-8.8s-3.5-7.1-5.9-13.1s-5.3-14.2-7.8-20.9s-4.5-11.8-5.6-14.7s-1.2-3.7-1.2-4.5
			c-0.1-0.9-0.1-1.8,0.3-2.4c0.5-0.6,1.4-1,1.3-1.9c-0.1-0.9-1.1-2.3-2.4-4c-1.3-1.6-2.7-3.4-3.9-5.3c-1.1-1.9-2-3.9-2.5-5.7
			c-0.5-1.7-0.8-3.2-0.9-4.1c-0.2-0.9-0.2-1.1-0.8-1.1s-1.8,0.3-3,0.6c-1.1,0.3-2.2,0.6-3.2,0.6c-0.9,0-1.8-0.3-2.4-0.8
			c-0.6-0.5-1-1.1-2-1.8s-2.5-1.5-3.3-2.2c-0.8-0.6-1-1.1-1.5-1.5s-1.3-0.8-1.6-1.6s-0.2-2.1-0.3-3.4c-0.2-1.2-0.8-2.3-1.1-3.2
			c-0.4-0.9-0.5-1.7-0.1-2.4C739,577.4,739.9,576.8,739.9,575.5z"/>
	</g>
</g>
<path class="st9" d="M425.3,604.9c-9.2-7.8-11.9-12.3-12.9-15.5s-0.4-5,1.4-9.5c1.8-4.5,4.9-11.7,7.6-16.9s5-8.3,6.6-10.6
	s2.4-3.7,29.7-14.2c1.7-1.3,3.9-3.2,6.7-5.9c2.5-1.3,4.3-3.6,5.4-6c1.2-2.9,1.3-5.9,1.8-9.3c0.5-3.3,1.5-6.8,4.7-9.3
	s8.8-3.8,13.3-3.2s8.1,3.3,11.4,6.2c3.4,2.9,6.6,6,9.8,9.6c3.2,3.6,6.4,7.7,8.2,10.7s2.3,5.1,2.5,7.2c0.2,2.1,0.2,4.2-0.9,7.9
	c-1,3.7-3,8.9-4.3,12.7c-1.2,3.7-1.7,6-1.8,7.6c-0.2,1.6-0.1,2.7,0.2,3.9c0.2,1.3,0.6,2.8,0.8,4.6c0.2,1.9,0.4,4.1,0.5,6.3
	c0.1,2.2,0.3,4.3,0,6.7c-0.3,2.3-1,4.9-1.2,6.9s0.1,3.5-0.1,4.7s-1,2.2-1.9,2.4c-1,0.3-2.2-0.2-3.8,0c-1.6,0.1-3.5,0.8-5,1.5
	c-1.5,0.6-2.5,1.2-4.2,1.8s-4.2,1.1-6.9,2.1s-5.4,2.4-7.6,4.1c-2.3,1.7-4.1,3.8-4.3,6.3s1,5.4,4.9,9.1s10.3,7.9,14.1,11
	c3.8,3,4.9,4.8,7.9,7.9s8.1,7.6,14.5,12.4c6.4,4.8,14.3,10,23.1,15.5c8.7,5.5,18.3,11.3,24,14.5s7.4,3.9,9.8,4.5
	c2.4,0.6,5.5,1.1,8.5,1.2c3,0.1,5.9-0.2,9,0.4c3.1,0.6,6.4,2.1,8.3,3.5c1.9,1.4,2.4,2.7,1.7,3.8c-0.6,1.1-2.3,2.1-3.5,3.2
	c-1.2,1.1-1.9,2.2-2.3,3.4c-0.4,1.2-0.4,2.5-0.8,3.4c-0.4,0.9-1,1.4-1.8,1.9s-1.7,1.1-3.1,1.3c-1.3,0.2-3.1,0.1-5.6-0.1
	s-5.7-0.5-7.4-0.8s-1.9-0.5-3.1-1.8s-3.3-3.7-6.1-5.2c-2.8-1.5-6.4-2.1-14.4-5.1c-8.1-3-20.7-8.3-29.6-12.8
	c-8.9-4.4-14.2-8-20.2-12.1s-12.8-8.8-17.9-12s-8.4-5.1-10.6-7.2c-2.3-2.1-3.6-4.3-7.7-8.3s-11-9.8-15.9-14.2
	c-5-4.4-8-7.5-11.3-10.7s-6.8-6.5-9.8-9.7c-2.9-3.2-5.3-6.2-7.9-8.4C426.9,605.9,426.1,605.4,425.3,604.9z"/>
<path class="st12" d="M702.5,821.2c1.7-2.1,1.7-3.7,1.8-5s0.2-2.4,0.3-3.3c0.1-0.8,0.1-1.4,0.5-2s0.9-1.1,1.4-1.4
	c0.5-0.3,0.9-0.4,1.2-0.3c0.3,0,0.5,0.1,0.8,0.5c0.2,0.3,0.5,0.8,0.5,1.3s0,0.9-0.1,1.3s-0.1,1,0,2c0,1,0.1,2.5,0.2,3.5
	c0.1,0.9,0.1,1.3,0.3,1.9s0.5,1.5,0.9,2.3c0.3,0.8,0.7,1.5,1,3.7"/>
<path class="st12" d="M503.7,555.1c1.6-1.5,4.9,2,5.5,6.5"/>
<path class="st12" d="M486.5,626.2c-0.5,5.9-1.9,8.4-3.2,10.1c-1.3,1.7-2.6,2.4-3.8,2.7"/>
<path class="st12" d="M481.4,657.8c16.4-12.2,15.1-17.8,17.9-21.5"/>
<path class="st12" d="M459,538.2c-9.7,7.4-11.2,9.8-12.8,11.8c-1.6,2-3.4,3.8-5.1,5.2s-3.5,2.3-5.1,3.3c-1.5,1-2.9,2-3.6,3.3
	c-0.8,1.3-1,2.7-0.9,4.6s0.5,4.1,1.5,8.7"/>
<path class="st12" d="M792,643.8c5.7,1.7,9.2,0.1,13,1.6"/>
<path class="st12" d="M813,648.7c-4.1,7.4-6,8.3-7.2,9c-1.3,0.7-2,1.3-2.4,2.1s-0.5,1.7-0.9,3.3c-0.3,1.6-0.8,3.9-0.2,9.6"/>
<path class="st12" d="M828.2,629.5c0.7-2.5,1.9-3.6,3.1-4.3c1.2-0.7,2.4-1.1,3.7-1.2s2.7-0.1,4.4,0.2s3.6,0.8,5.6,1.1
	c2.1,0.3,4.3,0.3,7-0.7c2.8-1,6.1-3,9.7-8.4"/>
<path class="st12" d="M817.8,544.1c6.6-4,14.8-3.4,20.9-2c6.1,1.4,10.2,3.5,13.8,14.7"/>
<path class="st12" d="M761.3,569c0.9-0.4,3.1-0.8,4.9-1.2c1.8-0.4,3.1-0.9,4.6-1.4c1.5-0.6,3.1-1.3,4.6-1.9s2.7-1.2,4.3-1.7
	s3.5-1,5-1.6c1.5-0.5,2.6-1,3.5-1.5c0.8-0.5,1.4-1,1.7,0.4c0.2,1.4,0.1,4.8,0.4,8.3c0.3,3.5,1,7.1,1.4,9.5s0.5,3.5,0.6,5.5
	s0.1,4.9,0.1,7.6c0,2.7-0.1,5.3-0.6,7.7c-0.4,2.4-1.2,4.5-0.6,6s2.5,2.5,3.8,3.2s1.8,1.3,2.2,1.7c0.3,0.4,0.5,0.6,1.3,2.1
	s2.3,4.4,3.4,6c1.1,1.6,1.7,1.9,3.4,3.1c1.7,1.1,4.4,3.1,6.6,4.2c2.2,1.2,3.9,1.6,5.9,1.7c2,0.1,4.4,0,6-0.1
	c1.7-0.1,2.7-0.1,3.6,0.3c0.9,0.4,1.7,1.3,0.7,3.6s-3.7,6-5.8,8.6c-2,2.6-3.3,4.2-4.8,5.7s-3.1,2.9-4.3,4s-2,1.9-2.8,2.5
	c-0.8,0.7-1.5,1.2-2.4,0.5c-0.8-0.7-1.7-2.7-2.3-4.5s-0.8-3.4-1.2-5s-1.2-3-2.1-4.5c-0.9-1.5-2.1-3.1-3.7-5.8
	c-1.6-2.7-3.6-6.5-5.2-9.2c-1.6-2.7-2.9-4.4-4.1-6.4c-1.1-2-2.1-4.4-2.7-5.9c-0.5-1.5-0.6-2-0.9-2.4c-0.3-0.4-0.8-0.6-1.4-2.9
	c-0.6-2.3-1.5-6.5-2.1-9.1s-1.2-3.5-1.8-4.4c-0.6-0.8-1.3-1.5-2-2.4s-1.4-1.9-2.2-2.9s-1.6-1.9-2-2.9s-0.4-2-0.7-3.2
	c-0.3-1.3-0.8-2.9-1.2-3.9s-0.7-1.5-1.2-1.8s-1.2-0.3-1.7-0.3s-0.8,0.1-1.2,0.4c-0.4,0.2-1,0.6-1.6,0.6s-1.2-0.5-1.6-1.1
	c-0.4-0.6-0.6-1.3-1.1-1.6s-1.3-0.3-1.8-0.6s-0.7-1-1-1.5C760.8,569.9,760.4,569.5,761.3,569z"/>
<path class="st12" d="M767.3,614.8c2.5-2.6,8.4-5.1,17.8-7.5"/>
<path class="st12" d="M759.1,590.2c0.9,2.7,1.6,4.7,2.2,6.1"/>
<path class="st12" d="M761.7,584.3c0.7,2.5,1.1,4.3,1.6,5.7s1.1,2.4,1.3,3.4"/>
<path class="st12" d="M757.8,569.9c-0.4,1.5-2,3.7-1.8,4.7"/>
<path class="st12" d="M750.2,583.7c3.3-1.8,6.3-3.4,9.1-4.7"/>
<path class="st12" d="M760.8,585.5c-1-0.8-1.5-2.1-1.9-2.8s-0.6-0.9-0.4-1.6s0.7-1.7,0.9-2.6c0.2-0.9,0.3-1.7,0-2.2
	c-0.2-0.6-0.7-1-1.2-1.3s-1-0.4-1.9-0.3c-0.8,0.1-1.9,0.4-3.1,0.9c-1.1,0.4-2.3,0.9-3.1,1.2s-1.4,0.4-3.9,1"/>
<path class="st12" d="M766.7,580.7c-0.1-2.6,0.2-4.5,0.9-5.5"/>
<path class="st12" d="M758,594.7c0.9-3.6,1.2-4.4,1.4-5.3c0.2-0.9,0.3-1.9,0.7-2.8c0.4-0.8,1.2-1.5,1.8-2.5s1-2.4,1.5-3.2
	s1-1.2,1.5-1.2c0.5-0.1,1.1,0.2,1.4,0.5c0.4,0.4,0.5,0.9,1.4,3.5"/>
<path class="st12" d="M760.4,567.3c1.5-3.1,1.5-5.7,1.1-7.6c-0.4-1.9-1.4-3.3-2-4.7c-0.7-1.4-1.1-2.9-1.1-3.7"/>
<path class="st12" d="M761.3,569c-1.6-3.4-2.5-3.5-3.4-3.7s-1.7-0.4-3.4-0.2s-4.2,0.9-5.4,1.7s-1.2,1.6-1.7,2.4
	c-0.5,0.8-1.2,1.6-1.9,2.2c-0.7,0.6-1.1,1-1.7,1.6s-1.4,1.1-4,2.5"/>
<path class="st12" d="M797.6,555c-4.6-5.8-7.3-6.5-9.2-7.6c-1.8-1.1-2.8-2.6-2.6-4.8s1.7-5.2,2.3-6.8"/>
<path class="st12" d="M789.7,560.2c4-4.8,6.2-5,7.9-5.1c1.7-0.2,3-0.3,4.2-1.1s2.2-2.2,3.2-3.9s1.9-3.8,1.9-10"/>
<path class="st12" d="M824.3,564.3c2.9-1.9,4-3.2,5.6-3.9c1.7-0.7,3.9-0.7,5.7-0.5s3.1,0.7,4.3,1.3s2.3,1.2,3,2s1.1,1.8,1.5,2.6
	c0.3,0.8,0.6,1.4,4,7"/>
<path class="st12" d="M800.6,608.7c10.5,1,15.5-0.4,18.4-1.4s3.5-1.6,5.1-2.6s4.1-2.3,8.6-6"/>
<path class="st12" d="M793.6,584.9c0.1,9.9,1.1,11.4,2.3,13.7s2.8,5.5,3.7,7.5s1.1,2.7,1.2,3.9c0.2,1.1,0.3,2.7,3.1,10"/>
<path class="st12" d="M791.8,592.3c2.9-12.9,4.4-14,6-15.1s3.1-2.3,5.5-3.9c2.4-1.6,5.6-3.8,8.4-5.3c2.8-1.5,5-2.4,7.3-3
	s4.6-1.1,8.6-0.3s9.8,2.7,14,4.5c4.3,1.8,7,3.3,8.8,5.3s2.5,4.5,3.1,9c0.6,4.4,1,10.8,1.1,14.6s0,5.1-0.6,6.3s-1.6,2.4-3.1,3.5
	s-3.4,2.2-4.7,3.4s-1.9,2.6-2.5,3.6s-1,1.6-1.9,2.4c-0.8,0.7-2,1.5-3.3,2.1s-2.8,1.1-4.4,1.5c-1.6,0.4-3.3,0.7-5.3,1
	s-4.3,0.5-6.6,0.6c-2.3,0.2-4.6,0.3-6.1,0.3s-2.2-0.2-3.8-0.1s-3.9,0.3-5.2-0.5"/>
<line class="st12" x1="494.1" y1="532.9" x2="517.4" y2="542.3"/>
<line class="st12" x1="574.9" y1="858.3" x2="578.2" y2="862.9"/>
<path class="st13" d="M697.7,901.4c-3.2-0.2-4.5-3.2-6-3.8"/>
<path class="st12" d="M684.8,885.3c-0.3,0.1-0.4,0.3-0.5,0.7c-0.1,0.4-0.1,0.8,0.3,1.3c0.3,0.5,1,1,1.6,1.1c0.5,0.1,0.9-0.2,1.1-0.7
	c0.1-0.5,0-1.1-0.2-1.5s-0.5-0.7-1-0.8C685.7,885.2,685.1,885.2,684.8,885.3z"/>
<path class="st12" d="M668.5,890.4c0.2,0.8,0.6,2.2,1.1,2.7s1.1,0.2,1.3-0.5s0-1.8-0.1-2.4c-0.2-0.7-0.4-0.9-0.8-1.1
	c-0.4-0.1-1.1-0.2-1.4,0C668.2,889.2,668.3,889.5,668.5,890.4z"/>
<path class="st12" d="M609.1,884.8c-2.6,2.4-2.2,4.6-2.6,6.6c-0.3,2-1.4,3.7-2.2,5.6c-0.8,1.9-1.6,4.1-2,5.8
	c-0.4,1.8-0.6,3.1-0.6,5.7s0.2,6.3,0.5,8.8c0.2,2.5,0.4,3.8,2.2,5.9c1.8,2.2,5.2,5.3,7.5,7.5s3.4,3.4,4.4,4.5s1.8,2.1,2.9,2.9
	c1.2,0.8,2.7,1.4,4.3,1.8c1.6,0.4,3.4,0.7,5.6,0.8s4.7,0.2,7.2-0.1s4.9-0.8,6.6-1.5s2.8-1.7,4.1-2.9c1.3-1.3,3-3,4-5.1
	s1.5-4.6,2.3-6.9c0.8-2.3,1.9-4.4,2.5-6.4c0.7-2,0.9-3.8,1-5.8c0.1-2,0.3-4.2,0.2-6.5c-0.1-2.3-0.4-4.7-1-7.2
	c-0.6-2.5-1.5-5-1.7-8.2s0.5-6.9-1.7-10.2"/>
<path class="st12" d="M571.1,822.2c0.4,0.7,1.6,0,2.4-0.5c0.8-0.6,1.2-1,1.6-1.5c0.4-0.5,0.9-1.2,1.4-2.1"/>
<path class="st12" d="M503.7,555.1c-2.5,2.2-1.1,6.4-0.1,9.5s1.4,5,1.7,7.1c0.3,2.1,0.5,4.3,0.4,6.6c-0.2,2.3-0.8,4.7-3.3,7.3
	c-2.5,2.5-6.8,5.2-10,6.7s-5.3,1.8-7.3,1.6s-3.8-0.9-5.2-1.5s-2.5-1.2-3.5-1.4s-2-0.2-4.6,1.7"/>
<path class="st12" d="M576.5,818c0.2,2.6,0.7,3.3,1.4,3.9c0.8,0.7,1.8,1.2,3.1,1.9s2.9,1.4,7.3,2.4"/>
<path class="st12" d="M588.9,830.4c-3.5,1.3-6.1-0.1-8.2-1.3c-2.1-1.2-3.9-2-5.3-2.8c-1.4-0.9-2.4-1.8-4.7-3.9"/>
<path class="st12" d="M567.7,823.9c1.3,2.3,1.5,2.9,2.2,3.5s1.8,1.2,3.4,1.9c1.6,0.7,3.7,1.6,5.6,2.2c1.8,0.6,3.3,1.1,4.4,1.5
	c1.1,0.4,1.7,0.9,2.8,1.1c1.1,0.3,2.6,0.3,2.6,0.3"/>
<path class="st12" d="M599.1,789.8c-0.6,2.1-1.5,3.9-1.6,4.9"/>
<path class="st12" d="M603.1,793.1c-1.4,1.3-3,2.5-4.7,3.7"/>
<path class="st12" d="M588.9,809.9c1-3.8,2.2-5.8,2.9-7.4c0.7-1.6,0.9-2.7,1.1-3.9c0.3-1.2,0.6-2.6,1.1-3.4c0.5-0.8,1.2-1.1,1.7-0.8
	c0.6,0.3,1,1.3,1.2,2.3c0.2,1.1,0.1,2.3-0.1,3.5s-0.4,2.4,0.2,7.3"/>
<path class="st12" d="M695.4,820c1.7-0.5,2-1.5,2.3-2.3s0.6-1.4,1-1.8s0.9-0.5,1.3-0.6c0.5-0.1,0.9-0.1,1.8-0.2"/>
<path class="st12" d="M698.9,811.1c1.5,1.2,4.2,2.9,5.5,4"/>
<path class="st12" d="M430.6,608.1c-8.4-13.1-11.7-16.5-13.4-19.6c-1.8-3.2-2-6.1,0.8-11.9c2.8-5.8,8.5-14.5,11.9-19.3
	s4.4-5.8,6.9-7.2c2.4-1.4,6.2-3.2,9-4.9c2.9-1.6,4.8-3.1,6.7-3.7c1.3-0.4,2.6-0.3,6.6-3.4"/>
<line class="st12" x1="713.3" y1="837.4" x2="713.9" y2="842.8"/>
<path class="st12" d="M701.3,836.4c0.1,2.5,0.6,4.9,1.5,7.3"/>
<path class="st12" d="M718.9,839.2c-0.7,1.2-1.1,1.9-1.5,2.3c-0.4,0.5-0.7,0.7-1.4,0.9s-1.6,0.4-2.6,0.5s-2.1,0.3-3.5,0.4
	c-1.4,0.2-3,0.4-4.4,0.5s-2.5,0-3.2-0.1c-0.8-0.2-1.3-0.4-1.6-0.7s-0.4-0.6-0.4-1.1s0.1-1-0.3-1.7"/>
<path class="st12" d="M697.5,842c3.3,3.4,5.2,3,6.9,2.8s3.2-0.3,4.7-0.4c1.5-0.1,3-0.3,4.1-0.5c1.2-0.2,2.1-0.4,2.9-0.7
	c0.8-0.3,1.6-0.8,2.2-1.2s1-0.8,1-2.9"/>
<path class="st12" d="M725.3,884.2c-0.1-1.4-2.8-3.8-8-7.2"/>
<path class="st13" d="M710.9,903.9c8.8,1.5,10.2,4.2,12.6,7.6"/>
<path class="st13" d="M701.1,915c2.9,2.1,8.7,6,9,8.3"/>
<path class="st13" d="M707.5,894.6c2.6,1,5.6,1.8,9,2.4"/>
<line class="st13" x1="697.7" y1="901.4" x2="699.6" y2="901.5"/>
<path class="st13" d="M696.5,918.2c-3.4-10.2-9.4-14.3-11.2-15.8"/>
<path class="st12" d="M700.9,888.1c-0.5,4.6-0.4,7.1-0.5,8.7c-0.1,1.6-0.3,2.2-0.5,2.9s-0.3,1.6-0.3,3.2c0,1.6,0.1,3.8,0,5.9
	s-0.4,4.1-1.1,5.7s-1.8,2.9-2.6,4.4s-1.4,3.3,0.4,14.2"/>
<path class="st12" d="M565.5,885.3c1.1-3.2-1.2-5.1-3.6-7c-2.4-1.9-5.2-4-9.9-6.9"/>
<path class="st12" d="M570.4,888c-4.6-3.8-9.9-3.7-13.5-3.7c-3.6,0-5.5-0.2-7.1-1.8"/>
<path class="st13" d="M558.8,901.5c4-1,11.6,2.2,22.8,9.5"/>
<path class="st13" d="M581,913.5c-3.3-0.8-7.9-0.8-13.7-0.1"/>
<path class="st13" d="M582.2,908.1c-1.4,7.6-4,14.8-3.6,18.9"/>
<path class="st13" d="M585.2,912.3c5.4-2.6,8-3,10.1-2.9c2.2,0.1,3.8,0.6,6.5,0.5"/>
<path class="st13" d="M660.7,900.3c0.4-2.1-1.4-3.5-5.3-4.2"/>
<path class="st12" d="M656.6,913.8c5.8-16.2,5.4-20.3,4.4-27.5"/>
<path class="st13" d="M656.6,913.8c-0.2,1.7,0.1,3.6,0.3,4.9c0.2,1.3,0.2,1.9,0.2,2.5s-0.2,1.2-0.4,1.6c-0.2,0.4-0.4,0.6-1.1,0.5
	s-1.8-0.6-1.2-2.1"/>
<path class="st12" d="M511.9,590.8c1.2-1.8,2.2-3.6,2.8-5.5"/>
<path class="st12" d="M499,603.3c5.3-1.3,6.2-2.4,7.2-3.8c1.1-1.4,2.4-3,3.4-5"/>
<path class="st12" d="M598.4,697.7c5.9,1.6,8.8,1.1,9.8,3.1"/>
<path class="st12" d="M605.1,704.4c-1.5,0.3-3,0-4.1-0.2c-1.1-0.3-1.6-0.5-2.7-0.7c-1.1-0.2-2.6-0.4-4.3-1"/>
<path class="st12" d="M592.9,707.6c2.3,0.4,3.1,0.6,3.7,0.8c0.6,0.2,1.1,0.4,1.7,0.4c0.6,0,1.4,0,2.2-0.1c0.8-0.1,1.6-0.2,1.8-1"/>
<path class="st12" d="M590.3,712.4c0.6,0.5,2.6,0.6,4,0.6c1.4,0.1,2.1,0.1,2.7,0.2c0.6,0.1,1.1,0.1,1.9,0s1.8-0.4,2.4-1.2"/>
<line class="st12" x1="512.3" y1="678.6" x2="510.7" y2="670.9"/>
<path class="st12" d="M482.6,616.4c-6.2,3.1-19.5,1.1-19.5-4.1"/>
<path class="st12" d="M434.4,612.3c-3.5-12.6-6.3-19.8,3.7-28.6"/>
<path class="st12" d="M516.7,574.1c-0.9-5.7-4.8-9.5-7.6-12.6c-2.7-3-4.3-5.3-6.2-7.3c-1.9-1.9-4-3.5-6.9-4.7s-6.5-1.9-9.4-2.3
	c-2.9-0.4-4.9-0.7-7.9,0.2s-7.1,3-10,5.4c-2.9,2.5-4.7,5.3-6.1,7.8c-1.3,2.5-2.2,4.5-2.1,8.2s1.3,8.9,2.2,12.2
	c0.9,3.3,1.5,4.7,2.7,6.1c1.2,1.4,2.9,2.7,4.1,3.6s1.8,1.3,2.2,2c0.4,0.7,0.7,1.6,0.7,2.5s-0.3,1.9,0.3,2.7c0.6,0.8,2,1.6,3.3,1.9
	c1.3,0.3,2.4,0.3,3.3,0.2c1,0,1.8,0,2.8,0.3s2,1,3.1,1.7s2.2,1.4,3.2,2s1.9,1,3.5,1.5s3.9,1,7.1,0"/>
<g>
	<path class="st14" d="M576.5,818c-0.8-1.2-1.3-1-2.6,0.2c-1.3,1.1-3.3,3.2-2.8,4c-1.3,0.7-2.3,1.1-3.1,1.5c-1,0.5-1.5,1.1-2.3,2.5
		c-0.8,1.5-2,3.9-2.8,5.9c-0.8,1.9-1.1,3.4-1.9,4.8c-0.8,1.4-2.1,2.7-3.2,4.9c-1.1,2.2-2,5.2-2.6,7.7c-0.6,2.5-1,4.4-1.6,5.7
		c-0.6,1.3-1.5,1.9-2.5,2.9c-1,1.1-2,2.6-2.7,4.5s-1.1,4-1.8,6.5c-0.7,2.4-1.7,5.1-2.4,6.6s-1,2-1.2,2.4s-0.3,0.9-0.4,2.2
		c0,1.4,0,3.6,0.2,5.3c0.1,1.6,0.4,2.6,0.8,3.8c0.5,1.2,1.2,2.6,1.7,4.2c0.6,1.6,1,3.3,2.5,7.5s4.2,10.8,6.4,15.5
		c2.3,4.6,4.1,7.2,5.9,10.1s3.3,6.2,4.7,8.8s2.5,4.7,3.5,7.5s1.9,6.3,2.8,8.6c0.9,2.2,1.8,3.2,3.3,3.9s3.5,1.2,8,3.6
		c4.5,2.4,11.5,6.7,15.5,8.9s5.1,2.2,7.2,2.6c2.1,0.4,5.2,1.1,9.4,1.9c4.2,0.8,9.6,1.6,16,2.7c6.4,1.1,13.9,2.5,19.2,3.2
		c5.3,0.7,8.5,0.7,11.4,0.2c2.9-0.5,5.7-1.5,8.1-2.2c2.4-0.7,4.3-1.3,6.9-2.8c2.6-1.5,5.9-3.9,7.8-5.3c1.9-1.4,2.6-1.8,3.6-2.3
		c1-0.4,2.4-0.9,4.2-1.7c1.8-0.7,3.9-1.7,5.6-3.1c1.7-1.3,2.8-3,3.7-4.5c0.9-1.6,1.5-3.1,3.3-6.1s4.7-7.4,6.7-10.5s3.1-4.7,4.4-6.6
		c1.3-1.9,2.7-4.2,3.6-6c0.9-1.8,1.1-3.3,1.4-4.5c0.3-1.2,0.6-2.2,1-3.1c0.4-0.9,1-1.7,1.5-2.4s0.8-1.4,0.8-2.3c0-0.9-0.2-2-0.1-2.9
		c0.1-0.9,0.5-1.5,1.1-2.3s1.3-1.7,1.5-2.6c0.2-0.9,0-1.8,0-2.7s0.3-1.7,0.4-2.6c0.1-0.9,0.2-1.9-0.1-2.8s-0.9-1.9-1.3-2.8
		c-0.4-0.9-0.6-1.9-0.6-3.1s0.4-2.7,0.6-4.2c0.2-1.4,0.4-2.8,0.3-4.4c-0.1-1.6-0.3-3.3-0.5-4.7c-0.1-1.3-0.1-2.3-0.1-3.5
		c0-1.3,0-2.8-0.2-5.2c-0.3-2.4-0.8-5.6-1.1-7.6s-0.3-2.9-0.2-3.7c0.1-0.9,0.4-1.8,0.5-3s0.1-2.6-0.2-5.1s-0.9-6-1.2-8
		s-0.3-2.6-0.5-3.1s-0.5-0.9-0.9-1.2c-0.4-0.2-0.8-0.2-1.9-0.3c-1.1,0-3-0.1-4.1-0.2c-1.1-0.1-1.4-0.2-1.5-0.7s-0.2-1.5-0.1-2.5
		s0.3-1.8,0.6-2.9c0.3-1.1,0.8-2.4,1.1-3.8c0.3-1.4,0.4-2.9,0.9-4.9c0.4-1.9,1.2-4.2,1.4-5.9s0-2.7-0.4-3.4s-1-1-1.8-1.6
		s-1.7-1.4-2.3-2.2s-1.1-1.6-1.6-2.3c-0.5-0.6-1.1-1.1-1.8-1.7c-0.7-0.6-1.6-1.2-2.6-1.9c-0.9-0.7-1.8-1.4-3-2.1
		c-1.2-0.7-2.5-1.3-3.6-1.6s-2-0.2-2.7-0.1c-0.7,0.1-1.2,0.1-1.4,0.5c-0.2,0.3-0.1,0.9,0.2,1.5c0.4,0.6,1,1.1,2.3,2
		c1.2,0.9,3.1,2.1,4.1,3c1,0.8,1.3,1.3,0.9,1.4c-0.3,0.1-1.2-0.1-1.9-0.5s-1.4-1.1-2.3-1.6c-0.8-0.5-1.8-0.9-3-1s-2.6,0.2-3.6,0.5
		c-1,0.2-1.5,0.4-1.8,0.8c-0.3,0.4-0.5,1-0.5,1.4c0,0.5,0.1,0.8,1,0.9c0.9,0.1,2.6,0,3.7,0c1.1,0,1.6,0,2.2,0.2
		c0.7,0.2,1.5,0.5,1.7,0.7c0.2,0.3-0.3,0.5-0.9,0.7c-0.6,0.2-1.5,0.3-2.1,0.7c-0.6,0.4-0.9,1.1-1.4,2s-1.1,2.2-1.5,3
		c-0.3,0.8-0.3,1.2,0.1,1.6c0.5,0.4,1.4,0.8,2.1,0.9c0.7,0.1,1.3,0,1.9-0.6c0.6-0.6,1.2-1.5,1.8-2.1c0.7-0.6,1.5-0.7,2.1-0.7
		s1.2,0,1.5,0.4c0.3,0.3,0.4,0.8,0.5,1.4s0.2,1.3,0,1.8c-0.2,0.6-0.6,1-1.1,1.7c-0.5,0.6-1.1,1.4-1.5,2.2c-0.4,0.9-0.5,1.8-0.4,3.2
		s0.5,3.1,0.8,5s0.5,3.9,0.5,5.2s-0.2,1.7-0.6,2.1s-1,0.7-1.6,1.1s-1.1,0.9-1.6,1.4s-1,1-1,1.6s0.4,1.2,0.8,2.5
		c0.4,1.3,0.8,3.3,1.7,5.6s2.3,5.1,2.8,7.2s-0.1,3.5-0.3,5.1s0,3.3-0.3,4.9c-0.3,1.6-1,3-1.3,4.8s0,3.9,0.8,6.4s2.2,5.3,2.1,6.8
		c-0.2,1.4-1.9,1.5-3.3,0.6c-1.4-0.8-2.4-2.5-3.9-3.9s-3.5-2.5-6.9-2.6c-3.4-0.1-8,0.6-11.4,1.4c-3.4,0.8-5.3,1.4-8.7,2.3
		c-3.4,0.9-8.1,2-10.5,1.7c-2.4-0.3-2.4-2.1-3.8-4.4c-1.4-2.3-4.2-5.1-7.1-7.1c-2.9-2-6-3.1-8.8-3.7c-2.7-0.5-5-0.4-8.6,0
		c-3.5,0.4-8.3,1.1-11.6,2.8c-3.3,1.7-5.1,4.3-6.3,6.3c-1.2,2-1.7,3.5-2.7,4.4s-2.4,1.2-4.4,1.5c-2,0.2-4.4,0.3-6.4,0.5
		s-3.5,0.4-5.3,1.2s-3.9,2-5.3,4c-1.4,2-2.2,4.8-3.1,7.9c-0.8,3.2-1.8,6.8-2.2,7.9c-0.5,1.1-0.5-0.4-1-2.4c-0.6-2-1.7-4.5-2.6-6.5
		c-0.9-2-1.6-3.6-2.4-4.5s-1.8-1.1-2.9-2.1c-1.1-1-2.5-2.9-3.2-4.5c-0.7-1.7-0.8-3.2-0.7-4.5c0.1-1.3,0.4-2.4,1.7-4.8
		c1.2-2.4,3.3-6,4.8-9.4s2.4-6.6,2.4-9.2c0-2.6-0.9-4.5-0.2-5.9c0.8-1.4,3.2-2.4,4.4-3.1c1.2-0.7,1.1-1.2,1.3-2.3
		c0.2-1.1,0.6-2.9,1.5-5.6c0.9-2.7,2.3-6.3,3-8.2s0.6-2.1,0.6-2.5c0-0.5,0-1.2-0.2-1.7s-0.4-0.7-0.4-1.1c0-0.4,0.2-1,0.2-1.5
		s-0.4-1-0.3-1.5c0-0.5,0.3-1,0.7-1.5s0.8-0.8,1.2-1.4c0.4-0.5,0.8-1.3,1.6-2c0.8-0.7,1.9-1.5,2.5-2c0.6-0.5,0.8-0.7,1.1-2.1
		c0.3-1.4,0.9-4.1,1.2-6.1s0.4-3.4,0.4-4.4c0.1-1,0.2-1.5,1.9-1.9c1.7-0.4,5.3-0.6,7.3-1.1s2.6-1.2,2.9-1.7s0.1-0.8-1.4-1.2
		s-4.5-0.9-6.3-1.3c-1.9-0.5-2.7-0.9-2.2-1.1c0.5-0.2,2.2-0.1,4,0s3.7,0.1,5.1,0.2c1.4,0.1,2.3,0.4,3,0.4s1.2-0.2,1.5-0.6
		c0.3-0.3,0.5-0.8,0.4-1.3c-0.1-0.5-0.5-1.1-1-1.5s-1-0.8-3-1s-5.5-0.3-6.3-0.8c-0.8-0.6,1-1.6,2.5-2.2s2.7-0.5,3.8-1s1.9-1.4,1.9-2
		c0-0.5-0.9-0.7-2.8-0.4c-1.9,0.3-4.9,1-6.6,1.4s-2.3,0.5-2.4,0.3c-0.1-0.2,0-0.7,0.3-1.3c0.3-0.5,0.6-1,1.1-1.8s1-1.9,1.2-2.8
		s0.2-1.6-0.3-1.8s-1.3,0.2-2.2,0.8s-1.9,1.5-2.7,2.4c-0.8,0.9-1.6,1.7-2.5,3c-0.9,1.3-2,3.1-2.6,4.6c-0.6,1.5-0.8,2.6-1.3,3.5
		s-1.2,1.7-2.6,3.6c-1.4,1.9-3.5,5.1-4.9,7.7c-1.4,2.6-2.2,4.7-2.8,5.9c-0.6,1.2-1.1,1.7-2.4,2.9C577.3,817.3,576.9,817.7,576.5,818
		z"/>
	<path class="st14" d="M739.9,575.5c0-1.2-0.9-3-1.7-4.5s-1.4-2.7-2.1-4c-0.7-1.3-1.4-2.6-1.8-4c-0.5-1.4-0.7-2.9-0.3-4.8
		s1.5-4.4,3.2-6.2s3.9-2.9,5.2-3.8s1.7-1.7,2.3-2.2s1.4-0.7,3.2-1.2s4.6-1.4,7.3-2.1c2.7-0.7,5.2-1.5,7.9-2.2s5.4-1.5,8.4-2.8
		c3-1.4,6.1-3.3,9.9-5.1c3.8-1.8,8.3-3.5,13.6-5c5.2-1.5,11.2-2.7,15.6-3.5c4.4-0.8,7.3-1.1,13.1,0.3c5.8,1.5,14.6,4.8,21,7.2
		s10.3,3.8,14.6,7.3s8.9,9.2,12.4,14.6c3.6,5.4,6.1,10.4,7.7,14.5c1.6,4.1,2.2,7.2,2.4,9.9s0.1,5.1,0,6.8s-0.3,2.8-0.2,4.7
		s0.4,4.7,0.2,7.6s-1.1,6.1-3,9.7c-1.9,3.5-4.9,7.5-7.6,11.3c-2.7,3.8-5.2,7.6-8.5,11.6s-7.4,8.2-10.1,12c-2.7,3.8-4,7.1-7.5,10.3
		c-3.4,3.3-9,6.5-12.2,9.6s-4,6-6.2,8.5s-5.8,4.7-8.9,7c-3.1,2.2-5.8,4.6-7.3,5.8c-1.5,1.3-1.7,1.6-2.4,2s-1.8,1.1-2.4,1.4
		c-0.6,0.3-0.8,0.4-2,0.5s-3.6,0.3-5.9-0.8c-2.4-1-4.8-3.2-6.6-5.7s-3-5.5-4.6-8.8s-3.5-7.1-5.9-13.1s-5.3-14.2-7.8-20.9
		s-4.5-11.8-5.6-14.8c-1.1-2.9-1.2-3.7-1.2-4.6c-0.1-0.8-0.1-1.8,0.3-2.4c0.5-0.6,1.4-1,1.3-1.9c-0.1-0.9-1.1-2.3-2.4-3.9
		c-1.3-1.6-2.8-3.4-3.9-5.3c-1.1-1.9-2-3.9-2.5-5.7s-0.8-3.2-0.9-4.1c-0.2-0.9-0.2-1.1-0.8-1.1s-1.8,0.3-3,0.6
		c-1.1,0.3-2.2,0.6-3.2,0.6s-1.8-0.3-2.4-0.8s-1.1-1.1-2-1.8s-2.5-1.5-3.3-2.1s-1-1.1-1.4-1.6c-0.5-0.4-1.3-0.8-1.6-1.6
		s-0.2-2.1-0.4-3.3s-0.8-2.3-1.1-3.2c-0.4-0.9-0.5-1.7-0.1-2.4S739.9,576.8,739.9,575.5z"/>
	<path class="st14" d="M426.6,604.9c-9.2-7.8-11.9-12.3-12.9-15.5s-0.4-5,1.4-9.5s4.9-11.7,7.6-16.9c2.7-5.2,5-8.3,6.6-10.6
		s2.4-3.7,29.7-14.2c1.7-1.3,3.9-3.2,6.7-5.9c2.5-1.3,4.3-3.6,5.4-6c1.2-2.9,1.3-5.9,1.8-9.3c0.5-3.3,1.5-6.8,4.7-9.3
		s8.8-3.8,13.3-3.2s8.1,3.3,11.4,6.2c3.4,2.9,6.6,6,9.8,9.6c3.2,3.6,6.4,7.7,8.2,10.7c1.8,3,2.3,5.1,2.5,7.2
		c0.2,2.1,0.2,4.2-0.9,7.9c-1,3.7-3,8.9-4.3,12.7s-1.7,6-1.8,7.6c-0.2,1.6-0.1,2.7,0.2,3.9c0.2,1.3,0.6,2.8,0.8,4.6
		c0.2,1.9,0.4,4.1,0.5,6.3c0.1,2.2,0.3,4.3,0,6.7c-0.3,2.3-1,4.9-1.2,6.9s0.1,3.5-0.1,4.7s-1,2.2-1.9,2.4c-1,0.3-2.2-0.2-3.8,0
		c-1.6,0.1-3.5,0.8-5,1.5s-2.5,1.2-4.2,1.8s-4.2,1.1-6.9,2.1s-5.4,2.4-7.6,4.1c-2.3,1.7-4.1,3.8-4.3,6.3s1,5.4,4.9,9.1
		c3.9,3.6,10.3,7.9,14.1,11c3.8,3,4.9,4.8,7.9,7.9s8.1,7.6,14.5,12.4c6.4,4.8,14.3,10,23.1,15.5c8.8,5.5,18.3,11.3,24,14.5
		s7.4,3.9,9.8,4.5c2.4,0.6,5.5,1.1,8.5,1.2c3,0.1,5.9-0.2,9,0.4c3.1,0.6,6.4,2.1,8.3,3.5c1.9,1.4,2.4,2.7,1.7,3.8
		c-0.6,1.1-2.3,2.1-3.5,3.2c-1.2,1.1-1.9,2.2-2.3,3.4c-0.4,1.2-0.4,2.5-0.8,3.4c-0.4,0.9-1,1.4-1.8,1.9s-1.7,1.1-3.1,1.3
		c-1.3,0.2-3.1,0.1-5.6-0.1c-2.5-0.2-5.7-0.5-7.4-0.8c-1.7-0.3-1.9-0.5-3.1-1.8s-3.3-3.7-6.1-5.2c-2.8-1.5-6.4-2.1-14.4-5.1
		c-8.1-3-20.7-8.3-29.6-12.8c-8.9-4.5-14.2-8-20.2-12.1s-12.8-8.8-17.9-12c-5.1-3.3-8.4-5.1-10.6-7.2c-2.3-2.1-3.6-4.3-7.7-8.3
		s-11-9.8-15.9-14.2c-5-4.4-8-7.5-11.3-10.7s-6.8-6.5-9.8-9.7c-2.9-3.2-5.3-6.2-7.9-8.4C428.2,605.9,427.4,605.4,426.6,604.9z"/>
</g>
<path class="st1" d="M260,337.3c0,0,28.9,92.2,168.5,120.5c127,25.7,216.3,68.3,207.8,235.5"/>
<path class="st1" d="M385.8,332.4c0,0-12.3,84,125.5,124.2c151.8,44.3,125.5,232.9,125.5,232.9"/>
<path class="st1" d="M531.1,332.4c0,0,0,99,48.2,145.1c43,41.1,63.9,76.6,63.2,209.4"/>
<path class="st1" d="M701.6,332.4c0,0,0,99-26.2,145.1c-23.4,41.1-34.7,76.6-34.3,209.4"/>
<path class="st1" d="M957.3,337.3c0,0-23.7,92.2-138,120.5c-104,25.7-168.4,61.9-174.2,225.2"/>
<path class="st1" d="M832.5,332.4c0,0,8.3,78.5-91.8,124.2C636.5,504.2,644.9,683,644.9,683"/>
</svg>
