<?xml version="1.0" encoding="utf-8"?>
<!-- Generator: Adobe Illustrator 26.0.3, SVG Export Plug-In . SVG Version: 6.00 Build 0)  -->
<svg version="1.1" id="Layer_1" xmlns="http://www.w3.org/2000/svg" xmlns:xlink="http://www.w3.org/1999/xlink" x="0px" y="0px"
	 viewBox="0 0 115.6 41.4" style="enable-background:new 0 0 115.6 41.4;" xml:space="preserve">
<style type="text/css">
	.st0{fill:#FF3946;}
	.st1{fill:#314584;}
</style>
<g>
	<path class="st0" d="M59.6,40.5h-0.9V29.9h-3.4v-0.8H63v0.8h-3.4V40.5z"/>
	<path class="st0" d="M70.1,35.7c0-1.5-0.7-2.3-2.1-2.3s-2.2,0.8-2.2,2.3v4.8H65V29.1h0.8v4.6c0.6-0.7,1.3-1,2.3-1
		c1.8,0,2.8,1.1,2.8,2.9v4.9h-0.8C70.1,40.5,70.1,35.7,70.1,35.7z"/>
	<path class="st0" d="M78.4,39.7c-0.7,0.7-1.3,0.9-2.3,0.9c-1.1,0-1.8-0.2-2.3-0.7c-0.4-0.4-0.6-0.9-0.6-1.5c0-1.4,1-2.2,2.7-2.2
		h2.5v-0.9c0-1.2-0.6-1.9-2.2-1.9c-1.1,0-1.6,0.3-2.1,1l-0.6-0.5c0.7-0.9,1.5-1.2,2.7-1.2c2,0,3,0.9,3,2.5v5.3h-0.8
		C78.4,40.5,78.4,39.7,78.4,39.7z M76.1,36.8c-1.3,0-2,0.5-2,1.5s0.6,1.5,2,1.5c0.7,0,1.4-0.1,1.9-0.6c0.3-0.3,0.4-0.8,0.4-1.5v-1
		L76.1,36.8L76.1,36.8z"/>
	<path class="st0" d="M82.2,29.1h1v1h-1V29.1z M82.3,32.8h0.8v7.7h-0.8V32.8z"/>
	<path class="st0" d="M86.2,38.5v-9.4H87v9.3c0,0.9,0.3,1.3,1.2,1.3h0.6v0.7H88C86.8,40.5,86.2,39.7,86.2,38.5z"/>
	<path class="st0" d="M95.3,39.7c-0.7,0.7-1.3,0.9-2.3,0.9c-1.1,0-1.8-0.2-2.3-0.7c-0.4-0.4-0.6-0.9-0.6-1.5c0-1.4,1-2.2,2.7-2.2
		h2.5v-0.9c0-1.2-0.6-1.9-2.2-1.9c-1.1,0-1.6,0.3-2.1,1l-0.6-0.5c0.7-0.9,1.5-1.2,2.7-1.2c2,0,3,0.9,3,2.5v5.3h-0.8
		C95.3,40.5,95.3,39.7,95.3,39.7z M92.9,36.8c-1.3,0-2,0.5-2,1.5s0.6,1.5,2,1.5c0.7,0,1.4-0.1,1.9-0.6c0.3-0.3,0.4-0.8,0.4-1.5v-1
		L92.9,36.8L92.9,36.8z"/>
	<path class="st0" d="M104.2,35.7c0-1.5-0.7-2.3-2.1-2.3s-2.2,0.8-2.2,2.3v4.8h-0.8v-7.7h0.8v0.9c0.6-0.7,1.3-1,2.3-1
		c0.8,0,1.5,0.2,2,0.7s0.8,1.2,0.8,2.1v4.9h-0.8C104.2,40.4,104.2,35.7,104.2,35.7z"/>
	<path class="st0" d="M112.7,39.5c-0.7,0.9-1.4,1.1-2.3,1.1c-0.8,0-1.5-0.3-1.9-0.7c-0.8-0.8-1-2.1-1-3.3s0.2-2.5,1-3.3
		c0.4-0.4,1.1-0.7,1.9-0.7c0.9,0,1.6,0.2,2.3,1.1V29h0.8v11.3h-0.8V39.5z M110.6,33.4c-1.9,0-2.2,1.6-2.2,3.2c0,1.6,0.3,3.2,2.2,3.2
		s2.2-1.6,2.2-3.2C112.7,35,112.5,33.4,110.6,33.4z"/>
</g>
<g>
	<path class="st1" d="M33.6,12.2l-2.4-4.7h-2.1v4.7h-1.7V0.9h4.4c2.1,0,3.5,1.4,3.5,3.3c0,1.6-1,2.6-2.2,3l2.6,5H33.6z M31.6,2.5
		h-2.5V6h2.5c1.1,0,1.9-0.6,1.9-1.8S32.8,2.5,31.6,2.5z"/>
	<path class="st1" d="M37.7,12.2V0.9h7.2v1.5h-5.5v3.3h4.7v1.5h-4.7v3.4h5.5v1.5L37.7,12.2L37.7,12.2z"/>
	<path class="st1" d="M50.2,12.3c-1.7,0-2.9-0.4-4-1.5l1.1-1.1c0.8,0.8,1.7,1.1,2.9,1.1c1.5,0,2.3-0.6,2.3-1.7
		c0-0.5-0.1-0.9-0.4-1.2c-0.3-0.3-0.6-0.4-1.2-0.5l-1.3-0.2c-0.9-0.1-1.6-0.4-2.1-0.9c-0.6-0.5-0.8-1.2-0.8-2.1c0-2,1.4-3.3,3.8-3.3
		C52,0.9,53,1.3,54,2.2l-1.1,1.1c-0.7-0.7-1.5-0.9-2.4-0.9c-1.3,0-2.1,0.8-2.1,1.8c0,0.4,0.1,0.8,0.4,1C49,5.4,49.5,5.6,50,5.6
		l1.3,0.2c1,0.2,1.6,0.4,2.1,0.8C54,7.2,54.3,8,54.3,9C54.3,11,52.6,12.3,50.2,12.3z"/>
	<path class="st1" d="M56.6,12.2V0.9h1.7v11.2h-1.7V12.2z"/>
	<path class="st1" d="M61.2,12.2V0.9h1.7v9.7h5.4v1.5h-7.1V12.2z"/>
	<path class="st1" d="M70.3,12.2V0.9H72v11.2h-1.7V12.2z"/>
	<path class="st1" d="M74.9,12.2V0.9h7.2v1.5h-5.5v3.3h4.7v1.5h-4.7v3.4h5.5v1.5L74.9,12.2L74.9,12.2z"/>
	<path class="st1" d="M91.4,12.2l-5.2-7.9v7.9h-1.7V0.9H86l5.2,7.9V0.9h1.7v11.2h-1.5V12.2z"/>
	<path class="st1" d="M99.5,12.3c-1.2,0-2.2-0.4-3-1.2c-1.1-1.1-1.1-2.4-1.1-4.5s0-3.4,1.1-4.5c0.8-0.8,1.8-1.2,3-1.2
		c2.1,0,3.6,1.2,4,3.5h-1.7c-0.3-1.1-1-1.9-2.3-1.9c-0.7,0-1.3,0.3-1.7,0.7c-0.6,0.6-0.7,1.2-0.7,3.5s0.1,2.9,0.7,3.5
		c0.4,0.4,1,0.7,1.7,0.7c1.2,0,2-0.8,2.3-1.9h1.7C103.1,11.1,101.5,12.3,99.5,12.3z"/>
	<path class="st1" d="M105.8,12.2V0.9h7.2v1.5h-5.5v3.3h4.7v1.5h-4.7v3.4h5.5v1.5L105.8,12.2L105.8,12.2z"/>
</g>
<g>
	<path class="st1" d="M4.5,26.2c-1.1,0-2.1-0.4-2.9-1.2c-1.1-1.1-1.1-2.3-1.1-4.4s0-3.3,1.1-4.4C2.3,15.4,3.3,15,4.5,15
		c2,0,3.5,1.2,3.9,3.4H6.7c-0.3-1.1-1-1.9-2.2-1.9c-0.7,0-1.2,0.2-1.6,0.7c-0.5,0.6-0.7,1.2-0.7,3.4s0.1,2.8,0.7,3.4
		c0.4,0.4,1,0.7,1.6,0.7c1.2,0,2-0.8,2.2-1.9h1.7C8,25,6.5,26.2,4.5,26.2z"/>
	<path class="st1" d="M17.1,25c-0.8,0.8-1.7,1.2-2.9,1.2s-2.1-0.4-2.9-1.2c-1.1-1.1-1.1-2.3-1.1-4.4s0-3.3,1.1-4.4
		c0.8-0.8,1.7-1.2,2.9-1.2s2.2,0.4,2.9,1.2c1.1,1.1,1.1,2.3,1.1,4.4S18.2,23.9,17.1,25z M15.9,17.2c-0.4-0.4-1-0.7-1.6-0.7
		c-0.7,0-1.3,0.3-1.6,0.7c-0.5,0.6-0.7,1.2-0.7,3.4s0.1,2.8,0.7,3.4c0.4,0.4,1,0.7,1.6,0.7c0.7,0,1.3-0.3,1.6-0.7
		c0.5-0.6,0.7-1.2,0.7-3.4C16.5,18.4,16.4,17.8,15.9,17.2z"/>
	<path class="st1" d="M20.7,26.1v-11h1.7v9.5h5.3v1.5H20.7z"/>
	<path class="st1" d="M29.6,26.1v-11h1.7v9.5h5.3v1.5H29.6z"/>
	<path class="st1" d="M38.5,26.1v-11h7v1.5h-5.4v3.2h4.6v1.5h-4.6v3.3h5.4v1.5H38.5z"/>
	<path class="st1" d="M51.4,26.2c-1.1,0-2.1-0.4-2.9-1.2c-1.1-1.1-1.1-2.3-1.1-4.4s0-3.3,1.1-4.4c0.8-0.8,1.7-1.2,2.9-1.2
		c2,0,3.5,1.2,3.9,3.4h-1.7c-0.3-1.1-1-1.9-2.2-1.9c-0.7,0-1.2,0.2-1.6,0.7c-0.5,0.6-0.7,1.2-0.7,3.4s0.1,2.8,0.7,3.4
		c0.4,0.4,1,0.7,1.6,0.7c1.2,0,2-0.8,2.2-1.9h1.7C54.9,25,53.4,26.2,51.4,26.2z"/>
	<path class="st1" d="M61,16.6v9.5h-1.7v-9.5h-3v-1.5H64v1.5H61z"/>
	<path class="st1" d="M65.9,26.1v-11h1.7v11H65.9z"/>
	<path class="st1" d="M74,26.1h-1.3l-3.6-11h1.7l2.5,8l2.5-8h1.8L74,26.1z"/>
	<path class="st1" d="M79.2,26.1v-11h7v1.5h-5.4v3.2h4.6v1.5h-4.6v3.3h5.4v1.5H79.2z"/>
</g>
</svg>
