<?xml version="1.0" encoding="utf-8"?>
<!-- Generator: Adobe Illustrator 26.0.3, SVG Export Plug-In . SVG Version: 6.00 Build 0)  -->
<svg version="1.1" id="Layer_1" xmlns="http://www.w3.org/2000/svg" xmlns:xlink="http://www.w3.org/1999/xlink" x="0px" y="0px"
	 viewBox="0 0 115.6 41.4" style="enable-background:new 0 0 115.6 41.4;" xml:space="preserve">
<style type="text/css">
	.st0{fill:#314584;}
	.st1{fill:#FF3946;}
</style>
<g>
	<g>
		<path class="st0" d="M6.7,26.9l-2.4-4.7H2.2v4.7H0.5V15.6h4.4c2.1,0,3.5,1.4,3.5,3.3c0,1.6-1,2.6-2.2,3l2.6,5H6.7z M4.7,17.2H2.2
			v3.5h2.5c1.1,0,1.9-0.6,1.9-1.8S5.9,17.2,4.7,17.2z"/>
		<path class="st0" d="M10.8,26.9V15.6H18v1.5h-5.5v3.3h4.7v1.5h-4.7v3.4H18v1.5L10.8,26.9L10.8,26.9z"/>
		<path class="st0" d="M23.3,27c-1.7,0-2.9-0.4-4-1.5l1.1-1.1c0.8,0.8,1.7,1.1,2.9,1.1c1.5,0,2.3-0.6,2.3-1.7c0-0.5-0.1-0.9-0.4-1.2
			c-0.3-0.3-0.6-0.4-1.2-0.5l-1.3-0.2c-0.9-0.1-1.6-0.4-2.1-0.9c-0.6-0.5-0.8-1.2-0.8-2.1c0-2,1.4-3.3,3.8-3.3
			c1.5,0,2.5,0.4,3.5,1.3L26,18c-0.7-0.7-1.5-0.9-2.4-0.9c-1.3,0-2.1,0.8-2.1,1.8c0,0.4,0.1,0.8,0.4,1c0.2,0.2,0.7,0.4,1.2,0.4
			l1.3,0.2c1,0.2,1.6,0.4,2.1,0.8c0.6,0.6,0.9,1.4,0.9,2.4C27.4,25.7,25.7,27,23.3,27z"/>
		<path class="st0" d="M29.7,26.9V15.6h1.7v11.2h-1.7V26.9z"/>
		<path class="st0" d="M34.3,26.9V15.6H36v9.7h5.4v1.5h-7.1C34.3,26.8,34.3,26.9,34.3,26.9z"/>
		<path class="st0" d="M43.4,26.9V15.6h1.7v11.2h-1.7V26.9z"/>
		<path class="st0" d="M48,26.9V15.6h7.2v1.5h-5.5v3.3h4.7v1.5h-4.7v3.4h5.5v1.5L48,26.9L48,26.9z"/>
		<path class="st0" d="M64.5,26.9L59.3,19v7.9h-1.7V15.6h1.5l5.2,7.9v-7.9h1.7v11.2h-1.5C64.4,26.8,64.4,26.9,64.5,26.9z"/>
		<path class="st0" d="M72.6,27c-1.2,0-2.2-0.4-3-1.2c-1.1-1.1-1.1-2.4-1.1-4.5s0-3.4,1.1-4.5c0.8-0.8,1.8-1.2,3-1.2
			c2.1,0,3.6,1.2,4,3.5h-1.7c-0.3-1.1-1-1.9-2.3-1.9c-0.7,0-1.3,0.3-1.7,0.7c-0.6,0.6-0.7,1.2-0.7,3.5s0.1,2.9,0.7,3.5
			c0.4,0.4,1,0.7,1.7,0.7c1.2,0,2-0.8,2.3-1.9h1.7C76.2,25.8,74.6,27,72.6,27z"/>
		<path class="st0" d="M78.9,26.9V15.6h7.2v1.5h-5.5v3.3h4.7v1.5h-4.7v3.4h5.5v1.5L78.9,26.9L78.9,26.9z"/>
	</g>
	<g>
		<path class="st0" d="M33.5,13c-1.1,0-2.1-0.4-2.9-1.2c-1.1-1.1-1.1-2.3-1.1-4.4s0-3.3,1.1-4.4c0.7-0.8,1.7-1.2,2.9-1.2
			c2,0,3.5,1.2,3.9,3.4h-1.7c-0.3-1.1-1-1.9-2.2-1.9c-0.7,0-1.2,0.2-1.6,0.7c-0.5,0.6-0.7,1.2-0.7,3.4s0.1,2.8,0.7,3.4
			c0.4,0.4,1,0.7,1.6,0.7c1.2,0,2-0.8,2.2-1.9h1.7C37,11.8,35.5,13,33.5,13z"/>
		<path class="st0" d="M46.1,11.8c-0.8,0.8-1.7,1.2-2.9,1.2s-2.1-0.4-2.9-1.2c-1.1-1.1-1.1-2.3-1.1-4.4s0-3.3,1.1-4.4
			c0.8-0.8,1.7-1.2,2.9-1.2s2.2,0.4,2.9,1.2c1.1,1.1,1.1,2.3,1.1,4.4S47.2,10.7,46.1,11.8z M44.9,4c-0.4-0.4-1-0.7-1.6-0.7
			c-0.7,0-1.3,0.3-1.6,0.7C41.2,4.6,41,5.2,41,7.4s0.1,2.8,0.7,3.4c0.4,0.4,1,0.7,1.6,0.7c0.7,0,1.3-0.3,1.6-0.7
			c0.5-0.6,0.7-1.2,0.7-3.4C45.5,5.2,45.4,4.6,44.9,4z"/>
		<path class="st0" d="M49.7,12.9v-11h1.7v9.5h5.3v1.5H49.7z"/>
		<path class="st0" d="M58.6,12.9v-11h1.7v9.5h5.3v1.5H58.6z"/>
		<path class="st0" d="M67.5,12.9v-11h7v1.5h-5.4v3.2h4.6v1.5h-4.6v3.3h5.4v1.5H67.5z"/>
		<path class="st0" d="M80.4,13c-1.1,0-2.1-0.4-2.9-1.2c-1.1-1.1-1.1-2.3-1.1-4.4s0-3.3,1.1-4.4c0.8-0.8,1.7-1.2,2.9-1.2
			c2,0,3.5,1.2,3.9,3.4h-1.7c-0.3-1.1-1-1.9-2.2-1.9c-0.7,0-1.2,0.2-1.6,0.7c-0.5,0.6-0.7,1.2-0.7,3.4s0.1,2.8,0.7,3.4
			c0.4,0.4,1,0.7,1.6,0.7c1.2,0,2-0.8,2.2-1.9h1.7C83.9,11.8,82.4,13,80.4,13z"/>
		<path class="st0" d="M90,3.4v9.5h-1.7V3.4h-3V1.9H93v1.5H90z"/>
		<path class="st0" d="M94.9,12.9v-11h1.7v11H94.9z"/>
		<path class="st0" d="M103,12.9h-1.3l-3.6-11h1.7l2.5,8l2.5-8h1.8L103,12.9z"/>
		<path class="st0" d="M108.2,12.9v-11h7v1.5h-5.4v3.2h4.6v1.5h-4.6v3.3h5.4v1.5H108.2z"/>
	</g>
	<g>
		<path class="st1" d="M57.8,29.5v10h-0.9V28h0.9l6.6,10V28h0.9v11.5h-0.9L57.8,29.5z"/>
		<path class="st1" d="M71.6,38.9c0.9,0,1.5-0.3,2.1-0.9l0.6,0.5c-0.8,0.8-1.5,1.2-2.8,1.2c-2.1,0-3.3-1.4-3.3-4c0-2.5,1.2-4,3.1-4
			s3.1,1.4,3.1,3.8v0.4H69C69,37.8,69.9,38.9,71.6,38.9z M73.3,33.7c-0.3-0.8-1.1-1.3-2-1.3c-0.9,0-1.7,0.5-2,1.3
			c-0.2,0.5-0.2,0.7-0.3,1.5h4.6C73.6,34.4,73.5,34.1,73.3,33.7z"/>
		<path class="st1" d="M77.3,37.5v-5.1h-1.1v-0.6h1.1v-2.5h0.8v2.5h1.8v0.6h-1.8v5.1c0,0.8,0.4,1.3,1.2,1.3h0.6v0.7h-0.7
			C77.9,39.5,77.3,38.7,77.3,37.5z"/>
		<path class="st1" d="M88.7,39.5L86.5,33l-2.2,6.5h-0.8L81,31.7h0.9l2,6.8l2.2-6.8h0.8l2.2,6.8l2-6.8H92l-2.5,7.8H88.7z"/>
		<path class="st1" d="M98.5,38.8c-0.6,0.6-1.3,0.9-2.2,0.9c-0.9,0-1.6-0.3-2.2-0.9c-0.8-0.8-1-2-1-3.1c0-1.1,0.1-2.3,1-3.1
			c0.6-0.6,1.3-0.9,2.2-0.9c0.9,0,1.6,0.3,2.2,0.9c0.8,0.8,1,2,1,3.1C99.5,36.7,99.4,37.9,98.5,38.8z M98,33c-0.4-0.4-1-0.7-1.6-0.7
			c-0.6,0-1.2,0.2-1.6,0.7c-0.6,0.6-0.7,1.7-0.7,2.6c0,0.9,0,2,0.7,2.6c0.4,0.4,1,0.7,1.6,0.7c0.6,0,1.2-0.2,1.6-0.7
			c0.6-0.6,0.7-1.7,0.7-2.6C98.7,34.7,98.6,33.7,98,33z"/>
		<path class="st1" d="M105.1,32.4c-1.3,0-2.1,1.1-2.1,2.4v4.8h-0.8v-7.8h0.8v1c0.5-0.7,1.4-1.1,2.3-1.1c0.8,0,1.3,0.2,1.9,0.7
			l-0.6,0.6C106.1,32.5,105.7,32.4,105.1,32.4z"/>
		<path class="st1" d="M111.4,35.2l-1.8,2v2.2h-0.8V28h0.8v8.1l3.9-4.4h1l-2.6,2.9l3.1,4.9h-1L111.4,35.2z"/>
	</g>
</g>
</svg>
